<?xml version="1.0" standalone="no"?>
<!-- Generator: Adobe Fireworks 10, Export SVG Extension by Aaron Beall (http://fireworks.abeall.com) . Version: 0.6.1  -->
<!DOCTYPE svg PUBLIC "-//W3C//DTD SVG 1.1//EN" "http://www.w3.org/Graphics/SVG/1.1/DTD/svg11.dtd">
<svg id="13.fw-P%E1gina%201" viewBox="0 0 650 210" style="background-color:#ffffff00" version="1.1"
	xmlns="http://www.w3.org/2000/svg" xmlns:xlink="http://www.w3.org/1999/xlink" xml:space="preserve"
	x="0px" y="0px" width="650px" height="210px"
>
	<g id="Camada%201">
		<g>
			<path d="M 66 95.1094 C 66 87.75 65.2969 82.125 63.9219 78.25 C 62.5313 74.375 59.5469 71.0313 54.9688 68.2188 C 50.3906 65.4063 44.6406 64 37.7188 64 C 30.6563 64 24.9063 65.6563 20.4688 68.9375 C 16.0313 72.2188 13.3438 75.8438 12.4063 79.7813 C 11.4688 83.7188 11 90.0469 11 98.75 L 11 125.8281 C 11 132.1094 11.2188 136.8125 11.6563 139.9375 C 12.0938 143.0781 13.2188 146.0781 15 148.9219 C 16.7813 151.7813 19.375 154.1719 22.8125 156.1094 C 26.25 158.0313 29.9375 159 33.875 159 C 37.1563 159 40.0156 158.2813 42.4531 156.8594 C 44.8906 155.4219 46.9063 153.2969 48.5 150.4844 L 50.75 157 L 66 157 L 66 108 L 38 108 L 38 121 L 43 121 L 43 132.5313 C 43 137.0625 42.7031 140.0938 42.1094 141.6563 C 41.5156 143.2188 40.4063 144 38.7656 144 C 37.25 144 36.25 143.3438 35.75 142.0313 C 35.25 140.7188 35 138 35 133.8438 L 35 89.5 C 35 84.7813 35.2344 81.8594 35.7188 80.7188 C 36.1875 79.5781 37.1094 79 38.4531 79 C 39.9844 79 40.9688 79.6563 41.375 80.9688 C 41.7813 82.2813 42 85.5469 42 90.7344 L 42 99 L 66 99 L 66 95.1094 L 66 95.1094 Z" fill="#0068be"/>
			<path d="M 74 82 L 74 157 L 97 157 L 97 127.3594 C 97 120.0938 97.2188 115.4531 97.6563 113.4219 C 98.0938 111.4063 99.25 109.8281 101.1406 108.7031 C 103.0156 107.5781 105.9688 107 110 107 L 110 81 C 104.3125 81.4219 99.9844 85.1875 97 92.3125 L 97 82 L 74 82 L 74 82 Z" fill="#0068be"/>
			<path d="M 144 82 L 144 132.4063 C 144 138.5469 143.8594 142.1875 143.5781 143.3125 C 143.2969 144.4375 142.4375 145 140.9688 145 C 139.5938 145 138.7656 144.4531 138.4531 143.3594 C 138.1406 142.2656 138 138.8125 138 132.9688 L 138 82 L 115 82 L 115 132.3438 C 115 138.7656 115.125 143.0469 115.375 145.2031 C 115.625 147.3594 116.2813 149.4375 117.3281 151.4219 C 118.375 153.4219 120 155.0156 122.2031 156.2031 C 124.4063 157.3906 127.1719 158 130.5156 158 C 133.4531 158 136.0469 157.375 138.2969 156.125 C 140.5469 154.875 142.4531 153 144 150.5 L 143.6563 157 L 167 157 L 167 82 L 144 82 L 144 82 Z" fill="#0068be"/>
			<path d="M 175 82 L 175 168 L 198 168 L 198 150.0625 C 199.9375 152.6875 202.0938 154.6719 204.4531 156 C 206.7969 157.3281 209.3594 158 212.1094 158 C 215.5625 158 218.5156 157.1406 220.9531 155.4531 C 223.3906 153.7656 225.0156 151.4844 225.8125 148.625 C 226.5938 145.7813 227 140.9688 227 134.2031 L 227 102.8906 C 227 97 226.6875 92.8281 226.0625 90.3594 C 225.4375 87.8906 223.8594 85.7188 221.3438 83.8281 C 218.8281 81.9531 215.8438 81 212.3906 81 C 209.5469 81 206.9375 81.6563 204.5625 82.9688 C 202.1719 84.2813 199.9844 86.25 198 88.9063 L 198.3438 82 L 175 82 L 175 82 ZM 204 135.9219 C 204 139.9219 203.8438 142.4219 203.5313 143.4531 C 203.2188 144.4844 202.4219 145 201.1406 145 C 199.8281 145 198.9844 144.4375 198.5938 143.3125 C 198.1875 142.1875 198 139.375 198 134.8594 L 198 103.8594 C 198 99.5469 198.1875 96.8125 198.5625 95.6875 C 198.9375 94.5625 199.7813 94 201.0938 94 C 202.4375 94 203.25 94.5 203.5469 95.4688 C 203.8438 96.4531 204 99.25 204 103.8594 L 204 135.9219 L 204 135.9219 Z" fill="#0068be"/>
			<path d="M 284.9063 96.6875 C 284.1719 94.1094 282.8125 91.6094 280.8281 89.1719 C 278.8438 86.75 276.0313 84.7813 272.375 83.2656 C 268.7188 81.7656 264.3594 81 259.2656 81 C 253.2031 81 248.2188 82.1875 244.3281 84.5313 C 240.4375 86.8906 237.75 90.0156 236.25 93.8906 C 234.75 97.7656 234 103.1563 234 110.0625 L 234 129.1094 C 234 135.4219 234.4063 140.1406 235.2344 143.2969 C 236.0469 146.4531 237.4219 149.1563 239.3594 151.375 C 241.2813 153.5938 243.9844 155.2656 247.4688 156.3594 C 250.9531 157.4375 255.2031 158 260.2188 158 C 264.7188 158 268.6875 157.3438 272.1563 156.0781 C 275.625 154.7969 278.4531 152.7969 280.6719 150.0781 C 282.875 147.375 284.3125 144.4688 284.9844 141.3438 C 285.6563 138.2188 286 133.3281 286 126.6406 L 286 108.4375 C 286 103.1875 285.625 99.2656 284.9063 96.6875 L 284.9063 96.6875 ZM 263 137.2188 C 263 140.4531 262.7969 142.5625 262.4063 143.5313 C 262.0156 144.5156 261.2188 145 260 145 C 258.8125 145 258.0156 144.4688 257.6094 143.3906 C 257.2031 142.3281 257 140.0156 257 136.4844 L 257 102.7344 C 257 98.9063 257.2031 96.5 257.6094 95.5 C 258.0156 94.5 258.8281 94 260.0469 94 C 261.2656 94 262.0625 94.5 262.4375 95.5 C 262.8125 96.5 263 98.9063 263 102.7344 L 263 137.2188 L 263 137.2188 Z" fill="#0068be"/>
			<path d="M 315 157 L 339 157 L 339 116 C 341.7188 116 343.3906 116.5938 344.0313 117.75 C 344.6719 118.9063 345 121.9219 345 126.7813 L 345 157 L 367 157 L 367 133.0469 C 367 125.7344 366.7969 121.25 366.4063 119.625 C 366.0156 118 365.0156 116.2188 363.4063 114.2656 C 361.7813 112.3281 358.6406 110.7656 353.9688 109.6094 C 359.125 109.125 362.5938 107.6563 364.3594 105.2188 C 366.1094 102.7813 367 98 367 90.9063 C 367 83.125 365.7656 77.4688 363.3125 73.9219 C 360.8594 70.375 357.6875 68.1719 353.7969 67.2969 C 349.9063 66.4375 342.4688 66 331.4844 66 L 315 66 L 315 157 L 315 157 ZM 343.7031 82.4063 C 344.5625 83.3438 345 85.2969 345 88.2969 L 345 93.4844 C 345 97.6406 344.5469 100.1094 343.6563 100.8594 C 342.7656 101.625 341.2188 102 339 102 L 339 81 C 341.2813 81 342.8438 81.4688 343.7031 82.4063 L 343.7031 82.4063 Z" fill="#0068be"/>
			<path d="M 427 111.0938 C 427 103.8594 426.1563 98.25 424.5 94.25 C 422.8281 90.25 419.9219 87.0469 415.7969 84.625 C 411.6719 82.2188 406.4219 81 400.0781 81 C 394.875 81 390.2656 82 386.2656 84 C 382.2656 86 379.375 88.875 377.625 92.625 C 375.875 96.375 375 101.5 375 107.9844 L 375 129.6563 C 375 135.1875 375.3906 139.4063 376.1719 142.2969 C 376.9531 145.1875 378.375 147.8438 380.4063 150.25 C 382.4375 152.6563 385.2969 154.5625 388.9688 155.9375 C 392.625 157.2969 396.8594 158 401.6406 158 C 406.5781 158 410.6719 157.2969 413.9531 155.9219 C 417.2188 154.5469 419.9219 152.4688 422.0625 149.7031 C 424.1875 146.9375 425.5469 144.3281 426.125 141.8906 C 426.7031 139.4531 427 135.9688 427 131.4219 L 427 126 L 406 126 L 406 135.6875 C 406 139.3438 405.7031 141.8125 405.1094 143.0938 C 404.5156 144.375 403.3438 145 401.5938 145 C 400.1875 145 399.2344 144.5156 398.7344 143.5469 C 398.2344 142.5781 398 140.4219 398 137.0625 L 398 121 L 427 121 L 427 111.0938 L 427 111.0938 ZM 398 109 L 398 103.4063 C 398 99.0938 398.1563 96.4531 398.5 95.4688 C 398.8438 94.5 399.7188 94 401.1563 94 C 402.2969 94 403.0625 94.5781 403.4375 95.7344 C 403.8125 96.8906 404 99.4531 404 103.4063 L 404 109 L 398 109 L 398 109 Z" fill="#0068be"/>
			<path d="M 466 82 L 464 87.9375 C 462.125 85.625 460 83.8906 457.625 82.7344 C 455.25 81.5781 452.6094 81 449.7188 81 C 444.4063 81 440.4688 82.5781 437.875 85.7031 C 435.2813 88.8438 434 93.9844 434 101.1094 L 434 128.4375 C 434 133.4219 434.4844 137.2656 435.4688 139.9688 C 436.4375 142.6719 438.25 144.8594 440.9063 146.5156 C 443.5625 148.1719 446.9375 149 451.0313 149 C 453.3906 149 455.6563 148.5469 457.8125 147.625 C 459.9688 146.7031 462.0313 145.3281 464 143.5156 L 464 149.1406 C 464 152.3594 463.7031 154.4844 463.1406 155.4844 C 462.5625 156.5 461.4063 157 459.6563 157 C 457.2188 157 456 155.3438 456 152 L 434 152 C 434.1563 159.125 436.4531 163.9063 440.8906 166.3594 C 445.3281 168.7813 451.2188 170 458.5625 170 C 464.5313 170 469.4688 169.3281 473.4063 168 C 477.3438 166.6406 480.4063 164.7031 482.6094 162.1719 C 484.8125 159.6094 486.0938 157.2031 486.4531 154.9219 C 486.8125 152.6406 487 147.6094 487 139.7969 L 487 82 L 466 82 L 466 82 ZM 464 125.7969 C 464 130.1406 463.7656 132.9375 463.2969 134.1563 C 462.8281 135.3906 461.8281 136 460.2969 136 C 458.9375 136 458.0469 135.5 457.625 134.4844 C 457.2031 133.4688 457 131.25 457 127.8125 L 457 102.125 C 457 98.9063 457.2656 96.7344 457.8281 95.6406 C 458.3906 94.5469 459.3438 94 460.7031 94 C 462.0781 94 462.9844 94.4844 463.3906 95.4375 C 463.7969 96.4063 464 98.625 464 102.125 L 464 125.7969 L 464 125.7969 Z" fill="#0068be"/>
			<path d="M 495 82 L 495 157 L 518 157 L 518 127.3594 C 518 120.0938 518.2188 115.4531 518.6563 113.4219 C 519.0938 111.4063 520.25 109.8281 522.1406 108.7031 C 524.0156 107.5781 526.9688 107 531 107 L 531 81 C 525.3125 81.4219 520.9844 85.1875 518 92.3125 L 518 82 L 495 82 L 495 82 Z" fill="#0068be"/>
			<path d="M 585.9063 96.6875 C 585.1719 94.1094 583.8125 91.6094 581.8281 89.1719 C 579.8438 86.75 577.0313 84.7813 573.375 83.2656 C 569.7188 81.7656 565.3594 81 560.2656 81 C 554.2031 81 549.2188 82.1875 545.3281 84.5313 C 541.4375 86.8906 538.75 90.0156 537.25 93.8906 C 535.75 97.7656 535 103.1563 535 110.0625 L 535 129.1094 C 535 135.4219 535.4063 140.1406 536.2344 143.2969 C 537.0469 146.4531 538.4219 149.1563 540.3594 151.375 C 542.2813 153.5938 544.9844 155.2656 548.4688 156.3594 C 551.9531 157.4375 556.2031 158 561.2188 158 C 565.7188 158 569.6875 157.3438 573.1563 156.0781 C 576.625 154.7969 579.4531 152.7969 581.6719 150.0781 C 583.875 147.375 585.3125 144.4688 585.9844 141.3438 C 586.6563 138.2188 587 133.3281 587 126.6406 L 587 108.4375 C 587 103.1875 586.625 99.2656 585.9063 96.6875 L 585.9063 96.6875 ZM 564 137.2188 C 564 140.4531 563.7969 142.5625 563.4063 143.5313 C 563.0156 144.5156 562.2188 145 561 145 C 559.8125 145 559.0156 144.4688 558.6094 143.3906 C 558.2031 142.3281 558 140.0156 558 136.4844 L 558 102.7344 C 558 98.9063 558.2031 96.5 558.6094 95.5 C 559.0156 94.5 559.8281 94 561.0469 94 C 562.2656 94 563.0625 94.5 563.4375 95.5 C 563.8125 96.5 564 98.9063 564 102.7344 L 564 137.2188 L 564 137.2188 Z" fill="#0068be"/>
			<path d="M 595 82 L 595 157 L 618 157 L 618 106.3594 C 618 100.7188 618.1719 97.25 618.5313 95.9531 C 618.875 94.6563 619.75 94 621.1406 94 C 622.4531 94 623.2656 94.5781 623.5625 95.7031 C 623.8438 96.8281 624 99.9688 624 105.125 L 624 157 L 647 157 L 647 104.6875 C 647 98.1563 646.6406 93.5 645.9531 90.7031 C 645.25 87.9219 643.6875 85.6094 641.2813 83.7656 C 638.8594 81.9219 635.75 81 631.9531 81 C 628.9063 81 626.2188 81.6875 623.9063 83.0625 C 621.5781 84.4375 619.6094 86.5 618 89.25 L 618 82 L 595 82 L 595 82 Z" fill="#0068be"/>
		</g>
	</g>
</svg>