<?xml version="1.0" standalone="no"?>
<!-- Generator: Adobe Fireworks 10, Export SVG Extension by Aaron Beall (http://fireworks.abeall.com) . Version: 0.6.1  -->
<!DOCTYPE svg PUBLIC "-//W3C//DTD SVG 1.1//EN" "http://www.w3.org/Graphics/SVG/1.1/DTD/svg11.dtd">
<svg id="06.fw-P%E1gina%201" viewBox="0 0 650 210" style="background-color:#ffffff00" version="1.1"
	xmlns="http://www.w3.org/2000/svg" xmlns:xlink="http://www.w3.org/1999/xlink" xml:space="preserve"
	x="0px" y="0px" width="650px" height="210px"
>
	<g id="Camada%201">
		<g>
			<path d="M 57.25 62 L 51.5 104.5 L 47.8281 81.4688 L 44.75 62 L 15 62 L 15 153 L 36 153 L 36.5 92.5625 L 44 153 L 58 153 L 65.5 91.5625 L 66 153 L 87 153 L 87 62 L 57.25 62 L 57.25 62 Z" fill="#0068be"/>
			<path d="M 116 99.2031 C 116 95.0469 116.1719 92.4844 116.5469 91.4844 C 116.9063 90.5 117.8438 90 119.3438 90 C 120.6563 90 121.5938 90.5938 122.1563 91.7656 C 122.7188 92.9531 123 95.4844 123 99.375 C 123 102.4844 122.7344 104.5469 122.2188 105.5469 C 121.7031 106.5625 117.7813 108.5313 110.4688 111.4375 C 103.6094 114.1406 99.3125 116.5 97.5938 118.5156 C 95.8594 120.5469 95 124.3438 95 129.9063 L 95 136.0313 C 95 143.5625 96.5938 148.4375 99.7813 150.6563 C 102.9688 152.8906 106.4688 154 110.2969 154 C 113.2031 154 115.7188 153.3281 117.8281 152.0156 C 119.9375 150.6875 121.6563 148.7031 123 146.0469 L 123 153 L 146 153 L 146 115.5313 C 146 103.2031 145.6094 95.0625 144.8281 91.0938 C 144.0469 87.1406 141.7031 83.7969 137.8281 81.0781 C 133.9375 78.3594 128.1719 77 120.5313 77 C 114.1406 77 108.9531 78.2031 104.9531 80.5781 C 100.9531 82.9531 98.2969 85.7031 96.9844 88.7969 C 95.6563 91.9063 95 96.3125 95 102.0313 L 95 107 L 116 107 L 116 99.2031 L 116 99.2031 ZM 123 132.6719 C 123 136.4531 122.7813 138.7969 122.375 139.6719 C 121.9531 140.5625 121.0469 141 119.6719 141 C 118.2031 141 117.2344 140.4375 116.7344 139.3125 C 116.2344 138.1875 116 135.6719 116 131.7656 C 116 128.375 116.2813 125.7656 116.8438 123.9531 C 117.4063 122.1406 119.4688 119.9063 123 117.2188 L 123 132.6719 L 123 132.6719 Z" fill="#0068be"/>
			<path d="M 200 97.7031 C 200 93.9844 199.7969 91.25 199.4063 89.5 C 199.0156 87.75 197.8906 85.8594 196.0469 83.8125 C 194.1875 81.7656 191.5313 80.125 188.0625 78.875 C 184.5938 77.625 180.4063 77 175.4688 77 C 170.4844 77 166.1094 77.7813 162.3594 79.3125 C 158.5938 80.8438 155.9219 83.0313 154.3594 85.8438 C 152.7813 88.6719 152 93.0625 152 99 C 152 103.2031 152.7031 106.8281 154.125 109.875 C 155.5313 112.9375 159.4844 116.3281 165.9688 120.0625 C 173.6875 124.4844 177.9531 127.1406 178.7969 128.0313 C 179.5938 128.9375 180 131.1563 180 134.7188 C 180 137.3125 179.6719 139 179.0469 139.7969 C 178.4219 140.6094 177.3125 141 175.7188 141 C 174.2344 141 173.25 140.375 172.75 139.125 C 172.25 137.875 172 135.1406 172 130.9375 L 172 126 L 152 126 L 152 129.6563 C 152 135.9844 152.7656 140.7031 154.2969 143.8281 C 155.8281 146.9531 158.625 149.4375 162.7188 151.2656 C 166.8125 153.0781 171.7344 154 177.4844 154 C 182.6719 154 187.0938 153.1563 190.7813 151.5 C 194.4531 149.8438 197.0781 147.4688 198.6406 144.375 C 200.2031 141.2813 201 136.7031 201 130.6406 C 201 125.2188 199.9688 121.0781 197.9375 118.2344 C 195.875 115.3906 191.5781 112.3594 185.0469 109.1406 C 180.1406 106.7188 176.8906 104.875 175.3125 103.5938 C 173.7344 102.3125 172.7813 101.1406 172.4688 100.0781 C 172.1563 99.0156 172 97.3438 172 95.0469 C 172 93.375 172.3438 92.1094 173.0313 91.2656 C 173.7188 90.4219 174.7656 90 176.1563 90 C 177.8594 90 178.9219 90.4688 179.3594 91.3906 C 179.7813 92.3125 180 94.5 180 97.9375 L 180 102 L 200 102 L 200 97.7031 L 200 97.7031 Z" fill="#0068be"/>
			<path d="M 209 69 L 209 80 L 204 80 L 204 92 L 209 92 L 209 129.8906 C 209 137.3281 209.2031 142.0469 209.625 144.0469 C 210.0313 146.0469 211.0938 147.8281 212.7813 149.375 C 214.4688 150.9375 216.4375 151.9219 218.6563 152.3594 C 220.875 152.7969 224.5938 153 229.7969 153 L 239 153 L 239 141 C 235.3281 141 233.25 140.7188 232.75 140.1563 C 232.25 139.5938 232 136.8594 232 131.9375 L 232 92 L 238 92 L 238 80 L 232 80 L 232 69 L 209 69 L 209 69 Z" fill="#0068be"/>
			<path d="M 294 107.0938 C 294 99.8594 293.1563 94.25 291.5 90.25 C 289.8281 86.25 286.9219 83.0469 282.7969 80.625 C 278.6719 78.2188 273.4219 77 267.0781 77 C 261.875 77 257.2656 78 253.2656 80 C 249.2656 82 246.375 84.875 244.625 88.625 C 242.875 92.375 242 97.5 242 103.9844 L 242 125.6563 C 242 131.1875 242.3906 135.4063 243.1719 138.2969 C 243.9531 141.1875 245.375 143.8438 247.4063 146.25 C 249.4375 148.6563 252.2969 150.5625 255.9688 151.9375 C 259.625 153.2969 263.8594 154 268.6406 154 C 273.5781 154 277.6719 153.2969 280.9531 151.9219 C 284.2188 150.5469 286.9219 148.4688 289.0625 145.7031 C 291.1875 142.9375 292.5469 140.3281 293.125 137.8906 C 293.7031 135.4531 294 131.9688 294 127.4219 L 294 122 L 273 122 L 273 131.6875 C 273 135.3438 272.7031 137.8125 272.1094 139.0938 C 271.5156 140.375 270.3438 141 268.5938 141 C 267.1875 141 266.2344 140.5156 265.7344 139.5469 C 265.2344 138.5781 265 136.4219 265 133.0625 L 265 117 L 294 117 L 294 107.0938 L 294 107.0938 ZM 265 105 L 265 99.4063 C 265 95.0938 265.1563 92.4531 265.5 91.4688 C 265.8438 90.5 266.7188 90 268.1563 90 C 269.2969 90 270.0625 90.5781 270.4375 91.7344 C 270.8125 92.8906 271 95.4531 271 99.4063 L 271 105 L 265 105 L 265 105 Z" fill="#0068be"/>
			<path d="M 302 78 L 302 153 L 325 153 L 325 123.3594 C 325 116.0938 325.2188 111.4531 325.6563 109.4219 C 326.0938 107.4063 327.25 105.8281 329.1406 104.7031 C 331.0156 103.5781 333.9688 103 338 103 L 338 77 C 332.3125 77.4219 327.9844 81.1875 325 88.3125 L 325 78 L 302 78 L 302 78 Z" fill="#0068be"/>
			<path d="M 364 153 L 391.3281 153 C 400.8281 153 407.125 152.4531 410.1875 151.3594 C 413.25 150.2656 415.4844 148.2344 416.8906 145.25 C 418.2969 142.2656 419 137.6719 419 131.4844 L 419 122.9844 C 419 117.0156 418 112.5938 416 109.7031 C 414 106.8281 410.2188 104.75 404.625 103.5 C 409.5313 102.3906 412.8281 100.7969 414.5 98.7188 C 416.1563 96.6406 417 92.9688 417 87.6875 C 417 79.8906 415.8281 74.2344 413.4844 70.7188 C 411.1406 67.2188 408.0625 64.8906 404.25 63.7344 C 400.4375 62.5781 394.8281 62 387.4375 62 L 364 62 L 364 153 L 364 153 ZM 392.4375 77.5313 C 393.1875 77.8438 393.8125 78.5781 394.2813 79.7656 C 394.75 80.9531 395 83.0313 395 85.9844 C 395 91.5938 394.7031 94.9844 394.1406 96.1719 C 393.5625 97.3594 392.2188 97.9375 390.125 97.9375 C 389.625 97.9375 388.9063 97.9688 388 98 L 388 77 C 390.1875 77.0469 391.6719 77.2188 392.4375 77.5313 L 392.4375 77.5313 ZM 393.875 113.4375 C 394.625 114.2813 395 116.7031 395 120.6719 L 395 129.3281 C 395 133.0781 394.5781 135.4375 393.75 136.3906 C 392.9219 137.3594 391 137.8906 388 138 L 388 112 C 391.1719 112.125 393.125 112.5938 393.875 113.4375 L 393.875 113.4375 Z" fill="#0068be"/>
			<path d="M 427 78 L 427 153 L 450 153 L 450 123.3594 C 450 116.0938 450.2188 111.4531 450.6563 109.4219 C 451.0938 107.4063 452.25 105.8281 454.1406 104.7031 C 456.0156 103.5781 458.9688 103 463 103 L 463 77 C 457.3125 77.4219 452.9844 81.1875 450 88.3125 L 450 78 L 427 78 L 427 78 Z" fill="#0068be"/>
			<path d="M 488 99.2031 C 488 95.0469 488.1719 92.4844 488.5469 91.4844 C 488.9063 90.5 489.8438 90 491.3438 90 C 492.6563 90 493.5938 90.5938 494.1563 91.7656 C 494.7188 92.9531 495 95.4844 495 99.375 C 495 102.4844 494.7344 104.5469 494.2188 105.5469 C 493.7031 106.5625 489.7813 108.5313 482.4688 111.4375 C 475.6094 114.1406 471.3125 116.5 469.5938 118.5156 C 467.8594 120.5469 467 124.3438 467 129.9063 L 467 136.0313 C 467 143.5625 468.5938 148.4375 471.7813 150.6563 C 474.9688 152.8906 478.4688 154 482.2969 154 C 485.2031 154 487.7188 153.3281 489.8281 152.0156 C 491.9375 150.6875 493.6563 148.7031 495 146.0469 L 495 153 L 518 153 L 518 115.5313 C 518 103.2031 517.6094 95.0625 516.8281 91.0938 C 516.0469 87.1406 513.7031 83.7969 509.8281 81.0781 C 505.9375 78.3594 500.1719 77 492.5313 77 C 486.1406 77 480.9531 78.2031 476.9531 80.5781 C 472.9531 82.9531 470.2969 85.7031 468.9844 88.7969 C 467.6563 91.9063 467 96.3125 467 102.0313 L 467 107 L 488 107 L 488 99.2031 L 488 99.2031 ZM 495 132.6719 C 495 136.4531 494.7813 138.7969 494.375 139.6719 C 493.9531 140.5625 493.0469 141 491.6719 141 C 490.2031 141 489.2344 140.4375 488.7344 139.3125 C 488.2344 138.1875 488 135.6719 488 131.7656 C 488 128.375 488.2813 125.7656 488.8438 123.9531 C 489.4063 122.1406 491.4688 119.9063 495 117.2188 L 495 132.6719 L 495 132.6719 Z" fill="#0068be"/>
			<path d="M 572 97.7031 C 572 93.9844 571.7969 91.25 571.4063 89.5 C 571.0156 87.75 569.8906 85.8594 568.0469 83.8125 C 566.1875 81.7656 563.5313 80.125 560.0625 78.875 C 556.5938 77.625 552.4063 77 547.4688 77 C 542.4844 77 538.1094 77.7813 534.3594 79.3125 C 530.5938 80.8438 527.9219 83.0313 526.3594 85.8438 C 524.7813 88.6719 524 93.0625 524 99 C 524 103.2031 524.7031 106.8281 526.125 109.875 C 527.5313 112.9375 531.4844 116.3281 537.9688 120.0625 C 545.6875 124.4844 549.9531 127.1406 550.7969 128.0313 C 551.5938 128.9375 552 131.1563 552 134.7188 C 552 137.3125 551.6719 139 551.0469 139.7969 C 550.4219 140.6094 549.3125 141 547.7188 141 C 546.2344 141 545.25 140.375 544.75 139.125 C 544.25 137.875 544 135.1406 544 130.9375 L 544 126 L 524 126 L 524 129.6563 C 524 135.9844 524.7656 140.7031 526.2969 143.8281 C 527.8281 146.9531 530.625 149.4375 534.7188 151.2656 C 538.8125 153.0781 543.7344 154 549.4844 154 C 554.6719 154 559.0938 153.1563 562.7813 151.5 C 566.4531 149.8438 569.0781 147.4688 570.6406 144.375 C 572.2031 141.2813 573 136.7031 573 130.6406 C 573 125.2188 571.9688 121.0781 569.9375 118.2344 C 567.875 115.3906 563.5781 112.3594 557.0469 109.1406 C 552.1406 106.7188 548.8906 104.875 547.3125 103.5938 C 545.7344 102.3125 544.7813 101.1406 544.4688 100.0781 C 544.1563 99.0156 544 97.3438 544 95.0469 C 544 93.375 544.3438 92.1094 545.0313 91.2656 C 545.7188 90.4219 546.7656 90 548.1563 90 C 549.8594 90 550.9219 90.4688 551.3594 91.3906 C 551.7813 92.3125 552 94.5 552 97.9375 L 552 102 L 572 102 L 572 97.7031 L 572 97.7031 Z" fill="#0068be"/>
			<path d="M 580 62 L 580 74 L 603 74 L 603 62 L 580 62 L 580 62 ZM 580 78 L 580 153 L 603 153 L 603 78 L 580 78 L 580 78 Z" fill="#0068be"/>
			<path d="M 612 62 L 612 153 L 635 153 L 635 62 L 612 62 L 612 62 Z" fill="#0068be"/>
		</g>
	</g>
</svg>