<?xml version="1.0" standalone="no"?>
<!-- Generator: Adobe Fireworks 10, Export SVG Extension by Aaron Beall (http://fireworks.abeall.com) . Version: 0.6.1  -->
<!DOCTYPE svg PUBLIC "-//W3C//DTD SVG 1.1//EN" "http://www.w3.org/Graphics/SVG/1.1/DTD/svg11.dtd">
<svg id="17.fw-P%E1gina%201" viewBox="0 0 650 210" style="background-color:#ffffff00" version="1.1"
	xmlns="http://www.w3.org/2000/svg" xmlns:xlink="http://www.w3.org/1999/xlink" xml:space="preserve"
	x="0px" y="0px" width="650px" height="210px"
>
	<g id="Camada%201">
		<g>
			<path d="M 66 49 L 64 71.4844 L 58.5 133.125 L 50 49 L 18 49 L 36.25 168 L 81.75 168 L 98 49 L 66 49 L 66 49 Z" fill="#000000"/>
			<path d="M 103 49 L 103 64 L 133 64 L 133 49 L 103 49 L 103 49 ZM 103 71 L 103 168 L 133 168 L 133 71 L 103 71 L 103 71 Z" fill="#000000"/>
			<path d="M 171 97.9063 C 171 92.5313 171.2344 89.2031 171.7031 87.9219 C 172.1719 86.6406 173.3594 86 175.2969 86 C 176.9844 86 178.1875 86.7656 178.9063 88.2813 C 179.625 89.8125 180 93.0781 180 98.1094 C 180 102.125 179.6563 104.7969 178.9688 106.1094 C 178.2813 107.4219 173.1094 110.0156 163.4375 113.8594 C 154.375 117.4219 148.7031 120.5313 146.4219 123.1875 C 144.1406 125.8594 143 130.875 143 138.2188 L 143 146.2969 C 143 156.2344 145.1563 162.6563 149.4844 165.5938 C 153.8125 168.5313 158.5781 170 163.7656 170 C 167.7188 170 171.125 169.1094 173.9844 167.3438 C 176.8438 165.5625 179.1875 162.9063 181 159.3594 L 181 168 L 210 168 L 210 119.2031 C 210 103.1406 209.4844 92.5156 208.4531 87.3594 C 207.4219 82.2031 204.3438 77.8594 199.25 74.3125 C 194.1563 70.7813 186.5781 69 176.5313 69 C 168.1406 69 161.3281 70.5469 156.0781 73.6406 C 150.8281 76.7344 147.3438 80.3125 145.6094 84.3438 C 143.8594 88.375 143 94.1094 143 101.5469 L 143 108 L 171 108 L 171 97.9063 L 171 97.9063 ZM 180 141.9219 C 180 146.9531 179.7188 150.0469 179.1875 151.2344 C 178.6563 152.4219 177.5 153 175.7188 153 C 173.8438 153 172.5781 152.25 171.9531 150.7344 C 171.3125 149.2344 171 145.8906 171 140.7031 C 171 136.1875 171.3594 132.7188 172.0938 130.3125 C 172.8125 127.9063 175.4531 124.9063 180 121.3281 L 180 141.9219 L 180 141.9219 Z" fill="#000000"/>
			<path d="M 319 89.7656 C 319 78.7344 318.0625 70.5938 316.2031 65.3594 C 314.3438 60.1406 310.4531 55.7656 304.5469 52.2656 C 298.625 48.7656 291.1094 47 282.0156 47 C 275.3125 47 269.375 48.1406 264.2188 50.3906 C 259.0625 52.6563 255.0313 55.75 252.125 59.6875 C 249.2188 63.625 247.4688 67.7188 246.875 71.9688 C 246.2813 76.2188 246 82.6094 246 91.1094 L 246 125.5938 C 246 137.1719 246.9531 145.8438 248.8594 151.5938 C 250.7656 157.3594 254.6406 161.875 260.5156 165.125 C 266.3906 168.3594 273.8438 170 282.9063 170 C 291.6094 170 298.9375 168.0625 304.875 164.2188 C 310.8125 160.3594 314.6563 155.8594 316.3906 150.7188 C 318.125 145.5938 319 136.8906 319 124.625 L 319 120 L 288 120 L 288 134.9219 C 288 141.4531 287.6406 145.5938 286.9531 147.3594 C 286.2656 149.125 284.7813 150 282.5313 150 C 280.1875 150 278.6719 149.125 278 147.375 C 277.3281 145.625 277 141.8906 277 136.1563 L 277 81.3594 C 277 75.3906 277.3281 71.5 278 69.7031 C 278.6719 67.9063 280.25 67 282.75 67 C 284.9531 67 286.375 67.75 287.0313 69.2344 C 287.6719 70.7188 288 74.4531 288 80.4219 L 288 101 L 319 101 L 319 89.7656 L 319 89.7656 Z" fill="#000000"/>
			<path d="M 356 97.9063 C 356 92.5313 356.2344 89.2031 356.7031 87.9219 C 357.1719 86.6406 358.3594 86 360.2969 86 C 361.9844 86 363.1875 86.7656 363.9063 88.2813 C 364.625 89.8125 365 93.0781 365 98.1094 C 365 102.125 364.6563 104.7969 363.9688 106.1094 C 363.2813 107.4219 358.1094 110.0156 348.4375 113.8594 C 339.375 117.4219 333.7031 120.5313 331.4219 123.1875 C 329.1406 125.8594 328 130.875 328 138.2188 L 328 146.2969 C 328 156.2344 330.1563 162.6563 334.4844 165.5938 C 338.8125 168.5313 343.5781 170 348.7656 170 C 352.7188 170 356.125 169.1094 358.9844 167.3438 C 361.8438 165.5625 364.1875 162.9063 366 159.3594 L 366 168 L 395 168 L 395 119.2031 C 395 103.1406 394.4844 92.5156 393.4531 87.3594 C 392.4219 82.2031 389.3438 77.8594 384.25 74.3125 C 379.1563 70.7813 371.5781 69 361.5313 69 C 353.1406 69 346.3281 70.5469 341.0781 73.6406 C 335.8281 76.7344 332.3438 80.3125 330.6094 84.3438 C 328.8594 88.375 328 94.1094 328 101.5469 L 328 108 L 356 108 L 356 97.9063 L 356 97.9063 ZM 365 141.9219 C 365 146.9531 364.7188 150.0469 364.1875 151.2344 C 363.6563 152.4219 362.5 153 360.7188 153 C 358.8438 153 357.5781 152.25 356.9531 150.7344 C 356.3125 149.2344 356 145.8906 356 140.7031 C 356 136.1875 356.3594 132.7188 357.0938 130.3125 C 357.8125 127.9063 360.4531 124.9063 365 121.3281 L 365 141.9219 L 365 141.9219 Z" fill="#000000"/>
			<path d="M 405 71 L 405 168 L 435 168 L 435 129.4688 C 435 120.0156 435.2969 113.9688 435.9063 111.3438 C 436.5 108.7188 438.1094 106.6719 440.7188 105.2031 C 443.3281 103.7344 447.4219 103 453 103 L 453 69 C 444.7031 69.5625 438.375 74.5938 434 84.0625 L 435 71 L 405 71 L 405 71 Z" fill="#000000"/>
			<path d="M 497 49 L 497 77.0625 C 494.4688 74.375 491.6719 72.3594 488.5938 71.0156 C 485.5 69.6719 482.1094 69 478.4219 69 C 473.6406 69 469.5156 70.1875 466.0625 72.5625 C 462.6094 74.9375 460.4063 77.7031 459.4375 80.8281 C 458.4688 83.9688 458 89.2813 458 96.7656 L 458 142.375 C 458 149.5781 458.4688 154.7656 459.4375 157.9531 C 460.4063 161.1406 462.5781 163.9531 465.9844 166.375 C 469.3906 168.7813 473.4063 170 478.0625 170 C 481.5 170 484.8125 169.2344 487.9688 167.7344 C 491.125 166.2188 494.125 163.9531 497 160.9219 L 497 168 L 527 168 L 527 49 L 497 49 L 497 49 ZM 497 140.5625 C 497 146.0469 496.6719 149.4844 496.0469 150.8906 C 495.4063 152.2969 494.1406 153 492.25 153 C 490.5781 153 489.4531 152.375 488.875 151.1094 C 488.2813 149.8594 488 147.2344 488 143.2344 L 488 95.1094 C 488 91.2656 488.2969 88.7813 488.9063 87.6719 C 489.5156 86.5625 490.7031 86 492.4688 86 C 494.2656 86 495.4688 86.625 496.0781 87.8594 C 496.6875 89.0938 497 91.5156 497 95.1094 L 497 140.5625 L 497 140.5625 Z" fill="#000000"/>
			<path d="M 594.5625 148 C 610.8438 123.3594 620.6563 107.2344 624 99.6406 C 627.3281 92.0469 629 84.8281 629 78.0156 C 629 69.0469 626.0156 61.6406 620.0469 55.7813 C 614.0781 49.9375 605.2813 47 593.6563 47 C 587.7188 47 582.625 47.9688 578.375 49.8906 C 574.125 51.8125 570.6719 54.6406 568.0156 58.3906 C 565.3594 62.1406 563.6875 65.9375 563.0156 69.7969 C 562.3281 73.6719 562 78.9531 562 85.6406 L 562 90 L 588 90 L 588 78.4375 C 588 73.0938 588.5469 69.5156 589.6406 67.7031 C 590.7344 65.9063 592.3906 65 594.625 65 C 596.8438 65 598.5156 65.7969 599.6094 67.3906 C 600.7031 68.9844 601.25 71.4063 601.25 74.625 C 601.25 78.8438 599.4688 84.7188 595.9063 92.2344 C 592.3438 99.7656 581.125 119.3438 562.25 151 L 562 168 L 626 168 L 626 148 L 594.5625 148 L 594.5625 148 Z" fill="#000000"/>
		</g>
	</g>
</svg>