<?xml version="1.0" standalone="no"?>
<!-- Generator: Adobe Fireworks 10, Export SVG Extension by Aaron Beall (http://fireworks.abeall.com) . Version: 0.6.1  -->
<!DOCTYPE svg PUBLIC "-//W3C//DTD SVG 1.1//EN" "http://www.w3.org/Graphics/SVG/1.1/DTD/svg11.dtd">
<svg id="35.fw-P%E1gina%201" viewBox="0 0 519 210" style="background-color:#ffffff00" version="1.1"
	xmlns="http://www.w3.org/2000/svg" xmlns:xlink="http://www.w3.org/1999/xlink" xml:space="preserve"
	x="0px" y="0px" width="519px" height="210px"
>
	<g id="Camada%201">
		<g>
			<path d="M 26 184 L 67 184 L 67 120 L 77.9219 120 C 86.8281 120 94.0313 118.7813 99.5469 116.3125 C 105.0469 113.8438 108.8438 110.3125 110.9063 105.7188 C 112.9688 101.125 114 93.7969 114 83.7344 L 114 70.0313 C 114 60.1875 113.4531 52.9219 112.3906 48.2188 C 111.3281 43.5313 109.2813 39.5313 106.2813 36.2188 C 103.2813 32.9063 98.7813 30.375 92.7969 28.625 C 86.8125 26.875 78.2656 26 67.1406 26 L 26 26 L 26 184 L 26 184 ZM 77.4688 55.4219 C 79.1563 57.0469 80 60.5313 80 65.875 L 80 78.7656 C 80 84.5781 79.2656 88.4063 77.8125 90.25 C 76.3594 92.0938 73.75 93 70 93 C 69.1563 93 68.1563 92.9688 67 92.9063 L 67 53 C 72.2969 53 75.7813 53.8125 77.4688 55.4219 L 77.4688 55.4219 Z" fill="#000000"/>
			<path d="M 125 54 L 125 184 L 164 184 L 164 133.0156 C 164 120.5156 164.375 112.5156 165.1563 109.0469 C 165.9219 105.5781 167.9688 102.875 171.3125 100.9219 C 174.6406 98.9844 179.875 98 187 98 L 187 52 C 176.0781 52.7344 167.75 59.3281 162 71.7813 L 163 54 L 125 54 L 125 54 Z" fill="#000000"/>
			<path d="M 197 26 L 197 47 L 238 47 L 238 26 L 197 26 L 197 26 ZM 197 54 L 197 184 L 238 184 L 238 54 L 197 54 L 197 54 Z" fill="#000000"/>
			<path d="M 252 54 L 252 184 L 290 184 L 290 94.1406 C 290 87.8906 290.0625 83.8125 290.1875 81.8906 C 290.3125 79.9688 291.0156 78.3438 292.2813 77 C 293.5313 75.6719 295.0625 75 296.8438 75 C 299.6875 75 301.4219 76.2813 302.0469 78.8125 C 302.6719 81.3594 303 88.9688 303 101.6563 L 303 184 L 341 184 L 341 99.5156 C 341 88.3906 341.4063 81.5156 342.2188 78.9063 C 343.0313 76.3125 344.8281 75 347.6406 75 C 350.375 75 352.125 76.3281 352.875 78.9531 C 353.625 81.5938 354 88.4531 354 99.5156 L 354 184 L 392 184 L 392 91.8594 C 392 81.25 391.375 73.5781 390.1563 68.8594 C 388.9219 64.1406 386.125 60.1406 381.75 56.8906 C 377.375 53.6406 371.8438 52 365.1875 52 C 360.125 52 355.5313 53.2344 351.3906 55.7031 C 347.2344 58.1719 343.5156 61.8594 340.2188 66.7969 C 334.1719 56.9375 325.8906 52 315.3594 52 C 309.9531 52 305.1406 53.2344 300.9219 55.7031 C 296.6875 58.1719 293.0469 61.8594 290 66.7969 L 291 54 L 252 54 L 252 54 Z" fill="#000000"/>
			<path d="M 495 103.9219 C 495 91.4375 493.5469 81.75 490.6719 74.8594 C 487.7969 67.9688 482.7813 62.4375 475.625 58.2656 C 468.4688 54.0938 459.3906 52 448.3906 52 C 439.3906 52 431.4375 53.75 424.5156 57.2188 C 417.5781 60.6875 412.5938 65.6875 409.5625 72.2188 C 406.5156 78.75 405 87.6719 405 98.9688 L 405 136.6875 C 405 146.3125 405.6719 153.6406 407.0313 158.6719 C 408.3906 163.7031 410.8281 168.3125 414.3594 172.5 C 417.8906 176.6875 422.8281 179.9844 429.1719 182.3906 C 435.5156 184.7969 442.8281 186 451.1094 186 C 459.6563 186 466.7656 184.7656 472.4219 182.3125 C 478.0781 179.8438 482.7656 176.1563 486.4531 171.2188 C 490.1406 166.2813 492.4844 161.6563 493.4844 157.3125 C 494.4844 152.9688 495 146.7656 495 138.6719 L 495 129 L 458 129 L 458 146.3438 C 458 152.8906 457.4844 157.2969 456.4531 159.5781 C 455.4219 161.8594 453.3594 163 450.2969 163 C 447.8281 163 446.1563 162.1563 445.2969 160.4531 C 444.4219 158.7656 444 154.9688 444 149.0938 L 444 121 L 495 121 L 495 103.9219 L 495 103.9219 ZM 444 100 L 444 90.6719 C 444 83.5 444.3281 79.0938 445.0156 77.4531 C 445.6875 75.8281 447.4531 75 450.3125 75 C 452.6094 75 454.125 75.9688 454.875 77.8906 C 455.625 79.8125 456 84.0781 456 90.6719 L 456 100 L 444 100 L 444 100 Z" fill="#000000"/>
		</g>
	</g>
</svg>