<?xml version="1.0" standalone="no"?>
<!-- Generator: Adobe Fireworks 10, Export SVG Extension by Aaron Beall (http://fireworks.abeall.com) . Version: 0.6.1  -->
<!DOCTYPE svg PUBLIC "-//W3C//DTD SVG 1.1//EN" "http://www.w3.org/Graphics/SVG/1.1/DTD/svg11.dtd">
<svg id="38.fw-P%E1gina%201" viewBox="0 0 359 156" style="background-color:#ffffff00" version="1.1"
	xmlns="http://www.w3.org/2000/svg" xmlns:xlink="http://www.w3.org/1999/xlink" xml:space="preserve"
	x="0px" y="0px" width="359px" height="156px"
>
	<g id="Camada%201">
		<image x="233" y="91" width="116" height="46" xlink:href="38.svg.images/image1.png"/>
		<path d="M 106.5 44.5 C 109.5 52.5 113.5 66.5 113.5 75.5 C 113.5 91.5 104.5 114.5 82.5 128.5 C 78.5 130.5 70.5 136.5 68.5 136.5 C 60.5 136.5 35.5 112.5 35.5 112.5 C 30.5 105.5 27.5 97.5 25.5 89.5 C 24.5 85.5 24.5 79.5 24.5 76.5 C 24.5 74.5 25.5 68.5 25.5 64.5 C 26.5 58.5 26.5 51.5 29.5 46.5 C 30.5 43.5 36.5 41.5 39.5 40.5 C 60.5 33.5 53.5 35.5 68.5 35.5 C 80.5 35.5 94.5 38.5 106.5 44.5 ZM 75.5 51.5 C 77.5 54.5 79.5 58.5 81.5 60.5 C 87.5 59.5 100.5 69.5 101.5 77.5 C 98.5 78.5 95.5 78.5 92.5 79.5 C 88.5 73.5 88.5 70.5 82.5 68.5 C 81.5 73.5 80.5 79.5 78.5 85.5 C 74.5 95.5 62.5 96.5 62.5 100.5 C 62.5 107.5 75.5 111.5 77.5 111.5 C 83.5 111.5 93.5 105.5 92.5 97.5 C 98.5 98.5 100.5 98.5 102.5 98.5 C 98.5 112.5 86.5 118.5 77.5 118.5 C 71.5 118.5 60.5 115.5 55.5 107.5 C 54.5 105.5 53.5 102.5 51.5 99.5 C 46.5 100.5 30.5 91.5 31.5 82.5 C 33.5 82.5 36.5 81.5 38.5 81.5 C 41.5 81.5 45.5 89.5 50.5 92.5 C 50.5 81.5 54.5 63.5 70.5 61.5 C 69.5 52.5 60.5 49.5 54.5 49.5 C 48.5 49.5 39.5 52.5 39.5 63.5 C 36.5 62.5 33.5 62.5 30.5 62.5 C 32.5 47.5 43.5 42.5 55.5 42.5 C 60.5 42.5 72.5 45.5 75.5 51.5 Z" fill="#000000"/>
		<path d="M 99.5 30.5 C 103.5 32.5 109.5 33.5 113.5 37.5 C 114.5 38.5 121.5 64.5 121.5 73.5 C 121.5 94.5 110.5 119.5 84.5 136.5 C 78.5 139.5 71.5 145.5 68.5 145.5 C 60.5 145.5 32.5 120.5 31.5 119.5 C 25.5 111.5 20.5 101.5 18.5 93.5 C 16.5 87.5 16.5 77.5 16.5 74.5 C 16.5 72.5 17.5 65.5 17.5 60.5 C 19.5 53.5 20.5 44.5 23.5 37.5 C 24.5 35.5 28.5 34.5 31.5 33.5 C 38.5 30.5 48.5 28.5 56.5 26.5 C 60.5 26.5 66.5 26.5 68.5 26.5 C 82.5 26.5 83.5 25.5 99.5 30.5 ZM 97.5 33.5 C 100.5 34.5 106.5 36.5 110.5 39.5 C 115.5 43.5 118.5 63.5 118.5 73.5 C 118.5 76.5 117.5 83.5 116.5 87.5 C 115.5 96.5 111.5 105.5 104.5 114.5 C 100.5 119.5 94.5 125.5 89.5 129.5 C 82.5 134.5 71.5 142.5 68.5 142.5 C 66.5 142.5 59.5 137.5 55.5 135.5 C 26.5 119.5 19.5 94.5 19.5 75.5 C 19.5 73.5 20.5 66.5 20.5 62.5 C 21.5 55.5 23.5 47.5 25.5 40.5 C 37.5 31.5 54.5 29.5 68.5 29.5 C 81.5 29.5 80.5 28.5 97.5 33.5 Z" fill="#000000"/>
		<path d="M 70.5 14.5 C 71.5 14.5 71.5 15.5 73.5 15.5 C 76.5 15.5 77.5 13.5 78.5 11.5 L 78.5 16.5 C 79.5 16.5 78.5 17.5 81.5 17.5 C 83.5 17.5 85.5 13.5 87.5 11.5 C 86.5 14.5 85.5 18.5 83.5 22.5 C 78.5 20.5 70.5 20.5 68.5 20.5 C 65.5 20.5 58.5 20.5 53.5 22.5 C 52.5 19.5 51.5 15.5 50.5 12.5 C 51.5 13.5 53.5 15.5 54.5 17.5 C 58.5 16.5 58.5 14.5 58.5 11.5 C 59.5 12.5 60.5 14.5 61.5 15.5 L 67.5 15.5 C 63.5 11.5 68.5 7.5 68.5 3.5 C 69.5 6.5 70.5 10.5 70.5 14.5 Z" fill="#000000"/>
		<path d="M 188.5 64.5 L 188.5 71.5 C 181.5 66.5 180.5 66.5 174.5 66.5 C 160.5 66.5 156.5 75.5 156.5 86.5 C 156.5 96.5 160.5 106.5 174.5 106.5 C 178.5 106.5 180.5 106.5 188.5 101.5 C 192.5 109.5 177.5 111.5 171.5 111.5 C 153.5 111.5 146.5 100.5 146.5 86.5 C 146.5 69.5 156.5 61.5 172.5 61.5 C 174.5 61.5 183.5 62.5 188.5 64.5 ZM 226.5 62.5 C 232.5 78.5 238.5 94.5 244.5 110.5 L 235.5 110.5 C 234.5 107.5 232.5 103.5 230.5 99.5 L 211.5 99.5 C 209.5 102.5 207.5 106.5 206.5 110.5 L 197.5 110.5 C 203.5 94.5 209.5 78.5 214.5 62.5 L 226.5 62.5 ZM 279.5 62.5 L 279.5 97.5 C 278.5 97.5 277.5 99.5 275.5 99.5 C 272.5 99.5 272.5 96.5 270.5 95.5 L 270.5 67.5 C 266.5 66.5 261.5 66.5 257.5 67.5 L 257.5 62.5 L 279.5 62.5 ZM 304.5 62.5 L 304.5 96.5 C 306.5 104.5 310.5 106.5 316.5 106.5 C 320.5 106.5 323.5 105.5 328.5 99.5 L 328.5 62.5 L 338.5 62.5 L 338.5 95.5 C 335.5 109.5 324.5 111.5 316.5 111.5 C 309.5 111.5 295.5 108.5 295.5 98.5 L 295.5 62.5 L 304.5 62.5 ZM 228.5 93.5 L 214.5 94.5 C 213.5 93.5 213.5 94.5 213.5 91.5 C 213.5 89.5 217.5 78.5 220.5 71.5 C 223.5 77.5 226.5 85.5 228.5 93.5 ZM 273.5 100.5 C 269.5 103.5 262.5 111.5 259.5 111.5 C 257.5 111.5 253.5 107.5 252.5 105.5 C 254.5 106.5 255.5 106.5 257.5 106.5 C 260.5 106.5 263.5 105.5 266.5 103.5 C 268.5 102.5 269.5 99.5 271.5 98.5 L 273.5 100.5 ZM 277.5 105.5 C 275.5 107.5 272.5 109.5 269.5 110.5 L 266.5 110.5 C 268.5 107.5 272.5 104.5 275.5 102.5 C 275.5 103.5 276.5 104.5 277.5 105.5 Z" fill="#000000"/>
		<path d="M 71.5 73.5 C 70.5 78.5 69.5 82.5 66.5 86.5 C 65.5 88.5 61.5 90.5 61.5 94.5 C 60.5 87.5 59.5 75.5 71.5 70.5 L 71.5 73.5 Z" fill="#000000"/>
		<path d="M 79.5 59.5 C 77.5 59.5 74.5 59.5 72.5 60.5 C 81.5 60.5 98.5 61.5 100.5 77.5 C 98.5 77.5 97.5 78.5 94.5 78.5 C 89.5 78.5 90.5 73.5 84.5 68.5 L 81.5 68.5 C 81.5 70.5 78.5 97.5 64.5 97.5 C 61.5 97.5 63.5 96.5 62.5 95.5 C 61.5 96.5 61.5 95.5 61.5 97.5 C 61.5 108.5 74.5 111.5 77.5 111.5 C 83.5 111.5 92.5 107.5 93.5 97.5 C 95.5 98.5 98.5 98.5 101.5 98.5 L 101.5 100.5 C 97.5 115.5 85.5 117.5 77.5 117.5 C 66.5 117.5 52.5 111.5 51.5 95.5 C 50.5 96.5 50.5 97.5 50.5 98.5 L 46.5 98.5 C 41.5 97.5 34.5 91.5 32.5 85.5 L 32.5 82.5 C 34.5 82.5 37.5 82.5 40.5 81.5 C 42.5 86.5 48.5 91.5 50.5 96.5 C 51.5 84.5 52.5 62.5 72.5 61.5 C 70.5 60.5 70.5 57.5 68.5 56.5 C 63.5 49.5 61.5 49.5 55.5 49.5 C 41.5 49.5 40.5 62.5 36.5 62.5 C 33.5 62.5 33.5 62.5 31.5 61.5 L 31.5 58.5 C 37.5 43.5 45.5 43.5 54.5 43.5 C 63.5 43.5 75.5 44.5 79.5 59.5 ZM 80.5 68.5 L 75.5 68.5 L 80.5 68.5 ZM 71.5 75.5 C 68.5 81.5 66.5 86.5 61.5 91.5 C 61.5 92.5 61.5 94.5 61.5 95.5 C 60.5 86.5 59.5 75.5 71.5 70.5 L 71.5 75.5 Z" fill="#ffffff"/>
	</g>
</svg>