<?xml version="1.0" standalone="no"?>
<!-- Generator: Adobe Fireworks 10, Export SVG Extension by Aaron Beall (http://fireworks.abeall.com) . Version: 0.6.1  -->
<!DOCTYPE svg PUBLIC "-//W3C//DTD SVG 1.1//EN" "http://www.w3.org/Graphics/SVG/1.1/DTD/svg11.dtd">
<svg id="23.fw-P%E1gina%201" viewBox="0 0 650 210" style="background-color:#ffffff00" version="1.1"
	xmlns="http://www.w3.org/2000/svg" xmlns:xlink="http://www.w3.org/1999/xlink" xml:space="preserve"
	x="0px" y="0px" width="650px" height="210px"
>
	<g id="Camada%201">
		<g>
			<path d="M 100 71.2656 C 100 59.7344 98.875 51.5469 96.6406 46.7344 C 94.3906 41.9219 89.8281 37.9219 82.9375 34.75 C 76.0469 31.5938 67.7031 30 57.9219 30 C 48.9531 30 41.3125 31.4531 34.9844 34.3594 C 28.6563 37.2656 24.0781 41.2969 21.25 46.4531 C 18.4063 51.6094 17 59.75 17 70.8906 C 17 78.625 17.9844 84.9844 19.9688 89.9531 C 21.9531 94.9219 24.4531 98.8281 27.4844 101.6406 C 30.5156 104.4531 36.6563 109.0156 45.9375 115.3125 C 55.2031 121.5625 61.0469 125.9844 63.4688 128.5938 C 65.8125 131.2188 67 136.7969 67 145.2969 C 67 149.1719 66.3906 152.0938 65.1719 154.0625 C 63.9531 156.0313 62.1094 157 59.6406 157 C 57.1563 157 55.4219 156.2344 54.4531 154.7031 C 53.4844 153.1719 53 149.7344 53 144.375 L 53 127 L 18 127 L 18 136.5 C 18 147.375 19.0938 155.7656 21.3125 161.6719 C 23.5156 167.5781 28.1875 172.4531 35.3281 176.2656 C 42.4531 180.0781 51.0781 182 61.1719 182 C 70.3594 182 78.4219 180.3281 85.3594 177.0156 C 92.2813 173.7031 96.9531 169.5781 99.375 164.6563 C 101.7813 159.75 103 152.1094 103 141.7344 C 103 127.4844 100.8594 117.1406 96.5781 110.7188 C 92.2813 104.3125 82.0156 95.9219 65.7969 85.5156 C 60.1406 81.9219 56.6094 78.9219 55.2031 76.5313 C 53.7344 74.1563 53 70.6094 53 65.8906 C 53 62.2344 53.5469 59.5156 54.6406 57.7031 C 55.7344 55.9063 57.3594 55 59.5 55 C 61.4688 55 62.8906 55.6875 63.7344 57.0313 C 64.5781 58.375 65 61.5156 65 66.4375 L 65 77 L 100 77 L 100 71.2656 L 100 71.2656 Z" fill="#0068be"/>
			<path d="M 161 59 L 161 139.8125 C 161 149.6563 160.7656 155.4688 160.3125 157.2813 C 159.8438 159.0938 158.3906 160 155.9531 160 C 153.6719 160 152.2813 159.125 151.7656 157.375 C 151.25 155.625 151 150.0781 151 140.7188 L 151 59 L 114 59 L 114 139.8281 C 114 150.125 114.2031 157 114.625 160.4531 C 115.0313 163.9219 116.0938 167.25 117.7813 170.4375 C 119.4688 173.625 122.1094 176.1875 125.6719 178.1094 C 129.2344 180.0313 133.7344 181 139.1563 181 C 143.9063 181 148.1094 179.9844 151.7656 177.9688 C 155.4219 175.9375 158.5 172.9063 161 168.8438 L 160.4375 179 L 198 179 L 198 59 L 161 59 L 161 59 Z" fill="#0068be"/>
			<path d="M 244.3906 33 C 236.1094 33 230 33.5469 226.0781 34.6094 C 222.1406 35.6875 219.0938 37.25 216.9219 39.3125 C 214.7344 41.375 213.375 43.7188 212.8281 46.3438 C 212.2656 48.9688 212 54.1875 212 62 L 205 62 L 205 81 L 212 81 L 212 179 L 249 179 L 249 81 L 258 81 L 258 62 L 242 62 L 242 58.4688 C 242 55.4531 242.7031 53.625 244.1094 52.9688 C 245.5156 52.3281 250.1563 52 258 52 L 258 33 L 244.3906 33 L 244.3906 33 Z" fill="#0068be"/>
			<path d="M 265 33 L 265 52 L 303 52 L 303 33 L 265 33 L 265 33 ZM 265 59 L 265 179 L 303 179 L 303 59 L 265 59 L 265 59 Z" fill="#0068be"/>
			<path d="M 393.6094 78.1406 C 391.3438 72.0469 386.7813 67 379.9375 63 C 373.0938 59 364.8281 57 355.1719 57 C 345.4531 57 337.1875 59.0313 330.4063 63.0938 C 323.625 67.1563 319.1875 71.7656 317.1094 76.9375 C 315.0313 82.1094 314 89.7656 314 99.9219 L 314 133.9219 C 314 145.5938 315.2656 154.5938 317.7969 160.9375 C 320.3281 167.2813 324.6563 172.2188 330.7813 175.7344 C 336.8906 179.2344 345.1719 181 355.6406 181 C 363.8281 181 370.7031 179.7031 376.2656 177.125 C 381.8281 174.5469 386.3438 170.7188 389.7969 165.6406 C 393.25 160.5625 395.2969 155.6094 395.9375 150.7656 C 396.5781 145.9219 396.9375 138.6719 397 129 L 365 129 L 365 143.625 C 365 149.9844 364.5156 154.2969 363.5625 156.5781 C 362.5938 158.8594 360.7656 160 358.0469 160 C 355.7344 160 353.9688 158.9375 352.7813 156.7813 C 351.5938 154.6406 351 151.4219 351 147.1406 L 351 90.4063 C 351 85.1563 351.3906 81.7813 352.2031 80.2656 C 353 78.7656 354.5625 78 356.9063 78 C 359.2344 78 360.8281 78.8594 361.7031 80.5625 C 362.5625 82.2656 363 85.5 363 90.2813 L 363 104 L 397 104 C 397 92.8438 395.8594 84.2344 393.6094 78.1406 L 393.6094 78.1406 Z" fill="#0068be"/>
			<path d="M 488.2344 82.25 C 487.0469 78.1094 484.8594 74.0781 481.6563 70.1719 C 478.4375 66.2656 473.8906 63.0938 468 60.6563 C 462.0938 58.2188 455.0469 57 446.8281 57 C 437.0156 57 428.9688 58.9063 422.6875 62.6875 C 416.3906 66.4688 412.0313 71.5 409.625 77.75 C 407.2031 84 406 92.6875 406 103.7969 L 406 134.4688 C 406 144.625 406.6563 152.25 407.9844 157.3281 C 409.3125 162.4219 411.5313 166.75 414.6563 170.3125 C 417.7656 173.8906 422.1406 176.5625 427.7656 178.3438 C 433.3906 180.1094 440.25 181 448.3594 181 C 455.6094 181 462.0469 179.9531 467.6406 177.8906 C 473.2344 175.8281 477.8125 172.6094 481.375 168.25 C 484.9375 163.8906 487.2656 159.2031 488.3594 154.1719 C 489.4531 149.1563 490 141.2656 490 130.5 L 490 101.1875 C 490 92.7188 489.4063 86.4063 488.2344 82.25 L 488.2344 82.25 ZM 453 147.5 C 453 152.6875 452.6719 156.0781 452.0156 157.6406 C 451.3594 159.2188 450.0313 160 448 160 C 446.0156 160 444.6875 159.1406 444.0156 157.4219 C 443.3281 155.7031 443 152 443 146.3125 L 443 92.0469 C 443 85.8906 443.3281 82 444.0156 80.4063 C 444.6875 78.8125 446.0469 78 448.0781 78 C 450.1094 78 451.4375 78.8125 452.0625 80.4063 C 452.6875 82 453 85.8906 453 92.0469 L 453 147.5 L 453 147.5 Z" fill="#0068be"/>
			<path d="M 503 59 L 503 179 L 538 179 L 538 95.7344 C 538 89.9531 538.0469 86.1563 538.1719 84.375 C 538.2969 82.5938 538.9375 81.0938 540.0938 79.8594 C 541.25 78.625 542.6719 78 544.3281 78 C 546.9531 78 548.5469 79.1875 549.125 81.5313 C 549.7031 83.8906 550 90.9531 550 102.7031 L 550 179 L 585 179 L 585 100.7188 C 585 90.4063 585.375 84.0313 586.125 81.625 C 586.875 79.2188 588.5469 78 591.1406 78 C 593.6563 78 595.2656 79.2344 595.9531 81.6719 C 596.6406 84.1094 597 90.4688 597 100.7188 L 597 179 L 632 179 L 632 93.8438 C 632 84.0313 631.4219 76.9531 630.2969 72.5781 C 629.1563 68.2188 626.5781 64.5313 622.5469 61.5156 C 618.5156 58.5156 613.4375 57 607.2969 57 C 602.6406 57 598.3906 58.1406 594.5781 60.4063 C 590.75 62.6719 587.3125 66.0625 584.2813 70.5938 C 578.7031 61.5313 571.0625 57 561.3594 57 C 556.3906 57 551.9531 58.1406 548.0625 60.4063 C 544.1563 62.6719 540.8125 66.0625 538 70.5938 L 539 59 L 503 59 L 503 59 Z" fill="#0068be"/>
		</g>
	</g>
</svg>