<?xml version="1.0" encoding="UTF-8"?>
<!DOCTYPE svg PUBLIC "-//W3C//DTD SVG 1.1//EN" "http://www.w3.org/Graphics/SVG/1.1/DTD/svg11.dtd">
<!-- Creator: CorelDRAW X7 -->
<svg xmlns="http://www.w3.org/2000/svg" xml:space="preserve" width="102mm" height="22mm" version="1.1" style="shape-rendering:geometricPrecision; text-rendering:geometricPrecision; image-rendering:optimizeQuality; fill-rule:evenodd; clip-rule:evenodd"
viewBox="0 0 10200 2200"
 xmlns:xlink="http://www.w3.org/1999/xlink">
 <defs>
  <style type="text/css">
   <![CDATA[
    .fil2 {fill:#00476B}
    .fil0 {fill:#6691A6;fill-rule:nonzero}
    .fil1 {fill:#00476B;fill-rule:nonzero}
   ]]>
  </style>
 </defs>
 <g id="Camada_x0020_1">
  <metadata id="CorelCorpID_0Corel-Layer"/>
  <g id="_1936695408064">
   <path class="fil0" d="M942 1514l159 -156 0 88 135 0 0 76 -135 0 0 210c0,49 20,74 61,74 30,0 62,-10 96,-31l0 79c-32,18 -68,28 -106,28 -39,0 -71,-12 -97,-34 -8,-7 -15,-15 -20,-23 -5,-9 -10,-20 -14,-34 -3,-14 -5,-40 -5,-79l0 -190 -74 0 0 -8zm776 154l-301 0c2,41 16,73 41,97 26,25 58,37 98,37 56,0 108,-18 155,-52l0 82c-26,18 -52,30 -78,38 -25,7 -55,11 -90,11 -47,0 -85,-10 -114,-30 -29,-19 -53,-45 -70,-78 -18,-33 -26,-72 -26,-115 0,-65 18,-118 55,-159 37,-41 85,-61 144,-61 56,0 102,20 135,59 34,40 51,93 51,160l0 11zm-299 -51l215 0c-2,-34 -12,-60 -30,-78 -18,-19 -42,-28 -72,-28 -31,0 -56,9 -75,28 -19,18 -32,44 -38,78zm746 157l0 84c-42,16 -84,24 -124,24 -67,0 -121,-20 -161,-60 -40,-40 -59,-93 -59,-160 0,-67 19,-121 58,-162 38,-42 89,-62 153,-62 22,0 42,2 59,6 17,4 39,12 65,23l0 91c-43,-27 -83,-41 -119,-41 -38,0 -70,13 -94,40 -25,27 -37,61 -37,103 0,43 13,78 40,104 26,26 62,39 107,39 33,0 70,-10 112,-29zm216 -328l0 55c37,-42 80,-63 129,-63 26,0 51,7 74,20 23,14 40,33 52,57 12,24 18,62 18,114l0 245 -84 0 0 -244c0,-43 -7,-75 -20,-93 -14,-19 -36,-29 -67,-29 -40,0 -74,20 -102,60l0 306 -87 0 0 -428 87 0zm630 -1c66,0 120,21 163,63 43,42 65,95 65,159 0,61 -22,113 -66,153 -44,41 -99,62 -165,62 -65,0 -118,-21 -161,-62 -43,-42 -65,-94 -65,-156 0,-62 22,-114 65,-156 44,-42 99,-63 164,-63zm-4 76c-41,0 -74,14 -100,40 -26,27 -39,61 -39,102 0,41 13,75 40,101 26,26 61,39 103,39 41,0 75,-14 102,-40 26,-26 39,-60 39,-101 0,-40 -13,-74 -41,-101 -28,-26 -62,-40 -104,-40zm362 -297l84 0 0 650 -84 0 0 -650zm446 221c65,0 119,21 162,63 43,42 65,95 65,159 0,61 -22,113 -66,153 -43,41 -98,62 -165,62 -64,0 -118,-21 -161,-62 -43,-42 -64,-94 -64,-156 0,-62 21,-114 65,-156 43,-42 98,-63 164,-63zm-5 76c-40,0 -74,14 -100,40 -26,27 -39,61 -39,102 0,41 13,75 40,101 27,26 61,39 103,39 42,0 75,-14 102,-40 27,-26 40,-60 40,-101 0,-40 -14,-74 -42,-101 -27,-26 -62,-40 -104,-40zm338 73c0,-46 17,-82 50,-108 34,-27 79,-40 137,-40l176 0 0 66 -86 0c17,17 28,33 35,47 6,14 9,30 9,48 0,22 -6,44 -19,65 -12,22 -29,39 -49,50 -20,11 -52,21 -98,28 -32,4 -48,15 -48,33 0,9 6,18 18,24 12,6 33,13 65,20 52,11 86,20 101,27 15,6 29,16 41,28 20,20 30,46 30,77 0,40 -18,73 -54,97 -36,24 -84,36 -145,36 -61,0 -110,-12 -146,-36 -36,-24 -55,-57 -55,-98 0,-58 36,-95 108,-112 -29,-19 -43,-37 -43,-55 0,-13 6,-26 18,-37 13,-11 29,-19 50,-25 -63,-27 -95,-73 -95,-135zm160 -74c-23,0 -43,7 -59,23 -16,15 -24,34 -24,56 0,22 8,40 23,54 16,15 36,22 60,22 24,0 44,-7 60,-22 16,-15 24,-33 24,-55 0,-23 -8,-41 -24,-56 -16,-15 -36,-22 -60,-22zm-20 374c-29,0 -52,6 -71,18 -18,12 -27,28 -27,47 0,44 40,66 119,66 38,0 67,-6 88,-17 20,-11 31,-26 31,-46 0,-20 -13,-36 -39,-49 -27,-12 -60,-19 -101,-19zm367 -628c14,0 26,5 36,15 10,9 15,21 15,35 0,13 -5,25 -15,35 -10,10 -22,15 -36,15 -13,0 -24,-5 -34,-15 -10,-10 -15,-22 -15,-35 0,-13 5,-25 15,-35 10,-10 21,-15 34,-15zm-42 180l85 0 0 428 -85 0 0 -428zm510 171l0 182c0,14 6,22 15,22 11,0 27,-8 48,-23l0 52c-19,12 -34,20 -46,25 -12,4 -24,7 -37,7 -36,0 -57,-15 -64,-43 -36,28 -74,42 -115,42 -29,0 -54,-10 -74,-30 -20,-20 -30,-44 -30,-74 0,-27 10,-51 29,-72 20,-22 47,-39 83,-51l108 -37 0 -23c0,-51 -25,-77 -77,-77 -46,0 -91,24 -135,71l0 -92c33,-39 80,-58 142,-58 46,0 83,12 111,36 9,8 18,18 25,31 8,13 13,26 14,39 3,13 3,37 3,73zm-83 173l0 -128 -57 22c-28,12 -49,23 -61,35 -12,12 -18,26 -18,44 0,17 6,32 17,43 12,11 26,17 44,17 27,0 52,-12 75,-33z"/>
   <path class="fil1" d="M533 633l0 447 -259 0 0 -447c0,-144 72,-245 216,-302 60,-24 132,-43 216,-43l1012 0 0 86 -1012 0c-116,0 -173,99 -173,259zm1506 -259l-432 0c-26,2 -50,9 -70,21 -50,28 -81,79 -95,151l763 0c-21,-107 -76,-164 -166,-172zm-432 518l2945 0 0 86 -2945 0c-84,0 -155,-19 -215,-43 -144,-58 -216,-158 -216,-302 0,-144 72,-245 216,-302 60,-24 131,-39 215,-43l432 0c84,4 156,19 216,43 143,57 215,158 215,302l-1035 0c0,160 57,246 172,259zm2024 -259l0 -259 -604 0c-115,13 -173,99 -173,259 0,160 58,246 173,259l431 0c115,-13 173,-99 173,-259zm259 -604l0 604c0,144 -72,244 -216,302 -60,24 -132,38 -216,43l-431 0c-84,-5 -156,-19 -216,-43 -144,-58 -216,-158 -216,-302 0,-144 72,-245 216,-302 60,-24 132,-39 216,-43l604 0 0 -259 259 0zm988 345l-432 0c-26,2 -50,9 -70,21 -50,28 -82,79 -95,151l762 0c-20,-107 -75,-164 -165,-172zm-432 518l922 0 0 86 -922 0c-84,0 -156,-19 -215,-43 -144,-58 -216,-158 -216,-302 0,-144 72,-245 216,-302 59,-24 131,-39 215,-43l432 0c84,4 156,19 215,43 144,57 216,158 216,302l-1035 0c0,160 57,246 172,259z"/>
   <path class="fil1" d="M6355 1789l0 -604 259 0 0 690 -673 0c-88,-5 -162,-19 -225,-43 -149,-58 -224,-159 -224,-302l0 -345 259 0 0 345c0,160 63,246 190,259l414 0zm229 0l1032 0c32,0 59,-13 81,-28 55,-37 84,-104 90,-197l-1034 0 0 -34c0,-144 72,-245 216,-302 60,-24 132,-43 216,-43l1465 0 0 86 -1465 0c-29,0 -55,11 -78,26 -53,34 -84,95 -93,181l1034 0 0 52c0,143 -72,244 -216,302 -60,24 -132,43 -216,43l-1032 0 0 -86zm2471 -518l-431 0c-26,0 -50,9 -71,21 -49,28 -81,79 -95,151l763 0c-21,-107 -76,-164 -166,-172zm-431 518l926 0 0 86 -926 0c-84,0 -156,-19 -216,-43 -143,-58 -215,-159 -215,-302 0,-144 72,-245 215,-302 60,-24 132,-43 216,-43l431 0c85,0 156,19 216,43 144,57 216,158 216,302l-1036 0c0,160 58,246 173,259z"/>
   <path class="fil2" d="M400 1033c165,0 298,134 298,299 0,164 -133,298 -298,298 -164,0 -298,-134 -298,-298 0,-165 134,-299 298,-299zm0 125c96,0 173,78 173,174 0,95 -77,173 -173,173 -96,0 -173,-78 -173,-173 0,-96 77,-174 173,-174z"/>
   <path class="fil2" d="M5618 679c165,0 298,134 298,298 0,165 -133,298 -298,298 -164,0 -298,-133 -298,-298 0,-164 134,-298 298,-298zm0 125c96,0 173,78 173,173 0,96 -77,174 -173,174 -96,0 -173,-78 -173,-174 0,-95 77,-173 173,-173z"/>
   <path class="fil2" d="M9804 1523c165,0 298,133 298,298 0,164 -133,298 -298,298 -165,0 -298,-134 -298,-298 0,-165 133,-298 298,-298zm0 124c96,0 173,78 173,174 0,95 -77,173 -173,173 -96,0 -173,-78 -173,-173 0,-96 77,-174 173,-174z"/>
  </g>
 </g>
</svg>
