<?xml version="1.0" standalone="no"?>
<!-- Generator: Adobe Fireworks 10, Export SVG Extension by Aaron Beall (http://fireworks.abeall.com) . Version: 0.6.1  -->
<!DOCTYPE svg PUBLIC "-//W3C//DTD SVG 1.1//EN" "http://www.w3.org/Graphics/SVG/1.1/DTD/svg11.dtd">
<svg id="03.fw-P%E1gina%201" viewBox="0 0 650 210" style="background-color:#ffffff00" version="1.1"
	xmlns="http://www.w3.org/2000/svg" xmlns:xlink="http://www.w3.org/1999/xlink" xml:space="preserve"
	x="0px" y="0px" width="650px" height="210px"
>
	<g id="Camada%201">
		<g>
			<path d="M 23 186 L 64 186 L 64 120 L 90 120 L 90 90 L 64 90 L 64 60 L 93 60 L 93 28 L 23 28 L 23 186 L 23 186 Z" fill="#0068be"/>
			<path d="M 189.0938 81.2969 C 187.8281 76.8125 185.4844 72.4531 182.0469 68.2344 C 178.6094 64.0156 173.7344 60.5781 167.4219 57.9531 C 161.1094 55.3281 153.5469 54 144.7344 54 C 134.2344 54 125.6094 56.0469 118.875 60.1406 C 112.1406 64.2344 107.4844 69.6719 104.8906 76.4219 C 102.2969 83.1719 101 92.5625 101 104.5781 L 101 137.7188 C 101 148.7031 101.7031 156.9375 103.1406 162.4219 C 104.5625 167.9219 106.9375 172.5938 110.2813 176.4531 C 113.6094 180.3281 118.2813 183.2188 124.3125 185.125 C 130.3438 187.0313 137.7031 188 146.3906 188 C 154.1563 188 161.0313 186.875 167.0313 184.6406 C 173.0313 182.4063 177.9375 178.9375 181.7656 174.2188 C 185.5781 169.5 188.0781 164.4375 189.25 159.0156 C 190.4063 153.5938 191 145.0625 191 133.4219 L 191 101.75 C 191 92.5938 190.3594 85.7813 189.0938 81.2969 L 189.0938 81.2969 ZM 152 151.5781 C 152 157.1563 151.6094 160.7813 150.8281 162.4688 C 150.0469 164.1563 148.4375 165 146 165 C 143.625 165 142.0313 164.0781 141.2188 162.2344 C 140.4063 160.3906 140 156.4063 140 150.3125 L 140 92.0781 C 140 85.4688 140.4063 81.2969 141.2188 79.5781 C 142.0313 77.8594 143.6563 77 146.1094 77 C 148.5469 77 150.125 77.8594 150.875 79.5781 C 151.625 81.2969 152 85.4688 152 92.0781 L 152 151.5781 L 152 151.5781 Z" fill="#0068be"/>
			<path d="M 204 56 L 204 186 L 243 186 L 243 135.0156 C 243 122.5156 243.375 114.5156 244.1563 111.0469 C 244.9219 107.5781 246.9688 104.875 250.3125 102.9219 C 253.6406 100.9844 258.875 100 266 100 L 266 54 C 255.0781 54.7344 246.75 61.3281 241 73.7813 L 242 56 L 204 56 L 204 56 Z" fill="#0068be"/>
			<path d="M 277 39 L 277 60 L 269 60 L 269 81 L 277 81 L 277 146.2188 C 277 159 277.3594 167.125 278.0938 170.5625 C 278.8281 174.0156 280.6875 177.0781 283.6875 179.7656 C 286.6719 182.4531 290.125 184.1563 294.0625 184.8906 C 297.9844 185.6406 304.5469 186 313.7344 186 L 330 186 L 330 165 C 322.6563 165 318.5 164.5313 317.5 163.5625 C 316.5 162.5938 316 157.9063 316 149.4688 L 316 81 L 328 81 L 328 60 L 316 60 L 316 39 L 277 39 L 277 39 Z" fill="#0068be"/>
			<path d="M 432 79.2188 C 432 66.375 430.7969 56.5938 428.4063 49.8438 C 426 43.0938 420.8594 37.2656 412.9531 32.3594 C 405.0469 27.4531 395.1094 25 383.1406 25 C 370.9531 25 361.0313 27.8438 353.3594 33.5156 C 345.6875 39.1875 341.0469 45.4219 339.4219 52.2188 C 337.7969 59.0313 337 69.9531 337 84.9844 L 337 131.7344 C 337 142.5625 337.375 150.6875 338.1563 156.0938 C 338.9375 161.5 340.875 166.6719 343.9844 171.5938 C 347.0938 176.5313 351.6406 180.6563 357.6406 184 C 363.6406 187.3281 370.0625 189 376.9375 189 C 382.7031 189 387.7031 187.8281 391.9531 185.5 C 396.2031 183.1719 399.7188 179.5625 402.5 174.6719 L 406.2813 186 L 432 186 L 432 101 L 384 101 L 384 125 L 392 125 L 392 143.5469 C 392 150.8281 391.4844 155.7344 390.4531 158.2344 C 389.4219 160.75 387.4531 162 384.5781 162 C 381.9375 162 380.1875 160.8906 379.3125 158.6719 C 378.4375 156.4531 378 151.8438 378 144.8125 L 378 69.7656 C 378 61.7969 378.4375 56.8438 379.3281 54.9063 C 380.2188 52.9688 381.9063 52 384.4063 52 C 387.2656 52 389.0781 53.125 389.8438 55.3438 C 390.6094 57.5781 391 63.1094 391 71.9531 L 391 86 L 432 86 L 432 79.2188 L 432 79.2188 Z" fill="#0068be"/>
			<path d="M 482 93.2344 C 482 85.9219 482.3281 81.375 483.0156 79.625 C 483.6875 77.875 485.4219 77 488.2031 77 C 490.6406 77 492.375 78.0469 493.4219 80.125 C 494.4688 82.2188 495 86.7031 495 93.5781 C 495 99.0781 494.5313 102.7031 493.6094 104.4531 C 492.6875 106.2188 485.6875 109.6094 472.6094 114.6406 C 460.375 119.2969 452.7188 123.3594 449.625 126.8438 C 446.5313 130.3281 445 136.875 445 146.4844 L 445 157.0313 C 445 170 447.8906 178.4063 453.7031 182.25 C 459.5156 186.0781 465.8906 188 472.8594 188 C 478.1719 188 482.75 186.8281 486.5938 184.5 C 490.4375 182.1719 493.5625 178.6719 496 174 L 496 186 L 534 186 L 534 120.9219 C 534 99.5 533.3125 85.3594 531.9375 78.4844 C 530.5625 71.6094 526.5 65.8125 519.7344 61.0938 C 512.9531 56.375 502.8906 54 489.5469 54 C 478.4063 54 469.3594 56.1094 462.3906 60.3125 C 455.4219 64.5156 450.7813 69.3594 448.4688 74.8438 C 446.1563 80.3281 445 88.125 445 98.2344 L 445 107 L 482 107 L 482 93.2344 L 482 93.2344 ZM 495 150.9219 C 495 157.3125 494.6094 161.25 493.8281 162.75 C 493.0469 164.25 491.375 165 488.8125 165 C 486.0938 165 484.2813 164.0469 483.375 162.125 C 482.4531 160.2188 482 155.9688 482 149.3906 C 482 143.6406 482.5156 139.2344 483.5781 136.1719 C 484.625 133.1094 488.4375 129.2969 495 124.7656 L 495 150.9219 L 495 150.9219 Z" fill="#0068be"/>
			<path d="M 628 90.4375 C 628 83.8906 627.6563 79.0781 626.9844 76 C 626.2969 72.9375 624.3594 69.5938 621.1563 65.9844 C 617.9375 62.3906 613.3438 59.4844 607.3594 57.2969 C 601.375 55.1094 594.1094 54 585.5781 54 C 576.9688 54 569.4063 55.3438 562.9063 58 C 556.4063 60.6563 551.7969 64.4375 549.0781 69.3438 C 546.3594 74.25 545 81.8594 545 92.1719 C 545 99.4531 546.2656 105.7344 548.7969 111.0156 C 551.3281 116.2969 558.3906 122.1875 569.9531 128.6875 C 583.7188 136.3438 591.3594 140.9531 592.8594 142.5156 C 594.2813 144.0781 595 147.9375 595 154.0938 C 595 158.5781 594.4375 161.5156 593.3438 162.9063 C 592.2344 164.3125 590.2969 165 587.5156 165 C 584.9219 165 583.1875 163.9531 582.3125 161.8594 C 581.4375 159.7656 581 155.2344 581 148.2344 L 581 140 L 546 140 L 546 146.2656 C 546 157.1094 547.3281 165.2188 549.9844 170.5625 C 552.6406 175.9219 557.5 180.1719 564.5938 183.2969 C 571.6875 186.4219 580.2188 188 590.2031 188 C 599.2031 188 606.8906 186.5469 613.2656 183.6719 C 619.6406 180.7813 624.2031 176.6563 626.9219 171.2969 C 629.6406 165.9531 631 158.0156 631 147.5 C 631 138.0938 629.2344 130.9063 625.7188 125.9688 C 622.1875 121.0469 614.7813 115.7969 603.5 110.2031 C 595.0313 105.9844 589.4375 102.7813 586.7188 100.5625 C 584 98.3594 582.3594 96.3281 581.8125 94.4844 C 581.2656 92.6406 581 89.7344 581 85.7656 C 581 82.8438 581.5625 80.6563 582.6875 79.1875 C 583.8125 77.7344 585.5 77 587.75 77 C 590.5313 77 592.2656 77.8125 592.9531 79.4219 C 593.6406 81.0313 594 84.8594 594 90.9063 L 594 98 L 628 98 L 628 90.4375 L 628 90.4375 Z" fill="#0068be"/>
		</g>
	</g>
</svg>