<?xml version="1.0" standalone="no"?>
<!-- Generator: Adobe Fireworks 10, Export SVG Extension by Aaron Beall (http://fireworks.abeall.com) . Version: 0.6.1  -->
<!DOCTYPE svg PUBLIC "-//W3C//DTD SVG 1.1//EN" "http://www.w3.org/Graphics/SVG/1.1/DTD/svg11.dtd">
<svg id="37.fw-P%E1gina%201" viewBox="0 0 650 210" style="background-color:#ffffff00" version="1.1"
	xmlns="http://www.w3.org/2000/svg" xmlns:xlink="http://www.w3.org/1999/xlink" xml:space="preserve"
	x="0px" y="0px" width="650px" height="210px"
>
	<g id="Camada%201">
		<g>
			<path d="M 83.25 33 L 74.5 103.0469 L 68.6406 64.7813 L 63.75 33 L 14 33 L 14 183 L 48 183 L 48.5 83.7344 L 62 183 L 86 183 L 99.5 81.7344 L 100 183 L 134 183 L 134 33 L 83.25 33 L 83.25 33 Z" fill="#0068be"/>
			<path d="M 149 33 L 149 52 L 188 52 L 188 33 L 149 33 L 149 33 ZM 149 60 L 149 183 L 188 183 L 188 60 L 149 60 L 149 60 Z" fill="#0068be"/>
			<path d="M 242.25 60 C 240.25 67.7188 237.3438 82.2969 233.5 103.7344 C 233.0938 100.2656 230.1719 85.6875 224.75 60 L 194 60 L 210 118.7656 L 194 183 L 224.75 183 C 227.9063 169.4063 230.8125 155.1406 233.5 140.2031 C 235.4844 152.1719 238.4063 166.4375 242.25 183 L 278 183 L 260 118.7656 L 275 60 L 242.25 60 L 242.25 60 Z" fill="#0068be"/>
			<path d="M 375 83.8438 C 375 69.9375 373.8281 59.7031 371.4844 53.1094 C 369.1406 46.5313 364.2344 41.0313 356.7813 36.625 C 349.3125 32.2188 339.8594 30 328.4063 30 C 319.9531 30 312.4688 31.4375 305.9688 34.2969 C 299.4688 37.1719 294.375 41.0938 290.7188 46.0938 C 287.0469 51.0938 284.8438 56.2813 284.1094 61.6719 C 283.3594 67.0781 283 75.1719 283 85.9531 L 283 129.6875 C 283 144.3594 284.2031 155.3438 286.6094 162.6563 C 289.0156 169.9688 293.9063 175.6875 301.3125 179.8125 C 308.7031 183.9219 318.1094 186 329.5156 186 C 340.4844 186 349.7031 183.5156 357.2031 178.5938 C 364.6875 173.6563 369.5313 167.8906 371.7188 161.3281 C 373.9063 154.7656 375 143.625 375 127.9063 L 375 122 L 336 122 L 336 141.4063 C 336 149.8906 335.5469 155.2813 334.6719 157.5625 C 333.7813 159.8594 331.9063 161 329.0469 161 C 326.0469 161 324.125 159.8906 323.2813 157.6563 C 322.4219 155.4219 322 150.6406 322 143.3125 L 322 73.3281 C 322 65.7031 322.4219 60.75 323.2813 58.4531 C 324.125 56.1563 326.1406 55 329.3125 55 C 332.125 55 333.9375 55.9375 334.7656 57.8125 C 335.5781 59.6875 336 64.4219 336 71.9844 L 336 98 L 375 98 L 375 83.8438 L 375 83.8438 Z" fill="#0068be"/>
			<path d="M 421 95.1563 C 421 88.3125 421.3281 84.0781 422.0156 82.4531 C 422.6875 80.8281 424.4219 80 427.2031 80 C 429.6406 80 431.375 80.9688 432.4219 82.9063 C 433.4688 84.8438 434 89.0156 434 95.4219 C 434 100.5313 433.5469 103.9219 432.6719 105.5938 C 431.7813 107.2656 425.0625 110.4844 412.5156 115.2656 C 400.7656 119.6875 393.4219 123.5469 390.4531 126.8594 C 387.4844 130.1719 386 136.4063 386 145.5313 L 386 155.5625 C 386 167.8906 388.7813 175.875 394.375 179.5313 C 399.9531 183.1719 406.0781 185 412.7656 185 C 417.875 185 422.2813 183.875 425.9688 181.6406 C 429.6563 179.4063 432.6563 176.0469 435 171.5625 L 435 183 L 471 183 L 471 121.375 C 471 101.0938 470.3438 87.6875 469.0313 81.1875 C 467.7188 74.6875 463.8438 69.1875 457.375 64.7188 C 450.9063 60.25 441.2969 58 428.5469 58 C 417.9063 58 409.2656 59.9844 402.6094 63.9531 C 395.9531 67.9219 391.5156 72.4844 389.3125 77.6563 C 387.0938 82.8438 386 90.2031 386 99.7344 L 386 108 L 421 108 L 421 95.1563 L 421 95.1563 ZM 434 149.6563 C 434 155.7188 433.6094 159.4531 432.8281 160.875 C 432.0469 162.2969 430.375 163 427.8125 163 C 425.0938 163 423.2813 162.0938 422.375 160.2813 C 421.4531 158.4688 421 154.4375 421 148.2031 C 421 142.7656 421.5156 138.5781 422.5781 135.6719 C 423.625 132.7656 427.4375 129.1719 434 124.875 L 434 149.6563 L 434 149.6563 Z" fill="#0068be"/>
			<path d="M 484 60 L 484 183 L 521 183 L 521 134.3906 C 521 122.4531 521.3594 114.8438 522.0938 111.5313 C 522.8281 108.2188 524.7969 105.6406 527.9844 103.7813 C 531.1719 101.9375 536.1875 101 543 101 L 543 58 C 532.9531 58.6875 525.2813 64.8906 520 76.6094 L 521 60 L 484 60 L 484 60 Z" fill="#0068be"/>
			<path d="M 600 33 L 600 68.3594 C 596.8438 64.9063 593.3281 62.3125 589.4531 60.5938 C 585.5781 58.875 581.3125 58 576.6563 58 C 570.6406 58 565.4688 59.5 561.125 62.4844 C 556.7813 65.4688 554.0156 68.9375 552.8125 72.875 C 551.5938 76.8125 551 83.5 551 92.9063 L 551 150.2656 C 551 159.3281 551.5938 165.8594 552.8125 169.8594 C 554.0156 173.8594 556.75 177.3906 561.0313 180.4375 C 565.3125 183.4688 570.3594 185 576.2031 185 C 580.5313 185 584.6875 184.0469 588.6563 182.1719 C 592.625 180.2813 596.4063 177.4375 600 173.6563 L 600 183 L 637 183 L 637 33 L 600 33 L 600 33 ZM 600 147.5938 C 600 154.375 599.5781 158.6406 598.7344 160.3906 C 597.8906 162.1406 596.1875 163 593.6563 163 C 591.4375 163 589.9531 162.2344 589.1719 160.6719 C 588.3906 159.1094 588 155.8594 588 150.8906 L 588 91.2813 C 588 86.5156 588.4063 83.4375 589.2188 82.0625 C 590.0313 80.6875 591.6094 80 593.9531 80 C 596.3594 80 597.9688 80.7656 598.7813 82.2969 C 599.5938 83.8281 600 86.8125 600 91.2813 L 600 147.5938 L 600 147.5938 Z" fill="#0068be"/>
		</g>
	</g>
</svg>