<?xml version="1.0" standalone="no"?>
<!-- Generator: Adobe Fireworks 10, Export SVG Extension by Aaron Beall (http://fireworks.abeall.com) . Version: 0.6.1  -->
<!DOCTYPE svg PUBLIC "-//W3C//DTD SVG 1.1//EN" "http://www.w3.org/Graphics/SVG/1.1/DTD/svg11.dtd">
<svg id="43-P%E1gina%201" viewBox="0 0 600 525" style="background-color:#ffffff00" version="1.1"
	xmlns="http://www.w3.org/2000/svg" xmlns:xlink="http://www.w3.org/1999/xlink" xml:space="preserve"
	x="0px" y="0px" width="600px" height="525px"
>
	<defs>
		<linearGradient id="gradient1" x1="50%" y1="0%" x2="50%" y2="100%">
			<stop stop-color="#5b7cc3" stop-opacity="1" offset="0%"/>
			<stop stop-color="#0f89ce" stop-opacity="1" offset="100%"/>
		</linearGradient>
		<linearGradient id="gradient2" x1="50%" y1="0%" x2="50%" y2="100%">
			<stop stop-color="#5b7cc3" stop-opacity="1" offset="0%"/>
			<stop stop-color="#0f89ce" stop-opacity="1" offset="100%"/>
		</linearGradient>
		<linearGradient id="gradient3" x1="50%" y1="0%" x2="50%" y2="100%">
			<stop stop-color="#5b7cc3" stop-opacity="1" offset="0%"/>
			<stop stop-color="#0f89ce" stop-opacity="1" offset="100%"/>
		</linearGradient>
	</defs>
	<g id="Plano%20de%20fundo">
		<path visibility="hidden" d="M 342.0408 -400.8942 L 753.4694 -400.8942 L 696.3265 -481.7263 L 622.0408 -532.3484 L 547.7551 -563.3748 L 457.9592 -578.0715 L 355.1021 -587.0529 L 243.2653 -584.6035 L 166.5306 -584.6035 L 89.7959 -573.9891 L 8.9796 -560.9254 L -52.2449 -542.9627 L -117.551 -523.367 L -200.8163 -481.7263 L -246.5306 -442.535 L -277.551 -403.3437 L -299.5918 -355.1711 L -310.2041 -298.0171 L -308.5714 -269.4401 L -294.6939 -243.3126 L -275.1021 -217.1851 L -240 -184.5257 L -205.7143 -164.93 L -130.6122 -124.9222 L -48.1633 -98.7947 L 48.1633 -76.7496 L 155.9184 -63.6859 L 265.3061 -50.6221 L 365.7143 -40.0078 L 444.8979 -20.4121 L 481.6327 8.1649 L 506.1225 47.3561 L 514.2857 87.3639 L 512.6531 129.0047 L 501.2245 178.8103 L 459.5919 218.818 L 411.4286 246.5786 L 348.5714 266.1742 L 282.449 262.0918 L 131.4286 220.451 L 75.102 190.2411 L 37.551 152.6827 L 11.4286 106.9596 L -14.6939 58.7869 L -26.1224 34.2924 L -299.5918 34.2924 L -308.5714 88.9969 L -312.6531 156.7652 L -310.2041 203.3048 L -308.5714 259.6423 L -308.5714 303.7325 L -308.5714 349.4557 L -302.0408 393.5459 L -288.1633 448.2504 L -275.1021 502.9549 L -248.9796 561.7418 L -229.3878 603.3826 L -190.2041 638.4915 L -157.551 673.6003 L -120 702.1773 L -69.3878 737.2861 L 15.5102 769.9456 L 111.8367 787.9082 L 168.9796 794.4402 L 234.2857 807.5039 L 304.4898 807.5039 L 404.8979 805.0544 L 466.1224 811.5863 L 523.2653 807.5039 L 628.5714 800.972 L 689.7959 787.9082 L 760 776.4774 L 825.3062 754.4324 L 884.0817 724.2224 L 972.2449 682.5817 L 1037.551 636.8585 L 1088.1633 590.3188 L 1149.3877 511.9362 L 1175.5103 465.3965 L 1204.0815 402.5272 L 1221.2245 349.4557 L 1232.6531 275.1555 L 1236.7347 209.8367 L 1223.6735 130.6376 L 1199.1837 61.2364 L 1168.9795 -13.8802 L 1116.7347 -76.7496 L 1072.6531 -110.2255 L 1007.3469 -160.0311 L 941.2245 -195.14 L 880 -217.1851 L 816.3265 -234.3313 L 770.6123 -247.395 L 671.8367 -267.8072 L 571.4286 -287.4028 L 455.5102 -298.0171 L 363.2653 -311.0809 L 271.8367 -311.0809 L 155.9184 -317.6128 L 75.102 -343.7403 L 48.1633 -368.2349 L 53.0612 -400.8942 L 66.1225 -418.8569 L 83.2653 -436.0031 L 114.2857 -449.0669 L 160 -455.5988 L 188.5714 -455.5988 L 232.653 -453.1493 L 262.8571 -440.0855 L 300.4082 -420.4899 L 328.9796 -405.7932 L 342.0408 -400.8942 Z" stroke="#ffffff" stroke-width="13" fill="url(#gradient1)"/>
		<g>
			<g>
				<text x="90" y="499.5" width="207" fill="url(#gradient2)" style="font-weight: bold; font-family: Arial; font-size: 50px; color: #ffffff; text-align: center; "><tspan><![CDATA[SINDSPAM CARD]]></tspan></text>
				<path d="M 266.0019 79.4141 L 387.5532 77.9222 C 387.5532 77.9222 363.405 12.2175 225.8999 23.4686 C 225.8999 23.4686 77.4699 25.5222 66.2392 104.776 C 66.2392 104.776 52.3668 147.1267 151.1757 171.9106 C 151.1757 171.9106 203.694 182.6247 269.2399 187.3267 C 269.2399 187.3267 332.7827 187.3626 313.3272 253.9639 C 313.3272 253.9639 278.6968 322.0083 182.5599 259.9314 C 182.5599 259.9314 157.3589 239.189 151.9229 211.9427 L 68.9791 211.4454 C 68.9791 211.4454 46.9367 326.7637 96.378 392.7086 C 96.378 392.7086 148.7138 475.5374 369.6194 443.4325 C 369.6194 443.4325 539.0795 432.5477 535.7562 253.9639 C 535.7562 253.9639 549.2728 135.6007 329.5174 111.4895 C 329.5174 111.4895 233.8545 102.0182 211.2041 104.0301 C 211.2041 104.0301 173.7992 99.2448 175.8347 82.6465 C 177.8702 66.0482 206.0227 60.9532 222.6618 63.5007 C 222.6618 63.5007 252.6555 65.3817 266.0019 79.4141 Z" stroke="#ffffff" stroke-width="4" fill="url(#gradient3)"/>
			</g>
		</g>
	</g>
	<g id="Camada%201">
	</g>
</svg>