<?xml version="1.0" standalone="no"?>
<!-- Generator: Adobe Fireworks 10, Export SVG Extension by Aaron Beall (http://fireworks.abeall.com) . Version: 0.6.1  -->
<!DOCTYPE svg PUBLIC "-//W3C//DTD SVG 1.1//EN" "http://www.w3.org/Graphics/SVG/1.1/DTD/svg11.dtd">
<svg id="icone_fidelidade.fw-P%E1gina%201" viewBox="0 0 512 512" style="background-color:#ffffff00" version="1.1"
	xmlns="http://www.w3.org/2000/svg" xmlns:xlink="http://www.w3.org/1999/xlink" xml:space="preserve"
	x="0px" y="0px" width="512px" height="512px"
>
	<g id="Plano%20de%20fundo">
		<path d="M 255.5 117.5 C 282.5 64.5 332.5 44.5 374.5 44.5 C 447.5 44.5 507.5 104.5 507.5 176.5 C 507.5 195.5 500.5 220.5 492.5 240.5 C 484.5 261.5 466.5 288.5 450.5 310.5 C 433.5 333.5 403.5 363.5 380.5 384.5 C 374.5 390.5 279.5 467.5 255.5 467.5 C 243.5 467.5 212.5 446.5 205.5 441.5 C 136.5 398.5 44.5 308.5 18.5 240.5 C 10.5 220.5 4.5 196.5 4.5 175.5 C 4.5 101.5 66.5 44.5 137.5 44.5 C 176.5 44.5 227.5 63.5 255.5 117.5 Z" fill="#8e24aa"/>
	</g>
	<g id="Camada%201">
	</g>
</svg>