<?xml version="1.0" standalone="no"?>
<!-- Generator: Adobe Fireworks 10, Export SVG Extension by Aaron Beall (http://fireworks.abeall.com) . Version: 0.6.1  -->
<!DOCTYPE svg PUBLIC "-//W3C//DTD SVG 1.1//EN" "http://www.w3.org/Graphics/SVG/1.1/DTD/svg11.dtd">
<svg id="icone_private_label.fw-P%E1gina%201" viewBox="0 0 512 512" style="background-color:#ffffff00" version="1.1"
	xmlns="http://www.w3.org/2000/svg" xmlns:xlink="http://www.w3.org/1999/xlink" xml:space="preserve"
	x="0px" y="0px" width="512px" height="512px"
>
	<g id="Plano%20de%20fundo">
		<path d="M 481.9825 28.3755 C 485.2576 28.3755 489.6245 33.8341 489.6245 38.2009 C 491.8079 46.9345 491.8079 57.8515 491.8079 67.6769 C 496.1747 129.9039 506 251.083 506 253.2664 C 506 256.5415 506 257.6332 504.9083 258.7249 C 492.8996 271.8253 478.7074 284.9258 466.6987 298.0262 C 395.738 367.8952 324.7773 439.9476 253.8166 509.8167 C 251.6332 512 249.4498 512 247.2664 512 C 236.3493 512 214.5153 484.7075 205.7817 475.9738 C 140.2795 410.4716 73.6856 344.9694 9.2751 279.4673 C 7.0917 277.2838 6 272.917 6 270.7336 C 6 262 43.1179 229.2489 45.3013 227.0655 C 117.3537 155.0131 259.2751 12 261.4585 12 C 264.7336 12 408.8384 20.7336 481.9825 28.3755 ZM 403.3799 161.5633 C 403.3799 188.8559 380.4541 206.3232 358.6201 206.3232 C 330.2358 206.3232 311.6768 183.3974 311.6768 159.3799 C 311.6768 132.0873 331.3275 115.7118 356.4367 115.7118 C 383.7293 115.7118 403.3799 137.5459 403.3799 161.5633 Z" fill="#d81b60"/>
		<path id="Elipse" d="M 310 160.5 C 310 134.8184 331.0423 114 357 114 C 382.9577 114 404 134.8184 404 160.5 C 404 186.1816 382.9577 207 357 207 C 331.0423 207 310 186.1816 310 160.5 Z" fill="#ffffff"/>
	</g>
	<g id="Camada%201">
	</g>
</svg>