<?xml version="1.0" standalone="no"?>
<!-- Generator: Adobe Fireworks 10, Export SVG Extension by Aaron Beall (http://fireworks.abeall.com) . Version: 0.6.1  -->
<!DOCTYPE svg PUBLIC "-//W3C//DTD SVG 1.1//EN" "http://www.w3.org/Graphics/SVG/1.1/DTD/svg11.dtd">
<svg id="icone_bonus_combustivel.fw-P%E1gina%201" viewBox="0 0 512 512" style="background-color:#ffffff00" version="1.1"
	xmlns="http://www.w3.org/2000/svg" xmlns:xlink="http://www.w3.org/1999/xlink" xml:space="preserve"
	x="0px" y="0px" width="512px" height="512px"
>
	<g id="Plano%20de%20fundo">
		<path d="M 160.6695 0.274 C 164.2146 -1.5021 178.3949 5.6021 178.3949 14.4824 L 178.3949 34.0189 L 49 34.0189 L 49 12.7063 C 50.7725 9.1542 59.6352 0.274 64.9528 0.274 L 160.6695 0.274 ZM 316.6523 39.347 C 330.8326 48.2273 346.7854 60.6596 362.7382 71.3159 C 375.1459 81.9722 392.8712 92.6285 408.824 103.2848 C 415.9142 108.613 462 133.4776 462 151.2381 L 462 460.2706 C 458.4549 469.1509 437.1846 510 421.2318 510 L 89.7682 510 C 75.588 506.4479 49 474.479 49 462.0467 L 49 57.1075 L 178.3949 57.1075 C 178.3949 64.2117 178.3949 73.092 180.1674 81.9722 C 183.7124 78.4201 258.1588 16.2584 274.1116 16.2584 C 290.0644 16.2584 297.1545 26.9147 316.6523 39.347 ZM 407.0515 170.7747 L 407.0515 250.6969 L 226.2532 119.2692 L 275.8841 80.1962 L 407.0515 170.7747 ZM 323.7425 351.9316 C 323.7425 394.5569 284.7468 415.8694 254.6137 415.8694 C 215.618 415.8694 187.2575 383.9005 187.2575 350.1556 C 187.2575 316.4107 233.3434 259.5771 256.3863 229.3843 C 275.8841 259.5771 323.7425 316.4107 323.7425 351.9316 Z" fill="#ff6f00"/>
		<path d="M 321.9699 351.9316 C 321.9699 389.2287 286.5193 415.8694 254.6137 415.8694 C 217.3906 415.8694 189.03 383.9005 189.03 350.1556 C 189.03 318.1867 235.1159 256.025 254.6137 232.9364 C 274.1116 256.025 321.9699 316.4107 321.9699 351.9316 Z" fill="#ffffff"/>
		<path d="M 226 119 L 275 81 L 406 171 L 406 250 L 226 119 Z" fill="#ffffff"/>
	</g>
	<g id="Camada%201">
	</g>
</svg>