<?xml version="1.0" standalone="no"?>
<!-- Generator: Adobe Fireworks 10, Export SVG Extension by Aaron Beall (http://fireworks.abeall.com) . Version: 0.6.1  -->
<!DOCTYPE svg PUBLIC "-//W3C//DTD SVG 1.1//EN" "http://www.w3.org/Graphics/SVG/1.1/DTD/svg11.dtd">
<svg id="01.fw-P%E1gina%201" viewBox="0 0 650 210" style="background-color:#ffffff00" version="1.1"
	xmlns="http://www.w3.org/2000/svg" xmlns:xlink="http://www.w3.org/1999/xlink" xml:space="preserve"
	x="0px" y="0px" width="650px" height="210px"
>
	<g id="Camada%201">
		<g>
			<path d="M 85 10 L 81.9375 44.0156 L 73.5 138.1406 C 70.7656 102.9844 66.5938 60.2656 61 10 L 12 10 L 39.25 192 L 109.75 192 L 134 10 L 85 10 L 85 10 Z" fill="#0169be"/>
			<path d="M 244 100.2031 C 244 85.7344 242.3281 74.5 239 66.5 C 235.6719 58.5156 229.875 52.1094 221.6094 47.2656 C 213.3438 42.4219 202.8594 40 190.1563 40 C 179.75 40 170.5469 42.0156 162.5469 46.0313 C 154.5469 50.0625 148.7813 55.8438 145.2656 63.3906 C 141.75 70.9531 140 81.2656 140 94.3281 L 140 137.9531 C 140 149.0781 140.7813 157.5625 142.3594 163.375 C 143.9219 169.2031 146.75 174.5469 150.8281 179.3906 C 154.8906 184.2344 160.5938 188.0469 167.9375 190.8281 C 175.2656 193.6094 183.7188 195 193.2969 195 C 203.1563 195 211.3594 193.5938 217.9063 190.7813 C 224.4531 187.9688 229.8594 183.7656 234.125 178.1406 C 238.375 172.5156 241.0938 167.2344 242.25 162.2813 C 243.4063 157.3438 244 150.25 244 141.0156 L 244 130 L 201 130 L 201 149.8906 C 201 157.4063 200.4063 162.4688 199.2188 165.0781 C 198.0313 167.7031 195.7031 169 192.2031 169 C 189.375 169 187.4688 168.0156 186.4844 166.0313 C 185.4844 164.0625 185 159.6406 185 152.7813 L 185 120 L 244 120 L 244 100.2031 L 244 100.2031 ZM 185 96 L 185 84.8125 C 185 76.2031 185.3906 70.9219 186.1875 68.9531 C 186.9688 66.9844 189.0313 66 192.3594 66 C 195.0469 66 196.8125 67.1563 197.6875 69.4688 C 198.5625 71.7813 199 76.8906 199 84.8125 L 199 96 L 185 96 L 185 96 Z" fill="#0169be"/>
			<path d="M 259 43 L 259 192 L 304 192 L 304 132.7188 C 304 118.1719 304.4531 108.875 305.3594 104.8438 C 306.2656 100.8125 308.6719 97.6563 312.5781 95.3906 C 316.4844 93.1406 322.625 92 331 92 L 331 40 C 318.3438 40.8438 308.6719 48.4375 302 62.75 L 303 43 L 259 43 L 259 43 Z" fill="#0169be"/>
			<path d="M 433 81.4063 C 433 73.9688 432.5938 68.5 431.8125 65 C 431.0313 61.5 428.7813 57.7188 425.0781 53.625 C 421.375 49.5313 416.0625 46.25 409.1406 43.75 C 402.2031 41.25 393.8125 40 383.9375 40 C 373.9688 40 365.2344 41.5469 357.7188 44.6406 C 350.1875 47.7344 344.8594 52.1406 341.7188 57.8281 C 338.5625 63.5156 337 72.3594 337 84.3594 C 337 92.8125 338.4375 100.1094 341.3281 106.25 C 344.2188 112.4063 352.25 119.25 365.4375 126.7969 C 381.1406 135.7031 389.8438 141.0469 391.5625 142.8594 C 393.1875 144.6719 394 149.1719 394 156.3281 C 394 161.5469 393.3594 164.9531 392.1094 166.5781 C 390.8438 168.2031 388.625 169 385.4375 169 C 382.4688 169 380.5 167.7969 379.5 165.3594 C 378.5 162.9375 378 157.6719 378 149.5469 L 378 140 L 338 140 L 338 147.1875 C 338 159.6094 339.5313 168.8906 342.5938 175.0156 C 345.6563 181.1563 351.2656 186.0156 359.4531 189.6094 C 367.625 193.2031 377.4531 195 388.9531 195 C 399.3281 195 408.2031 193.3125 415.5625 189.9688 C 422.9063 186.6094 428.1563 181.8125 431.2969 175.5938 C 434.4219 169.375 436 160.1563 436 147.9219 C 436 136.9844 433.9531 128.6563 429.8594 122.9219 C 425.7656 117.1875 417.1875 111.0781 404.0938 104.5938 C 394.2813 99.6875 387.7813 95.9531 384.625 93.3906 C 381.4688 90.8281 379.5625 88.4688 378.9375 86.3125 C 378.3125 84.1719 378 80.7969 378 76.1875 C 378 72.7969 378.6406 70.25 379.9375 68.5469 C 381.2344 66.8594 383.1875 66 385.7813 66 C 388.9844 66 390.9844 66.9219 391.7969 68.7656 C 392.5938 70.6094 393 74.9844 393 81.8906 L 393 90 L 433 90 L 433 81.4063 L 433 81.4063 Z" fill="#0169be"/>
			<path d="M 490 84.9375 C 490 76.4063 490.3594 71.1094 491.0938 69.0625 C 491.8125 67.0313 493.6719 66 496.6719 66 C 499.2969 66 501.1719 67.2188 502.2969 69.6563 C 503.4219 72.0938 504 77.3438 504 85.4063 C 504 91.8438 503.4688 96.0625 502.4219 98.0781 C 501.375 100.1094 493.3906 104.0313 478.4844 109.875 C 464.5313 115.2656 455.7969 119.9844 452.2813 124.0156 C 448.75 128.0625 447 135.6563 447 146.8125 L 447 159.0625 C 447 174.125 450.2969 183.875 456.9063 188.3281 C 463.5 192.7656 470.7656 195 478.6875 195 C 484.7188 195 489.9219 193.6563 494.2969 190.9688 C 498.6719 188.2813 502.2344 184.2656 505 178.8906 L 505 192 L 549 192 L 549 117.0625 C 549 92.3906 548.2031 76.0938 546.6406 68.1875 C 545.0781 60.2813 540.4063 53.5938 532.6563 48.1563 C 524.8906 42.7188 513.3594 40 498.0625 40 C 485.2813 40 474.9063 42.4219 466.9219 47.2656 C 458.9375 52.1094 453.625 57.6719 450.9688 63.9844 C 448.3125 70.2969 447 79.2813 447 90.9063 L 447 101 L 490 101 L 490 84.9375 L 490 84.9375 ZM 504 152.3594 C 504 159.9063 503.5781 164.5625 502.7344 166.3438 C 501.8906 168.125 500.0938 169 497.3281 169 C 494.4063 169 492.4531 167.875 491.4688 165.6094 C 490.4844 163.3438 490 158.3281 490 150.5469 C 490 143.75 490.5625 138.5469 491.6875 134.9219 C 492.8125 131.2969 496.9219 126.8125 504 121.4375 L 504 152.3594 L 504 152.3594 Z" fill="#0169be"/>
			<path d="M 567 23 L 567 47 L 557 47 L 557 71 L 567 71 L 567 146.1719 C 567 160.8906 567.4063 170.25 568.2344 174.2188 C 569.0625 178.1875 571.1719 181.7188 574.5625 184.8125 C 577.9531 187.9063 581.875 189.875 586.3125 190.7188 C 590.75 191.5781 598.1719 192 608.5781 192 L 627 192 L 627 168 C 619.1406 168 614.6719 167.4531 613.6094 166.3281 C 612.5313 165.2188 612 159.7969 612 150.0625 L 612 71 L 625 71 L 625 47 L 612 47 L 612 23 L 567 23 L 567 23 Z" fill="#0169be"/>
		</g>
	</g>
</svg>