<?xml version="1.0" standalone="no"?>
<!-- Generator: Adobe Fireworks 10, Export SVG Extension by Aaron Beall (http://fireworks.abeall.com) . Version: 0.6.1  -->
<!DOCTYPE svg PUBLIC "-//W3C//DTD SVG 1.1//EN" "http://www.w3.org/Graphics/SVG/1.1/DTD/svg11.dtd">
<svg id="10.fw-P%E1gina%201" viewBox="0 0 650 210" style="background-color:#ffffff00" version="1.1"
	xmlns="http://www.w3.org/2000/svg" xmlns:xlink="http://www.w3.org/1999/xlink" xml:space="preserve"
	x="0px" y="0px" width="650px" height="210px"
>
	<g id="Camada%201">
		<g>
			<path d="M 102 65.7656 C 102 53.25 100.7813 44.375 98.3594 39.1563 C 95.9219 33.9375 90.9688 29.5938 83.5 26.1563 C 76.0313 22.7188 66.9844 21 56.375 21 C 46.6563 21 38.375 22.5781 31.5156 25.7031 C 24.6406 28.8438 19.6719 33.1875 16.6094 38.75 C 13.5313 44.3125 12 53.0938 12 65.1094 C 12 73.4531 13.0625 80.3125 15.2188 85.6719 C 17.3594 91.0469 20.0625 95.25 23.3281 98.2813 C 26.5938 101.3125 33.2188 106.2813 43.1875 113.1563 C 53.1406 119.9688 59.4531 124.7813 62.1094 127.5781 C 64.7031 130.3906 66 136.3594 66 145.4688 C 66 149.625 65.3438 152.75 64.0469 154.8438 C 62.75 156.9531 60.7813 158 58.125 158 C 55.4688 158 53.6094 157.1719 52.5625 155.4844 C 51.5156 153.7969 51 150.0156 51 144.125 L 51 125 L 13 125 L 13 135.3594 C 13 147.2188 14.1875 156.375 16.5781 162.8125 C 18.9688 169.2656 24.0313 174.5781 31.75 178.75 C 39.4688 182.9063 48.7969 185 59.7344 185 C 69.6719 185 78.3906 183.2031 85.8906 179.625 C 93.3906 176.0313 98.4375 171.5938 101.0625 166.2813 C 103.6875 160.9844 105 152.75 105 141.5625 C 105 126.1875 102.6406 115.0313 97.9375 108.1094 C 93.2188 101.2031 81.9063 92.1719 64 81.0313 C 57.75 77.1719 53.8594 73.9531 52.3594 71.3594 C 50.7813 68.7813 50 64.9375 50 59.8281 C 50 55.8594 50.6406 52.8906 51.9219 50.9375 C 53.2031 48.9844 55.0938 48 57.5938 48 C 59.8906 48 61.5313 48.75 62.5156 50.2188 C 63.5 51.6875 64 55.1094 64 60.4844 L 64 72 L 102 72 L 102 65.7656 L 102 65.7656 Z" fill="#0068be"/>
			<path d="M 206 101.9219 C 206 89.4375 204.5469 79.75 201.6719 72.8594 C 198.7969 65.9688 193.7813 60.4375 186.625 56.2656 C 179.4688 52.0938 170.3906 50 159.3906 50 C 150.3906 50 142.4375 51.75 135.5156 55.2188 C 128.5781 58.6875 123.5938 63.6875 120.5625 70.2188 C 117.5156 76.75 116 85.6719 116 96.9688 L 116 134.6875 C 116 144.3125 116.6719 151.6406 118.0313 156.6719 C 119.3906 161.7031 121.8281 166.3125 125.3594 170.5 C 128.8906 174.6875 133.8281 177.9844 140.1719 180.3906 C 146.5156 182.7969 153.8281 184 162.1094 184 C 170.6563 184 177.7656 182.7656 183.4219 180.3125 C 189.0781 177.8438 193.7656 174.1563 197.4531 169.2188 C 201.1406 164.2813 203.4844 159.6563 204.4844 155.3125 C 205.4844 150.9688 206 144.7656 206 136.6719 L 206 127 L 169 127 L 169 144.3438 C 169 150.8906 168.4844 155.2969 167.4531 157.5781 C 166.4219 159.8594 164.3594 161 161.2969 161 C 158.8281 161 157.1563 160.1563 156.2969 158.4531 C 155.4219 156.7656 155 152.9688 155 147.0938 L 155 119 L 206 119 L 206 101.9219 L 206 101.9219 ZM 155 98 L 155 88.6719 C 155 81.5 155.3281 77.0938 156.0156 75.4531 C 156.6875 73.8281 158.4531 73 161.3125 73 C 163.6094 73 165.125 73.9688 165.875 75.8906 C 166.625 77.8125 167 82.0781 167 88.6719 L 167 98 L 155 98 L 155 98 Z" fill="#0068be"/>
			<path d="M 219 52 L 219 182 L 257 182 L 257 92.1406 C 257 85.8906 257.0625 81.8125 257.1875 79.8906 C 257.3125 77.9688 258.0156 76.3438 259.2813 75 C 260.5313 73.6719 262.0625 73 263.8438 73 C 266.6875 73 268.4219 74.2813 269.0469 76.8125 C 269.6719 79.3594 270 86.9688 270 99.6563 L 270 182 L 308 182 L 308 97.5156 C 308 86.3906 308.4063 79.5156 309.2188 76.9063 C 310.0313 74.3125 311.8281 73 314.6406 73 C 317.375 73 319.125 74.3281 319.875 76.9531 C 320.625 79.5938 321 86.4531 321 97.5156 L 321 182 L 359 182 L 359 89.8594 C 359 79.25 358.375 71.5781 357.1563 66.8594 C 355.9219 62.1406 353.125 58.1406 348.75 54.8906 C 344.375 51.6406 338.8438 50 332.1875 50 C 327.125 50 322.5313 51.2344 318.3906 53.7031 C 314.2344 56.1719 310.5156 59.8594 307.2188 64.7969 C 301.1719 54.9375 292.8906 50 282.3594 50 C 276.9531 50 272.1406 51.2344 267.9219 53.7031 C 263.6875 56.1719 260.0469 59.8594 257 64.7969 L 258 52 L 219 52 L 219 52 Z" fill="#0068be"/>
			<path d="M 373 52 L 373 200 L 412 200 L 412 170.1406 C 415.4844 174.7344 419.3438 178.1875 423.5625 180.5156 C 427.7813 182.8281 432.3594 184 437.3125 184 C 443.5 184 448.7813 182.5156 453.1719 179.5625 C 457.5469 176.6094 460.4531 172.6406 461.875 167.6719 C 463.2813 162.7031 464 154.3438 464 142.5781 L 464 88.1094 C 464 77.8438 463.4375 70.5625 462.3125 66.2813 C 461.1875 62 458.375 58.2031 453.8594 54.9219 C 449.3438 51.6406 443.9844 50 437.7969 50 C 432.7188 50 428.0469 51.1563 423.7656 53.4531 C 419.4844 55.75 415.5625 59.2344 412 63.8906 L 412.75 52 L 373 52 L 373 52 ZM 425 145.3438 C 425 152.2188 424.6563 156.5469 423.9844 158.3281 C 423.2969 160.1094 421.5781 161 418.8125 161 C 415.9688 161 414.125 160.0313 413.2813 158.0938 C 412.4219 156.1563 412 151.2813 412 143.5 L 412 90.0156 C 412 82.5625 412.4063 77.8594 413.2188 75.9219 C 414.0313 73.9844 415.875 73 418.7188 73 C 421.625 73 423.3906 73.8438 424.0313 75.5313 C 424.6719 77.2188 425 82.0469 425 90.0156 L 425 145.3438 L 425 145.3438 Z" fill="#0068be"/>
			<path d="M 477 52 L 477 182 L 516 182 L 516 131.0156 C 516 118.5156 516.375 110.5156 517.1563 107.0469 C 517.9219 103.5781 519.9688 100.875 523.3125 98.9219 C 526.6406 96.9844 531.875 96 539 96 L 539 50 C 528.0781 50.7344 519.75 57.3281 514 69.7813 L 515 52 L 477 52 L 477 52 Z" fill="#0068be"/>
			<path d="M 638 101.9219 C 638 89.4375 636.5469 79.75 633.6719 72.8594 C 630.7969 65.9688 625.7813 60.4375 618.625 56.2656 C 611.4688 52.0938 602.3906 50 591.3906 50 C 582.3906 50 574.4375 51.75 567.5156 55.2188 C 560.5781 58.6875 555.5938 63.6875 552.5625 70.2188 C 549.5156 76.75 548 85.6719 548 96.9688 L 548 134.6875 C 548 144.3125 548.6719 151.6406 550.0313 156.6719 C 551.3906 161.7031 553.8281 166.3125 557.3594 170.5 C 560.8906 174.6875 565.8281 177.9844 572.1719 180.3906 C 578.5156 182.7969 585.8281 184 594.1094 184 C 602.6563 184 609.7656 182.7656 615.4219 180.3125 C 621.0781 177.8438 625.7656 174.1563 629.4531 169.2188 C 633.1406 164.2813 635.4844 159.6563 636.4844 155.3125 C 637.4844 150.9688 638 144.7656 638 136.6719 L 638 127 L 601 127 L 601 144.3438 C 601 150.8906 600.4844 155.2969 599.4531 157.5781 C 598.4219 159.8594 596.3594 161 593.2969 161 C 590.8281 161 589.1563 160.1563 588.2969 158.4531 C 587.4219 156.7656 587 152.9688 587 147.0938 L 587 119 L 638 119 L 638 101.9219 L 638 101.9219 ZM 587 98 L 587 88.6719 C 587 81.5 587.3281 77.0938 588.0156 75.4531 C 588.6875 73.8281 590.4531 73 593.3125 73 C 595.6094 73 597.125 73.9688 597.875 75.8906 C 598.625 77.8125 599 82.0781 599 88.6719 L 599 98 L 587 98 L 587 98 Z" fill="#0068be"/>
		</g>
	</g>
</svg>