<?xml version="1.0" standalone="no"?>
<!-- Generator: Adobe Fireworks 10, Export SVG Extension by Aaron Beall (http://fireworks.abeall.com) . Version: 0.6.1  -->
<!DOCTYPE svg PUBLIC "-//W3C//DTD SVG 1.1//EN" "http://www.w3.org/Graphics/SVG/1.1/DTD/svg11.dtd">
<svg id="18.fw-P%E1gina%201" viewBox="0 0 650 210" style="background-color:#ffffff00" version="1.1"
	xmlns="http://www.w3.org/2000/svg" xmlns:xlink="http://www.w3.org/1999/xlink" xml:space="preserve"
	x="0px" y="0px" width="650px" height="210px"
>
	<g id="Camada%201">
		<g>
			<path d="M 17 176 L 55 176 L 55 117 L 65.2344 117 C 73.5469 117 80.2969 115.8594 85.4531 113.5781 C 90.6094 111.2969 94.1563 108.0313 96.0938 103.7813 C 98.0313 99.5313 99 92.75 99 83.4375 L 99 70.75 C 99 61.6406 98.5 54.9063 97.5 50.5625 C 96.5 46.2188 94.6094 42.5156 91.8125 39.4531 C 89 36.3906 84.8125 34.0625 79.25 32.4375 C 73.6719 30.8125 65.7031 30 55.3281 30 L 17 30 L 17 176 L 17 176 ZM 64.6719 57.25 C 66.2188 58.75 67 61.9688 67 66.9219 L 67 78.8281 C 67 84.2031 66.3281 87.75 64.9844 89.4531 C 63.6406 91.1563 61.2344 92 57.7813 92 C 57 92 56.0625 91.9688 55 91.9063 L 55 55 C 59.8906 55 63.1094 55.75 64.6719 57.25 L 64.6719 57.25 Z" fill="#0068be"/>
			<path d="M 141 90.1563 C 141 83.3125 141.2813 79.0781 141.8594 77.4531 C 142.4219 75.8281 143.8906 75 146.25 75 C 148.3125 75 149.7813 75.9844 150.6719 77.9219 C 151.5469 79.875 152 84.0625 152 90.5 C 152 95.6406 151.5781 99.0313 150.75 100.6563 C 149.9219 102.2813 143.625 105.4219 131.8594 110.0781 C 120.8438 114.3906 113.9531 118.1563 111.1719 121.375 C 108.3906 124.5938 107 130.6563 107 139.5625 L 107 149.3281 C 107 161.3438 109.6094 169.125 114.8594 172.6719 C 120.0938 176.2188 125.8438 178 132.125 178 C 136.9219 178 141.0469 176.9219 144.5156 174.7813 C 147.9844 172.6406 150.8125 169.4219 153 165.125 L 153 176 L 189 176 L 189 115.8594 C 189 96.0469 188.3594 82.9688 187.1094 76.625 C 185.8438 70.2813 182.0938 64.9219 175.8594 60.5469 C 169.6094 56.1875 160.3438 54 148.0469 54 C 137.7813 54 129.4375 55.9531 123.0156 59.8281 C 116.5938 63.7188 112.3125 68.2031 110.1875 73.2656 C 108.0625 78.3438 107 85.5469 107 94.8906 L 107 103 L 141 103 L 141 90.1563 L 141 90.1563 ZM 152 143.8594 C 152 149.8281 151.6719 153.5 151.0156 154.9063 C 150.3594 156.3125 148.9375 157 146.7656 157 C 144.4688 157 142.9375 156.1094 142.1563 154.3281 C 141.375 152.5469 141 148.5781 141 142.4219 C 141 137.0625 141.4375 132.9531 142.3281 130.0781 C 143.2188 127.2188 146.4375 123.6719 152 119.4375 L 152 143.8594 L 152 143.8594 Z" fill="#0068be"/>
			<path d="M 202 56 L 202 176 L 239 176 L 239 94.8125 C 239 85.7813 239.2969 80.2188 239.8906 78.125 C 240.4844 76.0469 241.9219 75 244.2344 75 C 246.4375 75 247.7813 75.9063 248.2656 77.7188 C 248.75 79.5313 249 84.5781 249 92.8281 L 249 176 L 286 176 L 286 92.0156 C 286 81.5469 285.4375 74.0781 284.3125 69.5781 C 283.1875 65.0938 280.6563 61.375 276.75 58.4219 C 272.8281 55.4844 267.7813 54 261.6094 54 C 256.6719 54 252.3281 55.1094 248.5625 57.3125 C 244.7969 59.5313 241.6094 62.8438 239 67.25 L 240 56 L 202 56 L 202 56 Z" fill="#0068be"/>
			<path d="M 344 30 L 344 63.9063 C 340.9688 60.6094 337.5938 58.1406 333.875 56.4844 C 330.1563 54.8281 326.0625 54 321.6094 54 C 315.8438 54 310.875 55.4688 306.7188 58.375 C 302.5625 61.2969 299.8906 64.6875 298.7344 68.5313 C 297.5781 72.375 297 78.9063 297 88.0938 L 297 144.0938 C 297 152.9375 297.5781 159.3125 298.7344 163.2188 C 299.8906 167.125 302.5313 170.5781 306.625 173.5469 C 310.7188 176.5 315.5781 178 321.1719 178 C 325.3281 178 329.2969 177.0781 333.1094 175.2813 C 336.9219 173.4688 340.5469 170.7344 344 167.1094 L 344 176 L 381 176 L 381 30 L 344 30 L 344 30 ZM 344 141.7813 C 344 148.4844 343.6406 152.7031 342.9375 154.4219 C 342.2344 156.1406 340.8281 157 338.7188 157 C 336.875 157 335.625 156.2344 334.9688 154.6875 C 334.3125 153.1563 334 149.9375 334 145.0469 L 334 86.1406 C 334 81.4375 334.3281 78.4063 335.0156 77.0469 C 335.6875 75.6875 337 75 338.9531 75 C 340.9531 75 342.2969 75.7656 342.9844 77.2656 C 343.6563 78.7813 344 81.7344 344 86.1406 L 344 141.7813 L 344 141.7813 Z" fill="#0068be"/>
			<path d="M 475.2344 79.25 C 474.0469 75.1094 471.8594 71.0781 468.6563 67.1719 C 465.4375 63.2656 460.8906 60.0938 455 57.6563 C 449.0938 55.2188 442.0469 54 433.8281 54 C 424.0156 54 415.9688 55.9063 409.6875 59.6875 C 403.3906 63.4688 399.0313 68.5 396.625 74.75 C 394.2031 81 393 89.6875 393 100.7969 L 393 131.4688 C 393 141.625 393.6563 149.25 394.9844 154.3281 C 396.3125 159.4219 398.5313 163.75 401.6563 167.3125 C 404.7656 170.8906 409.1406 173.5625 414.7656 175.3438 C 420.3906 177.1094 427.25 178 435.3594 178 C 442.6094 178 449.0469 176.9531 454.6406 174.8906 C 460.2344 172.8281 464.8125 169.6094 468.375 165.25 C 471.9375 160.8906 474.2656 156.2031 475.3594 151.1719 C 476.4531 146.1563 477 138.2656 477 127.5 L 477 98.1875 C 477 89.7188 476.4063 83.4063 475.2344 79.25 L 475.2344 79.25 ZM 440 144.5 C 440 149.6875 439.6719 153.0781 439.0156 154.6406 C 438.3594 156.2188 437.0313 157 435 157 C 433.0156 157 431.6875 156.1406 431.0156 154.4219 C 430.3281 152.7031 430 149 430 143.3125 L 430 89.0469 C 430 82.8906 430.3281 79 431.0156 77.4063 C 431.6875 75.8125 433.0469 75 435.0781 75 C 437.1094 75 438.4375 75.8125 439.0625 77.4063 C 439.6875 79 440 82.8906 440 89.0469 L 440 144.5 L 440 144.5 Z" fill="#0068be"/>
			<path d="M 490 56 L 490 176 L 527 176 L 527 128.5781 C 527 116.9375 527.3594 109.5 528.0938 106.2813 C 528.8281 103.0625 530.7969 100.5313 533.9844 98.7188 C 537.1719 96.9063 542.1875 96 549 96 L 549 54 C 538.9531 54.6875 531.2813 60.75 526 72.2188 L 527 56 L 490 56 L 490 56 Z" fill="#0068be"/>
			<path d="M 588 90.1563 C 588 83.3125 588.2813 79.0781 588.8594 77.4531 C 589.4219 75.8281 590.8906 75 593.25 75 C 595.3125 75 596.7813 75.9844 597.6719 77.9219 C 598.5469 79.875 599 84.0625 599 90.5 C 599 95.6406 598.5781 99.0313 597.75 100.6563 C 596.9219 102.2813 590.625 105.4219 578.8594 110.0781 C 567.8438 114.3906 560.9531 118.1563 558.1719 121.375 C 555.3906 124.5938 554 130.6563 554 139.5625 L 554 149.3281 C 554 161.3438 556.6094 169.125 561.8594 172.6719 C 567.0938 176.2188 572.8438 178 579.125 178 C 583.9219 178 588.0469 176.9219 591.5156 174.7813 C 594.9844 172.6406 597.8125 169.4219 600 165.125 L 600 176 L 636 176 L 636 115.8594 C 636 96.0469 635.3594 82.9688 634.1094 76.625 C 632.8438 70.2813 629.0938 64.9219 622.8594 60.5469 C 616.6094 56.1875 607.3438 54 595.0469 54 C 584.7813 54 576.4375 55.9531 570.0156 59.8281 C 563.5938 63.7188 559.3125 68.2031 557.1875 73.2656 C 555.0625 78.3438 554 85.5469 554 94.8906 L 554 103 L 588 103 L 588 90.1563 L 588 90.1563 ZM 599 143.8594 C 599 149.8281 598.6719 153.5 598.0156 154.9063 C 597.3594 156.3125 595.9375 157 593.7656 157 C 591.4688 157 589.9375 156.1094 589.1563 154.3281 C 588.375 152.5469 588 148.5781 588 142.4219 C 588 137.0625 588.4375 132.9531 589.3281 130.0781 C 590.2188 127.2188 593.4375 123.6719 599 119.4375 L 599 143.8594 L 599 143.8594 Z" fill="#0068be"/>
		</g>
	</g>
</svg>