<?xml version="1.0" standalone="no"?>
<!-- Generator: Adobe Fireworks 10, Export SVG Extension by Aaron Beall (http://fireworks.abeall.com) . Version: 0.6.1  -->
<!DOCTYPE svg PUBLIC "-//W3C//DTD SVG 1.1//EN" "http://www.w3.org/Graphics/SVG/1.1/DTD/svg11.dtd">
<svg id="08.fw-P%E1gina%201" viewBox="0 0 650 210" style="background-color:#ffffff00" version="1.1"
	xmlns="http://www.w3.org/2000/svg" xmlns:xlink="http://www.w3.org/1999/xlink" xml:space="preserve"
	x="0px" y="0px" width="650px" height="210px"
>
	<g id="Camada%201">
		<g>
			<path d="M 64 91.9531 C 64 85.8125 63.375 81.4688 62.1406 78.9063 C 60.8906 76.3438 58.3594 74.2188 54.5469 72.5313 C 50.7188 70.8438 46.0938 70 40.6719 70 C 35.7031 70 31.4688 70.7813 27.9688 72.3438 C 24.4688 73.9063 21.9219 76.0625 20.3594 78.8125 C 18.7813 81.5625 18 85.9219 18 91.8906 C 18 96.0313 18.5625 99.4375 19.7188 102.0938 C 20.875 104.7656 22.3281 106.8594 24.0781 108.3594 C 25.8281 109.8594 29.4219 112.2813 34.8281 115.6094 C 40.2188 118.9219 43.6094 121.2813 44.9844 122.6875 C 46.3281 124.0938 47 127.0938 47 131.6875 C 47 133.7813 46.6094 135.3594 45.8281 136.4219 C 45.0469 137.4844 43.8594 138 42.2656 138 C 40.6719 138 39.5625 137.5781 38.9375 136.7031 C 38.3125 135.8438 38 133.8906 38 130.8438 L 38 121 L 19 121 L 19 126.1719 C 19 132.1094 19.6094 136.7031 20.8281 139.9219 C 22.0469 143.1406 24.6406 145.7969 28.5781 147.875 C 32.5156 149.9688 37.2813 151 42.875 151 C 47.9531 151 52.4063 150.1094 56.2344 148.3281 C 60.0625 146.5469 62.6406 144.3438 63.9844 141.7188 C 65.3281 139.0938 66 135 66 129.4375 C 66 121.8125 64.75 116.2813 62.2813 112.8438 C 59.7813 109.4063 53.75 105.0313 44.1719 99.7031 C 40.8281 97.8594 38.7969 96.2813 38.1094 94.9531 C 37.3594 93.6406 37 91.6719 37 89.0469 C 37 87.0156 37.3594 85.5 38.0938 84.5 C 38.8281 83.5 39.9063 83 41.3438 83 C 42.6563 83 43.5938 83.375 44.1563 84.1094 C 44.7188 84.8438 45 86.5469 45 89.2344 L 45 95 L 64 95 L 64 91.9531 L 64 91.9531 Z" fill="#0068be"/>
			<path d="M 89 103.125 C 89 99.4688 89.125 97.1875 89.3906 96.3125 C 89.6406 95.4375 90.3125 95 91.3906 95 C 92.3281 95 92.9844 95.5313 93.3906 96.5625 C 93.7969 97.6094 94 99.8594 94 103.2969 C 94 106.0469 93.7813 107.8594 93.3594 108.7344 C 92.9375 109.6094 89.7188 111.3281 83.7031 113.875 C 78.0781 116.2188 74.5469 118.2813 73.125 120.0469 C 71.7031 121.8125 71 125.125 71 129.9844 L 71 135.3281 C 71 141.8906 72.2969 146.1563 74.9219 148.0938 C 77.5469 150.0156 80.4219 151 83.5625 151 C 85.9531 151 88.0156 150.4219 89.75 149.2969 C 91.4844 148.1563 92.9063 146.4375 94 144.1563 L 94 150 L 114 150 L 114 117.4688 C 114 106.75 113.6563 99.6719 113 96.2344 C 112.3438 92.7969 110.375 89.9063 107.1094 87.5469 C 103.8281 85.1875 98.9688 84 92.5313 84 C 87.1406 84 82.7656 85.0313 79.3906 87.0938 C 76.0156 89.1563 73.7813 91.5313 72.6719 94.2188 C 71.5469 96.9063 71 100.7344 71 105.7031 L 71 110 L 89 110 L 89 103.125 L 89 103.125 ZM 94 132.6094 C 94 135.9688 93.8438 138.0469 93.5469 138.8281 C 93.25 139.6094 92.6094 140 91.625 140 C 90.5781 140 89.875 139.5 89.5313 138.5 C 89.1719 137.5 89 135.2656 89 131.8125 C 89 128.7969 89.2031 126.4844 89.6094 124.875 C 90.0156 123.2656 91.4688 121.2656 94 118.8906 L 94 132.6094 L 94 132.6094 Z" fill="#0068be"/>
			<path d="M 121 85 L 121 150 L 141 150 L 141 105.7969 C 141 100.875 141.1406 97.8438 141.4375 96.7031 C 141.7344 95.5781 142.4688 95 143.625 95 C 144.7188 95 145.3906 95.5 145.6406 96.4844 C 145.875 97.4688 146 100.2031 146 104.7031 L 146 150 L 166 150 L 166 104.5625 C 166 98.9063 165.6875 94.8594 165.0938 92.4219 C 164.5 90 163.1563 87.9844 161.0781 86.3906 C 158.9844 84.7969 156.3125 84 153.0313 84 C 150.4063 84 148.0781 84.6094 146.0781 85.8125 C 144.0781 87.0313 142.375 88.8438 141 91.25 L 141 85 L 121 85 L 121 85 Z" fill="#0068be"/>
			<path d="M 173 77 L 173 87 L 170 87 L 170 97 L 173 97 L 173 129.9219 C 173 136.375 173.1875 140.4688 173.5625 142.2188 C 173.9375 143.9688 174.875 145.5156 176.4063 146.8594 C 177.9219 148.2031 179.6875 149.0625 181.6875 149.4375 C 183.6875 149.8125 187.0313 150 191.7188 150 L 200 150 L 200 140 C 196.3281 140 194.25 139.7656 193.75 139.2656 C 193.25 138.7656 193 136.3594 193 132.0469 L 193 97 L 199 97 L 199 87 L 193 87 L 193 77 L 173 77 L 173 77 Z" fill="#0068be"/>
			<path d="M 246.0625 97.6406 C 245.4375 95.4063 244.2969 93.2344 242.625 91.125 C 240.9375 89.0156 238.5625 87.2969 235.4688 85.9844 C 232.375 84.6719 228.6875 84 224.375 84 C 219.25 84 215.0313 85.0313 211.7344 87.0781 C 208.4375 89.125 206.1563 91.8438 204.8906 95.2188 C 203.625 98.5938 203 103.2969 203 109.2969 L 203 125.8594 C 203 131.3594 203.3438 135.4688 204.0469 138.2188 C 204.7344 140.9688 205.9063 143.2969 207.5313 145.2344 C 209.1563 147.1719 211.4531 148.6094 214.4063 149.5625 C 217.3438 150.5156 220.9375 151 225.1875 151 C 228.9844 151 232.3438 150.4375 235.2813 149.3281 C 238.2188 148.2031 240.6094 146.4688 242.4844 144.1094 C 244.3594 141.7656 245.5781 139.2344 246.1406 136.5156 C 246.7031 133.7969 247 129.5313 247 123.7188 L 247 107.875 C 247 103.2969 246.6875 99.8906 246.0625 97.6406 L 246.0625 97.6406 ZM 227 133.1406 C 227 136 226.8594 137.8594 226.6094 138.7188 C 226.3438 139.5781 225.8125 140 225 140 C 224.2031 140 223.6719 139.5313 223.4063 138.5938 C 223.125 137.6563 223 135.6094 223 132.4844 L 223 102.7031 C 223 99.3281 223.125 97.2031 223.4063 96.3281 C 223.6719 95.4531 224.2188 95 225.0313 95 C 225.8438 95 226.375 95.4531 226.625 96.3281 C 226.875 97.2031 227 99.3281 227 102.7031 L 227 133.1406 L 227 133.1406 Z" fill="#0068be"/>
			<path d="M 295 102.2188 C 295 98.9531 294.8281 96.5469 294.4844 95 C 294.1406 93.4688 293.1563 91.7969 291.5313 90 C 289.9063 88.2031 287.5938 86.75 284.5625 85.6563 C 281.5313 84.5625 277.8438 84 273.5313 84 C 269.1719 84 265.3438 84.6719 262.0625 86.0156 C 258.7656 87.3594 256.4375 89.2813 255.0625 91.75 C 253.6875 94.2188 253 98.0625 253 103.25 C 253 106.9375 253.625 110.1094 254.8906 112.7656 C 256.1563 115.4375 259.6875 118.4063 265.4688 121.6719 C 272.3594 125.5469 276.1719 127.875 276.9219 128.6563 C 277.6406 129.4375 278 131.3906 278 134.5 C 278 136.7656 277.7188 138.25 277.1719 138.9531 C 276.6094 139.6563 275.6406 140 274.25 140 C 272.9531 140 272.0938 139.4688 271.6563 138.375 C 271.2188 137.2813 271 134.9219 271 131.2813 L 271 127 L 253 127 L 253 130.1406 C 253 135.5625 253.6719 139.6094 255.0156 142.2813 C 256.3594 144.9688 258.8125 147.0938 262.4063 148.6563 C 266 150.2031 270.3125 151 275.3594 151 C 279.9063 151 283.7969 150.2656 287.0313 148.8125 C 290.25 147.3594 292.5625 145.2813 293.9375 142.5781 C 295.3125 139.875 296 135.875 296 130.5625 C 296 125.8125 295.1094 122.2031 293.3594 119.7031 C 291.5938 117.2188 287.8906 114.5625 282.25 111.75 C 278.0156 109.625 275.2188 108.0156 273.8594 106.8906 C 272.4844 105.7813 271.6719 104.7656 271.4063 103.8281 C 271.125 102.8906 271 101.4219 271 99.4219 C 271 97.9531 271.2031 96.8438 271.6406 96.1094 C 272.0781 95.375 272.7188 95 273.5938 95 C 274.6563 95 275.3281 95.4219 275.5938 96.2656 C 275.8594 97.1094 276 99.125 276 102.2813 L 276 106 L 295 106 L 295 102.2188 L 295 102.2188 Z" fill="#0068be"/>
			<path d="M 320 150 L 345.5938 150 C 350.4375 150 354.0781 149.7344 356.4844 149.2031 C 358.8906 148.6719 360.9219 147.7188 362.5625 146.375 C 364.2031 145.0313 365.3594 143.1563 366.0156 140.7656 C 366.6719 138.375 367 133.625 367 126.5313 L 367 98.8594 C 367 91.3906 366.7656 86.375 366.3281 83.8125 C 365.875 81.2656 364.75 78.9531 362.9531 76.8594 C 361.1406 74.7813 358.5156 73.2813 355.0625 72.375 C 351.6094 71.4688 344.9844 71 335.1875 71 L 320 71 L 320 150 L 320 150 ZM 344.5313 84.7188 C 345.1563 85.2031 345.5469 85.9531 345.7344 86.9844 C 345.9063 88.0156 346 90.3594 346 94 L 346 125.3125 C 346 130.6875 345.7344 133.9688 345.2031 135.1875 C 344.6719 136.4063 343.2813 137 341 137 L 341 84 C 342.7188 84 343.9063 84.25 344.5313 84.7188 L 344.5313 84.7188 Z" fill="#0068be"/>
			<path d="M 399 85 L 399 129.0156 C 399 134.375 398.875 137.5469 398.6563 138.5313 C 398.4219 139.5156 397.7031 140 396.4844 140 C 395.3281 140 394.625 139.5313 394.375 138.5781 C 394.125 137.625 394 134.5938 394 129.5 L 394 85 L 374 85 L 374 128.7188 C 374 134.2969 374.1094 138.0156 374.3281 139.8906 C 374.5469 141.7656 375.1094 143.5625 376.0156 145.2813 C 376.9219 147.0156 378.3125 148.4063 380.2188 149.4375 C 382.1094 150.4688 384.5 151 387.375 151 C 389.9063 151 392.1406 150.4531 394.0781 149.3906 C 396.0156 148.3125 397.6563 146.6875 399 144.5313 L 398.7188 150 L 419 150 L 419 85 L 399 85 L 399 85 Z" fill="#0068be"/>
			<path d="M 426 85 L 426 150 L 446 150 L 446 104.6563 C 446 101.5 446.0156 99.4375 446.0781 98.4688 C 446.125 97.5 446.3906 96.6875 446.875 96.0156 C 447.3594 95.3438 447.9531 95 448.6406 95 C 449.7344 95 450.3906 95.6406 450.6406 96.9219 C 450.875 98.2031 451 102.0469 451 108.4531 L 451 150 L 471 150 L 471 107.375 C 471 101.75 471.1563 98.2813 471.4688 96.9688 C 471.7813 95.6563 472.4688 95 473.5625 95 C 474.6094 95 475.2813 95.6719 475.5625 97 C 475.8438 98.3281 476 101.7813 476 107.375 L 476 150 L 496 150 L 496 103.9375 C 496 98.625 495.6875 94.7969 495.0938 92.4375 C 494.4844 90.0781 493.1094 88.0781 490.9688 86.4531 C 488.8281 84.8281 486.125 84 482.8594 84 C 480.375 84 478.1094 84.6094 476.0781 85.8125 C 474.0469 87.0156 472.2188 88.8125 470.6094 91.2188 C 467.6406 86.4063 463.5781 84 458.4219 84 C 455.7656 84 453.4063 84.6094 451.3438 85.8125 C 449.2813 87.0156 447.5 88.8125 446 91.2188 L 446 85 L 426 85 L 426 85 Z" fill="#0068be"/>
			<path d="M 546.0625 97.6406 C 545.4375 95.4063 544.2969 93.2344 542.625 91.125 C 540.9375 89.0156 538.5625 87.2969 535.4688 85.9844 C 532.375 84.6719 528.6875 84 524.375 84 C 519.25 84 515.0313 85.0313 511.7344 87.0781 C 508.4375 89.125 506.1563 91.8438 504.8906 95.2188 C 503.625 98.5938 503 103.2969 503 109.2969 L 503 125.8594 C 503 131.3594 503.3438 135.4688 504.0469 138.2188 C 504.7344 140.9688 505.9063 143.2969 507.5313 145.2344 C 509.1563 147.1719 511.4531 148.6094 514.4063 149.5625 C 517.3438 150.5156 520.9375 151 525.1875 151 C 528.9844 151 532.3438 150.4375 535.2813 149.3281 C 538.2188 148.2031 540.6094 146.4688 542.4844 144.1094 C 544.3594 141.7656 545.5781 139.2344 546.1406 136.5156 C 546.7031 133.7969 547 129.5313 547 123.7188 L 547 107.875 C 547 103.2969 546.6875 99.8906 546.0625 97.6406 L 546.0625 97.6406 ZM 527 133.1406 C 527 136 526.8594 137.8594 526.6094 138.7188 C 526.3438 139.5781 525.8125 140 525 140 C 524.2031 140 523.6719 139.5313 523.4063 138.5938 C 523.125 137.6563 523 135.6094 523 132.4844 L 523 102.7031 C 523 99.3281 523.125 97.2031 523.4063 96.3281 C 523.6719 95.4531 524.2188 95 525.0313 95 C 525.8438 95 526.375 95.4531 526.625 96.3281 C 526.875 97.2031 527 99.3281 527 102.7031 L 527 133.1406 L 527 133.1406 Z" fill="#0068be"/>
			<path d="M 554 85 L 554 150 L 574 150 L 574 105.7969 C 574 100.875 574.1406 97.8438 574.4375 96.7031 C 574.7344 95.5781 575.4688 95 576.625 95 C 577.7188 95 578.3906 95.5 578.6406 96.4844 C 578.875 97.4688 579 100.2031 579 104.7031 L 579 150 L 599 150 L 599 104.5625 C 599 98.9063 598.6875 94.8594 598.0938 92.4219 C 597.5 90 596.1563 87.9844 594.0781 86.3906 C 591.9844 84.7969 589.3125 84 586.0313 84 C 583.4063 84 581.0781 84.6094 579.0781 85.8125 C 577.0781 87.0313 575.375 88.8438 574 91.25 L 574 85 L 554 85 L 554 85 Z" fill="#0068be"/>
			<path d="M 606 77 L 606 87 L 603 87 L 603 97 L 606 97 L 606 129.9219 C 606 136.375 606.1875 140.4688 606.5625 142.2188 C 606.9375 143.9688 607.875 145.5156 609.4063 146.8594 C 610.9219 148.2031 612.6875 149.0625 614.6875 149.4375 C 616.6875 149.8125 620.0313 150 624.7188 150 L 633 150 L 633 140 C 629.3281 140 627.25 139.7656 626.75 139.2656 C 626.25 138.7656 626 136.3594 626 132.0469 L 626 97 L 632 97 L 632 87 L 626 87 L 626 77 L 606 77 L 606 77 Z" fill="#0068be"/>
		</g>
	</g>
</svg>