<?xml version="1.0" standalone="no"?>
<!-- Generator: Adobe Fireworks 10, Export SVG Extension by Aaron Beall (http://fireworks.abeall.com) . Version: 0.6.1  -->
<!DOCTYPE svg PUBLIC "-//W3C//DTD SVG 1.1//EN" "http://www.w3.org/Graphics/SVG/1.1/DTD/svg11.dtd">
<svg id="Sem%20t%EDtulo-1.fw-P%E1gina%201" viewBox="0 0 502 214" style="background-color:#3254d2" version="1.1"
	xmlns="http://www.w3.org/2000/svg" xmlns:xlink="http://www.w3.org/1999/xlink" xml:space="preserve"
	x="0px" y="0px" width="502px" height="214px"
>
	<g id="Camada%201">
		<g>
			<path d="M 144 38 L 144.5 23.0469 L 148.0313 38 L 150.9531 38 L 154.5 23.0469 L 155 38 L 159 38 L 159 19 L 152.7813 19 L 149.5 31.9531 L 146.25 19 L 140 19 L 140 38 L 144 38 L 144 38 Z" fill="#ffffff"/>
			<path d="M 166 38 L 166 19 L 162 19 L 162 38 L 166 38 L 166 38 Z" fill="#ffffff"/>
			<path d="M 174 38 L 174 25.5156 L 181.25 38 L 185 38 L 185 19 L 181 19 L 181 31.3438 L 173.6563 19 L 170 19 L 170 38 L 174 38 L 174 38 Z" fill="#ffffff"/>
			<path d="M 193 38 L 193 19 L 189 19 L 189 38 L 193 38 L 193 38 Z" fill="#ffffff"/>
			<path d="M 198.2344 36.4063 C 199.4844 37.3906 201.2656 37.9219 203.6094 38 C 205.2031 38 206.5469 37.7813 207.625 37.3438 C 208.6875 36.9063 209.5156 36.25 210.1094 35.3438 C 210.7031 34.4375 211 33.4688 211 32.4375 C 211 31.3125 210.7656 30.3594 210.3125 29.5781 C 209.8594 28.8125 209.2344 28.2031 208.4219 27.75 C 207.6094 27.3125 206.375 26.75 204.6875 26.0625 C 203 25.375 201.9531 24.8594 201.5156 24.5156 C 201.1719 24.2656 201 23.9375 201 23.5625 C 201 23.1563 201.1406 22.8281 201.4531 22.5781 C 201.9219 22.2031 202.5625 22 203.4063 22 C 204.2031 22 204.7969 22.1563 205.2031 22.4688 C 205.6094 22.7813 205.875 23.2969 206 24 L 210 24 C 209.9375 22.4844 209.3594 21.2969 208.2656 20.4219 C 207.1563 19.5625 205.5156 19.0938 203.3438 19 C 202 19.0938 200.8594 19.3281 199.9219 19.7188 C 198.9688 20.1094 198.25 20.7188 197.75 21.5313 C 197.25 22.3594 197 23.25 197 24.1875 C 197 25.6719 197.5313 26.9219 198.5938 27.9375 C 199.3438 28.6719 200.6719 29.3281 202.5625 29.9219 C 204.0313 30.3906 204.9688 30.7188 205.375 30.8906 C 205.9688 31.1094 206.3906 31.3438 206.6406 31.625 C 206.875 31.9063 207 32.25 207 32.6563 C 207 33.2813 206.7188 33.8281 206.1563 34.2969 C 205.5938 34.7656 204.7813 35 203.6875 35 C 202.6406 35 201.8125 34.7656 201.2031 34.2813 C 200.5938 33.7969 200.1875 33.0313 200 32 L 196 32 C 196.2344 33.9688 196.9844 35.4375 198.2344 36.4063 L 198.2344 36.4063 Z" fill="#ffffff"/>
			<path d="M 223 38 L 223 23 L 228 23 L 228 19 L 214 19 L 214 23 L 219 23 L 219 38 L 223 38 L 223 38 Z" fill="#ffffff"/>
			<path d="M 246 38 L 246 34 L 236 34 L 236 30 L 245 30 L 245 26 L 236 26 L 236 23 L 246 23 L 246 19 L 232 19 L 232 38 L 246 38 L 246 38 ZM 239 18 L 243 14 L 239 14 L 237 18 L 239 18 L 239 18 Z" fill="#ffffff"/>
			<path d="M 254 38 L 254 31 L 254.7813 31 C 255.6563 31 256.3125 31.0625 256.7188 31.1719 C 257.125 31.2813 257.4219 31.4844 257.6094 31.7656 C 257.7969 32.0625 258.3906 32.7656 259.3906 33.8906 L 261.9688 38 L 267 38 L 264.7188 34.6406 C 263.8438 33.3125 263.1406 32.3906 262.625 31.8594 C 262.0938 31.3281 261.4375 30.8438 260.6563 30.4063 C 262.0938 30.1563 263.1875 29.5156 263.9063 28.5156 C 264.625 27.5156 265 26.25 265 24.7188 C 265 23.5156 264.7344 22.4375 264.2031 21.5 C 263.6719 20.5625 262.9531 19.9219 262.0625 19.5469 C 261.1719 19.1875 259.75 19 257.7969 19 L 250 19 L 250 38 L 254 38 L 254 38 ZM 254 23 L 256.7031 23 C 258.1094 23 258.9531 23.0156 259.2344 23.0469 C 259.7969 23.1406 260.2188 23.3594 260.5313 23.6719 C 260.8438 24 261 24.4219 261 24.9531 C 261 25.4375 260.875 25.8281 260.6406 26.1406 C 260.4063 26.4531 260.0781 26.6875 259.6719 26.8125 C 259.2656 26.9375 258.2188 27 256.5625 27 L 254 27 L 254 23 L 254 23 Z" fill="#ffffff"/>
			<path d="M 273 38 L 273 19 L 269 19 L 269 38 L 273 38 L 273 38 Z" fill="#ffffff"/>
			<path d="M 278.4375 35.5 C 280.0625 37.1719 282.2656 38 285.0313 38 C 287.75 38 289.9219 37.1719 291.5469 35.4844 C 293.1719 33.8125 294 31.5 294 28.5313 C 294 25.5313 293.1719 23.2031 291.5313 21.5156 C 289.8906 19.8438 287.7031 19 284.9688 19 C 283.4531 19 282.125 19.25 280.9688 19.7344 C 280.0938 20.0938 279.2969 20.6406 278.5781 21.3906 C 277.8438 22.1406 277.2656 22.9688 276.8438 23.9063 C 276.2813 25.1875 276 26.75 276 28.6094 C 276 31.5469 276.8125 33.8438 278.4375 35.5 L 278.4375 35.5 ZM 281.375 24.375 C 282.2969 23.4688 283.5156 23 285.0156 23 C 286.5156 23 287.7344 23.4531 288.6406 24.3594 C 289.5469 25.2656 290 26.625 290 28.4531 C 290 30.2969 289.5313 31.6875 288.5938 32.6094 C 287.6563 33.5469 286.4688 34 285.0156 34 C 283.5625 34 282.3594 33.5469 281.4219 32.6094 C 280.4688 31.6719 280 30.2969 280 28.4844 C 280 26.6563 280.4531 25.2813 281.375 24.375 L 281.375 24.375 Z" fill="#ffffff"/>
			<path d="M 306 38 L 313.25 38 C 314.6719 38 315.8125 37.875 316.6563 37.5938 C 317.7969 37.2344 318.7031 36.7344 319.375 36.0781 C 320.25 35.2344 320.9375 34.1094 321.4219 32.7188 C 321.7969 31.5938 322 30.25 322 28.6875 C 322 26.9063 321.7813 25.4219 321.375 24.2031 C 320.9531 22.9844 320.3438 21.9688 319.5469 21.125 C 318.75 20.2813 317.7969 19.7031 316.6719 19.3594 C 315.8281 19.125 314.625 19 313.0469 19 L 306 19 L 306 38 L 306 38 ZM 311.7031 23 C 313.2344 23 314.2656 23.0625 314.7969 23.1563 C 315.5 23.2969 316.0781 23.5625 316.5469 23.9375 C 317 24.3281 317.3594 24.8594 317.6094 25.5469 C 317.8594 26.2344 318 27.2188 318 28.5 C 318 29.7969 317.8594 30.8125 317.6094 31.5469 C 317.3594 32.2969 317.0313 32.8281 316.625 33.1563 C 316.2188 33.4844 315.7031 33.7188 315.1094 33.8438 C 314.6406 33.9531 313.875 34 312.8125 34 L 310 34 L 310 23 L 311.7031 23 L 311.7031 23 Z" fill="#ffffff"/>
			<path d="M 335.2656 19 L 329.7656 19 L 323 38 L 327.2031 38 L 328.5781 34 L 336.3594 34 L 337.7656 38 L 342 38 L 335.2656 19 L 335.2656 19 ZM 329.6563 31 L 332.5 23 L 335.375 31 L 329.6563 31 L 329.6563 31 Z" fill="#ffffff"/>
			<path d="M 356 38 L 356 30 L 364 30 L 364 26 L 356 26 L 356 23 L 365 23 L 365 19 L 352 19 L 352 38 L 356 38 L 356 38 Z" fill="#ffffff"/>
			<path d="M 379.2656 19 L 373.7656 19 L 367 38 L 371.2031 38 L 372.5781 34 L 380.3594 34 L 381.7656 38 L 386 38 L 379.2656 19 L 379.2656 19 ZM 373.6563 31 L 376.5 23 L 379.375 31 L 373.6563 31 L 373.6563 31 Z" fill="#ffffff"/>
			<path d="M 401 38 L 401 34 L 390.75 34 L 401 22 L 401 19 L 387 19 L 387 23 L 396 23 L 386 35 L 386 38 L 401 38 L 401 38 Z" fill="#ffffff"/>
			<path d="M 419 38 L 419 34 L 409 34 L 409 30 L 418 30 L 418 26 L 409 26 L 409 23 L 419 23 L 419 19 L 405 19 L 405 38 L 419 38 L 419 38 Z" fill="#ffffff"/>
			<path d="M 427 38 L 427 25.5156 L 434.25 38 L 438 38 L 438 19 L 434 19 L 434 31.3438 L 426.6563 19 L 423 19 L 423 38 L 427 38 L 427 38 Z" fill="#ffffff"/>
			<path d="M 442 38 L 449.25 38 C 450.6719 38 451.8125 37.875 452.6563 37.5938 C 453.7969 37.2344 454.7031 36.7344 455.375 36.0781 C 456.25 35.2344 456.9375 34.1094 457.4219 32.7188 C 457.7969 31.5938 458 30.25 458 28.6875 C 458 26.9063 457.7813 25.4219 457.375 24.2031 C 456.9531 22.9844 456.3438 21.9688 455.5469 21.125 C 454.75 20.2813 453.7969 19.7031 452.6719 19.3594 C 451.8281 19.125 450.625 19 449.0469 19 L 442 19 L 442 38 L 442 38 ZM 447.7031 23 C 449.2344 23 450.2656 23.0625 450.7969 23.1563 C 451.5 23.2969 452.0781 23.5625 452.5469 23.9375 C 453 24.3281 453.3594 24.8594 453.6094 25.5469 C 453.8594 26.2344 454 27.2188 454 28.5 C 454 29.7969 453.8594 30.8125 453.6094 31.5469 C 453.3594 32.2969 453.0313 32.8281 452.625 33.1563 C 452.2188 33.4844 451.7031 33.7188 451.1094 33.8438 C 450.6406 33.9531 449.875 34 448.8125 34 L 446 34 L 446 23 L 447.7031 23 L 447.7031 23 Z" fill="#ffffff"/>
			<path d="M 471.2656 19 L 465.7656 19 L 459 38 L 463.2031 38 L 464.5781 34 L 472.3594 34 L 473.7656 38 L 478 38 L 471.2656 19 L 471.2656 19 ZM 465.6563 31 L 468.5 23 L 471.375 31 L 465.6563 31 L 465.6563 31 Z" fill="#ffffff"/>
			<path d="M 119.2344 67.6062 C 120.4844 68.5906 122.2656 69.1219 124.6094 69.2 C 126.2031 69.2 127.5469 68.9812 128.625 68.5437 C 129.6875 68.1062 130.5156 67.45 131.1094 66.5437 C 131.7031 65.6375 132 64.6687 132 63.6375 C 132 62.5125 131.7656 61.5594 131.3125 60.7781 C 130.8594 60.0125 130.2344 59.4031 129.4219 58.95 C 128.6094 58.5125 127.375 57.95 125.6875 57.2625 C 124 56.575 122.9531 56.0594 122.5156 55.7156 C 122.1719 55.4656 122 55.1375 122 54.7625 C 122 54.3562 122.1406 54.0281 122.4531 53.7781 C 122.9219 53.4031 123.5625 53.2 124.4063 53.2 C 125.2031 53.2 125.7969 53.3562 126.2031 53.6687 C 126.6094 53.9812 126.875 54.4969 127 55.2 L 131 55.2 C 130.9375 53.6844 130.3594 52.4969 129.2656 51.6219 C 128.1563 50.7625 126.5156 50.2937 124.3438 50.2 C 123 50.2937 121.8594 50.5281 120.9219 50.9187 C 119.9688 51.3094 119.25 51.9187 118.75 52.7312 C 118.25 53.5594 118 54.45 118 55.3875 C 118 56.8719 118.5313 58.1219 119.5938 59.1375 C 120.3438 59.8719 121.6719 60.5281 123.5625 61.1219 C 125.0313 61.5906 125.9688 61.9187 126.375 62.0906 C 126.9688 62.3094 127.3906 62.5437 127.6406 62.825 C 127.875 63.1062 128 63.45 128 63.8562 C 128 64.4812 127.7188 65.0281 127.1563 65.4969 C 126.5938 65.9656 125.7813 66.2 124.6875 66.2 C 123.6406 66.2 122.8125 65.9656 122.2031 65.4812 C 121.5938 64.9969 121.1875 64.2312 121 63.2 L 117 63.2 C 117.2344 65.1687 117.9844 66.6375 119.2344 67.6062 L 119.2344 67.6062 Z" fill="#ffffff"/>
			<path d="M 142.3281 65.9656 C 142.0313 66.1219 141.6719 66.2 141.25 66.2 C 140.6094 66.2 140.0781 65.95 139.6563 65.4187 C 139.2344 64.8875 139.0156 64.1531 139 63.2 L 147 63.2 C 147.0469 60.4969 146.5156 58.4812 145.4219 57.1687 C 144.3125 55.8562 142.7969 55.2 140.8906 55.2 C 139.1875 55.2 137.7813 55.8406 136.6719 57.0906 C 135.5469 58.3406 135 60.075 135 62.2937 C 135 64.1687 135.4219 65.7 136.2969 66.9187 C 137.375 68.45 139.0469 69.2 141.3281 69.2 C 142.75 69.2 143.9375 68.95 144.9063 68.4344 C 145.8594 67.9344 146.5625 67.1844 147 66.2 L 143 65.2 C 142.8438 65.5594 142.625 65.8094 142.3281 65.9656 L 142.3281 65.9656 ZM 139.0625 61.2 C 139.0469 60.2781 139.2344 59.5437 139.6094 59.0125 C 139.9844 58.4812 140.4531 58.2 141.0469 58.2 C 141.5781 58.2 142.0313 58.4656 142.4063 58.9656 C 142.7813 59.4812 142.9688 60.2312 143 61.2 L 139.0625 61.2 L 139.0625 61.2 Z" fill="#ffffff"/>
			<path d="M 160 56.1844 C 159.0625 55.5281 157.8125 55.2 156.25 55.2 C 154.3281 55.2 152.8125 55.825 151.6875 57.0594 C 150.5625 58.2937 150 60.0125 150 62.2156 C 150 64.4031 150.5469 66.1219 151.6563 67.3562 C 152.75 68.5906 154.2344 69.2 156.1094 69.2 C 157.7344 69.2 159.0469 68.8719 160.0156 68.2 C 160.9844 67.5281 161.6563 66.5281 162 65.2 L 158 64.2 C 157.875 64.9344 157.6563 65.45 157.3438 65.7469 C 157.0313 66.0594 156.625 66.2 156.1406 66.2 C 155.4844 66.2 154.9531 65.8875 154.5781 65.2625 C 154.1875 64.6375 154 63.5437 154 62.0125 C 154 60.6375 154.1875 59.6687 154.5938 59.075 C 154.9844 58.4969 155.5156 58.2 156.1875 58.2 C 156.6719 58.2 157.0781 58.3719 157.3906 58.7 C 157.7031 59.0437 157.9063 59.5437 158 60.2 L 162 59.2 C 161.5938 57.8562 160.9219 56.8406 160 56.1844 L 160 56.1844 Z" fill="#ffffff"/>
			<path d="M 170 64.8719 C 170 62.4969 170.0781 60.9344 170.25 60.1844 C 170.4219 59.4344 170.6563 58.9187 170.9531 58.6375 C 171.25 58.3562 171.625 58.2 172.0625 58.2 C 172.5 58.2 172.9688 58.1375 173.5 58.0125 L 174 55.825 C 173.4375 55.4187 172.8594 55.2 172.2656 55.2 C 171.8281 55.2 171.4531 55.2937 171.125 55.4812 C 170.7813 55.6687 170.4063 56.2156 170 57.1219 L 170 55.2 L 166 55.2 L 166 69.2 L 170 69.2 L 170 64.8719 L 170 64.8719 Z" fill="#ffffff"/>
			<path d="M 183.3281 65.9656 C 183.0313 66.1219 182.6719 66.2 182.25 66.2 C 181.6094 66.2 181.0781 65.95 180.6563 65.4187 C 180.2344 64.8875 180.0156 64.1531 180 63.2 L 188 63.2 C 188.0469 60.4969 187.5156 58.4812 186.4219 57.1687 C 185.3125 55.8562 183.7969 55.2 181.8906 55.2 C 180.1875 55.2 178.7813 55.8406 177.6719 57.0906 C 176.5469 58.3406 176 60.075 176 62.2937 C 176 64.1687 176.4219 65.7 177.2969 66.9187 C 178.375 68.45 180.0469 69.2 182.3281 69.2 C 183.75 69.2 184.9375 68.95 185.9063 68.4344 C 186.8594 67.9344 187.5625 67.1844 188 66.2 L 184 65.2 C 183.8438 65.5594 183.625 65.8094 183.3281 65.9656 L 183.3281 65.9656 ZM 180.0625 61.2 C 180.0469 60.2781 180.2344 59.5437 180.6094 59.0125 C 180.9844 58.4812 181.4531 58.2 182.0469 58.2 C 182.5781 58.2 183.0313 58.4656 183.4063 58.9656 C 183.7813 59.4812 183.9688 60.2312 184 61.2 L 180.0625 61.2 L 180.0625 61.2 Z" fill="#ffffff"/>
			<path d="M 196 55.2 L 196 50.2 L 192 52.2 L 192 55.2 L 190 55.2 L 190 58.2 L 192 58.2 L 192 64.1062 C 192 65.3875 192.0313 66.2312 192.125 66.6375 C 192.2188 67.2312 192.4063 67.6844 192.6719 68.0281 C 192.9375 68.3719 193.3594 68.6531 193.9375 68.8719 C 194.5 69.0906 195.1563 69.2 195.875 69.2 C 197.0313 69.2 198.0781 69.0281 199 68.6531 L 198.5 65.8562 C 197.8438 66.0906 197.3594 66.2 197.0156 66.2 C 196.7656 66.2 196.5625 66.1531 196.3906 66.0281 C 196.2188 65.9031 196.1094 65.7625 196.0625 65.575 C 196.0156 65.3875 196 64.7469 196 63.6375 L 196 58.2 L 199 58.2 L 199 55.2 L 196 55.2 L 196 55.2 Z" fill="#ffffff"/>
			<path d="M 203.9063 57.6531 C 204.2813 57.3562 204.7969 57.2 205.4531 57.2 C 206.4375 57.2 207.1094 57.4031 207.4688 57.7781 C 207.8125 58.1687 208 58.825 208 59.7312 L 208 60.2 C 207.375 60.4812 206.2813 60.7625 204.6875 61.0594 C 203.5 61.4656 202.6094 61.7937 201.9844 62.0125 C 201.3594 62.2469 200.8594 62.6531 200.5156 63.2469 C 200.1719 63.8406 200 64.5125 200 65.2625 C 200 66.4031 200.3906 67.3406 201.1719 68.0906 C 201.9531 68.8406 203.0469 69.2 204.4219 69.2 C 205.1875 69.2 205.9219 69.0906 206.6094 68.8719 C 207.2969 68.6531 207.9375 68.3094 208.5313 67.8719 C 208.5625 67.9344 208.5938 68.0594 208.6563 68.2469 C 208.7813 68.6687 208.9063 68.9812 209 69.2 L 213 69.2 C 212.6094 68.5437 212.3438 67.9344 212.2031 67.3719 C 212.0625 66.8094 212 65.9187 212 64.7 L 212 60.4656 C 212 58.9031 211.8281 57.825 211.5 57.2312 C 211.1563 56.6375 210.5938 56.1531 209.7813 55.7781 C 208.9688 55.4031 207.75 55.2 206.0938 55.2 C 204.25 55.2 202.875 55.5281 201.9531 56.1844 C 201.0156 56.8406 200.375 57.8406 200 59.2 L 203 59.2 C 203.2188 58.4656 203.5313 57.95 203.9063 57.6531 L 203.9063 57.6531 ZM 208 63.0281 C 208 64.0437 207.9531 64.7312 207.8906 65.075 C 207.7656 65.6219 207.5313 66.075 207.1719 66.45 C 206.6875 66.95 206.1719 67.2 205.6406 67.2 C 205.1563 67.2 204.7656 66.9969 204.4531 66.5594 C 204.1406 66.1375 204 65.6375 204 65.0437 C 204 64.45 204.1875 63.9656 204.5781 63.575 C 204.8281 63.3406 205.3594 63.0906 206.1875 62.8406 C 207.0156 62.5906 207.625 62.3875 208 62.2 L 208 63.0281 L 208 63.0281 Z" fill="#ffffff"/>
			<path d="M 220 64.8719 C 220 62.4969 220.0781 60.9344 220.25 60.1844 C 220.4219 59.4344 220.6563 58.9187 220.9531 58.6375 C 221.25 58.3562 221.625 58.2 222.0625 58.2 C 222.5 58.2 222.9688 58.1375 223.5 58.0125 L 224 55.825 C 223.4375 55.4187 222.8594 55.2 222.2656 55.2 C 221.8281 55.2 221.4531 55.2937 221.125 55.4812 C 220.7813 55.6687 220.4063 56.2156 220 57.1219 L 220 55.2 L 216 55.2 L 216 69.2 L 220 69.2 L 220 64.8719 L 220 64.8719 Z" fill="#ffffff"/>
			<path d="M 231 53.2 L 231 50.2 L 227 50.2 L 227 53.2 L 231 53.2 L 231 53.2 ZM 231 69.2 L 231 55.2 L 227 55.2 L 227 69.2 L 231 69.2 L 231 69.2 Z" fill="#ffffff"/>
			<path d="M 237.9063 57.6531 C 238.2813 57.3562 238.7969 57.2 239.4531 57.2 C 240.4375 57.2 241.1094 57.4031 241.4688 57.7781 C 241.8125 58.1687 242 58.825 242 59.7312 L 242 60.2 C 241.375 60.4812 240.2813 60.7625 238.6875 61.0594 C 237.5 61.4656 236.6094 61.7937 235.9844 62.0125 C 235.3594 62.2469 234.8594 62.6531 234.5156 63.2469 C 234.1719 63.8406 234 64.5125 234 65.2625 C 234 66.4031 234.3906 67.3406 235.1719 68.0906 C 235.9531 68.8406 237.0469 69.2 238.4219 69.2 C 239.1875 69.2 239.9219 69.0906 240.6094 68.8719 C 241.2969 68.6531 241.9375 68.3094 242.5313 67.8719 C 242.5625 67.9344 242.5938 68.0594 242.6563 68.2469 C 242.7813 68.6687 242.9063 68.9812 243 69.2 L 247 69.2 C 246.6094 68.5437 246.3438 67.9344 246.2031 67.3719 C 246.0625 66.8094 246 65.9187 246 64.7 L 246 60.4656 C 246 58.9031 245.8281 57.825 245.5 57.2312 C 245.1563 56.6375 244.5938 56.1531 243.7813 55.7781 C 242.9688 55.4031 241.75 55.2 240.0938 55.2 C 238.25 55.2 236.875 55.5281 235.9531 56.1844 C 235.0156 56.8406 234.375 57.8406 234 59.2 L 237 59.2 C 237.2188 58.4656 237.5313 57.95 237.9063 57.6531 L 237.9063 57.6531 ZM 242 63.0281 C 242 64.0437 241.9531 64.7312 241.8906 65.075 C 241.7656 65.6219 241.5313 66.075 241.1719 66.45 C 240.6875 66.95 240.1719 67.2 239.6406 67.2 C 239.1563 67.2 238.7656 66.9969 238.4531 66.5594 C 238.1406 66.1375 238 65.6375 238 65.0437 C 238 64.45 238.1875 63.9656 238.5781 63.575 C 238.8281 63.3406 239.3594 63.0906 240.1875 62.8406 C 241.0156 62.5906 241.625 62.3875 242 62.2 L 242 63.0281 L 242 63.0281 Z" fill="#ffffff"/>
			<path d="M 270 50.2 L 266 50.2 L 266 57.075 C 264.9688 55.825 263.7344 55.2 262.3281 55.2 C 260.7969 55.2 259.5156 55.7937 258.5156 56.9812 C 257.5 58.1687 257 59.8875 257 62.1531 C 257 64.3719 257.5 66.1062 258.5156 67.3406 C 259.5156 68.5906 260.7344 69.2 262.1563 69.2 C 262.8438 69.2 263.5313 69.075 264.2188 68.7937 C 264.9063 68.5125 265.5 67.9969 266 67.2156 L 266 69.2 L 270 69.2 L 270 50.2 L 270 50.2 ZM 261.7188 59.1531 C 262.1875 58.5281 262.7813 58.2 263.5 58.2 C 264.2188 58.2 264.8281 58.5281 265.2969 59.1531 C 265.7656 59.7937 266 60.8406 266 62.2937 C 266 63.5906 265.75 64.5594 265.2656 65.2156 C 264.7813 65.8719 264.2031 66.2 263.5156 66.2 C 262.6406 66.2 261.9688 65.7625 261.5 64.8875 C 261.1563 64.2937 261 63.3094 261 61.9656 C 261 60.7156 261.2344 59.7781 261.7188 59.1531 L 261.7188 59.1531 Z" fill="#ffffff"/>
			<path d="M 277.9063 57.6531 C 278.2813 57.3562 278.7969 57.2 279.4531 57.2 C 280.4375 57.2 281.1094 57.4031 281.4688 57.7781 C 281.8125 58.1687 282 58.825 282 59.7312 L 282 60.2 C 281.375 60.4812 280.2813 60.7625 278.6875 61.0594 C 277.5 61.4656 276.6094 61.7937 275.9844 62.0125 C 275.3594 62.2469 274.8594 62.6531 274.5156 63.2469 C 274.1719 63.8406 274 64.5125 274 65.2625 C 274 66.4031 274.3906 67.3406 275.1719 68.0906 C 275.9531 68.8406 277.0469 69.2 278.4219 69.2 C 279.1875 69.2 279.9219 69.0906 280.6094 68.8719 C 281.2969 68.6531 281.9375 68.3094 282.5313 67.8719 C 282.5625 67.9344 282.5938 68.0594 282.6563 68.2469 C 282.7813 68.6687 282.9063 68.9812 283 69.2 L 287 69.2 C 286.6094 68.5437 286.3438 67.9344 286.2031 67.3719 C 286.0625 66.8094 286 65.9187 286 64.7 L 286 60.4656 C 286 58.9031 285.8281 57.825 285.5 57.2312 C 285.1563 56.6375 284.5938 56.1531 283.7813 55.7781 C 282.9688 55.4031 281.75 55.2 280.0938 55.2 C 278.25 55.2 276.875 55.5281 275.9531 56.1844 C 275.0156 56.8406 274.375 57.8406 274 59.2 L 277 59.2 C 277.2188 58.4656 277.5313 57.95 277.9063 57.6531 L 277.9063 57.6531 ZM 282 63.0281 C 282 64.0437 281.9531 64.7312 281.8906 65.075 C 281.7656 65.6219 281.5313 66.075 281.1719 66.45 C 280.6875 66.95 280.1719 67.2 279.6406 67.2 C 279.1563 67.2 278.7656 66.9969 278.4531 66.5594 C 278.1406 66.1375 278 65.6375 278 65.0437 C 278 64.45 278.1875 63.9656 278.5781 63.575 C 278.8281 63.3406 279.3594 63.0906 280.1875 62.8406 C 281.0156 62.5906 281.625 62.3875 282 62.2 L 282 63.0281 L 282 63.0281 Z" fill="#ffffff"/>
			<path d="M 302 69.2 L 302 62.2 L 302.7813 62.2 C 303.6563 62.2 304.3125 62.2625 304.7188 62.3719 C 305.125 62.4812 305.4219 62.6844 305.6094 62.9656 C 305.7969 63.2625 306.3906 63.9656 307.3906 65.0906 L 309.9688 69.2 L 315 69.2 L 312.7188 65.8406 C 311.8438 64.5125 311.1406 63.5906 310.625 63.0594 C 310.0938 62.5281 309.4375 62.0437 308.6563 61.6062 C 310.0938 61.3562 311.1875 60.7156 311.9063 59.7156 C 312.625 58.7156 313 57.45 313 55.9187 C 313 54.7156 312.7344 53.6375 312.2031 52.7 C 311.6719 51.7625 310.9531 51.1219 310.0625 50.7469 C 309.1719 50.3875 307.75 50.2 305.7969 50.2 L 298 50.2 L 298 69.2 L 302 69.2 L 302 69.2 ZM 302 54.2 L 304.7031 54.2 C 306.1094 54.2 306.9531 54.2156 307.2344 54.2469 C 307.7969 54.3406 308.2188 54.5594 308.5313 54.8719 C 308.8438 55.2 309 55.6219 309 56.1531 C 309 56.6375 308.875 57.0281 308.6406 57.3406 C 308.4063 57.6531 308.0781 57.8875 307.6719 58.0125 C 307.2656 58.1375 306.2188 58.2 304.5625 58.2 L 302 58.2 L 302 54.2 L 302 54.2 Z" fill="#ffffff"/>
			<path d="M 323.3281 65.9656 C 323.0313 66.1219 322.6719 66.2 322.25 66.2 C 321.6094 66.2 321.0781 65.95 320.6563 65.4187 C 320.2344 64.8875 320.0156 64.1531 320 63.2 L 328 63.2 C 328.0469 60.4969 327.5156 58.4812 326.4219 57.1687 C 325.3125 55.8562 323.7969 55.2 321.8906 55.2 C 320.1875 55.2 318.7813 55.8406 317.6719 57.0906 C 316.5469 58.3406 316 60.075 316 62.2937 C 316 64.1687 316.4219 65.7 317.2969 66.9187 C 318.375 68.45 320.0469 69.2 322.3281 69.2 C 323.75 69.2 324.9375 68.95 325.9063 68.4344 C 326.8594 67.9344 327.5625 67.1844 328 66.2 L 324 65.2 C 323.8438 65.5594 323.625 65.8094 323.3281 65.9656 L 323.3281 65.9656 ZM 320.0625 61.2 C 320.0469 60.2781 320.2344 59.5437 320.6094 59.0125 C 320.9844 58.4812 321.4531 58.2 322.0469 58.2 C 322.5781 58.2 323.0313 58.4656 323.4063 58.9656 C 323.7813 59.4812 323.9688 60.2312 324 61.2 L 320.0625 61.2 L 320.0625 61.2 Z" fill="#ffffff"/>
			<path d="M 341 56.1844 C 340.0625 55.5281 338.8125 55.2 337.25 55.2 C 335.3281 55.2 333.8125 55.825 332.6875 57.0594 C 331.5625 58.2937 331 60.0125 331 62.2156 C 331 64.4031 331.5469 66.1219 332.6563 67.3562 C 333.75 68.5906 335.2344 69.2 337.1094 69.2 C 338.7344 69.2 340.0469 68.8719 341.0156 68.2 C 341.9844 67.5281 342.6563 66.5281 343 65.2 L 339 64.2 C 338.875 64.9344 338.6563 65.45 338.3438 65.7469 C 338.0313 66.0594 337.625 66.2 337.1406 66.2 C 336.4844 66.2 335.9531 65.8875 335.5781 65.2625 C 335.1875 64.6375 335 63.5437 335 62.0125 C 335 60.6375 335.1875 59.6687 335.5938 59.075 C 335.9844 58.4969 336.5156 58.2 337.1875 58.2 C 337.6719 58.2 338.0781 58.3719 338.3906 58.7 C 338.7031 59.0437 338.9063 59.5437 339 60.2 L 343 59.2 C 342.5938 57.8562 341.9219 56.8406 341 56.1844 L 341 56.1844 Z" fill="#ffffff"/>
			<path d="M 353.3281 65.9656 C 353.0313 66.1219 352.6719 66.2 352.25 66.2 C 351.6094 66.2 351.0781 65.95 350.6563 65.4187 C 350.2344 64.8875 350.0156 64.1531 350 63.2 L 358 63.2 C 358.0469 60.4969 357.5156 58.4812 356.4219 57.1687 C 355.3125 55.8562 353.7969 55.2 351.8906 55.2 C 350.1875 55.2 348.7813 55.8406 347.6719 57.0906 C 346.5469 58.3406 346 60.075 346 62.2937 C 346 64.1687 346.4219 65.7 347.2969 66.9187 C 348.375 68.45 350.0469 69.2 352.3281 69.2 C 353.75 69.2 354.9375 68.95 355.9063 68.4344 C 356.8594 67.9344 357.5625 67.1844 358 66.2 L 354 65.2 C 353.8438 65.5594 353.625 65.8094 353.3281 65.9656 L 353.3281 65.9656 ZM 350.0625 61.2 C 350.0469 60.2781 350.2344 59.5437 350.6094 59.0125 C 350.9844 58.4812 351.4531 58.2 352.0469 58.2 C 352.5781 58.2 353.0313 58.4656 353.4063 58.9656 C 353.7813 59.4812 353.9688 60.2312 354 61.2 L 350.0625 61.2 L 350.0625 61.2 Z" fill="#ffffff"/>
			<path d="M 366 53.2 L 366 50.2 L 362 50.2 L 362 53.2 L 366 53.2 L 366 53.2 ZM 366 69.2 L 366 55.2 L 362 55.2 L 362 69.2 L 366 69.2 L 366 69.2 Z" fill="#ffffff"/>
			<path d="M 374 64.8719 C 374 62.4969 374.0781 60.9344 374.25 60.1844 C 374.4219 59.4344 374.6563 58.9187 374.9531 58.6375 C 375.25 58.3562 375.625 58.2 376.0625 58.2 C 376.5 58.2 376.9688 58.1375 377.5 58.0125 L 378 55.825 C 377.4375 55.4187 376.8594 55.2 376.2656 55.2 C 375.8281 55.2 375.4531 55.2937 375.125 55.4812 C 374.7813 55.6687 374.4063 56.2156 374 57.1219 L 374 55.2 L 370 55.2 L 370 69.2 L 374 69.2 L 374 64.8719 L 374 64.8719 Z" fill="#ffffff"/>
			<path d="M 383.9063 57.6531 C 384.2813 57.3562 384.7969 57.2 385.4531 57.2 C 386.4375 57.2 387.1094 57.4031 387.4688 57.7781 C 387.8125 58.1687 388 58.825 388 59.7312 L 388 60.2 C 387.375 60.4812 386.2813 60.7625 384.6875 61.0594 C 383.5 61.4656 382.6094 61.7937 381.9844 62.0125 C 381.3594 62.2469 380.8594 62.6531 380.5156 63.2469 C 380.1719 63.8406 380 64.5125 380 65.2625 C 380 66.4031 380.3906 67.3406 381.1719 68.0906 C 381.9531 68.8406 383.0469 69.2 384.4219 69.2 C 385.1875 69.2 385.9219 69.0906 386.6094 68.8719 C 387.2969 68.6531 387.9375 68.3094 388.5313 67.8719 C 388.5625 67.9344 388.5938 68.0594 388.6563 68.2469 C 388.7813 68.6687 388.9063 68.9812 389 69.2 L 393 69.2 C 392.6094 68.5437 392.3438 67.9344 392.2031 67.3719 C 392.0625 66.8094 392 65.9187 392 64.7 L 392 60.4656 C 392 58.9031 391.8281 57.825 391.5 57.2312 C 391.1563 56.6375 390.5938 56.1531 389.7813 55.7781 C 388.9688 55.4031 387.75 55.2 386.0938 55.2 C 384.25 55.2 382.875 55.5281 381.9531 56.1844 C 381.0156 56.8406 380.375 57.8406 380 59.2 L 383 59.2 C 383.2188 58.4656 383.5313 57.95 383.9063 57.6531 L 383.9063 57.6531 ZM 388 63.0281 C 388 64.0437 387.9531 64.7312 387.8906 65.075 C 387.7656 65.6219 387.5313 66.075 387.1719 66.45 C 386.6875 66.95 386.1719 67.2 385.6406 67.2 C 385.1563 67.2 384.7656 66.9969 384.4531 66.5594 C 384.1406 66.1375 384 65.6375 384 65.0437 C 384 64.45 384.1875 63.9656 384.5781 63.575 C 384.8281 63.3406 385.3594 63.0906 386.1875 62.8406 C 387.0156 62.5906 387.625 62.3875 388 62.2 L 388 63.0281 L 388 63.0281 Z" fill="#ffffff"/>
			<path d="M 408 69.2 L 408 61.2 L 416 61.2 L 416 57.2 L 408 57.2 L 408 54.2 L 417 54.2 L 417 50.2 L 404 50.2 L 404 69.2 L 408 69.2 L 408 69.2 Z" fill="#ffffff"/>
			<path d="M 427.3281 65.9656 C 427.0313 66.1219 426.6719 66.2 426.25 66.2 C 425.6094 66.2 425.0781 65.95 424.6563 65.4187 C 424.2344 64.8875 424.0156 64.1531 424 63.2 L 432 63.2 C 432.0469 60.4969 431.5156 58.4812 430.4219 57.1687 C 429.3125 55.8562 427.7969 55.2 425.8906 55.2 C 424.1875 55.2 422.7813 55.8406 421.6719 57.0906 C 420.5469 58.3406 420 60.075 420 62.2937 C 420 64.1687 420.4219 65.7 421.2969 66.9187 C 422.375 68.45 424.0469 69.2 426.3281 69.2 C 427.75 69.2 428.9375 68.95 429.9063 68.4344 C 430.8594 67.9344 431.5625 67.1844 432 66.2 L 428 65.2 C 427.8438 65.5594 427.625 65.8094 427.3281 65.9656 L 427.3281 65.9656 ZM 424.0625 61.2 C 424.0469 60.2781 424.2344 59.5437 424.6094 59.0125 C 424.9844 58.4812 425.4531 58.2 426.0469 58.2 C 426.5781 58.2 427.0313 58.4656 427.4063 58.9656 C 427.7813 59.4812 427.9688 60.2312 428 61.2 L 424.0625 61.2 L 424.0625 61.2 Z" fill="#ffffff"/>
			<path d="M 448 50.2 L 444 50.2 L 444 57.075 C 442.9688 55.825 441.7344 55.2 440.3281 55.2 C 438.7969 55.2 437.5156 55.7937 436.5156 56.9812 C 435.5 58.1687 435 59.8875 435 62.1531 C 435 64.3719 435.5 66.1062 436.5156 67.3406 C 437.5156 68.5906 438.7344 69.2 440.1563 69.2 C 440.8438 69.2 441.5313 69.075 442.2188 68.7937 C 442.9063 68.5125 443.5 67.9969 444 67.2156 L 444 69.2 L 448 69.2 L 448 50.2 L 448 50.2 ZM 439.7188 59.1531 C 440.1875 58.5281 440.7813 58.2 441.5 58.2 C 442.2188 58.2 442.8281 58.5281 443.2969 59.1531 C 443.7656 59.7937 444 60.8406 444 62.2937 C 444 63.5906 443.75 64.5594 443.2656 65.2156 C 442.7813 65.8719 442.2031 66.2 441.5156 66.2 C 440.6406 66.2 439.9688 65.7625 439.5 64.8875 C 439.1563 64.2937 439 63.3094 439 61.9656 C 439 60.7156 439.2344 59.7781 439.7188 59.1531 L 439.7188 59.1531 Z" fill="#ffffff"/>
			<path d="M 459.3281 65.9656 C 459.0313 66.1219 458.6719 66.2 458.25 66.2 C 457.6094 66.2 457.0781 65.95 456.6563 65.4187 C 456.2344 64.8875 456.0156 64.1531 456 63.2 L 464 63.2 C 464.0469 60.4969 463.5156 58.4812 462.4219 57.1687 C 461.3125 55.8562 459.7969 55.2 457.8906 55.2 C 456.1875 55.2 454.7813 55.8406 453.6719 57.0906 C 452.5469 58.3406 452 60.075 452 62.2937 C 452 64.1687 452.4219 65.7 453.2969 66.9187 C 454.375 68.45 456.0469 69.2 458.3281 69.2 C 459.75 69.2 460.9375 68.95 461.9063 68.4344 C 462.8594 67.9344 463.5625 67.1844 464 66.2 L 460 65.2 C 459.8438 65.5594 459.625 65.8094 459.3281 65.9656 L 459.3281 65.9656 ZM 456.0625 61.2 C 456.0469 60.2781 456.2344 59.5437 456.6094 59.0125 C 456.9844 58.4812 457.4531 58.2 458.0469 58.2 C 458.5781 58.2 459.0313 58.4656 459.4063 58.9656 C 459.7813 59.4812 459.9688 60.2312 460 61.2 L 456.0625 61.2 L 456.0625 61.2 Z" fill="#ffffff"/>
			<path d="M 472 64.8719 C 472 62.4969 472.0781 60.9344 472.25 60.1844 C 472.4219 59.4344 472.6563 58.9187 472.9531 58.6375 C 473.25 58.3562 473.625 58.2 474.0625 58.2 C 474.5 58.2 474.9688 58.1375 475.5 58.0125 L 476 55.825 C 475.4375 55.4187 474.8594 55.2 474.2656 55.2 C 473.8281 55.2 473.4531 55.2937 473.125 55.4812 C 472.7813 55.6687 472.4063 56.2156 472 57.1219 L 472 55.2 L 468 55.2 L 468 69.2 L 472 69.2 L 472 64.8719 L 472 64.8719 Z" fill="#ffffff"/>
			<path d="M 481.9063 57.6531 C 482.2813 57.3562 482.7969 57.2 483.4531 57.2 C 484.4375 57.2 485.1094 57.4031 485.4688 57.7781 C 485.8125 58.1687 486 58.825 486 59.7312 L 486 60.2 C 485.375 60.4812 484.2813 60.7625 482.6875 61.0594 C 481.5 61.4656 480.6094 61.7937 479.9844 62.0125 C 479.3594 62.2469 478.8594 62.6531 478.5156 63.2469 C 478.1719 63.8406 478 64.5125 478 65.2625 C 478 66.4031 478.3906 67.3406 479.1719 68.0906 C 479.9531 68.8406 481.0469 69.2 482.4219 69.2 C 483.1875 69.2 483.9219 69.0906 484.6094 68.8719 C 485.2969 68.6531 485.9375 68.3094 486.5313 67.8719 C 486.5625 67.9344 486.5938 68.0594 486.6563 68.2469 C 486.7813 68.6687 486.9063 68.9812 487 69.2 L 491 69.2 C 490.6094 68.5437 490.3438 67.9344 490.2031 67.3719 C 490.0625 66.8094 490 65.9187 490 64.7 L 490 60.4656 C 490 58.9031 489.8281 57.825 489.5 57.2312 C 489.1563 56.6375 488.5938 56.1531 487.7813 55.7781 C 486.9688 55.4031 485.75 55.2 484.0938 55.2 C 482.25 55.2 480.875 55.5281 479.9531 56.1844 C 479.0156 56.8406 478.375 57.8406 478 59.2 L 481 59.2 C 481.2188 58.4656 481.5313 57.95 481.9063 57.6531 L 481.9063 57.6531 ZM 486 63.0281 C 486 64.0437 485.9531 64.7312 485.8906 65.075 C 485.7656 65.6219 485.5313 66.075 485.1719 66.45 C 484.6875 66.95 484.1719 67.2 483.6406 67.2 C 483.1563 67.2 482.7656 66.9969 482.4531 66.5594 C 482.1406 66.1375 482 65.6375 482 65.0437 C 482 64.45 482.1875 63.9656 482.5781 63.575 C 482.8281 63.3406 483.3594 63.0906 484.1875 62.8406 C 485.0156 62.5906 485.625 62.3875 486 62.2 L 486 63.0281 L 486 63.0281 Z" fill="#ffffff"/>
			<path d="M 498 69.2 L 498 50.2 L 494 50.2 L 494 69.2 L 498 69.2 L 498 69.2 Z" fill="#ffffff"/>
		</g>
		<path d="M 82.5 30.5 C 83.5 31.5 83.5 30.5 83.5 33.5 C 83.5 36.5 77.5 57.5 75.5 60.5 C 72.5 51.5 67.5 41.5 63.5 32.5 C 53.5 30.5 43.5 29.5 33.5 27.5 C 41.5 19.5 53.5 5.5 56.5 5.5 C 58.5 5.5 74.5 22.5 82.5 30.5 ZM 78.5 31.5 C 78.5 34.5 76.5 43.5 74.5 47.5 C 72.5 41.5 70.5 35.5 67.5 29.5 C 59.5 28.5 50.5 27.5 42.5 25.5 C 42.5 18.5 51.5 13.5 56.5 10.5 C 56.5 10.5 78.5 28.5 78.5 31.5 ZM 55.5 38.5 C 55.5 39.5 56.5 40.5 57.5 40.5 C 48.5 43.5 39.5 47.5 30.5 51.5 C 29.5 60.5 27.5 70.5 25.5 80.5 L 22.5 80.5 C 16.5 73.5 9.5 67.5 1.5 59.5 C 11.5 49.5 27.5 32.5 29.5 32.5 C 32.5 32.5 46.5 37.5 55.5 38.5 ZM 44.5 39.5 C 44.5 39.5 44.5 40.5 45.5 41.5 C 26.5 43.5 24.5 54.5 24.5 66.5 C 24.5 68.5 22.5 71.5 21.5 74.5 C 16.5 70.5 7.5 62.5 7.5 59.5 C 7.5 57.5 26.5 36.5 29.5 36.5 C 31.5 36.5 39.5 39.5 44.5 39.5 ZM 111.5 59.5 C 101.5 68.5 84.5 85.5 82.5 85.5 C 77.5 85.5 55.5 77.5 54.5 76.5 C 62.5 74.5 73.5 71.5 81.5 66.5 C 83.5 57.5 86.5 47.5 88.5 37.5 C 95.5 44.5 104.5 52.5 111.5 59.5 ZM 105.5 59.5 C 104.5 62.5 83.5 81.5 80.5 81.5 C 77.5 81.5 71.5 79.5 66.5 77.5 C 71.5 75.5 77.5 73.5 83.5 70.5 C 87.5 67.5 87.5 59.5 88.5 54.5 C 89.5 51.5 90.5 48.5 90.5 45.5 C 95.5 49.5 100.5 54.5 105.5 59.5 ZM 67.5 58.5 C 67.5 65.5 62.5 69.5 56.5 69.5 C 49.5 69.5 45.5 64.5 45.5 59.5 C 45.5 55.5 47.5 48.5 55.5 48.5 C 63.5 48.5 67.5 53.5 67.5 58.5 ZM 49.5 84.5 C 57.5 88.5 68.5 88.5 78.5 90.5 C 71.5 98.5 63.5 106.5 56.5 113.5 C 51.5 108.5 29.5 89.5 29.5 83.5 C 29.5 81.5 33.5 66.5 35.5 58.5 C 40.5 62.5 40.5 79.5 49.5 84.5 ZM 45.5 86.5 C 51.5 91.5 62.5 90.5 71.5 93.5 C 66.5 98.5 58.5 107.5 55.5 107.5 C 53.5 107.5 33.5 88.5 33.5 85.5 C 33.5 83.5 36.5 75.5 37.5 70.5 C 40.5 75.5 39.5 82.5 45.5 86.5 Z" fill="#ffffff"/>
		<g>
			<path d="M 226.4531 164.6563 C 223.9063 167.5625 220.1563 169 215.1875 169 C 210.0625 169 206.0781 167.2813 203.25 163.8125 C 200.4063 160.3594 199 153.9688 199 144.6563 C 199 137.1406 200.1875 131.625 202.5625 128.1094 C 205.6875 123.375 210.2031 121 216.0938 121 C 218.6875 121 221.0313 121.5469 223.1406 122.6406 C 225.2344 123.7344 227.0156 125.2813 228.4844 127.2969 C 229.3594 128.5 230.1875 130.4063 231 133 L 254 127.8125 C 251.0156 118.7188 246.4531 111.9844 240.3281 107.5938 C 234.1875 103.2031 225.75 101 215.0313 101 C 201.3125 101 190.7188 104.7813 183.2344 112.3438 C 175.7344 119.9063 172 130.7344 172 144.7969 C 172 155.3594 174.125 164.0313 178.4063 170.7969 C 182.6719 177.5625 187.75 182.2813 193.625 184.9688 C 199.5 187.6563 207.0781 189 216.3594 189 C 223.9844 189 230.2813 187.8906 235.2344 185.6406 C 240.1719 183.3906 244.3125 180.0625 247.6563 175.6563 C 251 171.25 253.4375 165.75 255 159.1563 L 232 152 C 230.8438 157.5313 229 161.75 226.4531 164.6563 L 226.4531 164.6563 Z" fill="#ffffff"/>
			<path d="M 272 188 L 299 188 L 299 155 L 313.4531 155 C 324.1094 155 332.0313 152.6094 337.2188 147.8125 C 342.4063 143.0313 345 136.375 345 127.875 C 345 119.5938 342.5938 113.2188 337.8125 108.7344 C 333.0156 104.25 325.8125 102 316.1875 102 L 272 102 L 272 188 L 272 188 ZM 299 119 L 306.0469 119 C 310.6719 119 313.8125 119.9375 315.4844 121.7969 C 317.1563 123.6563 318 125.9219 318 128.5938 C 318 131.3438 317.0313 133.6094 315.1094 135.3594 C 313.1719 137.125 309.8281 138 305.0625 138 L 299 138 L 299 119 L 299 119 Z" fill="#ffffff"/>
			<path d="M 362 188 L 389 188 L 389 154 L 421 154 L 421 137 L 389 137 L 389 122 L 427 122 L 427 102 L 362 102 L 362 188 L 362 188 Z" fill="#ffffff"/>
		</g>
	</g>
</svg>