<?xml version="1.0" standalone="no"?>
<!-- Generator: Adobe Fireworks 10, Export SVG Extension by Aaron Beall (http://fireworks.abeall.com) . Version: 0.6.1  -->
<!DOCTYPE svg PUBLIC "-//W3C//DTD SVG 1.1//EN" "http://www.w3.org/Graphics/SVG/1.1/DTD/svg11.dtd">
<svg id="extrato_compras.fw-P%E1gina%201" viewBox="0 0 64 64" style="background-color:#ffffff00" version="1.1"
	xmlns="http://www.w3.org/2000/svg" xmlns:xlink="http://www.w3.org/1999/xlink" xml:space="preserve"
	x="0px" y="0px" width="64px" height="64px"
>
	<g id="Plano%20de%20fundo">
		<path d="M 31.9375 2.4375 C 36.1875 3.1875 40.5625 4.1875 44.8125 4.9375 C 49.9375 5.9375 55.5625 6.5625 60.8125 8.3125 C 61.6875 8.5625 61.9375 9.4375 61.9375 10.3125 C 61.9375 11.6875 57.4375 24.3125 56.5625 26.9375 C 54.1875 33.9375 51.6875 40.9375 49.0625 47.9375 C 45.3125 57.5625 41.5625 62.8125 33.4375 62.8125 C 28.8125 62.8125 24.1875 59.6875 19.5625 57.6875 C 15.0625 55.6875 10.1875 53.5625 5.4375 51.1875 C 2.6875 49.9375 0.5625 44.9375 0.5625 43.0625 L 0.5625 40.4375 C 0.6875 39.4375 0.8125 38.4375 0.9375 37.4375 L 1.3125 37.4375 L 27.9375 48.3125 L 27.9375 50.5625 C 28.5625 55.0625 30.5625 58.0625 34.3125 58.0625 C 37.0625 58.0625 39.6875 56.5625 41.8125 52.8125 C 44.9375 47.0625 46.5625 41.3125 48.6875 35.5625 C 51.4375 27.9375 54.0625 20.1875 56.6875 12.4375 L 26.0625 6.0625 C 24.9375 7.6875 24.5625 9.6875 23.8125 11.5625 C 20.8125 19.6875 17.6875 28.1875 14.5625 36.5625 C 14.4375 36.9375 13.1875 37.3125 12.8125 37.3125 C 11.5625 37.3125 10.5625 36.0625 10.5625 34.9375 C 10.5625 34.6875 11.8125 30.8125 12.5625 28.9375 C 15.6875 19.8125 18.6875 10.8125 22.5625 1.9375 C 22.6875 1.4375 23.3125 1.4375 23.6875 1.1875 C 23.9375 1.1875 24.0625 1.1875 24.3125 1.1875 C 24.6875 1.1875 29.4375 1.9375 31.9375 2.4375 Z" fill="#666666"/>
		<path d="M 31.1875 16.6875 C 31.1875 17.9375 29.9375 18.9375 28.8125 18.9375 C 27.0625 18.9375 26.3125 17.6875 26.3125 16.4375 C 26.3125 14.9375 27.4375 14.4375 28.6875 14.4375 C 29.9375 14.4375 31.1875 14.9375 31.1875 16.6875 ZM 27.5625 26.5625 C 27.5625 27.9375 25.9375 28.9375 25.0625 28.9375 C 23.3125 28.9375 22.5625 27.5625 22.5625 26.4375 C 22.5625 25.1875 23.4375 24.3125 24.8125 24.3125 C 26.0625 24.3125 27.5625 25.1875 27.5625 26.5625 ZM 23.6875 35.6875 C 23.6875 37.4375 22.1875 38.0625 21.1875 38.0625 C 19.6875 38.0625 18.8125 37.0625 18.8125 35.6875 C 18.8125 34.0625 19.6875 33.5625 21.1875 33.5625 C 22.4375 33.5625 23.6875 34.0625 23.6875 35.6875 Z" fill="#666666"/>
		<path d="M 47.5625 19.6875 C 47.8125 19.8125 48.6875 21.1875 48.6875 21.5625 C 48.6875 22.8125 47.5625 24.0625 46.5625 24.0625 C 46.1875 24.0625 38.6875 22.1875 34.9375 20.8125 C 33.4375 20.3125 33.6875 19.5625 33.6875 18.8125 C 33.6875 17.5625 34.3125 16.6875 35.8125 16.6875 C 37.8125 16.6875 47.1875 19.5625 47.5625 19.6875 ZM 43.3125 30.0625 C 43.6875 30.1875 44.4375 31.6875 44.4375 32.0625 C 44.4375 33.4375 43.1875 34.4375 42.1875 34.4375 C 40.8125 34.4375 31.1875 30.9375 30.1875 30.3125 C 29.3125 29.8125 29.5625 29.3125 29.5625 28.8125 C 29.5625 27.5625 29.9375 26.4375 31.5625 26.4375 C 31.8125 26.4375 39.4375 28.5625 43.3125 30.0625 ZM 39.5625 39.8125 C 40.0625 40.0625 40.5625 41.5625 40.5625 41.6875 C 40.5625 42.5625 39.5625 44.1875 38.4375 44.1875 C 38.0625 44.1875 36.1875 43.4375 35.3125 43.1875 C 32.4375 42.1875 29.3125 41.4375 26.5625 40.1875 C 26.0625 40.0625 25.6875 39.3125 25.5625 38.9375 C 25.5625 38.8125 25.5625 38.5625 25.5625 38.3125 C 25.5625 37.3125 26.4375 36.0625 27.6875 36.0625 C 28.9375 36.0625 38.5625 39.3125 39.5625 39.8125 Z" fill="#a9aeb1"/>
	</g>
	<g id="Camada%201">
	</g>
</svg>