<?xml version="1.0" standalone="no"?>
<!-- Generator: Adobe Fireworks 10, Export SVG Extension by Aaron Beall (http://fireworks.abeall.com) . Version: 0.6.1  -->
<!DOCTYPE svg PUBLIC "-//W3C//DTD SVG 1.1//EN" "http://www.w3.org/Graphics/SVG/1.1/DTD/svg11.dtd">
<svg id="icone_credito.fw-P%E1gina%201" viewBox="0 0 512 512" style="background-color:#ffffff00" version="1.1"
	xmlns="http://www.w3.org/2000/svg" xmlns:xlink="http://www.w3.org/1999/xlink" xml:space="preserve"
	x="0px" y="0px" width="512px" height="512px"
>
	<g id="Plano%20de%20fundo">
		<path d="M 305.5 5.5 C 299.5 6.5 287.5 8.5 287.5 11.5 C 287.5 13.5 288.5 22.5 289.5 34.5 C 280.5 32.5 274.5 17.5 271.5 12.5 C 265.5 13.5 257.5 14.5 251.5 16.5 C 247.5 17.5 208.5 36.5 208.5 43.5 C 208.5 46.5 213.5 59.5 213.5 61.5 C 213.5 67.5 207.5 75.5 207.5 77.5 C 207.5 79.5 236.5 117.5 250.5 149.5 C 258.5 167.5 267.5 186.5 274.5 204.5 C 277.5 203.5 280.5 202.5 282.5 199.5 C 291.5 183.5 293.5 162.5 296.5 147.5 C 297.5 139.5 298.5 130.5 299.5 122.5 C 300.5 114.5 300.5 106.5 300.5 98.5 L 300.5 19.5 L 299.5 15.5 C 307.5 12.5 321.5 10.5 330.5 10.5 C 359.5 10.5 391.5 24.5 421.5 57.5 C 424.5 60.5 432.5 68.5 432.5 70.5 C 432.5 73.5 410.5 93.5 401.5 106.5 C 386.5 125.5 374.5 149.5 364.5 171.5 C 367.5 172.5 371.5 172.5 374.5 172.5 C 396.5 173.5 405.5 193.5 405.5 209.5 C 405.5 212.5 403.5 224.5 401.5 231.5 C 422.5 239.5 428.5 260.5 428.5 274.5 C 428.5 277.5 424.5 292.5 424.5 294.5 C 424.5 297.5 429.5 300.5 430.5 302.5 C 436.5 310.5 439.5 320.5 439.5 328.5 C 439.5 331.5 436.5 345.5 433.5 353.5 C 433.5 354.5 431.5 355.5 431.5 358.5 C 431.5 360.5 435.5 364.5 436.5 367.5 C 442.5 379.5 443.5 382.5 443.5 391.5 C 443.5 404.5 440.5 412.5 424.5 423.5 C 411.5 432.5 393.5 434.5 381.5 437.5 C 354.5 443.5 325.5 448.5 299.5 453.5 C 281.5 456.5 198.5 471.5 198.5 478.5 C 198.5 481.5 200.5 485.5 201.5 488.5 L 134.5 510.5 L 68.5 308.5 L 135.5 286.5 C 137.5 291.5 139.5 297.5 141.5 302.5 C 145.5 300.5 150.5 296.5 154.5 291.5 C 183.5 252.5 187.5 188.5 247.5 168.5 C 230.5 133.5 212.5 96.5 176.5 61.5 C 204.5 22.5 246.5 0.5 278.5 0.5 C 286.5 0.5 300.5 3.5 305.5 5.5 ZM 366.5 30.5 C 373.5 33.5 399.5 48.5 399.5 53.5 C 399.5 55.5 394.5 69.5 394.5 71.5 C 394.5 74.5 398.5 84.5 401.5 87.5 C 393.5 97.5 385.5 107.5 378.5 119.5 C 367.5 136.5 359.5 155.5 350.5 172.5 C 333.5 175.5 316.5 182.5 299.5 191.5 C 303.5 173.5 306.5 153.5 310.5 135.5 C 314.5 151.5 331.5 157.5 342.5 157.5 C 350.5 157.5 364.5 153.5 364.5 140.5 C 364.5 121.5 340.5 112.5 330.5 112.5 C 325.5 112.5 315.5 114.5 312.5 122.5 L 312.5 46.5 C 323.5 48.5 333.5 31.5 338.5 22.5 C 347.5 24.5 357.5 26.5 366.5 30.5 ZM 289.5 109.5 C 289.5 111.5 287.5 130.5 285.5 140.5 C 281.5 143.5 272.5 147.5 266.5 147.5 C 255.5 147.5 246.5 140.5 246.5 130.5 C 246.5 113.5 264.5 104.5 278.5 104.5 C 282.5 104.5 289.5 104.5 289.5 109.5 ZM 384.5 213.5 C 384.5 215.5 379.5 238.5 379.5 240.5 C 379.5 254.5 407.5 244.5 407.5 276.5 C 407.5 278.5 402.5 296.5 402.5 298.5 C 402.5 306.5 417.5 311.5 417.5 329.5 C 417.5 341.5 409.5 352.5 409.5 358.5 C 409.5 363.5 421.5 373.5 421.5 388.5 C 421.5 410.5 383.5 414.5 375.5 416.5 C 314.5 429.5 253.5 436.5 192.5 453.5 L 149.5 325.5 C 208.5 291.5 189.5 224.5 252.5 194.5 C 254.5 199.5 256.5 204.5 257.5 209.5 C 258.5 210.5 259.5 229.5 269.5 229.5 C 269.5 229.5 337.5 193.5 365.5 193.5 C 379.5 193.5 384.5 199.5 384.5 213.5 ZM 124.5 334.5 C 118.5 336.5 111.5 338.5 104.5 340.5 C 102.5 334.5 100.5 327.5 98.5 321.5 C 104.5 318.5 111.5 316.5 118.5 314.5 C 120.5 320.5 122.5 326.5 124.5 334.5 Z" fill="#03a9f4"/>
		<rect x="97" y="311" width="31" height="31" fill="#ffffff"/>
	</g>
	<g id="Camada%201">
	</g>
</svg>