<?xml version="1.0" standalone="no"?>
<!-- Generator: Adobe Fireworks 10, Export SVG Extension by Aaron Beall (http://fireworks.abeall.com) . Version: 0.6.1  -->
<!DOCTYPE svg PUBLIC "-//W3C//DTD SVG 1.1//EN" "http://www.w3.org/Graphics/SVG/1.1/DTD/svg11.dtd">
<svg id="Sem%20t%EDtulo-2.fw-P%E1gina%201" viewBox="0 0 400 400" style="background-color:#ffffff00" version="1.1"
	xmlns="http://www.w3.org/2000/svg" xmlns:xlink="http://www.w3.org/1999/xlink" xml:space="preserve"
	x="0px" y="0px" width="400px" height="400px"
>
	<g id="Camada%201">
		<path d="M 349.3125 266.3031 C 349.3125 273.5531 347.5313 279.475 343.9688 284.0375 C 340.4063 288.6 335.4688 290.8813 329.125 290.8813 C 322.8125 290.8813 317.9063 288.6 314.3906 284.0375 C 310.875 279.475 309.125 273.5531 309.125 266.3031 L 309.125 249.7094 C 309.125 242.5844 310.8594 236.7406 314.3594 232.1781 C 317.8594 227.6156 322.7344 225.3188 329 225.3188 C 335.3438 225.3188 340.3125 227.6156 343.9063 232.1781 C 347.5 236.7406 349.3125 242.5844 349.3125 249.7094 L 349.3125 266.3031 L 349.3125 266.3031 ZM 367.7813 249.8813 C 367.7813 238.725 364.1719 229.4594 356.9844 222.1156 C 349.7969 214.7719 340.4688 211.1 329 211.1 C 317.6094 211.1 308.375 214.7719 301.2813 222.1156 C 294.1875 229.4594 290.6563 238.725 290.6563 249.8813 L 290.6563 266.3188 C 290.6563 277.5375 294.2031 286.8031 301.3125 294.1156 C 308.4219 301.4438 317.6875 305.1 329.125 305.1 C 340.5938 305.1 349.8906 301.4594 357.0469 294.1469 C 364.2031 286.85 367.7813 277.5688 367.7813 266.3188 L 367.7813 249.8813 L 367.7813 249.8813 ZM 273.8438 255.4594 L 237.4688 255.4594 L 237.4688 268.2875 L 255.25 268.2875 L 255.25 286.1938 C 253.8438 287.5531 251.875 288.6781 249.3125 289.5531 C 246.75 290.4438 243.2656 290.8813 238.875 290.8813 C 232.9063 290.8813 228.1406 288.725 224.5781 284.3813 C 221.0156 280.0531 219.25 274.4438 219.25 267.5688 L 219.25 248.4438 C 219.25 241.6625 220.9844 236.1 224.4531 231.7875 C 227.9219 227.475 232.5 225.3188 238.1719 225.3188 C 243.5781 225.3188 247.7031 226.6938 250.5469 229.4125 C 253.375 232.1469 254.7969 235.9594 254.7969 240.8656 L 272.2656 240.8656 L 272.3906 240.4906 C 272.5938 231.5531 269.6875 224.4281 263.6875 219.1 C 257.6719 213.7719 249.0156 211.1 237.7344 211.1 C 226.8906 211.1 218.0313 214.5844 211.125 221.5531 C 204.2188 228.5219 200.7813 237.5219 200.7813 248.5688 L 200.7813 267.6313 C 200.7813 278.725 204.3281 287.7563 211.4375 294.6938 C 218.5469 301.6313 227.6875 305.1 238.875 305.1 C 247.875 305.1 255.2344 303.725 260.9531 300.9438 C 266.6719 298.1781 270.9688 294.9125 273.8438 291.1313 L 273.8438 255.4594 L 273.8438 255.4594 ZM 150.0781 237.0688 L 150.4531 237.0688 L 160.6719 269.6313 L 139.7969 269.6313 L 150.0781 237.0688 L 150.0781 237.0688 ZM 171.4688 304.1 L 190.8281 304.1 L 159.7969 212.1 L 140.8125 212.1 L 109.6406 304.1 L 129 304.1 L 135.2188 284.1625 L 165.1875 284.1625 L 171.4688 304.1 L 171.4688 304.1 ZM 49.5469 226.3188 L 66.3594 226.3188 C 71.5625 226.3188 75.4844 227.7719 78.1406 230.6781 C 80.7813 233.5844 82.1094 237.2406 82.1094 241.6781 C 82.1094 246.0531 80.7656 249.6313 78.1094 252.4438 C 75.4375 255.2563 71.5156 256.6625 66.3594 256.6625 L 49.5469 256.6625 L 49.5469 226.3188 L 49.5469 226.3188 ZM 66.3594 270.7406 C 76.9844 270.7406 85.3438 268.0688 91.4375 262.725 C 97.5313 257.3813 100.5781 250.2875 100.5781 241.475 C 100.5781 232.6781 97.5313 225.5844 91.4375 220.1938 C 85.3438 214.8031 76.9844 212.1 66.3594 212.1 L 31 212.1 L 31 304.1 L 49.5469 304.1 L 49.5469 270.7406 L 66.3594 270.7406 L 66.3594 270.7406 ZM 277.2969 74 L 293.1094 74 L 310.6875 57.3906 L 310.5625 57 L 289.9375 57 L 277.2969 74 L 277.2969 74 ZM 309.3125 123.3281 L 275.0469 123.3281 L 275.0469 100.2188 L 315.6719 100.2188 L 315.6719 86 L 256.5 86 L 256.5 178 L 315.7969 178 L 315.7969 163.7813 L 275.0469 163.7813 L 275.0469 137.5156 L 309.3125 137.5156 L 309.3125 123.3281 L 309.3125 123.3281 ZM 189.0469 100.2188 L 202.5 100.2188 C 207.4375 100.2188 211.2031 101.4688 213.7656 103.9688 C 216.3281 106.4688 217.6094 109.8281 217.6094 114.0625 C 217.6094 118.375 216.3281 121.6406 213.7969 123.8438 C 211.25 126.0469 207.375 127.1406 202.1875 127.1406 L 189.0469 127.1406 L 189.0469 100.2188 L 189.0469 100.2188 ZM 203.7656 141.0625 C 208.375 141.0625 211.9375 142.3438 214.4531 144.9063 C 216.9688 147.4688 218.2344 151.0469 218.2344 155.6563 L 218.2344 162.1875 C 218.2344 165.125 218.4688 168.1563 218.9688 171.2813 C 219.4531 174.4063 220.5469 176.6563 222.2344 178 L 241.3438 178 L 241.3438 176.6719 C 239.6563 175.3281 238.4531 173.2656 237.7656 170.4531 C 237.0625 167.6563 236.7188 164.9688 236.7188 162.3906 L 236.7188 155.625 C 236.7188 150.125 235.5156 145.4844 233.125 141.7344 C 230.7344 137.9844 226.8125 135.3125 221.3438 133.7031 C 226.1719 131.6094 229.8438 128.8438 232.3594 125.4063 C 234.875 121.9688 236.1406 117.8906 236.1406 113.1719 C 236.1406 104.625 233.1563 97.9531 227.2188 93.1719 C 221.2656 88.3906 213.0313 86 202.5 86 L 170.5 86 L 170.5 178 L 189.0469 178 L 189.0469 141.0625 L 203.7656 141.0625 L 203.7656 141.0625 ZM 103.0469 100.2188 L 119.8594 100.2188 C 125.0625 100.2188 128.9844 101.6719 131.6406 104.5781 C 134.2813 107.4844 135.6094 111.1406 135.6094 115.5781 C 135.6094 119.9531 134.2656 123.5313 131.6094 126.3438 C 128.9375 129.1563 125.0156 130.5625 119.8594 130.5625 L 103.0469 130.5625 L 103.0469 100.2188 L 103.0469 100.2188 ZM 119.8594 144.6406 C 130.4844 144.6406 138.8438 141.9688 144.9375 136.625 C 151.0313 131.2813 154.0781 124.1875 154.0781 115.375 C 154.0781 106.5781 151.0313 99.4844 144.9375 94.0938 C 138.8438 88.7031 130.4844 86 119.8594 86 L 84.5 86 L 84.5 178 L 103.0469 178 L 103.0469 144.6406 L 119.8594 144.6406 L 119.8594 144.6406 ZM 0 200 C 0 89.5416 89.5416 0 200 0 C 310.4584 0 400 89.5416 400 200 C 400 310.4584 310.4584 400 200 400 C 89.5416 400 0 310.4584 0 200 Z" fill="#12a89d"/>
	</g>
</svg>