<?xml version="1.0" standalone="no"?>
<!-- Generator: Adobe Fireworks 10, Export SVG Extension by Aaron Beall (http://fireworks.abeall.com) . Version: 0.6.1  -->
<!DOCTYPE svg PUBLIC "-//W3C//DTD SVG 1.1//EN" "http://www.w3.org/Graphics/SVG/1.1/DTD/svg11.dtd">
<svg id="22.fw-P%E1gina%201" viewBox="0 0 650 210" style="background-color:#ffffff00" version="1.1"
	xmlns="http://www.w3.org/2000/svg" xmlns:xlink="http://www.w3.org/1999/xlink" xml:space="preserve"
	x="0px" y="0px" width="650px" height="210px"
>
	<g id="Camada%201">
		<g>
			<path d="M 25 179 L 90 179 L 90 150 L 63 150 L 63 118 L 86 118 L 86 90 L 63 90 L 63 62 L 88 62 L 88 33 L 25 33 L 25 179 L 25 179 Z" fill="#0068be"/>
			<path d="M 147 59 L 147 139.8125 C 147 149.6563 146.7656 155.4688 146.3125 157.2813 C 145.8438 159.0938 144.3906 160 141.9531 160 C 139.6719 160 138.2813 159.125 137.7656 157.375 C 137.25 155.625 137 150.0781 137 140.7188 L 137 59 L 100 59 L 100 139.8281 C 100 150.125 100.2031 157 100.625 160.4531 C 101.0313 163.9219 102.0938 167.25 103.7813 170.4375 C 105.4688 173.625 108.1094 176.1875 111.6719 178.1094 C 115.2344 180.0313 119.7344 181 125.1563 181 C 129.9063 181 134.1094 179.9844 137.7656 177.9688 C 141.4219 175.9375 144.5 172.9063 147 168.8438 L 146.4375 179 L 184 179 L 184 59 L 147 59 L 147 59 Z" fill="#0068be"/>
			<path d="M 198 59 L 198 179 L 235 179 L 235 131.5781 C 235 119.9375 235.3594 112.5 236.0938 109.2813 C 236.8281 106.0625 238.7969 103.5313 241.9844 101.7188 C 245.1719 99.9063 250.1875 99 257 99 L 257 57 C 246.9531 57.6875 239.2813 63.75 234 75.2188 L 235 59 L 198 59 L 198 59 Z" fill="#0068be"/>
			<path d="M 344.2344 82.25 C 343.0469 78.1094 340.8594 74.0781 337.6563 70.1719 C 334.4375 66.2656 329.8906 63.0938 324 60.6563 C 318.0938 58.2188 311.0469 57 302.8281 57 C 293.0156 57 284.9688 58.9063 278.6875 62.6875 C 272.3906 66.4688 268.0313 71.5 265.625 77.75 C 263.2031 84 262 92.6875 262 103.7969 L 262 134.4688 C 262 144.625 262.6563 152.25 263.9844 157.3281 C 265.3125 162.4219 267.5313 166.75 270.6563 170.3125 C 273.7656 173.8906 278.1406 176.5625 283.7656 178.3438 C 289.3906 180.1094 296.25 181 304.3594 181 C 311.6094 181 318.0469 179.9531 323.6406 177.8906 C 329.2344 175.8281 333.8125 172.6094 337.375 168.25 C 340.9375 163.8906 343.2656 159.2031 344.3594 154.1719 C 345.4531 149.1563 346 141.2656 346 130.5 L 346 101.1875 C 346 92.7188 345.4063 86.4063 344.2344 82.25 L 344.2344 82.25 ZM 309 147.5 C 309 152.6875 308.6719 156.0781 308.0156 157.6406 C 307.3594 159.2188 306.0313 160 304 160 C 302.0156 160 300.6875 159.1406 300.0156 157.4219 C 299.3281 155.7031 299 152 299 146.3125 L 299 92.0469 C 299 85.8906 299.3281 82 300.0156 80.4063 C 300.6875 78.8125 302.0469 78 304.0781 78 C 306.1094 78 307.4375 78.8125 308.0625 80.4063 C 308.6875 82 309 85.8906 309 92.0469 L 309 147.5 L 309 147.5 Z" fill="#0068be"/>
			<path d="M 436.6094 78.1406 C 434.3438 72.0469 429.7813 67 422.9375 63 C 416.0938 59 407.8281 57 398.1719 57 C 388.4531 57 380.1875 59.0313 373.4063 63.0938 C 366.625 67.1563 362.1875 71.7656 360.1094 76.9375 C 358.0313 82.1094 357 89.7656 357 99.9219 L 357 133.9219 C 357 145.5938 358.2656 154.5938 360.7969 160.9375 C 363.3281 167.2813 367.6563 172.2188 373.7813 175.7344 C 379.8906 179.2344 388.1719 181 398.6406 181 C 406.8281 181 413.7031 179.7031 419.2656 177.125 C 424.8281 174.5469 429.3438 170.7188 432.7969 165.6406 C 436.25 160.5625 438.2969 155.6094 438.9375 150.7656 C 439.5781 145.9219 439.9375 138.6719 440 129 L 408 129 L 408 143.625 C 408 149.9844 407.5156 154.2969 406.5625 156.5781 C 405.5938 158.8594 403.7656 160 401.0469 160 C 398.7344 160 396.9688 158.9375 395.7813 156.7813 C 394.5938 154.6406 394 151.4219 394 147.1406 L 394 90.4063 C 394 85.1563 394.3906 81.7813 395.2031 80.2656 C 396 78.7656 397.5625 78 399.9063 78 C 402.2344 78 403.8281 78.8594 404.7031 80.5625 C 405.5625 82.2656 406 85.5 406 90.2813 L 406 104 L 440 104 C 440 92.8438 438.8594 84.2344 436.6094 78.1406 L 436.6094 78.1406 Z" fill="#0068be"/>
			<path d="M 483 93.1563 C 483 86.3125 483.2813 82.0781 483.8594 80.4531 C 484.4219 78.8281 485.8906 78 488.25 78 C 490.3125 78 491.7813 78.9844 492.6719 80.9219 C 493.5469 82.875 494 87.0625 494 93.5 C 494 98.6406 493.5781 102.0313 492.75 103.6563 C 491.9219 105.2813 485.625 108.4219 473.8594 113.0781 C 462.8438 117.3906 455.9531 121.1563 453.1719 124.375 C 450.3906 127.5938 449 133.6563 449 142.5625 L 449 152.3281 C 449 164.3438 451.6094 172.125 456.8594 175.6719 C 462.0938 179.2188 467.8438 181 474.125 181 C 478.9219 181 483.0469 179.9219 486.5156 177.7813 C 489.9844 175.6406 492.8125 172.4219 495 168.125 L 495 179 L 531 179 L 531 118.8594 C 531 99.0469 530.3594 85.9688 529.1094 79.625 C 527.8438 73.2813 524.0938 67.9219 517.8594 63.5469 C 511.6094 59.1875 502.3438 57 490.0469 57 C 479.7813 57 471.4375 58.9531 465.0156 62.8281 C 458.5938 66.7188 454.3125 71.2031 452.1875 76.2656 C 450.0625 81.3438 449 88.5469 449 97.8906 L 449 106 L 483 106 L 483 93.1563 L 483 93.1563 ZM 494 146.8594 C 494 152.8281 493.6719 156.5 493.0156 157.9063 C 492.3594 159.3125 490.9375 160 488.7656 160 C 486.4688 160 484.9375 159.1094 484.1563 157.3281 C 483.375 155.5469 483 151.5781 483 145.4219 C 483 140.0625 483.4375 135.9531 484.3281 133.0781 C 485.2188 130.2188 488.4375 126.6719 494 122.4375 L 494 146.8594 L 494 146.8594 Z" fill="#0068be"/>
			<path d="M 589 33 L 589 66.9063 C 585.9688 63.6094 582.5938 61.1406 578.875 59.4844 C 575.1563 57.8281 571.0625 57 566.6094 57 C 560.8438 57 555.875 58.4688 551.7188 61.375 C 547.5625 64.2969 544.8906 67.6875 543.7344 71.5313 C 542.5781 75.375 542 81.9063 542 91.0938 L 542 147.0938 C 542 155.9375 542.5781 162.3125 543.7344 166.2188 C 544.8906 170.125 547.5313 173.5781 551.625 176.5469 C 555.7188 179.5 560.5781 181 566.1719 181 C 570.3281 181 574.2969 180.0781 578.1094 178.2813 C 581.9219 176.4688 585.5469 173.7344 589 170.1094 L 589 179 L 626 179 L 626 33 L 589 33 L 589 33 ZM 589 144.7813 C 589 151.4844 588.6406 155.7031 587.9375 157.4219 C 587.2344 159.1406 585.8281 160 583.7188 160 C 581.875 160 580.625 159.2344 579.9688 157.6875 C 579.3125 156.1563 579 152.9375 579 148.0469 L 579 89.1406 C 579 84.4375 579.3281 81.4063 580.0156 80.0469 C 580.6875 78.6875 582 78 583.9531 78 C 585.9531 78 587.2969 78.7656 587.9844 80.2656 C 588.6563 81.7813 589 84.7344 589 89.1406 L 589 144.7813 L 589 144.7813 Z" fill="#0068be"/>
		</g>
	</g>
</svg>