<?xml version="1.0" standalone="no"?>
<!-- Generator: Adobe Fireworks 10, Export SVG Extension by Aaron Beall (http://fireworks.abeall.com) . Version: 0.6.1  -->
<!DOCTYPE svg PUBLIC "-//W3C//DTD SVG 1.1//EN" "http://www.w3.org/Graphics/SVG/1.1/DTD/svg11.dtd">
<svg id="logo.fw-P%E1gina%201" viewBox="0 0 510 107" style="background-color:#ffffff00" version="1.1"
	xmlns="http://www.w3.org/2000/svg" xmlns:xlink="http://www.w3.org/1999/xlink" xml:space="preserve"
	x="0px" y="0px" width="510px" height="107px"
>
	<g id="Camada%201">
		<path d="M 74.4066 1.4545 L 74.4066 63.0909 L -1 63.0909 L -1 1.4545 L 74.4066 1.4545 Z" fill="#FCB426"/>
		<path d="M 74.4066 73.6364 L 74.4066 104.3636 L -1 104.3636 L -1 73.6364 L 74.4066 73.6364 Z" fill="#006FA0"/>
		<path d="M 229.4091 13.6364 C 229.5912 15.4545 230.1377 18.7273 230.1377 19.2727 L 230.1377 29.6364 L 217.0235 29.6364 L 217.0235 20.3636 C 216.2949 16.5455 216.6592 10.1818 211.0128 10.1818 C 204.6379 10.1818 204.4557 18.3636 204.4557 21.6364 L 204.4557 84.1818 C 204.82 88.3636 204.0914 95.6364 210.8307 95.6364 C 216.2949 95.6364 216.4771 90.7273 217.0235 85.8182 L 217.0235 74.5455 L 230.1377 74.5455 L 230.1377 88.7273 C 229.0448 103.8182 220.302 106 210.8307 106 C 202.8164 106 194.2558 104.1818 192.2522 92.1818 C 191.8879 89.8182 191.3415 85.2727 191.3415 84.9091 L 191.3415 20.9091 C 192.0701 4 199.5379 0 211.0128 0 C 218.6628 0 228.1341 1.8182 229.4091 13.6364 ZM 349.2583 10.9091 C 349.6226 13.4545 350.5333 18 350.5333 18.5455 L 350.5333 29.6364 L 337.4191 29.6364 L 337.4191 19.6364 C 336.8726 15.8182 336.8726 10.1818 331.4084 10.1818 C 327.5834 10.1818 325.762 12.3636 325.2156 17.0909 C 325.2156 17.4545 325.0334 18.3636 325.0334 18.9091 L 325.0334 86.9091 C 325.3977 92 326.3084 95.6364 331.2263 95.6364 C 336.6905 95.6364 336.8726 90.5454 337.4191 86.3636 L 337.4191 74.5455 L 350.7154 74.5455 L 350.7154 86.1818 C 350.5333 88.1818 350.169 90.1818 349.9868 92.1818 C 348.7119 104.5454 338.694 106 331.2263 106 C 323.9406 106 315.5621 104.7273 313.0121 93.6364 C 312.4657 90.7273 311.7371 84.9091 311.7371 84.5454 L 311.7371 21.2727 C 312.4657 4.7273 319.0228 0 331.4084 0 C 337.7833 0 347.4368 1.2727 349.2583 10.9091 ZM 133.7848 1.4545 L 133.7848 12.1818 L 116.117 12.1818 L 116.117 46 L 132.6919 46 L 132.6919 56.7273 L 116.117 56.7273 L 116.117 104.3636 L 103.185 104.3636 L 103.185 1.4545 L 133.7848 1.4545 ZM 184.4202 104.3636 L 171.1238 104.3636 L 168.0274 78.1818 L 150.3596 78.1818 L 146.5347 104.3636 L 134.149 104.3636 L 150.9061 1.4545 L 168.756 1.4545 L 184.4202 104.3636 ZM 272.9409 1.4545 L 272.9409 12.1818 L 255.4554 12.1818 L 255.4554 45.2727 L 272.0302 45.2727 L 272.0302 56 L 255.4554 56 L 255.4554 93.6364 L 273.8517 93.6364 L 273.8517 104.3636 L 242.3412 104.3636 L 242.3412 1.4545 L 272.9409 1.4545 ZM 390.9687 1.4545 L 406.4507 104.3636 L 393.3365 104.3636 L 390.058 78.1818 L 372.7545 78.1818 L 368.7474 104.3636 L 356.1796 104.3636 L 373.1188 1.4545 L 390.9687 1.4545 ZM 438.1434 1.6364 C 439.4183 1.8182 440.6934 2 441.9683 2 C 442.879 2.1818 443.6076 2.5455 444.7004 2.5455 C 450.3469 3.2727 455.0825 9.8182 455.0825 14.3636 C 455.0825 14.9091 455.4468 15.6364 455.4468 16.1818 L 455.4468 37.4545 C 455.2646 38.5455 455.0825 39.6364 454.9004 40.7273 C 454.7183 41.4545 454.3539 42.3636 454.1718 43.2727 C 452.5325 49.0909 445.2469 50.5455 441.4219 51.2727 C 441.4219 51.2727 441.6041 51.4545 441.7862 51.4545 C 443.2433 51.6364 444.7004 51.8182 446.1576 52.1818 C 448.1611 52.7273 450.7111 53.4545 452.8969 56.3636 C 453.6254 57.0909 454.1718 58.1818 454.5361 59.4545 C 455.0825 61.0909 455.8111 64.5455 455.8111 65.0909 L 455.8111 104.3636 L 442.5148 104.3636 L 442.5148 66.5455 C 442.3326 66 442.1505 65.0909 442.1505 64.1818 C 442.3326 58.7273 437.7791 56.5455 434.1362 56.5455 L 428.4899 56.5455 L 428.4899 104.3636 L 416.1042 104.3636 L 416.1042 1.4545 L 438.1434 1.6364 ZM 489.6895 1.6364 C 491.5109 1.8182 493.3323 1.8182 495.1537 2.1818 C 496.2465 2.3636 497.3394 2.7273 498.4323 2.9091 C 501.7108 3.4545 507.175 6.9091 508.2679 11.0909 C 508.6321 12.3636 509.3607 13.8182 509.5428 15.2727 C 510.2714 18.3636 511 24.5455 511 25.0909 L 511 80.5454 C 510.8179 82.7273 510.4536 84.9091 510.2714 86.9091 C 510.0893 88.1818 509.725 90 509.3607 91.4546 C 509.1786 92.1818 508.8143 92.9091 508.6321 93.8182 C 506.8107 102.7273 492.968 104.3636 486.7751 104.3636 L 470.9288 104.3636 L 470.9288 1.4545 L 489.6895 1.6364 ZM 433.772 11.8182 C 439.0541 11.8182 441.7862 16 441.7862 20.1818 L 441.7862 37.8182 C 441.6041 38.5455 441.4219 39.0909 441.4219 39.6364 C 441.2397 44.7273 436.322 46.3636 432.8613 46.3636 L 428.672 46.3636 L 428.672 11.8182 L 433.772 11.8182 ZM 487.6859 12 C 488.5966 12.1818 489.5073 12.1818 490.418 12.1818 C 490.9644 12.3636 491.693 12.5455 492.2394 12.5455 C 493.1501 12.7273 494.6072 13.2727 495.7001 14.7273 C 496.4286 15.4545 497.7037 19.8182 497.7037 21.8182 L 497.7037 83.8182 C 497.5215 84.7273 497.3394 85.6364 497.3394 86.5454 C 497.1572 88 496.793 89.8182 495.5179 91.4546 C 494.243 92.9091 490.418 93.8182 488.0502 93.8182 L 484.2252 93.8182 L 484.2252 12 L 487.6859 12 ZM 166.206 67.8182 L 151.9989 67.8182 L 159.831 12.5455 L 166.206 67.8182 ZM 381.8616 12.5455 L 388.4187 67.6364 L 374.0295 67.6364 L 381.4973 12.5455 L 381.8616 12.5455 Z" fill="#006FA0"/>
		<path d="M 160 11 C 159.875 11.25 150.75 68.625 151 69 C 151.25 69.375 167 69 167 69 C 167 69 160.125 10.75 160 11 Z" fill="#ffffff"/>
		<path d="M 381 12 L 373 68 L 389 68 L 381 12 Z" fill="#ffffff"/>
		<path d="M 428 12 L 428 47 C 428 47 439.125 48 442 41 L 442 17 C 442 17 441.75 10.875 435 12 L 428 12 Z" fill="#ffffff"/>
		<path d="M 484 12 L 484 94 C 484 94 495.25 95.375 498 87 L 498 19 C 498 19 497.25 13 491 12 L 484 12 Z" fill="#ffffff"/>
	</g>
</svg>