<?xml version="1.0" encoding="UTF-8"?>
<!DOCTYPE svg PUBLIC "-//W3C//DTD SVG 1.1//EN" "http://www.w3.org/Graphics/SVG/1.1/DTD/svg11.dtd">
<!-- Creator: CorelDRAW X8 -->
<svg xmlns="http://www.w3.org/2000/svg" xml:space="preserve" width="130mm" height="46mm" version="1.1" style="shape-rendering:geometricPrecision; text-rendering:geometricPrecision; image-rendering:optimizeQuality; fill-rule:evenodd; clip-rule:evenodd"
viewBox="0 0 1300 460"
 xmlns:xlink="http://www.w3.org/1999/xlink">
 <defs>
  <style type="text/css">
   <![CDATA[
    .fil0 {fill:#01579B;fill-rule:nonzero}
    .fil1 {fill:#EF5350;fill-rule:nonzero}
   ]]>
  </style>
 </defs>
 <g id="Camada_x0020_1">
  <metadata id="CorelCorpID_0Corel-Layer"/>
  <g id="_2022901709696">
   <path class="fil0" d="M320 226c0,28 -1,48 -2,60 -1,12 -5,22 -12,32 -7,9 -17,17 -28,22 -12,5 -26,8 -42,8 -15,0 -28,-3 -40,-8 -12,-4 -21,-12 -29,-21 -7,-10 -11,-21 -12,-32 -2,-12 -2,-32 -2,-61l0 -47c0,-28 0,-48 1,-60 2,-12 6,-22 13,-32 7,-10 16,-17 28,-22 12,-5 26,-8 41,-8 15,0 29,3 40,7 12,5 22,13 29,22 7,10 12,21 13,32 1,12 2,32 2,61l0 47zm-73 -91c0,-13 0,-22 -2,-25 -1,-4 -4,-6 -8,-6 -4,0 -7,2 -9,5 -2,3 -3,11 -3,26l0 130c0,16 1,26 2,30 1,4 4,6 9,6 5,0 8,-3 9,-7 2,-4 2,-15 2,-31l0 -128zm167 -22l-2 30c10,-21 25,-33 44,-34l0 80c-13,0 -22,2 -28,6 -6,3 -10,8 -11,14 -2,6 -2,20 -2,42l0 91 -70 0 0 -229 69 0zm216 0l0 176c0,24 -1,39 -2,46 -1,7 -5,15 -11,22 -7,8 -16,14 -28,18 -12,4 -27,6 -45,6 -22,0 -40,-3 -54,-11 -13,-8 -20,-22 -21,-44l68 0c0,10 3,15 11,15 5,0 9,-2 11,-5 2,-3 2,-10 2,-19l0 -18c-6,6 -12,10 -19,13 -6,2 -13,4 -20,4 -13,0 -23,-3 -31,-8 -9,-5 -14,-12 -17,-20 -3,-8 -5,-20 -5,-35l0 -83c0,-22 4,-37 12,-47 8,-9 20,-14 36,-14 9,0 17,2 24,5 7,4 14,9 19,16l5 -17 65 0zm-70 61c0,-11 0,-17 -2,-20 -1,-3 -4,-4 -8,-4 -4,0 -7,1 -9,4 -1,4 -2,10 -2,20l0 77c0,10 0,17 2,20 1,3 4,4 8,4 5,0 8,-2 9,-5 2,-4 2,-12 2,-25l0 -71z"/>
   <path class="fil1" d="M717 112l-2 20c7,-8 13,-14 21,-18 7,-4 16,-6 24,-6 11,0 21,3 28,9 8,5 13,12 15,20 2,7 3,20 3,38l0 97c0,20 -1,35 -4,44 -2,9 -7,16 -15,21 -7,5 -17,8 -28,8 -8,0 -16,-2 -23,-6 -8,-4 -14,-10 -21,-18l0 52 -69 0 0 -261 71 0zm20 67c0,-15 -1,-23 -2,-26 -1,-3 -4,-5 -9,-5 -4,0 -7,2 -9,6 -1,3 -2,11 -2,25l0 94c0,14 1,23 2,26 2,4 5,5 10,5 4,0 7,-1 8,-4 1,-4 2,-11 2,-23l0 -98zm154 22l-65 0 0 -16c0,-17 2,-31 6,-41 4,-9 12,-18 25,-25 12,-7 28,-11 47,-11 24,0 42,4 54,12 12,9 19,19 21,31 3,12 4,37 4,75l0 115 -68 0 0 -21c-4,8 -10,15 -16,19 -7,4 -15,6 -24,6 -13,0 -24,-4 -34,-10 -10,-7 -15,-22 -15,-45l0 -19c0,-17 3,-29 8,-35 5,-6 19,-14 40,-22 23,-9 35,-15 37,-18 1,-3 2,-9 2,-19 0,-12 -1,-20 -2,-23 -2,-4 -5,-6 -9,-6 -5,0 -8,2 -9,5 -1,3 -2,11 -2,24l0 24zm22 31c-11,8 -17,15 -19,20 -2,6 -3,14 -3,24 0,12 1,20 2,23 2,4 5,5 10,5 4,0 7,-1 8,-4 2,-2 2,-9 2,-21l0 -47zm239 -120l-20 165c-3,27 -5,45 -8,54 -2,10 -5,17 -10,24 -5,6 -12,10 -21,13 -8,3 -22,5 -42,5l-42 0 0 -37c11,0 18,0 21,-2 3,-1 5,-3 5,-7 0,-2 -2,-10 -5,-24l-38 -191 63 0 23 155 11 -155 63 0z"/>
  </g>
 </g>
</svg>
