<?xml version="1.0" standalone="no"?>
<!DOCTYPE svg PUBLIC "-//W3C//DTD SVG 20010904//EN"
 "http://www.w3.org/TR/2001/REC-SVG-20010904/DTD/svg10.dtd">
<svg version="1.0" xmlns="http://www.w3.org/2000/svg"
 width="512.000000pt" height="512.000000pt" viewBox="0 0 512.000000 512.000000"
 preserveAspectRatio="xMidYMid meet">

<g transform="translate(0.000000,512.000000) scale(0.100000,-0.100000)"
fill="#25255B" stroke="none">
<path d="M600 2560 l0 -1320 320 0 320 0 0 1320 0 1320 -320 0 -320 0 0 -1320z"/>
<path d="M3880 2560 l0 -1320 320 0 320 0 0 1320 0 1320 -320 0 -320 0 0
-1320z"/>
<path d="M0 2555 l0 -525 180 0 180 0 0 525 0 525 -180 0 -180 0 0 -525z"/>
<path d="M4750 2555 l0 -525 185 0 185 0 0 525 0 525 -185 0 -185 0 0 -525z"/>
<path d="M1480 2565 l0 -285 1085 0 1085 0 0 285 0 285 -1085 0 -1085 0 0
-285z"/>
</g>
</svg>
