<?xml version="1.0" standalone="no"?>
<!DOCTYPE svg PUBLIC "-//W3C//DTD SVG 20010904//EN"
 "http://www.w3.org/TR/2001/REC-SVG-20010904/DTD/svg10.dtd">
<svg version="1.0" xmlns="http://www.w3.org/2000/svg"
 width="512.000000pt" height="512.000000pt" viewBox="0 0 512.000000 512.000000"
 preserveAspectRatio="xMidYMid meet">

<g transform="translate(0.000000,512.000000) scale(0.100000,-0.100000)"
fill="#25255B" stroke="none">
<path d="M1798 5099 c-21 -10 -49 -36 -63 -56 l-25 -38 0 -797 0 -798 -795 0
-795 0 -41 -37 c-84 -76 -79 -21 -79 -826 l0 -714 30 -41 c16 -23 48 -51 69
-62 39 -20 56 -20 826 -20 l785 0 0 -793 0 -794 30 -41 c16 -23 48 -51 69 -62
39 -20 57 -20 748 -20 657 0 710 1 734 18 30 20 66 61 97 113 l22 36 0 772 0
771 781 0 c898 0 814 -10 889 102 l40 60 0 704 c0 801 9 727 -92 794 l-60 40
-779 0 -779 0 0 792 0 791 -24 32 c-13 17 -51 46 -84 63 l-60 32 -703 0 c-680
-1 -705 -2 -741 -21z"/>
</g>
</svg>
