<?xml version="1.0" standalone="no"?>
<!-- Generator: Adobe Fireworks 10, Export SVG Extension by Aaron Beall (http://fireworks.abeall.com) . Version: 0.6.1  -->
<!DOCTYPE svg PUBLIC "-//W3C//DTD SVG 1.1//EN" "http://www.w3.org/Graphics/SVG/1.1/DTD/svg11.dtd">
<svg id="topo.fw-P%E1gina%201" viewBox="0 0 155 29" style="background-color:#ffffff00" version="1.1"
	xmlns="http://www.w3.org/2000/svg" xmlns:xlink="http://www.w3.org/1999/xlink" xml:space="preserve"
	x="0px" y="0px" width="155px" height="29px"
>
	<g id="Camada%201">
		<path d="M -0.5408 11.1546 L -0.5408 11 L -3 11 L -3 175 L -0.5408 175 L -0.5408 174.8454 C -0.5408 173.0698 0.9009 171.6304 2.679 171.6304 C 4.457 171.6304 5.8983 173.0698 5.8983 174.8454 L 5.8983 175 L 8.0393 175 L 8.0393 174.8454 C 8.0393 173.0698 9.481 171.6304 11.2591 171.6304 C 13.0376 171.6304 14.4788 173.0698 14.4788 174.8454 L 14.4788 175 L 16.6198 175 L 16.6198 174.8454 C 16.6198 173.0698 18.0616 171.6304 19.8396 171.6304 C 21.6177 171.6304 23.0589 173.0698 23.0589 174.8454 L 23.0589 175 L 25.1999 175 L 25.1999 174.8454 C 25.1999 173.0698 26.6416 171.6304 28.4197 171.6304 C 30.1982 171.6304 31.6395 173.0698 31.6395 174.8454 L 31.6395 175 L 33.7805 175 L 33.7805 174.8454 C 33.7805 173.0698 35.2222 171.6304 37.0003 171.6304 C 38.7788 171.6304 40.22 173.0698 40.22 174.8454 L 40.22 175 L 42.361 175 L 42.361 174.8454 C 42.361 173.0698 43.8028 171.6304 45.5808 171.6304 C 47.3589 171.6304 48.8001 173.0698 48.8001 174.8454 L 48.8001 175 L 50.9411 175 L 50.9411 174.8454 C 50.9411 173.0698 52.3828 171.6304 54.1609 171.6304 C 55.9394 171.6304 57.3807 173.0698 57.3807 174.8454 L 57.3807 175 L 59.5217 175 L 59.5217 174.8454 C 59.5217 173.0698 60.9634 171.6304 62.7415 171.6304 C 64.5195 171.6304 65.9607 173.0698 65.9607 174.8454 L 65.9607 175 L 68.1017 175 L 68.1017 174.8454 C 68.1017 173.0698 69.5435 171.6304 71.3215 171.6304 C 73.1001 171.6304 74.5413 173.0698 74.5413 174.8454 L 74.5413 175 L 77 175 L 77 11 L 74.5413 11 L 74.5413 11.1546 C 74.5413 12.9302 73.1001 14.3696 71.3215 14.3696 C 69.5435 14.3696 68.1017 12.9302 68.1017 11.1546 L 68.1017 11 L 65.9607 11 L 65.9607 11.1546 C 65.9607 12.9302 64.5195 14.3696 62.7415 14.3696 C 60.9634 14.3696 59.5217 12.9302 59.5217 11.1546 L 59.5217 11 L 57.3807 11 L 57.3807 11.1546 C 57.3807 12.9302 55.9394 14.3696 54.1609 14.3696 C 52.3828 14.3696 50.9411 12.9302 50.9411 11.1546 L 50.9411 11 L 48.8001 11 L 48.8001 11.1546 C 48.8001 12.9302 47.3589 14.3696 45.5808 14.3696 C 43.8028 14.3696 42.361 12.9302 42.361 11.1546 L 42.361 11 L 40.22 11 L 40.22 11.1546 C 40.22 12.9302 38.7788 14.3696 37.0003 14.3696 C 35.2222 14.3696 33.7805 12.9302 33.7805 11.1546 L 33.7805 11 L 31.6395 11 L 31.6395 11.1546 C 31.6395 12.9302 30.1982 14.3696 28.4197 14.3696 C 26.6416 14.3696 25.1999 12.9302 25.1999 11.1546 L 25.1999 11 L 23.0589 11 L 23.0589 11.1546 C 23.0589 12.9302 21.6177 14.3696 19.8396 14.3696 C 18.0616 14.3696 16.6198 12.9302 16.6198 11.1546 L 16.6198 11 L 14.4788 11 L 14.4788 11.1546 C 14.4788 12.9302 13.0376 14.3696 11.2591 14.3696 C 9.481 14.3696 8.0393 12.9302 8.0393 11.1546 L 8.0393 11 L 5.8983 11 L 5.8983 11.1546 C 5.8983 12.9302 4.457 14.3696 2.679 14.3696 C 0.9009 14.3696 -0.5408 12.9302 -0.5408 11.1546 Z" fill="#ffd37d"/>
		<path d="M 77.4592 11.1546 L 77.4592 11 L 75 11 L 75 175 L 77.4592 175 L 77.4592 174.8454 C 77.4592 173.0698 78.9009 171.6304 80.679 171.6304 C 82.457 171.6304 83.8983 173.0698 83.8983 174.8454 L 83.8983 175 L 86.0393 175 L 86.0393 174.8454 C 86.0393 173.0698 87.481 171.6304 89.259 171.6304 C 91.0376 171.6304 92.4788 173.0698 92.4788 174.8454 L 92.4788 175 L 94.6198 175 L 94.6198 174.8454 C 94.6198 173.0698 96.0616 171.6304 97.8396 171.6304 C 99.6177 171.6304 101.0589 173.0698 101.0589 174.8454 L 101.0589 175 L 103.1999 175 L 103.1999 174.8454 C 103.1999 173.0698 104.6416 171.6304 106.4197 171.6304 C 108.1982 171.6304 109.6395 173.0698 109.6395 174.8454 L 109.6395 175 L 111.7805 175 L 111.7805 174.8454 C 111.7805 173.0698 113.2222 171.6304 115.0003 171.6304 C 116.7788 171.6304 118.22 173.0698 118.22 174.8454 L 118.22 175 L 120.361 175 L 120.361 174.8454 C 120.361 173.0698 121.8028 171.6304 123.5808 171.6304 C 125.3589 171.6304 126.8001 173.0698 126.8001 174.8454 L 126.8001 175 L 128.9411 175 L 128.9411 174.8454 C 128.9411 173.0698 130.3828 171.6304 132.1609 171.6304 C 133.9394 171.6304 135.3807 173.0698 135.3807 174.8454 L 135.3807 175 L 137.5217 175 L 137.5217 174.8454 C 137.5217 173.0698 138.9634 171.6304 140.7415 171.6304 C 142.5195 171.6304 143.9607 173.0698 143.9607 174.8454 L 143.9607 175 L 146.1017 175 L 146.1017 174.8454 C 146.1017 173.0698 147.5435 171.6304 149.3215 171.6304 C 151.1001 171.6304 152.5413 173.0698 152.5413 174.8454 L 152.5413 175 L 155 175 L 155 11 L 152.5413 11 L 152.5413 11.1546 C 152.5413 12.9302 151.1001 14.3696 149.3215 14.3696 C 147.5435 14.3696 146.1017 12.9302 146.1017 11.1546 L 146.1017 11 L 143.9607 11 L 143.9607 11.1546 C 143.9607 12.9302 142.5195 14.3696 140.7415 14.3696 C 138.9634 14.3696 137.5217 12.9302 137.5217 11.1546 L 137.5217 11 L 135.3807 11 L 135.3807 11.1546 C 135.3807 12.9302 133.9394 14.3696 132.1609 14.3696 C 130.3828 14.3696 128.9411 12.9302 128.9411 11.1546 L 128.9411 11 L 126.8001 11 L 126.8001 11.1546 C 126.8001 12.9302 125.3589 14.3696 123.5808 14.3696 C 121.8028 14.3696 120.361 12.9302 120.361 11.1546 L 120.361 11 L 118.22 11 L 118.22 11.1546 C 118.22 12.9302 116.7788 14.3696 115.0003 14.3696 C 113.2222 14.3696 111.7805 12.9302 111.7805 11.1546 L 111.7805 11 L 109.6395 11 L 109.6395 11.1546 C 109.6395 12.9302 108.1982 14.3696 106.4197 14.3696 C 104.6416 14.3696 103.1999 12.9302 103.1999 11.1546 L 103.1999 11 L 101.0589 11 L 101.0589 11.1546 C 101.0589 12.9302 99.6177 14.3696 97.8396 14.3696 C 96.0616 14.3696 94.6198 12.9302 94.6198 11.1546 L 94.6198 11 L 92.4788 11 L 92.4788 11.1546 C 92.4788 12.9302 91.0376 14.3696 89.259 14.3696 C 87.481 14.3696 86.0393 12.9302 86.0393 11.1546 L 86.0393 11 L 83.8983 11 L 83.8983 11.1546 C 83.8983 12.9302 82.457 14.3696 80.679 14.3696 C 78.9009 14.3696 77.4592 12.9302 77.4592 11.1546 Z" fill="#ffd37d"/>
	</g>
</svg>