<?xml version="1.0" standalone="no"?>
<!DOCTYPE svg PUBLIC "-//W3C//DTD SVG 20010904//EN"
 "http://www.w3.org/TR/2001/REC-SVG-20010904/DTD/svg10.dtd">
<svg version="1.0" xmlns="http://www.w3.org/2000/svg"
 width="512.000000pt" height="512.000000pt" viewBox="0 0 512.000000 512.000000"
 preserveAspectRatio="xMidYMid meet">

<g transform="translate(0.000000,512.000000) scale(0.100000,-0.100000)"
fill="#25255B" stroke="none">
<path d="M2445 4361 c-46 -12 -359 -160 -1520 -716 -203 -97 -410 -195 -458
-216 -160 -71 -335 -159 -396 -200 -61 -40 -77 -64 -67 -97 7 -19 283 -159
721 -363 132 -61 302 -140 378 -176 77 -35 140 -63 140 -61 26 52 82 84 635
365 383 195 403 207 402 232 -4 63 1 82 36 120 51 57 113 76 244 75 124 -1
196 -24 249 -78 43 -45 52 -106 22 -154 -30 -46 -101 -88 -187 -108 -63 -15
-83 -16 -139 -5 l-66 12 -505 -257 c-482 -244 -505 -257 -502 -282 3 -23 33
-40 278 -164 425 -214 703 -331 813 -344 115 -14 112 -15 1297 553 333 160
731 349 885 421 300 140 358 169 393 202 50 47 15 86 -148 163 -294 139 -1136
540 -1410 672 -603 291 -762 365 -823 386 -67 23 -219 34 -272 20z"/>
<path d="M950 2157 l0 -344 35 -70 c19 -38 43 -77 54 -87 18 -17 19 -16 25 21
28 169 95 728 89 734 -6 5 -102 48 -190 86 -10 4 -13 -68 -13 -340z"/>
<path d="M3875 2364 c-685 -330 -1189 -564 -1243 -578 -33 -9 -72 -16 -87 -16
-57 0 -218 66 -430 175 -231 119 -614 299 -622 292 -3 -4 103 -862 123 -991 6
-36 10 -40 72 -68 271 -123 623 -188 942 -175 517 22 1001 218 1315 532 113
114 146 158 181 242 23 57 24 63 24 386 0 180 -3 327 -7 326 -5 0 -125 -57
-268 -125z"/>
<path d="M1306 2263 c-28 -175 -176 -1352 -172 -1368 19 -77 104 -145 181
-145 77 0 162 68 181 145 5 20 -171 1394 -180 1402 -2 2 -7 -13 -10 -34z"/>
</g>
</svg>
