<?xml version="1.0" standalone="no"?>
<!-- Generator: Adobe Fireworks 10, Export SVG Extension by Aaron Beall (http://fireworks.abeall.com) . Version: 0.6.1  -->
<!DOCTYPE svg PUBLIC "-//W3C//DTD SVG 1.1//EN" "http://www.w3.org/Graphics/SVG/1.1/DTD/svg11.dtd">
<svg id="confirm-512.fw-P%E1gina%201" viewBox="0 0 64 64" style="background-color:#ffffff00" version="1.1"
	xmlns="http://www.w3.org/2000/svg" xmlns:xlink="http://www.w3.org/1999/xlink" xml:space="preserve"
	x="0px" y="0px" width="64px" height="64px"
>
	<g id="Plano%20de%20fundo">
		<g>
			<path d="M 58.6875 0.1875 C 60.4375 0.0625 63.8125 2.9375 63.8125 4.9375 L 63.8125 58.8125 C 63.8125 60.4375 60.9375 63.8125 58.9375 63.8125 L 4.9375 63.8125 C 3.0625 63.6875 0.1875 60.8125 0.1875 59.0625 L 0.1875 5.0625 C -0.0625 3.1875 3.3125 -0.0625 5.1875 0.1875 L 58.6875 0.1875 ZM 54.4375 16.0625 C 54.4375 16.5625 47.6875 22.8125 43.4375 28.6875 C 39.4375 34.0625 35.6875 39.9375 32.9375 45.8125 C 32.4375 46.9375 30.5625 48.5625 29.4375 48.5625 C 27.3125 48.5625 25.6875 44.9375 24.5625 43.4375 C 23.3125 41.4375 22.0625 39.1875 20.5625 37.1875 C 18.9375 34.6875 15.8125 31.8125 13.5625 30.0625 C 13.1875 29.8125 9.5625 27.4375 9.5625 26.9375 C 9.5625 26.1875 11.6875 26.1875 11.9375 26.1875 C 19.1875 26.1875 25.3125 32.0625 28.9375 36.8125 C 29.3125 36.5625 29.5625 36.0625 29.8125 35.6875 C 34.8125 28.3125 43.8125 19.1875 51.0625 16.3125 C 51.8125 15.9375 53.4375 15.4375 53.6875 15.4375 C 54.0625 15.4375 54.4375 15.8125 54.4375 16.0625 Z" fill="#19c029"/>
			<path d="M 54.4375 16.0625 C 54.4375 16.5625 47.9375 22.5625 43.9375 28.1875 C 42.4375 30.0625 40.9375 32.1875 39.6875 34.3125 C 38.1875 36.5625 36.9375 39.0625 35.4375 41.4375 C 33.9375 43.6875 32.6875 48.5625 29.4375 48.5625 C 27.5625 48.5625 26.3125 46.5625 25.1875 44.5625 C 24.5625 43.4375 23.6875 42.3125 23.0625 41.1875 C 21.9375 39.3125 20.5625 37.3125 18.9375 35.3125 C 17.3125 33.1875 15.3125 31.8125 13.5625 30.1875 C 13.1875 29.9375 9.5625 27.6875 9.5625 26.9375 C 9.5625 25.9375 11.4375 26.1875 11.8125 26.1875 C 16.4375 26.1875 21.9375 28.3125 26.3125 33.6875 C 27.0625 34.6875 28.0625 35.6875 28.9375 36.6875 C 29.4375 36.0625 30.0625 35.1875 30.5625 34.4375 C 35.5625 27.1875 44.4375 18.6875 51.4375 16.0625 C 52.1875 15.8125 53.4375 15.4375 53.6875 15.4375 C 54.3125 15.4375 54.4375 15.8125 54.4375 16.0625 Z" fill="#ffffff"/>
		</g>
	</g>
	<g id="Camada%201">
	</g>
</svg>