<?xml version="1.0" standalone="no"?>
<!-- Generator: Adobe Fireworks 10, Export SVG Extension by Aaron Beall (http://fireworks.abeall.com) . Version: 0.6.1  -->
<!DOCTYPE svg PUBLIC "-//W3C//DTD SVG 1.1//EN" "http://www.w3.org/Graphics/SVG/1.1/DTD/svg11.dtd">
<svg id="envia.fw-P%E1gina%201" viewBox="0 0 288 288" style="background-color:#ffffff00" version="1.1"
	xmlns="http://www.w3.org/2000/svg" xmlns:xlink="http://www.w3.org/1999/xlink" xml:space="preserve"
	x="0px" y="0px" width="288px" height="288px"
>
	<g id="Plano%20de%20fundo">
		<path class="teste" d="M 63.1945 101.1575 C 74.2768 116.7795 76.2918 129.8819 76.2918 144.4961 C 76.2918 159.6142 67.2244 197.4095 49.5935 197.4095 C 42.0374 197.4095 37 189.3465 37 184.3071 C 37 178.2598 39.5187 175.7402 43.0449 169.189 C 44.5561 166.1654 46.0673 163.1417 47.0748 160.1181 C 47.5786 158.6063 48.0823 156.5905 48.0823 155.0787 C 48.5861 153.063 48.5861 151.0472 49.0897 149.0315 L 49.0897 139.4567 C 48.5861 135.4252 47.5786 129.8819 46.0673 125.8504 C 43.5486 118.7953 37 111.7402 37 104.685 C 37 97.126 43.0449 92.0866 50.0973 92.0866 C 55.6384 92.0866 56.6459 91.5827 63.1945 101.1575 Z" fill="#455a64">

			<animateTransform id="anskkljdf"
				attributeName="transform"
				attributeType ="XML"
				type="translate"
				begin=".1"
				dur="1s"
				values="0,9;0,-9;0,9"
				repeatCount="indefinite"/>

				<animate id="anskkljdf"
				attributeName="fill" 
                attributeType="XML"
                from="#01579E"
                to="#0CA7D3"
                dur="0.5s"
                repeatCount="indefinite"/>

				

		</path>	
		<path d="M 113.5686 83.0157 C 126.6658 109.2205 128.1771 121.315 128.1771 144.4961 C 128.1771 146.0079 127.6733 159.1102 126.6658 166.1654 C 123.6434 186.3228 115.5836 207.9921 103.9975 219.5827 C 101.4788 222.1024 99.4639 221.5984 97.4489 221.5984 C 90.3965 221.5984 84.3516 216.0551 84.3516 209 C 84.3516 201.9449 92.4114 187.8346 94.4265 182.2913 C 97.4489 173.2205 100.4713 163.1417 101.4788 154.0709 L 101.4788 134.4173 C 100.4713 128.874 99.4639 121.8189 97.4489 116.2756 C 95.9376 110.7323 93.9227 104.685 91.404 99.6457 C 87.8777 90.5748 84.3516 86.5433 84.3516 79.4882 C 84.3516 78.4803 84.3516 77.4724 84.3516 76.4646 C 89.8928 66.8898 91.404 68.4016 96.4414 68.4016 C 105.5087 68.4016 106.5162 69.4094 113.5686 83.0157 Z" fill="#455a64">

			<animateTransform id="anskkljdf"
				attributeName="transform"
				attributeType ="XML"
				type="translate"
				begin=".2"
				dur="1s"
				values="0,9;0,-9;0,9"
				repeatCount="indefinite"/>

				<animate id="anskkljdf"
				attributeName="fill" 
                attributeType="XML"
                from="#01579E"
                to="#0CA7D3"
                dur="0.5s"
                repeatCount="indefinite"/>

			

		</path>	
		<path d="M 165.9576 64.874 C 178.0474 88.5591 184.0923 118.7953 184.0923 143.9921 C 184.0923 168.685 177.0399 199.9291 166.4614 224.1181 C 163.4389 230.1653 155.8828 247.2992 146.3118 247.2992 C 138.7556 247.2992 133.7182 240.748 133.7182 234.1969 C 133.7182 232.685 133.7182 231.6772 133.7182 230.1653 C 138.2519 220.0866 143.2893 209.5039 147.3192 198.9213 C 150.3417 190.8583 153.3641 180.2756 154.3716 172.7165 C 155.3791 167.1732 156.3865 161.6299 156.8903 156.0866 L 156.8903 133.9134 C 156.3865 129.8819 155.3791 124.8425 154.8753 119.8031 C 153.3641 112.2441 152.3566 104.1811 149.8379 97.126 C 148.3267 91.5827 146.3118 87.0473 144.2968 82.0079 C 141.2744 73.4409 133.7182 62.3543 133.7182 54.2913 C 133.7182 46.7323 138.7556 42.7008 146.3118 42.7008 C 158.9053 42.7008 159.409 52.2756 165.9576 64.874 Z" fill="#455a64">

			<animateTransform id="anskkljdf"
				attributeName="transform"
				attributeType ="XML"
				type="translate"
				begin=".3"
				dur="1s"
				values="0,9;0,-9;0,9"
				repeatCount="indefinite"/>

				<animate id="anskkljdf"
				attributeName="fill" 
                attributeType="XML"
                from="#01579E"
                to="#0CA7D3"
                dur="0.5s"
                repeatCount="indefinite"/>

				

		</path>	
		<path d="M 214.3167 36.6535 C 225.399 58.3228 239 103.1732 239 130.3858 L 239 163.1417 C 237.9926 176.748 235.4738 191.3622 231.4439 205.4724 C 225.399 227.6457 218.8504 249.8189 202.7307 270.4803 C 201.7232 271.4882 196.6858 273 195.1746 273 C 187.6185 273 182.5811 264.937 182.5811 259.3937 C 182.5811 252.3386 190.6409 239.7402 192.6559 235.2047 C 195.1746 230.1653 197.1895 224.622 199.2045 219.0787 C 203.7382 206.9843 207.2643 192.874 209.2793 180.2756 C 210.2868 173.7244 211.2943 166.6693 211.798 160.1181 L 211.798 127.8661 C 209.7831 111.2362 207.7681 93.0945 201.2194 75.9606 C 199.2045 69.9134 196.6858 63.8661 194.1671 57.8189 C 191.6484 51.7717 182.5811 35.6457 182.5811 28.5905 C 182.5811 21.0315 188.6259 17 195.6783 17 C 206.7606 17 208.2719 24.5591 214.3167 36.6535 Z" fill="#455a64">

			<animateTransform id="anskkljdf"
				attributeName="transform"
				attributeType ="XML"
				type="translate"
				begin=".4"
				dur="1s"
				values="0,9;0,-9;0,9"
				repeatCount="indefinite"/>

				<animate id="anskkljdf"
				attributeName="fill" 
                attributeType="XML"
                from="#01579E"
                to="#0CA7D3"
                dur="0.5s"
                repeatCount="indefinite"/>

					

		</path>	
	</g>
	<g id="Camada%201">
	</g>
</svg>