<?xml version="1.0" standalone="no"?>
<!-- Generator: Adobe Fireworks 10, Export SVG Extension by Aaron Beall (http://fireworks.abeall.com) . Version: 0.6.1  -->
<!DOCTYPE svg PUBLIC "-//W3C//DTD SVG 1.1//EN" "http://www.w3.org/Graphics/SVG/1.1/DTD/svg11.dtd">
<svg id="icone_combustivel.fw-P%E1gina%201" viewBox="0 0 512 512" style="background-color:#ffffff00" version="1.1"
	xmlns="http://www.w3.org/2000/svg" xmlns:xlink="http://www.w3.org/1999/xlink" xml:space="preserve"
	x="0px" y="0px" width="512px" height="512px"
>
	<g id="Plano%20de%20fundo">
		<path d="M 278.5 0.5 C 310.5 2.5 334.5 30.5 334.5 57.5 L 334.5 256.5 C 337.5 256.5 341.5 256.5 345.5 257.5 C 351.5 257.5 358.5 257.5 365.5 258.5 C 368.5 258.5 374.5 261.5 379.5 262.5 C 403.5 271.5 410.5 300.5 412.5 319.5 L 413.5 366.5 C 415.5 372.5 412.5 433.5 443.5 433.5 C 469.5 433.5 471.5 376.5 472.5 370.5 L 473.5 267.5 C 460.5 250.5 415.5 216.5 415.5 194.5 L 415.5 128.5 C 401.5 112.5 355.5 74.5 355.5 58.5 C 355.5 47.5 364.5 40.5 373.5 40.5 C 375.5 40.5 379.5 39.5 382.5 41.5 C 404.5 59.5 424.5 81.5 444.5 103.5 C 462.5 122.5 486.5 145.5 498.5 164.5 C 504.5 172.5 508.5 186.5 511.5 195.5 L 510.5 370.5 C 506.5 414.5 497.5 471.5 442.5 471.5 C 384.5 471.5 378.5 407.5 375.5 368.5 L 374.5 320.5 C 373.5 314.5 372.5 306.5 368.5 301.5 C 364.5 296.5 349.5 294.5 341.5 294.5 L 334.5 294.5 L 334.5 473.5 L 357.5 473.5 C 363.5 473.5 373.5 483.5 373.5 488.5 L 373.5 511.5 L 0.5 511.5 L 0.5 489.5 C 0.5 482.5 9.5 473.5 15.5 473.5 L 39.5 473.5 L 39.5 49.5 L 40.5 48.5 C 39.5 25.5 75.5 -2.5 95.5 0.5 L 278.5 0.5 ZM 275.5 39.5 C 284.5 39.5 295.5 48.5 295.5 58.5 L 295.5 176.5 C 294.5 180.5 293.5 184.5 291.5 187.5 C 289.5 189.5 281.5 196.5 278.5 196.5 L 94.5 196.5 C 91.5 194.5 79.5 186.5 79.5 182.5 L 79.5 53.5 C 80.5 45.5 90.5 39.5 97.5 39.5 L 275.5 39.5 Z" fill="#aeea00"/>
		<rect x="75" y="36" width="232" height="163" fill="#ffffff" rx="33.415" ry="33.415"/>
	</g>
	<g id="Camada%201">
	</g>
</svg>