<?xml version="1.0" standalone="no"?>
<!-- Generator: Adobe Fireworks 10, Export SVG Extension by Aaron Beall (http://fireworks.abeall.com) . Version: 0.6.1  -->
<!DOCTYPE svg PUBLIC "-//W3C//DTD SVG 1.1//EN" "http://www.w3.org/Graphics/SVG/1.1/DTD/svg11.dtd">
<svg id="icone_saude.fw-P%E1gina%201" viewBox="0 0 512 512" style="background-color:#ffffff00" version="1.1"
	xmlns="http://www.w3.org/2000/svg" xmlns:xlink="http://www.w3.org/1999/xlink" xml:space="preserve"
	x="0px" y="0px" width="512px" height="512px"
>
	<g id="Plano%20de%20fundo">
		<path d="M 473.5 255.5 C 473.5 377.5 374.5 473.5 255.5 473.5 C 176.5 473.5 77.5 425.5 46.5 316.5 C 42.5 301.5 38.5 273.5 38.5 271.5 L 38.5 241.5 C 50.5 108.5 156.5 38.5 255.5 38.5 C 377.5 38.5 473.5 136.5 473.5 255.5 ZM 299.5 130.5 L 299.5 212.5 L 381.5 212.5 L 381.5 299.5 L 297.5 299.5 L 297.5 381.5 L 212.5 381.5 L 212.5 299.5 L 130.5 299.5 L 130.5 211.5 L 212.5 211.5 L 212.5 130.5 L 299.5 130.5 Z" fill="#e53935"/>
		<path d="M 511.5 255.5 C 511.5 398.5 393.5 511.5 255.5 511.5 C 112.5 511.5 0.5 393.5 0.5 255.5 C 0.5 114.5 114.5 0.5 255.5 0.5 C 398.5 0.5 511.5 117.5 511.5 255.5 ZM 483.5 255.5 C 483.5 382.5 377.5 483.5 255.5 483.5 C 171.5 483.5 73.5 434.5 37.5 320.5 C 34.5 308.5 28.5 285.5 28.5 270.5 L 28.5 241.5 C 40.5 101.5 153.5 28.5 255.5 28.5 C 382.5 28.5 483.5 133.5 483.5 255.5 Z" fill="#e53935"/>
		<path d="M 298.5 131.5 L 298.5 213.5 L 380.5 213.5 L 380.5 298.5 L 297.5 298.5 L 297.5 380.5 L 213.5 380.5 L 213.5 298.5 L 131.5 298.5 L 131.5 212.5 L 212.5 212.5 L 212.5 131.5 L 298.5 131.5 Z" fill="#ffffff"/>
	</g>
	<g id="Camada%201">
	</g>
</svg>