<?xml version="1.0" standalone="no"?>
<!-- Generator: Adobe Fireworks 10, Export SVG Extension by Aaron Beall (http://fireworks.abeall.com) . Version: 0.6.1  -->
<!DOCTYPE svg PUBLIC "-//W3C//DTD SVG 1.1//EN" "http://www.w3.org/Graphics/SVG/1.1/DTD/svg11.dtd">
<svg id="1470437782_settings-P%E1gina%201" viewBox="0 0 512 512" style="background-color:#ffffff00" version="1.1"
	xmlns="http://www.w3.org/2000/svg" xmlns:xlink="http://www.w3.org/1999/xlink" xml:space="preserve"
	x="0px" y="0px" width="512px" height="512px"
>
	<g id="Plano%20de%20fundo">
		<g>
			<path d="M 311.3026 50.9113 C 326.8678 58.6908 352.1611 72.3048 357.998 72.3048 C 361.8893 72.3048 367.7263 60.6356 375.5088 56.7459 C 381.3457 50.9113 393.0196 48.9664 396.9109 48.9664 C 422.2042 48.9664 463.0627 99.5329 463.0627 113.147 C 463.0627 128.7059 451.3889 140.3751 435.8237 155.9341 C 443.6063 169.5481 447.4976 185.107 455.2801 198.7211 C 519.4863 198.7211 511.7037 220.1146 511.7037 255.1222 C 511.7037 260.9568 511.7037 278.4606 509.7581 288.1849 C 509.7581 294.0195 494.1929 311.5233 484.4647 311.5233 L 449.4432 311.5233 C 443.6063 323.1925 437.7693 336.8065 429.9868 350.4206 C 453.3345 373.759 463.0627 379.5936 463.0627 397.0974 C 463.0627 422.3806 410.5303 463.2228 396.9109 463.2228 C 379.4001 463.2228 350.2155 428.2152 348.2698 428.2152 C 342.4329 428.2152 322.9765 439.8844 311.3026 443.7742 L 311.3026 484.6163 C 303.5201 515.7342 272.3898 511.8444 254.879 511.8444 C 250.9878 511.8444 233.477 511.8444 223.7488 509.8996 C 215.9662 509.8996 200.4011 494.3406 200.4011 486.5612 L 200.4011 443.7742 C 188.7272 439.8844 167.3252 428.2152 163.4339 428.2152 C 157.597 428.2152 136.1949 463.2228 112.8472 463.2228 C 93.3908 463.2228 68.0975 435.9947 52.5323 414.6011 C 48.641 408.7665 48.641 402.9319 48.641 397.0974 C 48.641 377.6487 62.2605 371.8141 81.7169 350.4206 C 73.9344 338.7514 68.0975 325.1374 62.2605 311.5233 L 25.2933 311.5233 C 19.4564 307.6335 0 295.9644 0 288.1849 L 0 224.0043 C 5.8369 194.8314 36.9672 200.666 56.4236 198.7211 C 62.2605 187.0519 68.0975 171.493 75.88 155.9341 C 54.478 138.4302 48.641 126.7611 48.641 113.147 C 48.641 93.6983 73.9344 68.4151 97.2821 52.8562 C 101.1734 48.9664 108.9559 48.9664 112.8472 48.9664 C 134.2493 48.9664 147.8687 72.3048 153.7057 72.3048 C 157.597 72.3048 196.5098 54.801 200.4011 47.0216 C 200.4011 43.1318 200.4011 39.2421 200.4011 35.3524 C 200.4011 -5.4898 231.5313 0.3448 254.879 0.3448 C 295.7375 0.3448 309.357 -7.4347 311.3026 50.9113 ZM 367.7263 247.3427 C 367.7263 309.5784 315.1939 360.1449 254.879 360.1449 C 188.7272 360.1449 143.9775 303.7438 143.9775 247.3427 C 143.9775 181.2173 194.5641 136.4854 254.879 136.4854 C 321.0309 136.4854 367.7263 187.0519 367.7263 247.3427 Z" fill="#666666"/>
			<path d="M 365.7806 247.3427 C 365.7806 311.5233 313.2483 358.2001 254.879 358.2001 C 219.8575 358.2001 173.1621 338.7514 151.76 288.1849 C 149.8144 280.4054 145.9231 268.7362 145.9231 264.8465 L 145.9231 229.8389 C 161.4883 163.7135 208.1837 138.4302 254.879 138.4302 C 322.9765 138.4302 365.7806 188.9968 365.7806 247.3427 Z" fill="#ffffff"/>
		</g>
	</g>
	<g id="Camada%201">
	</g>
</svg>