<?xml version="1.0" standalone="no"?>
<!-- Generator: Adobe Fireworks 10, Export SVG Extension by Aaron Beall (http://fireworks.abeall.com) . Version: 0.6.1  -->
<!DOCTYPE svg PUBLIC "-//W3C//DTD SVG 1.1//EN" "http://www.w3.org/Graphics/SVG/1.1/DTD/svg11.dtd">
<svg id="icone_gold.fw-P%E1gina%201" viewBox="0 0 512 512" style="background-color:#ffffff00" version="1.1"
	xmlns="http://www.w3.org/2000/svg" xmlns:xlink="http://www.w3.org/1999/xlink" xml:space="preserve"
	x="0px" y="0px" width="512px" height="512px"
>
	<g id="Plano%20de%20fundo">
		<path d="M 368.5 344.5 C 382.5 383.5 397.5 423.5 411.5 463.5 L 348.5 448.5 C 348.5 448.5 347.5 448.5 346.5 448.5 C 333.5 465.5 319.5 483.5 306.5 500.5 L 264.5 379.5 C 270.5 371.5 277.5 363.5 283.5 355.5 C 295.5 362.5 307.5 369.5 319.5 375.5 C 324.5 363.5 329.5 350.5 334.5 338.5 C 345.5 340.5 357.5 342.5 368.5 344.5 ZM 195.5 376.5 C 206.5 370.5 227.5 356.5 230.5 356.5 C 232.5 356.5 242.5 369.5 248.5 376.5 L 204.5 500.5 C 191.5 483.5 177.5 465.5 164.5 448.5 C 163.5 448.5 162.5 448.5 161.5 448.5 L 99.5 463.5 C 113.5 425.5 127.5 386.5 140.5 347.5 C 153.5 344.5 167.5 341.5 180.5 339.5 C 184.5 351.5 190.5 364.5 195.5 376.5 Z" fill="#2fac66"/>
		<path d="M 254.5 45.5 L 254.5 56.5 C 166.5 57.5 115.5 128.5 115.5 195.5 C 115.5 262.5 166.5 333.5 254.5 335.5 L 254.5 346.5 L 241.5 346.5 C 151.5 334.5 104.5 262.5 104.5 195.5 C 104.5 128.5 151.5 56.5 241.5 45.5 L 254.5 45.5 ZM 268.5 45.5 C 358.5 56.5 406.5 128.5 406.5 195.5 C 406.5 237.5 386.5 291.5 335.5 323.5 C 324.5 330.5 311.5 336.5 298.5 340.5 C 288.5 343.5 268.5 347.5 266.5 347.5 C 263.5 347.5 259.5 346.5 256.5 346.5 L 256.5 335.5 C 282.5 334.5 300.5 329.5 325.5 315.5 C 375.5 287.5 395.5 234.5 395.5 195.5 C 395.5 128.5 342.5 57.5 256.5 56.5 L 256.5 45.5 L 268.5 45.5 Z" fill="#c19721"/>
		<path d="M 254.5 35.5 L 254.5 43.5 C 155.5 47.5 103.5 121.5 103.5 195.5 C 103.5 269.5 155.5 343.5 254.5 348.5 L 254.5 381.5 C 246.5 372.5 238.5 362.5 230.5 354.5 L 196.5 374.5 C 189.5 363.5 186.5 345.5 178.5 337.5 L 140.5 345.5 C 141.5 344.5 140.5 342.5 140.5 325.5 C 139.5 319.5 139.5 312.5 138.5 306.5 C 138.5 306.5 138.5 305.5 137.5 304.5 C 124.5 303.5 111.5 301.5 98.5 300.5 L 109.5 262.5 C 100.5 254.5 84.5 248.5 73.5 243.5 L 96.5 210.5 L 67.5 181.5 L 100.5 157.5 L 82.5 121.5 C 93.5 116.5 111.5 112.5 121.5 107.5 L 116.5 69.5 C 116.5 69.5 117.5 68.5 118.5 68.5 C 143.5 69.5 148.5 70.5 150.5 70.5 C 153.5 70.5 155.5 70.5 156.5 68.5 C 159.5 56.5 162.5 43.5 164.5 30.5 L 201.5 44.5 C 209.5 33.5 216.5 21.5 223.5 9.5 L 254.5 35.5 ZM 307.5 43.5 L 342.5 29.5 L 345.5 29.5 C 346.5 37.5 347.5 45.5 349.5 53.5 C 350.5 58.5 352.5 63.5 354.5 67.5 C 357.5 68.5 360.5 68.5 362.5 68.5 C 365.5 68.5 373.5 67.5 392.5 66.5 C 392.5 66.5 393.5 66.5 394.5 67.5 L 389.5 104.5 C 389.5 105.5 390.5 107.5 391.5 107.5 C 403.5 111.5 416.5 115.5 428.5 118.5 L 411.5 154.5 C 421.5 162.5 433.5 171.5 444.5 178.5 L 416.5 208.5 L 439.5 240.5 C 430.5 247.5 413.5 250.5 403.5 260.5 L 415.5 298.5 C 402.5 299.5 388.5 301.5 374.5 304.5 C 374.5 309.5 373.5 317.5 373.5 320.5 L 373.5 344.5 L 335.5 336.5 C 334.5 336.5 333.5 336.5 332.5 337.5 C 328.5 349.5 323.5 362.5 318.5 374.5 L 283.5 353.5 L 256.5 385.5 L 256.5 348.5 C 350.5 346.5 408.5 268.5 408.5 195.5 C 408.5 123.5 350.5 44.5 256.5 43.5 L 256.5 34.5 L 285.5 9.5 C 291.5 17.5 300.5 36.5 307.5 43.5 Z" fill="#ffde5d"/>
		<path id="Elipse" d="M 119 194 C 119 119.9929 178.9929 60 253 60 C 327.0071 60 387 119.9929 387 194 C 387 268.0071 327.0071 328 253 328 C 178.9929 328 119 268.0071 119 194 Z" fill="#ffde5d"/>
		<g>
			<path d="M 253.5 102 L 280.848 157.3022 L 342 166.1703 L 297.75 209.217 L 308.196 270 L 253.5 241.3022 L 198.804 270 L 209.25 209.217 L 165 166.1703 L 226.152 157.3022 L 253.5 102 Z" fill="#c19721"/>
		</g>
	</g>
	<g id="Camada%201">
	</g>
</svg>