<?xml version="1.0" standalone="no"?>
<!-- Generator: Adobe Fireworks 10, Export SVG Extension by Aaron Beall (http://fireworks.abeall.com) . Version: 0.6.1  -->
<!DOCTYPE svg PUBLIC "-//W3C//DTD SVG 1.1//EN" "http://www.w3.org/Graphics/SVG/1.1/DTD/svg11.dtd">
<svg id="1-25-512-P%E1gina%201" viewBox="0 0 512 512" style="background-color:#ffffff00" version="1.1"
	xmlns="http://www.w3.org/2000/svg" xmlns:xlink="http://www.w3.org/1999/xlink" xml:space="preserve"
	x="0px" y="0px" width="512px" height="512px"
>
	<g id="Plano%20de%20fundo">
		<path d="M 427.5 54.5 C 432.5 54.5 447.5 59.5 447.5 69.5 L 447.5 209.5 L 400.5 194.5 L 400.5 120.5 C 397.5 120.5 392.5 118.5 390.5 118.5 C 383.5 117.5 370.5 112.5 365.5 103.5 C 360.5 94.5 357.5 85.5 354.5 76.5 L 98.5 76.5 C 97.5 77.5 97.5 79.5 96.5 80.5 C 96.5 98.5 72.5 122.5 53.5 120.5 L 53.5 165.5 L 19.5 276.5 C 14.5 275.5 5.5 266.5 5.5 260.5 L 5.5 71.5 C 4.5 63.5 17.5 52.5 24.5 54.5 L 427.5 54.5 ZM 295.5 143.5 C 296.5 148.5 299.5 155.5 299.5 158.5 L 299.5 163.5 L 243.5 145.5 C 246.5 142.5 249.5 138.5 252.5 135.5 C 246.5 127.5 235.5 126.5 230.5 126.5 L 230.5 113.5 L 220.5 113.5 L 220.5 126.5 C 215.5 127.5 209.5 130.5 203.5 133.5 L 168.5 122.5 C 184.5 100.5 206.5 93.5 226.5 93.5 C 252.5 93.5 283.5 107.5 295.5 143.5 ZM 171.5 143.5 C 189.5 149.5 210.5 155.5 229.5 161.5 C 317.5 188.5 408.5 215.5 497.5 245.5 C 503.5 247.5 506.5 256.5 506.5 261.5 C 506.5 264.5 498.5 285.5 495.5 297.5 C 480.5 347.5 464.5 397.5 448.5 447.5 C 447.5 451.5 436.5 457.5 432.5 457.5 C 429.5 457.5 378.5 440.5 351.5 432.5 C 332.5 426.5 311.5 419.5 293.5 414.5 C 278.5 409.5 262.5 405.5 248.5 400.5 C 234.5 396.5 220.5 391.5 206.5 387.5 C 197.5 384.5 187.5 381.5 177.5 378.5 C 168.5 375.5 158.5 372.5 148.5 369.5 C 125.5 361.5 100.5 354.5 77.5 347.5 C 64.5 343.5 46.5 339.5 34.5 332.5 C 30.5 330.5 27.5 321.5 27.5 318.5 C 27.5 315.5 34.5 293.5 37.5 282.5 C 52.5 232.5 66.5 180.5 85.5 131.5 C 88.5 121.5 95.5 123.5 101.5 123.5 C 103.5 123.5 148.5 136.5 171.5 143.5 ZM 415.5 243.5 L 415.5 263.5 C 413.5 275.5 432.5 294.5 444.5 298.5 L 418.5 383.5 C 415.5 382.5 411.5 382.5 409.5 382.5 C 391.5 382.5 374.5 388.5 362.5 412.5 L 118.5 337.5 C 118.5 334.5 119.5 328.5 119.5 326.5 C 119.5 303.5 104.5 289.5 89.5 279.5 L 114.5 197.5 C 131.5 201.5 160.5 193.5 170.5 167.5 L 415.5 243.5 ZM 339.5 289.5 C 339.5 332.5 304.5 362.5 266.5 362.5 C 264.5 362.5 255.5 361.5 250.5 360.5 C 227.5 358.5 194.5 322.5 194.5 300.5 L 194.5 279.5 C 203.5 236.5 235.5 217.5 266.5 217.5 C 309.5 217.5 339.5 251.5 339.5 289.5 ZM 284.5 241.5 C 283.5 247.5 282.5 250.5 281.5 253.5 C 285.5 255.5 294.5 261.5 299.5 267.5 C 296.5 270.5 290.5 274.5 288.5 274.5 C 285.5 274.5 283.5 269.5 281.5 268.5 C 277.5 266.5 271.5 265.5 269.5 265.5 C 265.5 265.5 262.5 266.5 262.5 270.5 C 262.5 281.5 291.5 282.5 291.5 304.5 C 291.5 315.5 286.5 323.5 271.5 328.5 C 267.5 329.5 262.5 329.5 258.5 329.5 C 254.5 331.5 256.5 339.5 252.5 339.5 C 250.5 339.5 248.5 338.5 246.5 337.5 C 247.5 334.5 248.5 330.5 250.5 326.5 C 247.5 323.5 231.5 316.5 231.5 309.5 C 231.5 306.5 239.5 304.5 243.5 302.5 C 249.5 311.5 258.5 315.5 266.5 315.5 C 271.5 315.5 274.5 312.5 274.5 307.5 C 274.5 296.5 245.5 287.5 245.5 273.5 C 245.5 266.5 250.5 252.5 260.5 251.5 C 264.5 251.5 268.5 251.5 272.5 250.5 C 274.5 247.5 275.5 243.5 276.5 239.5 C 278.5 240.5 281.5 241.5 284.5 241.5 Z" fill="#666666"/>
		<path d="M 113 195 L 89 280 C 89 280 129.3333 297.3333 117 337 L 361 413 C 361 413 378.6667 378 419 383 L 443 299 C 443 299 402.6667 281.3333 414 244 L 169 167 C 169 167 164 203.3333 113 195 Z" fill="#ffffff"/>
		<path id="Elipse" d="M 200 289 C 200 251.4442 230.4442 221 268 221 C 305.5558 221 336 251.4442 336 289 C 336 326.5558 305.5558 357 268 357 C 230.4442 357 200 326.5558 200 289 Z" fill="#666666"/>
		<path d="M 284.5 242.5 C 283.5 245.5 281.5 249.5 281.5 252.5 C 281.5 254.5 293.5 261.5 298.5 267.5 C 295.5 270.5 291.5 272.5 287.5 274.5 C 284.5 270.5 272.5 264.5 268.5 264.5 C 263.5 264.5 261.5 267.5 261.5 270.5 C 261.5 276.5 291.5 286.5 291.5 304.5 C 291.5 306.5 290.5 309.5 289.5 312.5 C 286.5 326.5 268.5 330.5 258.5 328.5 C 256.5 331.5 255.5 335.5 254.5 339.5 C 252.5 338.5 249.5 338.5 247.5 337.5 C 248.5 332.5 250.5 329.5 250.5 326.5 C 250.5 325.5 235.5 317.5 231.5 309.5 C 234.5 307.5 239.5 304.5 243.5 302.5 C 249.5 312.5 258.5 315.5 265.5 315.5 C 270.5 315.5 275.5 312.5 275.5 307.5 C 275.5 296.5 245.5 289.5 245.5 274.5 C 245.5 268.5 248.5 256.5 256.5 253.5 C 260.5 251.5 267.5 251.5 272.5 250.5 C 274.5 248.5 275.5 244.5 276.5 240.5 C 280.5 241.5 282.5 241.5 284.5 242.5 Z" fill="#ffffff"/>
	</g>
	<g id="Camada%201">
	</g>
</svg>