<?xml version="1.0" standalone="no"?>
<!-- Generator: Adobe Fireworks 10, Export SVG Extension by Aaron Beall (http://fireworks.abeall.com) . Version: 0.6.1  -->
<!DOCTYPE svg PUBLIC "-//W3C//DTD SVG 1.1//EN" "http://www.w3.org/Graphics/SVG/1.1/DTD/svg11.dtd">
<svg id="19.fw-P%E1gina%201" viewBox="0 0 519 210" style="background-color:#ffffff00" version="1.1"
	xmlns="http://www.w3.org/2000/svg" xmlns:xlink="http://www.w3.org/1999/xlink" xml:space="preserve"
	x="0px" y="0px" width="519px" height="210px"
>
	<g id="Camada%201">
		<g>
			<path d="M 59.25 27 L 38 185 L 80.75 185 L 82.9531 157 L 98.0313 157 L 100.25 185 L 142 185 L 118.75 27 L 59.25 27 L 59.25 27 ZM 82.9063 129 L 90.5 61.3281 L 97.0781 129 L 82.9063 129 L 82.9063 129 Z" fill="#131304"/>
			<path d="M 236 68.7656 C 236 56.25 234.7813 47.375 232.3594 42.1563 C 229.9219 36.9375 224.9688 32.5938 217.5 29.1563 C 210.0313 25.7188 200.9844 24 190.375 24 C 180.6563 24 172.375 25.5781 165.5156 28.7031 C 158.6406 31.8438 153.6719 36.1875 150.6094 41.75 C 147.5313 47.3125 146 56.0938 146 68.1094 C 146 76.4531 147.0625 83.3125 149.2188 88.6719 C 151.3594 94.0469 154.0625 98.25 157.3281 101.2813 C 160.5938 104.3125 167.2188 109.2813 177.1875 116.1563 C 187.1406 122.9688 193.4531 127.7813 196.1094 130.5781 C 198.7031 133.3906 200 139.3594 200 148.4688 C 200 152.625 199.3438 155.75 198.0469 157.8438 C 196.75 159.9531 194.7813 161 192.125 161 C 189.4688 161 187.6094 160.1719 186.5625 158.4844 C 185.5156 156.7969 185 153.0156 185 147.125 L 185 128 L 147 128 L 147 138.3594 C 147 150.2188 148.1875 159.375 150.5781 165.8125 C 152.9688 172.2656 158.0313 177.5781 165.75 181.75 C 173.4688 185.9063 182.7969 188 193.7344 188 C 203.6719 188 212.3906 186.2031 219.8906 182.625 C 227.3906 179.0313 232.4375 174.5938 235.0625 169.2813 C 237.6875 163.9844 239 155.75 239 144.5625 C 239 129.1875 236.6406 118.0313 231.9375 111.1094 C 227.2188 104.2031 215.9063 95.1719 198 84.0313 C 191.75 80.1719 187.8594 76.9531 186.3594 74.3594 C 184.7813 71.7813 184 67.9375 184 62.8281 C 184 58.8594 184.6406 55.8906 185.9219 53.9375 C 187.2031 51.9844 189.0938 51 191.5938 51 C 193.8906 51 195.5313 51.75 196.5156 53.2188 C 197.5 54.6875 198 58.1094 198 63.4844 L 198 75 L 236 75 L 236 68.7656 L 236 68.7656 Z" fill="#131304"/>
			<path d="M 252 185 L 293 185 L 293 119 L 319 119 L 319 89 L 293 89 L 293 59 L 322 59 L 322 27 L 252 27 L 252 185 L 252 185 Z" fill="#131304"/>
			<path d="M 332 185 L 403 185 L 403 153 L 373 153 L 373 119 L 399 119 L 399 89 L 373 89 L 373 59 L 401 59 L 401 27 L 332 27 L 332 185 L 332 185 Z" fill="#131304"/>
			<path d="M 415 27 L 415 185 L 481 185 L 481 153 L 456 153 L 456 27 L 415 27 L 415 27 Z" fill="#131304"/>
		</g>
	</g>
</svg>