<?xml version="1.0" standalone="no"?>
<!-- Generator: Adobe Fireworks 10, Export SVG Extension by Aaron Beall (http://fireworks.abeall.com) . Version: 0.6.1  -->
<!DOCTYPE svg PUBLIC "-//W3C//DTD SVG 1.1//EN" "http://www.w3.org/Graphics/SVG/1.1/DTD/svg11.dtd">
<svg id="24.fw-P%E1gina%201" viewBox="0 0 356 135" style="background-color:#ffffff00" version="1.1"
	xmlns="http://www.w3.org/2000/svg" xmlns:xlink="http://www.w3.org/1999/xlink" xml:space="preserve"
	x="0px" y="0px" width="356px" height="135px"
>
	<g id="Camada%201">
		<g>
			<path d="M 203.5 12.5 C 191.5 20.5 184.5 34.5 184.5 42.5 C 184.5 66.5 231.5 74.5 231.5 97.5 C 231.5 106.5 223.5 115.5 215.5 124.5 L 26.5 124.5 C 14.5 121.5 12.5 119.5 12.5 112.5 C 12.5 110.5 15.5 91.5 17.5 80.5 C 19.5 71.5 21.5 61.5 22.5 51.5 C 28.5 39.5 19.5 13.5 44.5 12.5 L 203.5 12.5 ZM 63.5 44.5 L 63.5 52.5 C 61.5 57.5 51.5 53.5 48.5 55.5 C 43.5 58.5 39.5 75.5 39.5 79.5 C 39.5 85.5 46.5 85.5 49.5 85.5 C 53.5 85.5 54.5 83.5 59.5 82.5 L 59.5 88.5 C 58.5 96.5 49.5 96.5 45.5 96.5 C 32.5 96.5 29.5 92.5 29.5 80.5 C 29.5 69.5 31.5 48.5 46.5 44.5 L 63.5 44.5 ZM 94.5 44.5 C 103.5 45.5 102.5 53.5 102.5 56.5 C 102.5 69.5 91.5 74.5 91.5 75.5 C 91.5 78.5 98.5 85.5 98.5 88.5 C 98.5 94.5 96.5 95.5 91.5 95.5 C 82.5 95.5 82.5 81.5 80.5 75.5 L 77.5 75.5 C 75.5 79.5 73.5 86.5 73.5 88.5 C 73.5 91.5 75.5 88.5 75.5 91.5 C 75.5 93.5 73.5 92.5 72.5 93.5 C 73.5 94.5 74.5 95.5 75.5 95.5 C 71.5 95.5 67.5 95.5 63.5 95.5 C 62.5 94.5 63.5 92.5 62.5 91.5 L 71.5 51.5 C 71.5 50.5 69.5 51.5 69.5 49.5 C 69.5 46.5 71.5 48.5 72.5 47.5 C 71.5 46.5 69.5 45.5 69.5 44.5 L 94.5 44.5 ZM 138.5 50.5 C 136.5 58.5 126.5 53.5 119.5 55.5 C 119.5 57.5 119.5 59.5 118.5 61.5 C 122.5 62.5 127.5 62.5 132.5 62.5 C 133.5 63.5 133.5 62.5 133.5 65.5 C 133.5 67.5 132.5 70.5 130.5 71.5 C 122.5 72.5 111.5 70.5 113.5 84.5 C 116.5 85.5 119.5 85.5 121.5 85.5 C 122.5 85.5 129.5 84.5 132.5 82.5 C 132.5 84.5 132.5 92.5 129.5 95.5 L 102.5 95.5 C 101.5 94.5 102.5 92.5 101.5 91.5 L 110.5 51.5 C 110.5 50.5 108.5 51.5 108.5 49.5 C 108.5 46.5 110.5 48.5 111.5 47.5 C 110.5 46.5 109.5 45.5 108.5 45.5 L 138.5 44.5 L 138.5 50.5 ZM 169.5 44.5 C 180.5 46.5 179.5 55.5 179.5 59.5 C 179.5 64.5 174.5 95.5 164.5 95.5 L 136.5 95.5 L 136.5 87.5 C 139.5 75.5 145.5 52.5 145.5 50.5 C 145.5 47.5 143.5 51.5 143.5 48.5 C 143.5 46.5 145.5 47.5 145.5 46.5 C 144.5 45.5 143.5 45.5 143.5 44.5 L 169.5 44.5 Z" fill="#000000"/>
			<path d="M 91.5 58.5 C 90.5 60.5 89.5 62.5 88.5 63.5 L 80.5 63.5 C 80.5 61.5 81.5 58.5 81.5 55.5 C 84.5 55.5 88.5 55.5 91.5 56.5 L 91.5 58.5 ZM 166.5 56.5 C 167.5 57.5 168.5 58.5 168.5 60.5 C 168.5 63.5 165.5 74.5 162.5 80.5 C 161.5 82.5 159.5 83.5 157.5 84.5 L 149.5 84.5 C 151.5 74.5 153.5 65.5 155.5 56.5 L 166.5 56.5 Z" fill="#000000"/>
		</g>
		<g>
			<path d="M 331.5 12.5 C 340.5 12.5 344.5 18.5 344.5 22.5 C 344.5 25.5 340.5 48.5 337.5 60.5 C 334.5 77.5 332.5 97.5 327.5 115.5 C 325.5 122.5 315.5 122.5 312.5 124.5 L 220.5 123.5 C 228.5 116.5 240.5 101.5 240.5 93.5 C 240.5 69.5 191.5 62.5 191.5 38.5 C 191.5 32.5 198.5 13.5 209.5 12.5 L 331.5 12.5 ZM 254.5 79.5 L 268.5 47.5 C 267.5 46.5 266.5 45.5 266.5 44.5 L 276.5 44.5 C 276.5 44.5 277.5 43.5 277.5 46.5 C 277.5 48.5 263.5 79.5 256.5 95.5 L 246.5 95.5 C 245.5 81.5 243.5 67.5 242.5 53.5 C 242.5 52.5 239.5 51.5 239.5 49.5 C 239.5 46.5 241.5 50.5 241.5 47.5 C 241.5 45.5 239.5 45.5 238.5 45.5 L 248.5 44.5 C 254.5 53.5 250.5 66.5 254.5 79.5 ZM 290.5 44.5 C 291.5 45.5 291.5 45.5 291.5 47.5 C 291.5 50.5 281.5 86.5 281.5 89.5 C 281.5 91.5 283.5 91.5 284.5 91.5 C 283.5 91.5 281.5 90.5 281.5 92.5 C 281.5 95.5 282.5 94.5 283.5 95.5 L 272.5 95.5 C 272.5 93.5 271.5 91.5 271.5 89.5 C 271.5 86.5 277.5 62.5 279.5 48.5 C 280.5 49.5 281.5 50.5 281.5 47.5 C 281.5 45.5 279.5 45.5 279.5 44.5 L 290.5 44.5 ZM 320.5 44.5 C 327.5 46.5 328.5 51.5 328.5 54.5 C 328.5 92.5 299.5 61.5 299.5 88.5 C 299.5 91.5 300.5 91.5 301.5 91.5 C 300.5 91.5 299.5 91.5 298.5 92.5 C 298.5 93.5 300.5 95.5 301.5 95.5 L 289.5 95.5 C 289.5 93.5 288.5 92.5 288.5 89.5 C 288.5 84.5 296.5 54.5 296.5 49.5 C 296.5 48.5 298.5 50.5 298.5 47.5 C 298.5 45.5 296.5 45.5 296.5 44.5 L 320.5 44.5 Z" fill="#000000"/>
			<path d="M 316.5 55.5 C 317.5 56.5 317.5 55.5 317.5 58.5 C 317.5 60.5 315.5 63.5 313.5 65.5 L 306.5 65.5 C 307.5 60.5 307.5 57.5 308.5 55.5 L 316.5 55.5 Z" fill="#000000"/>
		</g>
		<path d="M 47.5 51.5 C 44.5 52.5 38.5 72.5 38.5 78.5 C 38.5 86.5 45.5 85.5 48.5 85.5 C 51.5 85.5 57.5 85.5 59.5 82.5 C 60.5 90.5 49.5 92.5 45.5 92.5 C 34.5 92.5 29.5 88.5 29.5 78.5 C 29.5 71.5 34.5 45.5 45.5 45.5 C 52.5 45.5 63.5 38.5 63.5 45.5 C 63.5 55.5 48.5 50.5 47.5 51.5 ZM 95.5 45.5 C 99.5 46.5 102.5 51.5 102.5 54.5 C 102.5 60.5 98.5 69.5 89.5 70.5 C 90.5 75.5 91.5 84.5 98.5 85.5 C 98.5 86.5 97.5 88.5 97.5 91.5 L 88.5 91.5 C 85.5 84.5 82.5 77.5 79.5 70.5 C 78.5 70.5 76.5 71.5 75.5 72.5 C 74.5 77.5 72.5 84.5 72.5 87.5 C 72.5 89.5 73.5 90.5 74.5 91.5 L 63.5 91.5 C 63.5 91.5 62.5 90.5 62.5 89.5 L 72.5 48.5 C 72.5 47.5 70.5 45.5 70.5 44.5 C 71.5 45.5 73.5 45.5 95.5 45.5 ZM 138.5 44.5 C 137.5 59.5 116.5 41.5 117.5 59.5 L 117.5 62.5 C 122.5 63.5 127.5 63.5 132.5 62.5 L 132.5 66.5 C 128.5 69.5 118.5 65.5 116.5 68.5 C 114.5 72.5 112.5 77.5 112.5 80.5 L 112.5 84.5 C 115.5 85.5 118.5 85.5 121.5 85.5 C 123.5 85.5 128.5 85.5 132.5 82.5 C 131.5 85.5 131.5 88.5 129.5 91.5 L 102.5 91.5 L 102.5 85.5 C 105.5 73.5 111.5 50.5 111.5 48.5 C 111.5 45.5 109.5 45.5 109.5 44.5 L 138.5 44.5 ZM 171.5 45.5 C 178.5 44.5 179.5 53.5 179.5 56.5 C 179.5 59.5 174.5 91.5 163.5 91.5 L 137.5 91.5 C 137.5 91.5 136.5 90.5 136.5 89.5 L 145.5 48.5 C 145.5 47.5 144.5 45.5 143.5 44.5 C 144.5 44.5 146.5 45.5 171.5 45.5 ZM 247.5 44.5 C 248.5 45.5 249.5 45.5 249.5 46.5 C 251.5 56.5 252.5 66.5 252.5 77.5 C 253.5 77.5 253.5 78.5 254.5 79.5 L 268.5 47.5 C 268.5 46.5 267.5 45.5 266.5 45.5 C 269.5 44.5 273.5 44.5 276.5 45.5 L 276.5 48.5 L 256.5 91.5 L 246.5 91.5 C 242.5 76.5 244.5 59.5 239.5 44.5 L 247.5 44.5 ZM 291.5 44.5 L 281.5 87.5 C 281.5 88.5 282.5 90.5 284.5 91.5 L 272.5 91.5 C 272.5 91.5 271.5 90.5 271.5 89.5 L 281.5 48.5 C 281.5 47.5 279.5 45.5 279.5 44.5 C 290.5 44.5 290.5 45.5 291.5 44.5 ZM 318.5 44.5 C 321.5 45.5 323.5 44.5 325.5 46.5 C 327.5 48.5 328.5 52.5 328.5 54.5 C 328.5 57.5 324.5 68.5 320.5 70.5 C 315.5 72.5 309.5 72.5 303.5 72.5 C 301.5 77.5 298.5 85.5 298.5 88.5 C 298.5 90.5 300.5 91.5 301.5 91.5 L 289.5 91.5 L 289.5 86.5 L 298.5 48.5 C 298.5 47.5 297.5 45.5 296.5 44.5 L 318.5 44.5 ZM 89.5 51.5 C 90.5 52.5 92.5 52.5 92.5 55.5 C 92.5 56.5 90.5 64.5 85.5 64.5 L 80.5 64.5 C 80.5 57.5 81.5 54.5 80.5 51.5 L 89.5 51.5 ZM 318.5 55.5 C 318.5 64.5 309.5 66.5 304.5 65.5 C 305.5 61.5 306.5 56.5 307.5 51.5 L 311.5 51.5 C 316.5 51.5 318.5 52.5 318.5 55.5 ZM 168.5 59.5 C 168.5 64.5 165.5 80.5 159.5 84.5 L 148.5 84.5 L 148.5 80.5 C 154.5 63.5 148.5 52.5 160.5 52.5 C 167.5 52.5 168.5 52.5 168.5 59.5 Z" fill="#ffffff"/>
	</g>
</svg>