<?xml version="1.0" standalone="no"?>
<!-- Generator: Adobe Fireworks 10, Export SVG Extension by Aaron Beall (http://fireworks.abeall.com) . Version: 0.6.1  -->
<!DOCTYPE svg PUBLIC "-//W3C//DTD SVG 1.1//EN" "http://www.w3.org/Graphics/SVG/1.1/DTD/svg11.dtd">
<svg id="34.fw-P%E1gina%201" viewBox="0 0 650 210" style="background-color:#ffffff00" version="1.1"
	xmlns="http://www.w3.org/2000/svg" xmlns:xlink="http://www.w3.org/1999/xlink" xml:space="preserve"
	x="0px" y="0px" width="650px" height="210px"
>
	<g id="Camada%201">
		<g>
			<path d="M 72.25 50 L 64.5 105.5625 L 59.75 75.625 C 58.2188 66 56.875 57.4531 55.75 50 L 16 50 L 16 169 L 43 169 L 43.5 89.6563 L 54 169 L 74 169 L 84.5 88.6563 L 85 169 L 112 169 L 112 50 L 72.25 50 L 72.25 50 Z" fill="#000000"/>
			<path d="M 191 109.125 C 191 99.7188 189.8906 92.4219 187.6875 87.2344 C 185.4688 82.0469 181.625 77.875 176.1406 74.7188 C 170.6563 71.5781 163.7031 70 155.2656 70 C 148.3594 70 142.2656 71.3125 136.9531 73.9375 C 131.6406 76.5625 127.8281 80.3281 125.5 85.25 C 123.1563 90.1719 122 96.8906 122 105.4063 L 122 133.8281 C 122 141.0781 122.5156 146.6094 123.5625 150.4063 C 124.5938 154.2031 126.4688 157.6719 129.1719 160.8281 C 131.875 163.9844 135.6563 166.4688 140.5313 168.2813 C 145.3906 170.0938 151 171 157.3594 171 C 163.9063 171 169.3438 170.0625 173.6875 168.2188 C 178.0313 166.3594 181.6094 163.5625 184.4375 159.8438 C 187.2656 156.125 189.0625 152.6406 189.8438 149.3594 C 190.6094 146.0781 191 141.3906 191 135.2969 L 191 128 L 163 128 L 163 141.2656 C 163 146.2656 162.5938 149.6406 161.7813 151.3906 C 160.9688 153.1406 159.3594 154 156.9531 154 C 155.0156 154 153.7031 153.3594 153.0156 152.0625 C 152.3281 150.7813 152 147.8906 152 143.4063 L 152 122 L 191 122 L 191 109.125 L 191 109.125 ZM 152 106 L 152 98.9063 C 152 93.4688 152.25 90.125 152.7656 88.875 C 153.2656 87.625 154.5938 87 156.7344 87 C 158.4531 87 159.5938 87.7344 160.1563 89.2031 C 160.7188 90.6719 161 93.9063 161 98.9063 L 161 106 L 152 106 L 152 106 Z" fill="#000000"/>
			<path d="M 240 72 L 238 79.3594 C 235.5625 76.2344 232.8125 73.9063 229.7188 72.3438 C 226.625 70.7813 223.1875 70 219.4219 70 C 212.5469 70 207.4219 72.0625 204.0469 76.1563 C 200.6719 80.2656 199 86.9844 199 96.3281 L 199 132.0781 C 199 138.6094 199.6406 143.6406 200.9531 147.1719 C 202.25 150.7031 204.6719 153.5625 208.2031 155.7344 C 211.7344 157.9219 216.2344 159 221.7031 159 C 224.8594 159 227.875 158.4063 230.7656 157.2188 C 233.6406 156.0313 236.3906 154.25 239 151.9063 L 239 159.0313 C 239 163.125 238.5938 165.7969 237.8125 167.0781 C 237.0313 168.3594 235.4375 169 233.0313 169 C 229.6719 169 228 167 228 163 L 199 163 C 199.1875 172.1094 202.1875 178.2188 207.9688 181.3438 C 213.75 184.4375 221.4219 186 230.9844 186 C 238.7344 186 245.1719 185.125 250.2969 183.4063 C 255.4219 181.6563 259.4063 179.1406 262.2813 175.8594 C 265.1563 172.5469 266.8281 169.4219 267.2969 166.4844 C 267.7656 163.5313 268 157 268 146.875 L 268 72 L 240 72 L 240 72 ZM 238 128.6406 C 238 134.3281 237.7031 137.9844 237.1094 139.5938 C 236.5156 141.2031 235.2188 142 233.2344 142 C 231.5 142 230.3594 141.3438 229.8125 140 C 229.2656 138.6719 229 135.7656 229 131.2813 L 229 97.6406 C 229 93.4219 229.3594 90.5938 230.0781 89.1563 C 230.7969 87.7188 232.0156 87 233.7656 87 C 235.5469 87 236.6875 87.6406 237.2188 88.8906 C 237.7344 90.1406 238 93.0625 238 97.6406 L 238 128.6406 L 238 128.6406 Z" fill="#000000"/>
			<path d="M 305 98.9063 C 305 93.5313 305.2344 90.2031 305.7031 88.9219 C 306.1719 87.6406 307.3594 87 309.2969 87 C 310.9844 87 312.1875 87.7656 312.9063 89.2813 C 313.625 90.8125 314 94.0781 314 99.1094 C 314 103.125 313.6563 105.7969 312.9688 107.1094 C 312.2813 108.4219 307.1094 111.0156 297.4375 114.8594 C 288.375 118.4219 282.7031 121.5313 280.4219 124.1875 C 278.1406 126.8594 277 131.875 277 139.2188 L 277 147.2969 C 277 157.2344 279.1563 163.6563 283.4844 166.5938 C 287.8125 169.5313 292.5781 171 297.7656 171 C 301.7188 171 305.125 170.1094 307.9844 168.3438 C 310.8438 166.5625 313.1875 163.9063 315 160.3594 L 315 169 L 344 169 L 344 120.2031 C 344 104.1406 343.4844 93.5156 342.4531 88.3594 C 341.4219 83.2031 338.3438 78.8594 333.25 75.3125 C 328.1563 71.7813 320.5781 70 310.5313 70 C 302.1406 70 295.3281 71.5469 290.0781 74.6406 C 284.8281 77.7344 281.3438 81.3125 279.6094 85.3438 C 277.8594 89.375 277 95.1094 277 102.5469 L 277 109 L 305 109 L 305 98.9063 L 305 98.9063 ZM 314 142.9219 C 314 147.9531 313.7188 151.0469 313.1875 152.2344 C 312.6563 153.4219 311.5 154 309.7188 154 C 307.8438 154 306.5781 153.25 305.9531 151.7344 C 305.3125 150.2344 305 146.8906 305 141.7031 C 305 137.1875 305.3594 133.7188 306.0938 131.3125 C 306.8125 128.9063 309.4531 125.9063 314 122.3281 L 314 142.9219 L 314 142.9219 Z" fill="#000000"/>
			<path d="M 427 90.7656 C 427 79.7344 426.0625 71.5938 424.2031 66.3594 C 422.3438 61.1406 418.4531 56.7656 412.5469 53.2656 C 406.625 49.7656 399.1094 48 390.0156 48 C 383.3125 48 377.375 49.1406 372.2188 51.3906 C 367.0625 53.6563 363.0313 56.75 360.125 60.6875 C 357.2188 64.625 355.4688 68.7188 354.875 72.9688 C 354.2813 77.2188 354 83.6094 354 92.1094 L 354 126.5938 C 354 138.1719 354.9531 146.8438 356.8594 152.5938 C 358.7656 158.3594 362.6406 162.875 368.5156 166.125 C 374.3906 169.3594 381.8438 171 390.9063 171 C 399.6094 171 406.9375 169.0625 412.875 165.2188 C 418.8125 161.3594 422.6563 156.8594 424.3906 151.7188 C 426.125 146.5938 427 137.8906 427 125.625 L 427 121 L 396 121 L 396 135.9219 C 396 142.4531 395.6406 146.5938 394.9531 148.3594 C 394.2656 150.125 392.7813 151 390.5313 151 C 388.1875 151 386.6719 150.125 386 148.375 C 385.3281 146.625 385 142.8906 385 137.1563 L 385 82.3594 C 385 76.3906 385.3281 72.5 386 70.7031 C 386.6719 68.9063 388.25 68 390.75 68 C 392.9531 68 394.375 68.75 395.0313 70.2344 C 395.6719 71.7188 396 75.4531 396 81.4219 L 396 102 L 427 102 L 427 90.7656 L 427 90.7656 Z" fill="#000000"/>
			<path d="M 464 98.9063 C 464 93.5313 464.2344 90.2031 464.7031 88.9219 C 465.1719 87.6406 466.3594 87 468.2969 87 C 469.9844 87 471.1875 87.7656 471.9063 89.2813 C 472.625 90.8125 473 94.0781 473 99.1094 C 473 103.125 472.6563 105.7969 471.9688 107.1094 C 471.2813 108.4219 466.1094 111.0156 456.4375 114.8594 C 447.375 118.4219 441.7031 121.5313 439.4219 124.1875 C 437.1406 126.8594 436 131.875 436 139.2188 L 436 147.2969 C 436 157.2344 438.1563 163.6563 442.4844 166.5938 C 446.8125 169.5313 451.5781 171 456.7656 171 C 460.7188 171 464.125 170.1094 466.9844 168.3438 C 469.8438 166.5625 472.1875 163.9063 474 160.3594 L 474 169 L 503 169 L 503 120.2031 C 503 104.1406 502.4844 93.5156 501.4531 88.3594 C 500.4219 83.2031 497.3438 78.8594 492.25 75.3125 C 487.1563 71.7813 479.5781 70 469.5313 70 C 461.1406 70 454.3281 71.5469 449.0781 74.6406 C 443.8281 77.7344 440.3438 81.3125 438.6094 85.3438 C 436.8594 89.375 436 95.1094 436 102.5469 L 436 109 L 464 109 L 464 98.9063 L 464 98.9063 ZM 473 142.9219 C 473 147.9531 472.7188 151.0469 472.1875 152.2344 C 471.6563 153.4219 470.5 154 468.7188 154 C 466.8438 154 465.5781 153.25 464.9531 151.7344 C 464.3125 150.2344 464 146.8906 464 141.7031 C 464 137.1875 464.3594 133.7188 465.0938 131.3125 C 465.8125 128.9063 468.4531 125.9063 473 122.3281 L 473 142.9219 L 473 142.9219 Z" fill="#000000"/>
			<path d="M 513 72 L 513 169 L 543 169 L 543 130.4688 C 543 121.0156 543.2969 114.9688 543.9063 112.3438 C 544.5 109.7188 546.1094 107.6719 548.7188 106.2031 C 551.3281 104.7344 555.4219 104 561 104 L 561 70 C 552.7031 70.5625 546.375 75.5938 542 85.0625 L 543 72 L 513 72 L 513 72 Z" fill="#000000"/>
			<path d="M 605 50 L 605 78.0625 C 602.4688 75.375 599.6719 73.3594 596.5938 72.0156 C 593.5 70.6719 590.1094 70 586.4219 70 C 581.6406 70 577.5156 71.1875 574.0625 73.5625 C 570.6094 75.9375 568.4063 78.7031 567.4375 81.8281 C 566.4688 84.9688 566 90.2813 566 97.7656 L 566 143.375 C 566 150.5781 566.4688 155.7656 567.4375 158.9531 C 568.4063 162.1406 570.5781 164.9531 573.9844 167.375 C 577.3906 169.7813 581.4063 171 586.0625 171 C 589.5 171 592.8125 170.2344 595.9688 168.7344 C 599.125 167.2188 602.125 164.9531 605 161.9219 L 605 169 L 635 169 L 635 50 L 605 50 L 605 50 ZM 605 141.5625 C 605 147.0469 604.6719 150.4844 604.0469 151.8906 C 603.4063 153.2969 602.1406 154 600.25 154 C 598.5781 154 597.4531 153.375 596.875 152.1094 C 596.2813 150.8594 596 148.2344 596 144.2344 L 596 96.1094 C 596 92.2656 596.2969 89.7813 596.9063 88.6719 C 597.5156 87.5625 598.7031 87 600.4688 87 C 602.2656 87 603.4688 87.625 604.0781 88.8594 C 604.6875 90.0938 605 92.5156 605 96.1094 L 605 141.5625 L 605 141.5625 Z" fill="#000000"/>
		</g>
	</g>
</svg>