<?xml version="1.0" standalone="no"?>
<!-- Generator: Adobe Fireworks 10, Export SVG Extension by Aaron Beall (http://fireworks.abeall.com) . Version: 0.6.1  -->
<!DOCTYPE svg PUBLIC "-//W3C//DTD SVG 1.1//EN" "http://www.w3.org/Graphics/SVG/1.1/DTD/svg11.dtd">
<svg id="04.fw-P%E1gina%201" viewBox="0 0 519 210" style="background-color:#ffffff00" version="1.1"
	xmlns="http://www.w3.org/2000/svg" xmlns:xlink="http://www.w3.org/1999/xlink" xml:space="preserve"
	x="0px" y="0px" width="519px" height="210px"
>
	<g id="Camada%201">
		<g>
			<path d="M 101 69.7656 C 101 57.25 99.7813 48.375 97.3594 43.1563 C 94.9219 37.9375 89.9688 33.5938 82.5 30.1563 C 75.0313 26.7188 65.9844 25 55.375 25 C 45.6563 25 37.375 26.5781 30.5156 29.7031 C 23.6406 32.8438 18.6719 37.1875 15.6094 42.75 C 12.5313 48.3125 11 57.0938 11 69.1094 C 11 77.4531 12.0625 84.3125 14.2188 89.6719 C 16.3594 95.0469 19.0625 99.25 22.3281 102.2813 C 25.5938 105.3125 32.2188 110.2813 42.1875 117.1563 C 52.1406 123.9688 58.4531 128.7813 61.1094 131.5781 C 63.7031 134.3906 65 140.3594 65 149.4688 C 65 153.625 64.3438 156.75 63.0469 158.8438 C 61.75 160.9531 59.7813 162 57.125 162 C 54.4688 162 52.6094 161.1719 51.5625 159.4844 C 50.5156 157.7969 50 154.0156 50 148.125 L 50 129 L 12 129 L 12 139.3594 C 12 151.2188 13.1875 160.375 15.5781 166.8125 C 17.9688 173.2656 23.0313 178.5781 30.75 182.75 C 38.4688 186.9063 47.7969 189 58.7344 189 C 68.6719 189 77.3906 187.2031 84.8906 183.625 C 92.3906 180.0313 97.4375 175.5938 100.0625 170.2813 C 102.6875 164.9844 104 156.75 104 145.5625 C 104 130.1875 101.6406 119.0313 96.9375 112.1094 C 92.2188 105.2031 80.9063 96.1719 63 85.0313 C 56.75 81.1719 52.8594 77.9531 51.3594 75.3594 C 49.7813 72.7813 49 68.9375 49 63.8281 C 49 59.8594 49.6406 56.8906 50.9219 54.9375 C 52.2031 52.9844 54.0938 52 56.5938 52 C 58.8906 52 60.5313 52.75 61.5156 54.2188 C 62.5 55.6875 63 59.1094 63 64.4844 L 63 76 L 101 76 L 101 69.7656 L 101 69.7656 Z" fill="#000000"/>
			<path d="M 204 69.7656 C 204 57.25 202.7813 48.375 200.3594 43.1563 C 197.9219 37.9375 192.9688 33.5938 185.5 30.1563 C 178.0313 26.7188 168.9844 25 158.375 25 C 148.6563 25 140.375 26.5781 133.5156 29.7031 C 126.6406 32.8438 121.6719 37.1875 118.6094 42.75 C 115.5313 48.3125 114 57.0938 114 69.1094 C 114 77.4531 115.0625 84.3125 117.2188 89.6719 C 119.3594 95.0469 122.0625 99.25 125.3281 102.2813 C 128.5938 105.3125 135.2188 110.2813 145.1875 117.1563 C 155.1406 123.9688 161.4531 128.7813 164.1094 131.5781 C 166.7031 134.3906 168 140.3594 168 149.4688 C 168 153.625 167.3438 156.75 166.0469 158.8438 C 164.75 160.9531 162.7813 162 160.125 162 C 157.4688 162 155.6094 161.1719 154.5625 159.4844 C 153.5156 157.7969 153 154.0156 153 148.125 L 153 129 L 115 129 L 115 139.3594 C 115 151.2188 116.1875 160.375 118.5781 166.8125 C 120.9688 173.2656 126.0313 178.5781 133.75 182.75 C 141.4688 186.9063 150.7969 189 161.7344 189 C 171.6719 189 180.3906 187.2031 187.8906 183.625 C 195.3906 180.0313 200.4375 175.5938 203.0625 170.2813 C 205.6875 164.9844 207 156.75 207 145.5625 C 207 130.1875 204.6406 119.0313 199.9375 112.1094 C 195.2188 105.2031 183.9063 96.1719 166 85.0313 C 159.75 81.1719 155.8594 77.9531 154.3594 75.3594 C 152.7813 72.7813 152 68.9375 152 63.8281 C 152 59.8594 152.6406 56.8906 153.9219 54.9375 C 155.2031 52.9844 157.0938 52 159.5938 52 C 161.8906 52 163.5313 52.75 164.5156 54.2188 C 165.5 55.6875 166 59.1094 166 64.4844 L 166 76 L 204 76 L 204 69.7656 L 204 69.7656 Z" fill="#000000"/>
			<path d="M 220 186 L 261 186 L 261 122 L 271.9219 122 C 280.8281 122 288.0313 120.7813 293.5469 118.3125 C 299.0469 115.8438 302.8438 112.3125 304.9063 107.7188 C 306.9688 103.125 308 95.7969 308 85.7344 L 308 72.0313 C 308 62.1875 307.4531 54.9219 306.3906 50.2188 C 305.3281 45.5313 303.2813 41.5313 300.2813 38.2188 C 297.2813 34.9063 292.7813 32.375 286.7969 30.625 C 280.8125 28.875 272.2656 28 261.1406 28 L 220 28 L 220 186 L 220 186 ZM 271.4688 57.4219 C 273.1563 59.0469 274 62.5313 274 67.875 L 274 80.7656 C 274 86.5781 273.2656 90.4063 271.8125 92.25 C 270.3594 94.0938 267.75 95 264 95 C 263.1563 95 262.1563 94.9688 261 94.9063 L 261 55 C 266.2969 55 269.7813 55.8125 271.4688 57.4219 L 271.4688 57.4219 Z" fill="#000000"/>
			<path d="M 393.25 28 L 383.5 101.7813 L 377.125 61.6875 L 371.75 28 L 320 28 L 320 186 L 356 186 L 356.5 81.3281 L 371 186 L 396 186 L 410.5 79.3281 L 411 186 L 447 186 L 447 28 L 393.25 28 L 393.25 28 Z" fill="#000000"/>
			<path d="M 463 28 L 463 186 L 504 186 L 504 28 L 463 28 L 463 28 Z" fill="#000000"/>
		</g>
	</g>
</svg>