<?xml version="1.0" standalone="no"?>
<!-- Generator: Adobe Fireworks 10, Export SVG Extension by Aaron Beall (http://fireworks.abeall.com) . Version: 0.6.1  -->
<!DOCTYPE svg PUBLIC "-//W3C//DTD SVG 1.1//EN" "http://www.w3.org/Graphics/SVG/1.1/DTD/svg11.dtd">
<svg id="05.fw-P%E1gina%201" viewBox="0 0 650 210" style="background-color:#ffffff00" version="1.1"
	xmlns="http://www.w3.org/2000/svg" xmlns:xlink="http://www.w3.org/1999/xlink" xml:space="preserve"
	x="0px" y="0px" width="650px" height="210px"
>
	<g id="Camada%201">
		<g>
			<path d="M 13 51 L 13 75 L 31 75 L 31 170 L 62 170 L 62 75 L 80 75 L 80 51 L 13 51 L 13 51 Z" fill="#000000"/>
			<path d="M 151.5625 91.5781 C 150.6094 88.2031 148.8438 84.9219 146.25 81.7344 C 143.6563 78.5469 139.9688 75.9688 135.1875 73.9844 C 130.4063 72 124.7031 71 118.0469 71 C 110.1094 71 103.6094 72.5469 98.5156 75.625 C 93.4219 78.7188 89.8906 82.7969 87.9375 87.8906 C 85.9688 92.9844 85 100.0625 85 109.125 L 85 134.0938 C 85 142.375 85.5313 148.5938 86.6094 152.7188 C 87.6875 156.8594 89.4844 160.3906 92.0156 163.2969 C 94.5313 166.2188 98.0625 168.4063 102.625 169.8438 C 107.1719 171.2656 112.7344 172 119.2969 172 C 125.1719 172 130.3594 171.1563 134.8906 169.4688 C 139.4219 167.7813 143.125 165.1719 146.0156 161.6094 C 148.9063 158.0625 150.7969 154.25 151.6719 150.1563 C 152.5469 146.0625 153 139.6406 153 130.8594 L 153 107 C 153 100.0938 152.5156 94.9531 151.5625 91.5781 L 151.5625 91.5781 ZM 123 144.7813 C 123 149.0313 122.7344 151.7969 122.2188 153.0781 C 121.6875 154.3594 120.625 155 119 155 C 117.4063 155 116.3438 154.2969 115.8125 152.8906 C 115.2656 151.4844 115 148.4688 115 143.8281 L 115 99.4688 C 115 94.4375 115.2656 91.2813 115.8125 89.9688 C 116.3438 88.6563 117.4375 88 119.0625 88 C 120.6875 88 121.75 88.6563 122.25 89.9688 C 122.75 91.2813 123 94.4375 123 99.4688 L 123 144.7813 L 123 144.7813 Z" fill="#000000"/>
			<path d="M 164 60 L 164 75 L 158 75 L 158 90 L 164 90 L 164 139.7031 C 164 149.4375 164.2656 155.625 164.8281 158.25 C 165.375 160.875 166.7813 163.2188 169.0469 165.25 C 171.2969 167.2813 173.9063 168.5938 176.875 169.1563 C 179.8438 169.7188 184.7813 170 191.7188 170 L 204 170 L 204 154 C 198.75 154 195.7813 153.6406 195.0625 152.9063 C 194.3438 152.1719 194 148.5938 194 142.1719 L 194 90 L 203 90 L 203 75 L 194 75 L 194 60 L 164 60 L 164 60 Z" fill="#000000"/>
			<path d="M 236 99.9063 C 236 94.5313 236.2344 91.2031 236.7031 89.9219 C 237.1719 88.6406 238.3594 88 240.2969 88 C 241.9844 88 243.1875 88.7656 243.9063 90.2813 C 244.625 91.8125 245 95.0781 245 100.1094 C 245 104.125 244.6563 106.7969 243.9688 108.1094 C 243.2813 109.4219 238.1094 112.0156 228.4375 115.8594 C 219.375 119.4219 213.7031 122.5313 211.4219 125.1875 C 209.1406 127.8594 208 132.875 208 140.2188 L 208 148.2969 C 208 158.2344 210.1563 164.6563 214.4844 167.5938 C 218.8125 170.5313 223.5781 172 228.7656 172 C 232.7188 172 236.125 171.1094 238.9844 169.3438 C 241.8438 167.5625 244.1875 164.9063 246 161.3594 L 246 170 L 275 170 L 275 121.2031 C 275 105.1406 274.4844 94.5156 273.4531 89.3594 C 272.4219 84.2031 269.3438 79.8594 264.25 76.3125 C 259.1563 72.7813 251.5781 71 241.5313 71 C 233.1406 71 226.3281 72.5469 221.0781 75.6406 C 215.8281 78.7344 212.3438 82.3125 210.6094 86.3438 C 208.8594 90.375 208 96.1094 208 103.5469 L 208 110 L 236 110 L 236 99.9063 L 236 99.9063 ZM 245 143.9219 C 245 148.9531 244.7188 152.0469 244.1875 153.2344 C 243.6563 154.4219 242.5 155 240.7188 155 C 238.8438 155 237.5781 154.25 236.9531 152.7344 C 236.3125 151.2344 236 147.8906 236 142.7031 C 236 138.1875 236.3594 134.7188 237.0938 132.3125 C 237.8125 129.9063 240.4531 126.9063 245 123.3281 L 245 143.9219 L 245 143.9219 Z" fill="#000000"/>
			<path d="M 285 51 L 285 170 L 315 170 L 315 51 L 285 51 L 285 51 Z" fill="#000000"/>
			<path d="M 425 91.7656 C 425 80.7344 424.0625 72.5938 422.2031 67.3594 C 420.3438 62.1406 416.4531 57.7656 410.5469 54.2656 C 404.625 50.7656 397.1094 49 388.0156 49 C 381.3125 49 375.375 50.1406 370.2188 52.3906 C 365.0625 54.6563 361.0313 57.75 358.125 61.6875 C 355.2188 65.625 353.4688 69.7188 352.875 73.9688 C 352.2813 78.2188 352 84.6094 352 93.1094 L 352 127.5938 C 352 139.1719 352.9531 147.8438 354.8594 153.5938 C 356.7656 159.3594 360.6406 163.875 366.5156 167.125 C 372.3906 170.3594 379.8438 172 388.9063 172 C 397.6094 172 404.9375 170.0625 410.875 166.2188 C 416.8125 162.3594 420.6563 157.8594 422.3906 152.7188 C 424.125 147.5938 425 138.8906 425 126.625 L 425 122 L 394 122 L 394 136.9219 C 394 143.4531 393.6406 147.5938 392.9531 149.3594 C 392.2656 151.125 390.7813 152 388.5313 152 C 386.1875 152 384.6719 151.125 384 149.375 C 383.3281 147.625 383 143.8906 383 138.1563 L 383 83.3594 C 383 77.3906 383.3281 73.5 384 71.7031 C 384.6719 69.9063 386.25 69 388.75 69 C 390.9531 69 392.375 69.75 393.0313 71.2344 C 393.6719 72.7188 394 76.4531 394 82.4219 L 394 103 L 425 103 L 425 91.7656 L 425 91.7656 Z" fill="#000000"/>
			<path d="M 462 99.9063 C 462 94.5313 462.2344 91.2031 462.7031 89.9219 C 463.1719 88.6406 464.3594 88 466.2969 88 C 467.9844 88 469.1875 88.7656 469.9063 90.2813 C 470.625 91.8125 471 95.0781 471 100.1094 C 471 104.125 470.6563 106.7969 469.9688 108.1094 C 469.2813 109.4219 464.1094 112.0156 454.4375 115.8594 C 445.375 119.4219 439.7031 122.5313 437.4219 125.1875 C 435.1406 127.8594 434 132.875 434 140.2188 L 434 148.2969 C 434 158.2344 436.1563 164.6563 440.4844 167.5938 C 444.8125 170.5313 449.5781 172 454.7656 172 C 458.7188 172 462.125 171.1094 464.9844 169.3438 C 467.8438 167.5625 470.1875 164.9063 472 161.3594 L 472 170 L 501 170 L 501 121.2031 C 501 105.1406 500.4844 94.5156 499.4531 89.3594 C 498.4219 84.2031 495.3438 79.8594 490.25 76.3125 C 485.1563 72.7813 477.5781 71 467.5313 71 C 459.1406 71 452.3281 72.5469 447.0781 75.6406 C 441.8281 78.7344 438.3438 82.3125 436.6094 86.3438 C 434.8594 90.375 434 96.1094 434 103.5469 L 434 110 L 462 110 L 462 99.9063 L 462 99.9063 ZM 471 143.9219 C 471 148.9531 470.7188 152.0469 470.1875 153.2344 C 469.6563 154.4219 468.5 155 466.7188 155 C 464.8438 155 463.5781 154.25 462.9531 152.7344 C 462.3125 151.2344 462 147.8906 462 142.7031 C 462 138.1875 462.3594 134.7188 463.0938 132.3125 C 463.8125 129.9063 466.4531 126.9063 471 123.3281 L 471 143.9219 L 471 143.9219 Z" fill="#000000"/>
			<path d="M 511 73 L 511 170 L 541 170 L 541 131.4688 C 541 122.0156 541.2969 115.9688 541.9063 113.3438 C 542.5 110.7188 544.1094 108.6719 546.7188 107.2031 C 549.3281 105.7344 553.4219 105 559 105 L 559 71 C 550.7031 71.5625 544.375 76.5938 540 86.0625 L 541 73 L 511 73 L 511 73 Z" fill="#000000"/>
			<path d="M 603 51 L 603 79.0625 C 600.4688 76.375 597.6719 74.3594 594.5938 73.0156 C 591.5 71.6719 588.1094 71 584.4219 71 C 579.6406 71 575.5156 72.1875 572.0625 74.5625 C 568.6094 76.9375 566.4063 79.7031 565.4375 82.8281 C 564.4688 85.9688 564 91.2813 564 98.7656 L 564 144.375 C 564 151.5781 564.4688 156.7656 565.4375 159.9531 C 566.4063 163.1406 568.5781 165.9531 571.9844 168.375 C 575.3906 170.7813 579.4063 172 584.0625 172 C 587.5 172 590.8125 171.2344 593.9688 169.7344 C 597.125 168.2188 600.125 165.9531 603 162.9219 L 603 170 L 633 170 L 633 51 L 603 51 L 603 51 ZM 603 142.5625 C 603 148.0469 602.6719 151.4844 602.0469 152.8906 C 601.4063 154.2969 600.1406 155 598.25 155 C 596.5781 155 595.4531 154.375 594.875 153.1094 C 594.2813 151.8594 594 149.2344 594 145.2344 L 594 97.1094 C 594 93.2656 594.2969 90.7813 594.9063 89.6719 C 595.5156 88.5625 596.7031 88 598.4688 88 C 600.2656 88 601.4688 88.625 602.0781 89.8594 C 602.6875 91.0938 603 93.5156 603 97.1094 L 603 142.5625 L 603 142.5625 Z" fill="#000000"/>
		</g>
	</g>
</svg>