<?xml version="1.0" standalone="no"?>
<!-- Generator: Adobe Fireworks 10, Export SVG Extension by Aaron Beall (http://fireworks.abeall.com) . Version: 0.6.1  -->
<!DOCTYPE svg PUBLIC "-//W3C//DTD SVG 1.1//EN" "http://www.w3.org/Graphics/SVG/1.1/DTD/svg11.dtd">
<svg id="11.fw-P%E1gina%201" viewBox="0 0 97 101" style="background-color:#ffffff00" version="1.1"
	xmlns="http://www.w3.org/2000/svg" xmlns:xlink="http://www.w3.org/1999/xlink" xml:space="preserve"
	x="0px" y="0px" width="97px" height="101px"
>
	<g id="Camada%201">
		<path d="M 92.5 55.5 C 92.5 57.5 91.5 63.5 90.5 67.5 C 89.5 73.5 82.5 86.5 78.5 86.5 C 75.5 86.5 65.5 72.5 58.5 65.5 C 56.5 68.5 60.5 86.5 53.5 86.5 C 51.5 86.5 51.5 85.5 50.5 84.5 L 49.5 63.5 C 46.5 65.5 44.5 80.5 39.5 80.5 C 32.5 80.5 33.5 67.5 30.5 63.5 C 29.5 64.5 29.5 66.5 29.5 84.5 C 28.5 85.5 26.5 87.5 24.5 87.5 C 13.5 87.5 8.5 57.5 8.5 54.5 C 8.5 32.5 28.5 12.5 50.5 12.5 C 76.5 12.5 92.5 35.5 92.5 55.5 ZM 84.5 55.5 C 84.5 57.5 82.5 67.5 79.5 73.5 C 75.5 70.5 69.5 65.5 69.5 62.5 C 69.5 60.5 80.5 45.5 80.5 43.5 C 80.5 40.5 78.5 39.5 76.5 37.5 L 51.5 37.5 C 47.5 44.5 43.5 52.5 40.5 60.5 C 39.5 58.5 36.5 37.5 28.5 37.5 C 24.5 37.5 22.5 44.5 22.5 45.5 L 23.5 73.5 C 17.5 67.5 17.5 61.5 17.5 55.5 C 17.5 36.5 30.5 21.5 50.5 21.5 C 71.5 21.5 84.5 39.5 84.5 55.5 ZM 69.5 46.5 C 65.5 51.5 61.5 56.5 58.5 61.5 L 58.5 45.5 L 69.5 46.5 Z" fill="#000000"/>
		<path d="M 83.5 55.5 C 83.5 60.5 83.5 63.5 79.5 72.5 C 76.5 70.5 69.5 65.5 69.5 62.5 C 69.5 60.5 81.5 46.5 81.5 43.5 C 81.5 33.5 65.5 36.5 64.5 36.5 C 45.5 36.5 51.5 35.5 40.5 59.5 C 38.5 55.5 36.5 37.5 28.5 37.5 C 26.5 37.5 22.5 39.5 22.5 42.5 L 22.5 72.5 C 20.5 67.5 17.5 57.5 17.5 55.5 C 17.5 36.5 32.5 21.5 50.5 21.5 C 72.5 21.5 83.5 39.5 83.5 55.5 Z" fill="#ffffff"/>
		<path d="M 68.5 46.5 C 65.5 50.5 62.5 55.5 58.5 60.5 L 58.5 45.5 L 68.5 46.5 Z" fill="#ffffff"/>
	</g>
</svg>