<?xml version="1.0" encoding="UTF-8"?>
<!DOCTYPE svg PUBLIC "-//W3C//DTD SVG 1.1//EN" "http://www.w3.org/Graphics/SVG/1.1/DTD/svg11.dtd">
<!-- Creator: CorelDRAW X7 -->
<svg xmlns="http://www.w3.org/2000/svg" xml:space="preserve" width="305mm" height="90mm" version="1.1" style="shape-rendering:geometricPrecision; text-rendering:geometricPrecision; image-rendering:optimizeQuality; fill-rule:evenodd; clip-rule:evenodd"
viewBox="0 0 30500 9000"
 xmlns:xlink="http://www.w3.org/1999/xlink">
 <defs>
  <style type="text/css">
   <![CDATA[
    .fil0 {fill:#FFFFFF;fill-rule:nonzero}
    .fil1 {fill:#455a64;fill-rule:nonzero}
   ]]>
  </style>
 </defs>
 <g id="Camada_x0020_1">
  <metadata id="CorelCorpID_0Corel-Layer"/>
  <path class="fil0" d="M103 4676l143 -838c253,135 490,236 713,303 223,67 434,100 633,101 296,1 536,-63 719,-191 185,-129 277,-293 278,-494 1,-144 -49,-278 -147,-401 -98,-123 -250,-246 -459,-368l-627 -357c-270,-154 -471,-326 -605,-516 -133,-190 -199,-401 -199,-631 1,-358 158,-653 468,-886 310,-232 706,-347 1189,-346 259,1 525,36 795,106 270,70 547,176 833,317l-472 629c-217,-122 -422,-215 -617,-277 -195,-62 -373,-93 -533,-94 -223,-1 -404,47 -544,144 -140,97 -211,221 -212,372 0,117 47,226 141,326 94,101 277,228 550,382l538 303c296,167 515,354 659,561 142,207 214,442 213,703 -1,438 -187,791 -557,1061 -371,269 -857,404 -1459,402 -237,-1 -475,-27 -714,-77 -238,-52 -480,-130 -727,-234z"/>
  <path class="fil0" d="M3754 4850l605 -2880 915 3 -616 2879 -904 -2zm766 -4155l0 0c1,-119 50,-220 148,-303 98,-83 219,-125 362,-124 141,0 259,43 356,126 96,83 145,185 144,304 -1,117 -49,216 -146,297 -97,81 -216,120 -356,120 -141,0 -260,-41 -360,-124 -99,-82 -148,-181 -148,-296z"/>
  <path class="fil0" d="M5233 4854l605 -2880c0,0 1935,-87 2170,-86 327,1 581,72 764,214 184,141 275,337 274,589 0,38 -2,77 -6,117 -4,42 -10,83 -18,126l-411 1929 -903 -2 373 -1767c10,-45 19,-87 26,-126 6,-40 9,-73 9,-98 0,-124 -44,-221 -133,-293 -89,-72 -211,-108 -367,-108 -253,-1 -495,75 -727,227 -233,151 -373,334 -419,550l-353 1610 -884 -2z"/>
  <path class="fil0" d="M12801 6270l916 -4273c0,0 1811,-100 2020,-99 373,1 674,121 906,359 231,238 346,550 345,936 -1,533 -173,971 -514,1314 -342,344 -776,514 -1300,513 -215,-1 -414,-31 -598,-93 -183,-61 -357,-156 -522,-284l-349 1629 -904 -2zm1380 -2203l0 0c135,118 274,207 416,267 144,60 286,91 429,91 296,1 545,-114 746,-343 203,-230 304,-516 305,-859 2,-226 -68,-396 -176,-535 -221,-285 -785,-185 -1411,-128l-309 1507z"/>
  <path class="fil0" d="M13506 186l-992 4677c0,0 -1828,1 -2037,0 -372,-1 -671,3 -902,-236 -231,-238 -347,-550 -345,-936 1,-533 173,-971 514,-1314 342,-343 775,-514 1300,-512 215,0 414,31 597,92 183,62 358,157 523,285l439 -2059 903 3zm-1470 2631l0 0c-135,-118 -273,-207 -416,-267 -143,-60 -285,-90 -428,-90 -296,-1 -545,113 -747,343 -202,229 -304,516 -305,859 -1,226 69,395 177,535 221,284 785,185 1410,127l309 -1507z"/>
  <polygon class="fil0" points="17020,4888 18013,191 18931,193 17923,4890 "/>
  <path class="fil0" d="M22471 2023l-609 2879c0,0 -1264,-124 -1490,-40 -227,85 -457,127 -691,127 -327,-2 -582,-73 -765,-214 -183,-141 -274,-338 -273,-589 0,-28 2,-58 5,-90 5,-32 13,-83 26,-153l415 -1930 898 3 -379 1767c-11,44 -18,87 -23,126 -6,40 -8,71 -9,94 0,126 44,224 132,295 88,70 211,106 369,106 252,1 496,-74 731,-226 235,-152 376,-334 423,-547l341 -1611 899 3z"/>
  <path class="fil0" d="M30099 1313l-5588 -1c-335,-1 -763,270 -960,603l-1522 2628c-28,48 -94,143 -109,187 -3896,113 -10326,961 -14466,3739 3325,-1600 10305,-2579 14362,-2613 -14,-2 -26,-6 -39,-9 23,3 46,7 72,7l5588 2c334,0 763,-270 959,-603l1950 -3337c197,-333 86,-603 -247,-603z"/>
  <path class="fil0" d="M18537 7080c1,-316 -219,-484 -609,-485 -642,-2 -962,535 -964,1041 0,421 267,677 740,679 485,1 648,-362 704,-516l471 0c-152,573 -630,840 -1190,839 -773,-3 -1199,-434 -1198,-991 3,-949 746,-1377 1453,-1375 641,2 1086,291 1066,810l-473 -2z"/>
  <path class="fil0" d="M20314 6333l500 0 462 2262 -479 -3 -109 -597 -1075 -4 -418 597 -507 -1 1626 -2254zm162 399l0 0 -7 0 -655 960 826 2 -164 -962z"/>
  <path class="fil0" d="M21889 6338l1169 4c231,0 852,30 850,577 0,358 -232,553 -614,612l0 6c226,74 287,219 285,409 0,155 -45,313 -42,468 0,63 7,126 49,186l-495 -1c-28,-60 -32,-110 -32,-173 1,-168 47,-329 47,-494 2,-262 -252,-263 -505,-264l-565 -2 -234 930 -480 -1 567 -2257zm224 1028l0 0 693 2c404,2 628,-144 628,-409 2,-247 -228,-296 -483,-296l-662 -2 -176 705z"/>
  <path class="fil0" d="M24372 6345l992 2c692,2 1059,320 1056,950 0,265 -138,698 -430,931 -322,259 -568,378 -1243,376l-950 -2 575 -2257zm-18 1936l0 0 591 1c814,3 1001,-762 1003,-991 1,-395 -214,-620 -593,-620l-590 -2 -411 1612z"/>
  <path class="fil1" d="M22613 4034c196,144 381,251 554,322 173,71 338,106 497,106 148,1 267,-27 358,-85 90,-57 135,-134 136,-229 0,-58 -22,-110 -66,-157 -46,-47 -149,-115 -312,-203l-232 -119c-324,-169 -538,-318 -642,-446 -104,-128 -157,-280 -156,-454 1,-259 119,-469 354,-634 235,-164 539,-246 912,-245 234,1 469,40 703,117 235,78 458,190 672,338l-391 430c-189,-111 -362,-194 -519,-247 -159,-54 -304,-81 -437,-82 -140,0 -252,25 -337,76 -84,51 -127,117 -127,198 0,64 23,122 67,173 45,51 116,101 216,148l263 131c372,185 616,343 730,474 114,131 172,287 171,466 -2,275 -126,499 -373,673 -248,175 -569,261 -962,260 -260,-1 -512,-43 -757,-127 -245,-84 -492,-213 -745,-389l423 -495z"/>
 </g>
</svg>
