<?xml version="1.0" standalone="no"?>
<!-- Generator: Adobe Fireworks 10, Export SVG Extension by Aaron Beall (http://fireworks.abeall.com) . Version: 0.6.1  -->
<!DOCTYPE svg PUBLIC "-//W3C//DTD SVG 1.1//EN" "http://www.w3.org/Graphics/SVG/1.1/DTD/svg11.dtd">
<svg id="25.fw-P%E1gina%201" viewBox="0 0 338 199" style="background-color:#ffffff00" version="1.1"
	xmlns="http://www.w3.org/2000/svg" xmlns:xlink="http://www.w3.org/1999/xlink" xml:space="preserve"
	x="0px" y="0px" width="338px" height="199px"
>
	<g id="Camada%201">
		<path d="M 166.5 65.5 C 154.5 78.5 150.5 82.5 150.5 96.5 C 150.5 106.5 153.5 114.5 165.5 124.5 C 143.5 144.5 124.5 170.5 102.5 182.5 C 99.5 184.5 95.5 183.5 93.5 183.5 C 69.5 183.5 56.5 157.5 31.5 134.5 C 25.5 128.5 17.5 122.5 12.5 116.5 C 9.5 113.5 7.5 109.5 6.5 105.5 C 5.5 100.5 5.5 92.5 5.5 90.5 C 5.5 80.5 27.5 61.5 36.5 53.5 C 46.5 42.5 63.5 23.5 75.5 14.5 C 77.5 12.5 90.5 8.5 94.5 8.5 C 115.5 8.5 143.5 46.5 166.5 65.5 ZM 116.5 56.5 C 122.5 62.5 139.5 76.5 140.5 87.5 C 140.5 90.5 141.5 93.5 141.5 95.5 C 141.5 116.5 122.5 129.5 107.5 129.5 C 105.5 129.5 97.5 128.5 94.5 126.5 C 89.5 124.5 63.5 100.5 63.5 95.5 C 63.5 89.5 68.5 87.5 71.5 87.5 C 81.5 87.5 93.5 113.5 107.5 113.5 C 118.5 113.5 124.5 102.5 124.5 96.5 C 124.5 86.5 100.5 70.5 100.5 63.5 C 100.5 57.5 107.5 53.5 110.5 53.5 C 113.5 53.5 115.5 54.5 116.5 56.5 ZM 83.5 62.5 C 89.5 64.5 115.5 86.5 115.5 94.5 C 115.5 101.5 107.5 104.5 105.5 104.5 C 95.5 104.5 83.5 78.5 69.5 78.5 C 67.5 78.5 64.5 79.5 62.5 79.5 C 59.5 79.5 56.5 83.5 55.5 87.5 C 54.5 88.5 53.5 92.5 53.5 95.5 C 53.5 108.5 79.5 120.5 79.5 131.5 C 79.5 135.5 75.5 139.5 71.5 139.5 C 63.5 139.5 42.5 115.5 38.5 104.5 C 37.5 101.5 37.5 96.5 37.5 93.5 C 37.5 75.5 55.5 60.5 70.5 60.5 C 73.5 60.5 79.5 60.5 83.5 62.5 Z" fill="#000000"/>
		<path d="M 135.5 77.5 C 142.5 84.5 141.5 89.5 141.5 96.5 C 141.5 113.5 125.5 129.5 108.5 129.5 C 103.5 129.5 96.5 128.5 91.5 124.5 C 86.5 121.5 64.5 101.5 64.5 95.5 C 64.5 89.5 66.5 87.5 71.5 87.5 C 78.5 87.5 94.5 114.5 107.5 114.5 C 116.5 114.5 126.5 101.5 126.5 95.5 C 126.5 84.5 102.5 68.5 102.5 62.5 C 102.5 57.5 105.5 54.5 110.5 54.5 C 117.5 54.5 132.5 72.5 135.5 77.5 ZM 88.5 65.5 C 92.5 68.5 115.5 88.5 115.5 94.5 C 115.5 100.5 109.5 102.5 107.5 102.5 C 96.5 102.5 85.5 76.5 70.5 76.5 C 60.5 76.5 53.5 88.5 53.5 94.5 C 53.5 108.5 79.5 120.5 79.5 130.5 C 79.5 136.5 73.5 139.5 71.5 139.5 C 60.5 139.5 40.5 111.5 38.5 102.5 C 37.5 99.5 37.5 96.5 37.5 93.5 C 37.5 75.5 55.5 60.5 70.5 60.5 C 73.5 60.5 82.5 61.5 88.5 65.5 Z" fill="#ffffff"/>
		<path d="M 255.5 14.5 C 276.5 33.5 298.5 55.5 319.5 78.5 C 326.5 85.5 326.5 89.5 326.5 98.5 C 326.5 101.5 326.5 107.5 322.5 112.5 C 302.5 134.5 279.5 157.5 257.5 178.5 C 253.5 182.5 242.5 185.5 238.5 185.5 C 231.5 185.5 225.5 182.5 220.5 176.5 C 202.5 160.5 186.5 142.5 170.5 128.5 C 158.5 118.5 151.5 106.5 151.5 96.5 C 151.5 72.5 195.5 41.5 218.5 17.5 C 222.5 12.5 233.5 9.5 238.5 9.5 C 243.5 9.5 251.5 10.5 255.5 14.5 ZM 207.5 87.5 C 222.5 87.5 206.5 63.5 220.5 63.5 C 225.5 63.5 223.5 67.5 223.5 67.5 L 223.5 71.5 L 225.5 73.5 C 226.5 71.5 235.5 63.5 238.5 63.5 L 258.5 63.5 C 258.5 64.5 259.5 63.5 259.5 65.5 C 259.5 78.5 238.5 72.5 234.5 74.5 C 242.5 76.5 250.5 74.5 258.5 80.5 C 260.5 85.5 254.5 95.5 247.5 95.5 L 227.5 95.5 L 227.5 89.5 C 232.5 85.5 240.5 88.5 247.5 86.5 C 239.5 83.5 229.5 86.5 225.5 77.5 C 222.5 90.5 216.5 95.5 207.5 95.5 C 203.5 95.5 192.5 92.5 192.5 85.5 L 192.5 66.5 C 193.5 65.5 194.5 63.5 196.5 63.5 C 205.5 63.5 193.5 87.5 207.5 87.5 ZM 292.5 63.5 C 293.5 64.5 293.5 63.5 293.5 66.5 C 293.5 79.5 273.5 68.5 269.5 77.5 L 270.5 83.5 C 275.5 74.5 275.5 76.5 282.5 76.5 C 284.5 76.5 287.5 76.5 290.5 77.5 L 290.5 80.5 C 285.5 86.5 277.5 82.5 274.5 88.5 C 278.5 88.5 284.5 87.5 287.5 87.5 C 289.5 87.5 293.5 87.5 293.5 91.5 C 293.5 93.5 292.5 94.5 291.5 95.5 L 272.5 95.5 C 263.5 92.5 261.5 83.5 261.5 79.5 C 261.5 71.5 268.5 64.5 276.5 63.5 L 292.5 63.5 ZM 213.5 109.5 C 214.5 110.5 214.5 109.5 214.5 111.5 C 214.5 119.5 197.5 109.5 197.5 120.5 C 197.5 129.5 211.5 126.5 213.5 126.5 C 214.5 127.5 214.5 126.5 214.5 128.5 C 214.5 133.5 206.5 132.5 206.5 132.5 C 198.5 132.5 192.5 129.5 192.5 120.5 C 192.5 115.5 191.5 111.5 200.5 109.5 L 213.5 109.5 ZM 241.5 124.5 C 241.5 127.5 240.5 130.5 239.5 132.5 L 235.5 132.5 C 235.5 130.5 235.5 127.5 233.5 124.5 L 223.5 124.5 C 223.5 126.5 223.5 129.5 222.5 132.5 L 219.5 132.5 C 218.5 129.5 218.5 126.5 218.5 123.5 C 218.5 114.5 219.5 109.5 229.5 109.5 C 240.5 109.5 241.5 119.5 241.5 124.5 ZM 264.5 121.5 C 265.5 122.5 267.5 122.5 267.5 125.5 L 267.5 131.5 C 266.5 131.5 265.5 132.5 262.5 132.5 C 263.5 123.5 253.5 124.5 250.5 120.5 C 249.5 123.5 250.5 127.5 250.5 131.5 C 249.5 131.5 248.5 132.5 244.5 132.5 L 244.5 111.5 C 246.5 108.5 250.5 109.5 253.5 109.5 C 262.5 109.5 263.5 108.5 264.5 121.5 ZM 293.5 120.5 C 293.5 125.5 289.5 132.5 283.5 132.5 L 271.5 132.5 L 271.5 110.5 C 274.5 109.5 277.5 109.5 279.5 109.5 C 289.5 109.5 293.5 113.5 293.5 120.5 Z" fill="#000000"/>
		<g>
			<path d="M 207.5 88.5 C 219.5 88.5 215.5 73.5 216.5 65.5 C 217.5 65.5 216.5 64.5 219.5 64.5 C 221.5 64.5 221.5 65.5 222.5 66.5 L 222.5 83.5 C 221.5 90.5 212.5 95.5 207.5 95.5 C 200.5 95.5 192.5 89.5 192.5 83.5 L 192.5 65.5 C 193.5 65.5 193.5 64.5 195.5 64.5 C 204.5 64.5 191.5 88.5 207.5 88.5 ZM 256.5 64.5 C 256.5 65.5 257.5 65.5 257.5 67.5 C 257.5 70.5 256.5 70.5 255.5 71.5 L 235.5 71.5 L 233.5 73.5 C 233.5 74.5 234.5 75.5 235.5 75.5 C 238.5 76.5 257.5 74.5 257.5 85.5 C 257.5 91.5 250.5 95.5 244.5 95.5 L 228.5 95.5 C 228.5 94.5 227.5 94.5 227.5 91.5 C 227.5 89.5 228.5 89.5 229.5 88.5 L 248.5 88.5 L 250.5 86.5 C 245.5 79.5 227.5 85.5 227.5 73.5 C 227.5 66.5 233.5 64.5 240.5 64.5 L 256.5 64.5 ZM 291.5 64.5 C 291.5 65.5 292.5 64.5 292.5 67.5 C 292.5 75.5 268.5 65.5 268.5 79.5 C 268.5 93.5 286.5 85.5 291.5 88.5 C 292.5 89.5 292.5 88.5 292.5 91.5 C 292.5 96.5 282.5 95.5 281.5 95.5 C 271.5 95.5 262.5 92.5 262.5 80.5 C 262.5 73.5 265.5 64.5 278.5 64.5 L 291.5 64.5 ZM 239.5 123.5 C 239.5 126.5 239.5 129.5 238.5 132.5 L 235.5 132.5 L 235.5 124.5 L 222.5 124.5 C 222.5 126.5 222.5 129.5 221.5 132.5 L 218.5 132.5 L 218.5 117.5 C 220.5 112.5 226.5 109.5 229.5 109.5 C 240.5 109.5 239.5 120.5 239.5 123.5 ZM 213.5 110.5 C 213.5 110.5 213.5 111.5 214.5 112.5 C 211.5 117.5 196.5 109.5 196.5 121.5 C 196.5 129.5 211.5 127.5 212.5 127.5 L 214.5 129.5 C 213.5 131.5 208.5 131.5 206.5 131.5 C 198.5 131.5 192.5 129.5 192.5 121.5 C 192.5 117.5 193.5 112.5 199.5 110.5 L 213.5 110.5 ZM 262.5 113.5 C 263.5 118.5 266.5 126.5 266.5 128.5 C 266.5 131.5 266.5 131.5 265.5 132.5 L 262.5 132.5 C 265.5 124.5 253.5 123.5 251.5 120.5 C 253.5 119.5 255.5 118.5 257.5 119.5 L 259.5 117.5 L 259.5 114.5 L 248.5 114.5 C 249.5 120.5 249.5 126.5 248.5 132.5 L 245.5 132.5 L 245.5 110.5 L 252.5 110.5 C 255.5 110.5 261.5 109.5 262.5 113.5 ZM 293.5 120.5 C 293.5 123.5 289.5 131.5 285.5 131.5 L 271.5 131.5 L 271.5 110.5 L 278.5 110.5 C 287.5 110.5 293.5 111.5 293.5 120.5 ZM 233.5 116.5 C 233.5 117.5 234.5 118.5 233.5 119.5 L 224.5 119.5 C 226.5 115.5 227.5 115.5 228.5 115.5 C 231.5 115.5 232.5 116.5 233.5 116.5 ZM 287.5 120.5 C 287.5 123.5 285.5 126.5 282.5 126.5 L 276.5 126.5 L 276.5 115.5 L 279.5 115.5 C 284.5 115.5 287.5 116.5 287.5 120.5 Z" fill="#ffffff"/>
			<path d="M 288.5 77.5 C 289.5 78.5 289.5 77.5 289.5 79.5 C 289.5 84.5 281.5 83.5 281.5 83.5 C 278.5 83.5 276.5 83.5 274.5 82.5 L 275.5 77.5 L 288.5 77.5 Z" fill="#ffffff"/>
		</g>
	</g>
</svg>