<?xml version="1.0" standalone="no"?>
<!-- Generator: Adobe Fireworks 10, Export SVG Extension by Aaron Beall (http://fireworks.abeall.com) . Version: 0.6.1  -->
<!DOCTYPE svg PUBLIC "-//W3C//DTD SVG 1.1//EN" "http://www.w3.org/Graphics/SVG/1.1/DTD/svg11.dtd">
<svg id="33.fw-P%E1gina%201" viewBox="0 0 650 210" style="background-color:#ffffff00" version="1.1"
	xmlns="http://www.w3.org/2000/svg" xmlns:xlink="http://www.w3.org/1999/xlink" xml:space="preserve"
	x="0px" y="0px" width="650px" height="210px"
>
	<g id="Camada%201">
		<g>
			<path d="M 23.25 83 L 14.5 146 L 31.75 146 L 32.0781 135 L 38.9219 135 L 39.25 146 L 56.5 146 L 46.75 83 L 23.25 83 L 23.25 83 ZM 32.1563 124 L 35.5 96.0938 L 37.8438 124 L 32.1563 124 L 32.1563 124 Z" fill="#131304"/>
			<path d="M 58 133 L 58 146 L 70 146 L 70 133 L 58 133 L 58 133 Z" fill="#131304"/>
			<path d="M 112 104.1719 C 112 98.4531 111.5156 94.2344 110.5781 91.5156 C 109.6406 88.8125 107.6719 86.5469 104.6719 84.7344 C 101.6719 82.9219 97.8594 82 93.2656 82 C 89.8594 82 86.8438 82.6094 84.2344 83.7969 C 81.6094 84.9844 79.5625 86.625 78.0938 88.7031 C 76.625 90.7969 75.7344 92.9531 75.4375 95.2031 C 75.1406 97.4531 75 100.8125 75 105.3125 L 75 123.5313 C 75 129.6563 75.4844 134.2344 76.4531 137.2813 C 77.4219 140.3281 79.3906 142.7031 82.3594 144.4219 C 85.3281 146.1406 89.1094 147 93.7031 147 C 98.1094 147 101.8281 145.9688 104.8438 143.875 C 107.8438 141.7969 109.7969 139.375 110.6719 136.5938 C 111.5469 133.8281 112 129.125 112 122.5 L 112 120 L 96 120 L 96 127.9531 C 96 131.4375 95.8281 133.6563 95.5156 134.5938 C 95.2031 135.5313 94.5313 136 93.5156 136 C 92.4531 136 91.7656 135.5469 91.4531 134.6406 C 91.1406 133.7344 91 131.7969 91 128.8281 L 91 100.4375 C 91 97.3438 91.1406 95.3438 91.4531 94.4063 C 91.7656 93.4688 92.4844 93 93.6094 93 C 94.6094 93 95.2656 93.375 95.5625 94.1094 C 95.8438 94.8594 96 96.7188 96 99.7188 L 96 110 L 112 110 L 112 104.1719 L 112 104.1719 Z" fill="#131304"/>
			<path d="M 117 133 L 117 146 L 129 146 L 129 133 L 117 133 L 117 133 Z" fill="#131304"/>
			<path d="M 168 99.5625 C 168 94.6563 167.5156 91.1719 166.5781 89.125 C 165.6406 87.0781 163.7188 85.375 160.8125 84.0313 C 157.9063 82.6875 154.375 82 150.25 82 C 146.4688 82 143.25 82.625 140.5938 83.8594 C 137.9219 85.0938 135.9844 86.8125 134.7969 89 C 133.5938 91.1875 133 94.6563 133 99.3906 C 133 102.6719 133.4375 105.375 134.3125 107.4844 C 135.1875 109.6094 136.2813 111.2656 137.6094 112.4531 C 138.9375 113.6563 141.625 115.625 145.6875 118.3594 C 149.7188 121.0781 152.2969 123 153.3906 124.0938 C 154.4531 125.1875 155 127.5313 155 131.0938 C 155 132.7188 154.6875 133.9531 154.0938 134.7656 C 153.4844 135.5938 152.5625 136 151.3281 136 C 150.0781 136 149.2188 135.7031 148.7344 135.0938 C 148.2344 134.4844 148 133.1094 148 130.9531 L 148 124 L 133 124 L 133 127.9688 C 133 132.5156 133.4688 136.0313 134.4375 138.5 C 135.4063 140.9688 137.4375 143.0156 140.5469 144.6094 C 143.6406 146.1875 147.3906 147 151.7969 147 C 155.7969 147 159.2969 146.2813 162.3125 144.8906 C 165.3281 143.4844 167.3594 141.7188 168.4219 139.625 C 169.4688 137.5313 170 134.2813 170 129.875 C 170 123.8125 169.0469 119.4219 167.1719 116.7031 C 165.2813 113.9844 160.8594 110.2656 153.9063 105.5625 C 151.4688 103.9375 149.8906 102.6563 149.1563 101.6875 C 148.375 100.7188 148 99.2969 148 97.3906 C 148 95.9219 148.2188 94.8125 148.6875 94.0938 C 149.1406 93.375 149.8125 93 150.7188 93 C 151.5313 93 152.1094 93.2813 152.4688 93.8281 C 152.8125 94.3906 153 95.6719 153 97.6875 L 153 102 L 168 102 L 168 99.5625 L 168 99.5625 Z" fill="#131304"/>
			<path d="M 173 133 L 173 146 L 185 146 L 185 133 L 173 133 L 173 133 Z" fill="#131304"/>
			<path d="M 194.25 83 L 185.5 146 L 202.75 146 L 203.0781 135 L 209.9219 135 L 210.25 146 L 227.5 146 L 217.75 83 L 194.25 83 L 194.25 83 ZM 203.1563 124 L 206.5 96.0938 L 208.8438 124 L 203.1563 124 L 203.1563 124 Z" fill="#131304"/>
			<path d="M 245 146 L 261 146 L 261 121 L 265.1875 121 C 268.5938 121 271.3438 120.5156 273.4531 119.5156 C 275.5625 118.5156 277.0156 117.0938 277.8125 115.2344 C 278.5938 113.375 279 110.4063 279 106.3438 L 279 100.7969 C 279 96.8281 278.7813 93.8906 278.375 91.9844 C 277.9688 90.0781 277.1719 88.4688 276.0156 87.125 C 274.8594 85.7969 273.125 84.7813 270.8125 84.0625 C 268.5 83.3594 265.1875 83 260.8906 83 L 245 83 L 245 146 L 245 146 ZM 264.2188 94.9688 C 264.7344 95.625 265 97.0156 265 99.1563 L 265 104.3125 C 265 106.6406 264.7656 108.1719 264.3281 108.9063 C 263.875 109.6406 263.0781 110 261.9219 110 C 261.6563 110 261.3438 110 261 109.9688 L 261 94 C 262.625 94 263.7031 94.3281 264.2188 94.9688 L 264.2188 94.9688 Z" fill="#131304"/>
			<path d="M 315.25 83 L 310.5 112.4219 L 307.9219 96.2969 C 307.0938 91.1719 306.375 86.7344 305.75 83 L 285 83 L 285 146 L 299 146 L 299.5 103.4688 L 305 146 L 315 146 L 320.5 103.4688 L 321 146 L 335 146 L 335 83 L 315.25 83 L 315.25 83 Z" fill="#131304"/>
			<path d="M 342 146 L 370 146 L 370 133 L 358 133 L 358 120 L 368 120 L 368 108 L 358 108 L 358 96 L 369 96 L 369 83 L 342 83 L 342 146 L 342 146 Z" fill="#131304"/>
			<path d="M 409 99.5625 C 409 94.6563 408.5156 91.1719 407.5781 89.125 C 406.6406 87.0781 404.7188 85.375 401.8125 84.0313 C 398.9063 82.6875 395.375 82 391.25 82 C 387.4688 82 384.25 82.625 381.5938 83.8594 C 378.9219 85.0938 376.9844 86.8125 375.7969 89 C 374.5938 91.1875 374 94.6563 374 99.3906 C 374 102.6719 374.4375 105.375 375.3125 107.4844 C 376.1875 109.6094 377.2813 111.2656 378.6094 112.4531 C 379.9375 113.6563 382.625 115.625 386.6875 118.3594 C 390.7188 121.0781 393.2969 123 394.3906 124.0938 C 395.4531 125.1875 396 127.5313 396 131.0938 C 396 132.7188 395.6875 133.9531 395.0938 134.7656 C 394.4844 135.5938 393.5625 136 392.3281 136 C 391.0781 136 390.2188 135.7031 389.7344 135.0938 C 389.2344 134.4844 389 133.1094 389 130.9531 L 389 124 L 374 124 L 374 127.9688 C 374 132.5156 374.4688 136.0313 375.4375 138.5 C 376.4063 140.9688 378.4375 143.0156 381.5469 144.6094 C 384.6406 146.1875 388.3906 147 392.7969 147 C 396.7969 147 400.2969 146.2813 403.3125 144.8906 C 406.3281 143.4844 408.3594 141.7188 409.4219 139.625 C 410.4688 137.5313 411 134.2813 411 129.875 C 411 123.8125 410.0469 119.4219 408.1719 116.7031 C 406.2813 113.9844 401.8594 110.2656 394.9063 105.5625 C 392.4688 103.9375 390.8906 102.6563 390.1563 101.6875 C 389.375 100.7188 389 99.2969 389 97.3906 C 389 95.9219 389.2188 94.8125 389.6875 94.0938 C 390.1406 93.375 390.8125 93 391.7188 93 C 392.5313 93 393.1094 93.2813 393.4688 93.8281 C 393.8125 94.3906 394 95.6719 394 97.6875 L 394 102 L 409 102 L 409 99.5625 L 409 99.5625 Z" fill="#131304"/>
			<path d="M 416 146 L 432 146 L 432 121 L 436.1875 121 C 439.5938 121 442.3438 120.5156 444.4531 119.5156 C 446.5625 118.5156 448.0156 117.0938 448.8125 115.2344 C 449.5938 113.375 450 110.4063 450 106.3438 L 450 100.7969 C 450 96.8281 449.7813 93.8906 449.375 91.9844 C 448.9688 90.0781 448.1719 88.4688 447.0156 87.125 C 445.8594 85.7969 444.125 84.7813 441.8125 84.0625 C 439.5 83.3594 436.1875 83 431.8906 83 L 416 83 L 416 146 L 416 146 ZM 435.2188 94.9688 C 435.7344 95.625 436 97.0156 436 99.1563 L 436 104.3125 C 436 106.6406 435.7656 108.1719 435.3281 108.9063 C 434.875 109.6406 434.0781 110 432.9219 110 C 432.6563 110 432.3438 110 432 109.9688 L 432 94 C 433.625 94 434.7031 94.3281 435.2188 94.9688 L 435.2188 94.9688 Z" fill="#131304"/>
			<path d="M 454 115 L 454 126 L 476 126 L 476 115 L 454 115 L 454 115 Z" fill="#131304"/>
			<path d="M 480 146 L 496 146 L 496 118 C 498.2656 118 499.6719 118.4063 500.2031 119.1875 C 500.7344 119.9844 501 122.0469 501 125.3594 L 501 146 L 516 146 L 516 129.5469 C 516 124.5156 515.8594 121.4531 515.5938 120.3281 C 515.3125 119.2031 514.625 117.9844 513.5 116.6406 C 512.375 115.2969 510.1875 114.2344 506.9375 113.4375 C 510.5313 113.0938 512.9375 112.0781 514.1563 110.375 C 515.375 108.6719 516 105.3438 516 100.375 C 516 94.9531 515.1406 91 513.4531 88.5313 C 511.75 86.0625 509.5469 84.5156 506.8594 83.9063 C 504.1719 83.3125 499.0156 83 491.4063 83 L 480 83 L 480 146 L 480 146 ZM 499.9219 94.9375 C 500.6406 95.5625 501 96.8594 501 98.8594 L 501 102.3281 C 501 105.1094 500.625 106.75 499.8906 107.25 C 499.1406 107.75 497.8438 108 496 108 L 496 94 C 497.9063 94 499.2031 94.3125 499.9219 94.9375 L 499.9219 94.9375 Z" fill="#131304"/>
			<path d="M 539.5 82 L 520.5 147 L 531.9063 147 L 550.8906 82 L 539.5 82 L 539.5 82 Z" fill="#131304"/>
			<path d="M 590.2969 94.0313 C 589.8281 91.875 588.9531 89.9219 587.6406 88.1875 C 586.3281 86.4688 584.3438 85 581.7031 83.7969 C 579.0469 82.6094 576.0625 82 572.7188 82 C 568.6094 82 565.1094 82.875 562.2344 84.5938 C 559.3438 86.3281 557.4219 88.625 556.4531 91.4844 C 555.4844 94.3438 555 98.6406 555 104.3906 L 555 126.2344 C 555 130.6406 555.2969 133.8594 555.9063 135.8906 C 556.5 137.9219 557.5313 139.8438 558.9688 141.6719 C 560.4063 143.5 562.3281 144.8438 564.75 145.7031 C 567.1563 146.5625 570.1875 147 573.8438 147 C 576.6094 147 579.1094 146.5781 581.3594 145.7656 C 583.6094 144.9531 585.5156 143.5938 587.1094 141.7031 C 588.6875 139.8281 589.7344 137.7969 590.2344 135.6406 C 590.7344 133.4844 591 130.0156 591 125.2656 L 591 104.3906 C 591 99.6563 590.7656 96.2031 590.2969 94.0313 L 590.2969 94.0313 ZM 575 130.5781 C 575 133.7344 574.8594 135.75 574.6094 136.6563 C 574.3594 137.5625 573.8125 138 572.9844 138 C 572.1563 138 571.625 137.625 571.375 136.8594 C 571.125 136.0938 571 133.8438 571 130.0938 L 571 98.7031 C 571 95.3906 571.125 93.2813 571.3906 92.375 C 571.6563 91.4688 572.2031 91 573.0469 91 C 573.8906 91 574.4219 91.4375 574.6563 92.2969 C 574.875 93.1563 575 95.2969 575 98.7031 L 575 130.5781 L 575 130.5781 Z" fill="#131304"/>
			<path d="M 616.3438 137 C 624.2188 123.5781 628.9688 114.7969 630.5781 110.6563 C 632.1875 106.5313 633 102.6094 633 98.8906 C 633 94.0156 631.4375 89.9688 628.3281 86.7813 C 625.2031 83.5938 620.6094 82 614.5313 82 C 611.4219 82 608.7656 82.5156 606.5469 83.5469 C 604.3281 84.5781 602.5156 86.0938 601.1406 88.0938 C 599.75 90.0938 598.875 92.1406 598.5313 94.2031 C 598.1719 96.2656 598 99.0938 598 102.6719 L 598 105 L 611 105 L 611 98.5313 C 611 95.5313 611.25 93.5313 611.7656 92.5156 C 612.2813 91.5156 613.0625 91 614.125 91 C 615.1719 91 615.9531 91.4375 616.4688 92.3125 C 616.9844 93.1875 617.25 94.5 617.25 96.2656 C 617.25 98.5781 616.375 101.7813 614.6406 105.8906 C 612.9063 110 607.4375 120.7031 598.25 138 L 598 146 L 632 146 L 632 137 L 616.3438 137 L 616.3438 137 Z" fill="#131304"/>
		</g>
	</g>
</svg>