<?xml version="1.0" standalone="no"?>
<!-- Generator: Adobe Fireworks 10, Export SVG Extension by Aaron Beall (http://fireworks.abeall.com) . Version: 0.6.1  -->
<!DOCTYPE svg PUBLIC "-//W3C//DTD SVG 1.1//EN" "http://www.w3.org/Graphics/SVG/1.1/DTD/svg11.dtd">
<svg id="41.fw-P%E1gina%201" viewBox="0 0 650 210" style="background-color:#ffffff00" version="1.1"
	xmlns="http://www.w3.org/2000/svg" xmlns:xlink="http://www.w3.org/1999/xlink" xml:space="preserve"
	x="0px" y="0px" width="650px" height="210px"
>
	<g id="Camada%201">
		<path d="M 281.4101 200.7416 L 265.5468 200.7416 C 261.0144 189.4494 254.2159 175.8989 247.4173 162.3483 L 202.0935 162.3483 C 197.5612 173.6404 190.7626 187.191 186.2302 200.7416 L 168.1007 200.7416 C 183.964 160.0899 202.0935 117.1798 217.9568 74.2697 C 220.223 74.2697 224.7554 74.2697 229.2878 72.0112 L 281.4101 200.7416 ZM 240.6187 146.5393 L 211.1583 146.5393 C 215.6906 132.9888 220.223 117.1798 227.0216 103.6292 C 231.554 117.1798 236.0863 132.9888 240.6187 146.5393 Z" fill="#FFFFFF"/>
		<path d="M 356.1942 74.2697 C 383.3885 78.7865 392.4532 94.5955 392.4532 112.6629 C 392.4532 130.7303 385.6547 146.5393 360.7266 153.3146 C 372.0576 169.1236 385.6547 184.9326 399.2518 200.7416 C 372.0576 214.2921 349.3957 157.8315 331.2662 144.2809 L 331.2662 137.5056 C 344.8633 137.5056 378.8561 139.764 378.8561 114.9213 C 378.8561 105.8876 367.5252 90.0786 356.1942 90.0786 L 322.2014 90.0786 L 322.2014 200.7416 L 306.3381 200.7416 L 306.3381 74.2697 L 356.1942 74.2697 Z" fill="#FFFFFF"/>
		<path d="M 471.7698 74.2697 C 514.8274 81.0449 530.6906 108.1461 530.6906 137.5056 C 530.6906 166.8652 510.295 200.7416 471.7698 200.7416 L 424.1798 200.7416 L 424.1798 74.2697 L 471.7698 74.2697 ZM 512.5612 137.5056 C 512.5612 148.7977 503.4964 182.6741 476.3022 182.6741 L 440.0432 182.6741 L 440.0432 92.3371 L 474.0359 92.3371 C 503.4964 92.3371 512.5612 123.955 512.5612 137.5056 Z" fill="#FFFFFF"/>
		<path d="M 639.4677 103.6292 C 634.9352 103.6292 630.4029 105.8876 625.8705 105.8876 C 623.6043 105.8876 607.741 87.8202 596.41 87.8202 C 587.3453 87.8202 566.9496 92.3371 566.9496 110.4045 C 566.9496 144.2809 644 112.6629 644 162.3483 C 644 189.4494 610.0072 203 596.41 203 C 582.813 203 555.6187 189.4494 551.0863 173.6404 L 551.0863 166.8652 L 566.9496 166.8652 C 569.2158 180.4157 587.3453 187.191 594.1439 187.191 C 605.4748 187.191 625.8705 180.4157 625.8705 164.6067 C 625.8705 128.4719 551.0863 162.3483 551.0863 110.4045 C 551.0863 81.0449 578.2806 74.2697 596.41 74.2697 C 614.5396 74.2697 623.6043 74.2697 639.4677 103.6292 Z" fill="#FFFFFF"/>
		<path d="M 202.0935 44.9101 C 202.0935 60.7191 183.964 92.3371 161.3022 87.8202 C 163.5683 99.1124 163.5683 103.6292 165.8345 108.1461 L 149.9712 108.1461 C 136.3741 74.2697 111.446 65.236 91.0504 65.236 C 57.0576 65.236 29.8633 92.3371 29.8633 123.955 C 29.8633 162.3483 63.8561 184.9326 91.0504 184.9326 C 113.7122 184.9326 136.3741 173.6404 149.9712 142.0225 L 165.8345 142.0225 C 154.5036 182.6741 118.2446 200.7416 91.0504 200.7416 C 47.9928 200.7416 14 164.6067 14 123.955 C 14 74.2697 68.3885 38.1348 113.7122 51.6854 C 113.7122 26.8427 131.8417 2 159.036 2 C 186.2302 2 202.0935 29.1011 202.0935 44.9101 ZM 183.964 44.9101 C 183.964 60.7191 168.1007 72.0112 156.7698 72.0112 C 140.9065 72.0112 131.8417 56.2022 131.8417 47.1685 C 131.8417 33.618 140.9065 20.0674 156.7698 20.0674 C 174.8993 20.0674 183.964 33.618 183.964 44.9101 Z" fill="#FFFFFF"/>
		<path id="Elipse" d="M 58.1907 125.0843 C 58.1907 106.3746 73.4095 91.2079 92.1835 91.2079 C 110.9574 91.2079 126.1763 106.3746 126.1763 125.0843 C 126.1763 143.7939 110.9574 158.9607 92.1835 158.9607 C 73.4095 158.9607 58.1907 143.7939 58.1907 125.0843 Z" fill="#FFFFFF"/>
		<path d="M 210.375 147.5 L 227 102 L 241 147 L 210.375 147.5 Z" fill="#262561"/>
		<path d="M 439 92 L 439 185 L 485 185 C 485 185 549 135 484 92 L 439 92 Z" fill="#262561"/>
		<path id="Elipse2" d="M 131 45.5 C 131 30.8643 142.8643 19 157.5 19 C 172.1357 19 184 30.8643 184 45.5 C 184 60.1357 172.1357 72 157.5 72 C 142.8643 72 131 60.1357 131 45.5 Z" fill="#262561"/>
	</g>
</svg>