<?xml version="1.0" encoding="UTF-8"?>
<!DOCTYPE svg PUBLIC "-//W3C//DTD SVG 1.1//EN" "http://www.w3.org/Graphics/SVG/1.1/DTD/svg11.dtd">
<!-- Creator: CorelDRAW X7 -->
<svg xmlns="http://www.w3.org/2000/svg" xml:space="preserve" width="115mm" height="100mm" version="1.1" style="shape-rendering:geometricPrecision; text-rendering:geometricPrecision; image-rendering:optimizeQuality; fill-rule:evenodd; clip-rule:evenodd"
viewBox="0 0 11500 10000"
 xmlns:xlink="http://www.w3.org/1999/xlink">
 <defs>
  <style type="text/css">
   <![CDATA[
    .fil1 {fill:#FAA831;fill-rule:nonzero}
    .fil2 {fill:#0F62AC;fill-rule:nonzero}
    .fil0 {fill:white;fill-rule:nonzero}
   ]]>
  </style>
 </defs>
 <g id="Camada_x0020_1">
  <metadata id="CorelCorpID_0Corel-Layer"/>
  <g id="_1934983992912">
   <path class="fil0" d="M835 120l9862 0c0,1 595,98 598,437l1 4062c-36,0 -235,439 -599,453 0,0 0,0 0,0 -1645,113 -3290,288 -4932,538 -1645,250 -3286,576 -4930,964 0,0 0,0 0,0 0,0 0,0 0,0 -164,43 -315,19 -423,-56 -107,-75 -174,-204 -175,-365 0,0 0,0 0,0 0,0 0,0 0,-1l0 -5446c0,0 0,0 0,0 0,0 0,0 0,0 2,-321 269,-583 598,-585 0,0 0,0 0,-1 0,0 0,0 0,0z"/>
   <path class="fil1" d="M10655 5504l0 889 0 0 -2 0c0,158 -64,301 -168,405l1 0c-103,103 -246,167 -404,167l0 2 -1 0 -9202 0c1492,-333 2985,-620 4480,-853 1763,-274 3529,-473 5296,-610z"/>
   <path class="fil2" d="M6429 4536c0,-552 0,-1105 0,-1657 0,-552 0,-1105 0,-1658 28,0 56,0 84,0 381,306 760,604 1143,890 380,284 763,559 1144,835 0,-271 0,-543 0,-814 0,-272 0,-543 0,-815 270,0 539,-1 809,-1 0,507 0,1014 0,1521 0,507 0,1014 0,1521 -25,1 -51,1 -76,1 -383,-277 -765,-548 -1148,-816 -382,-267 -765,-537 -1147,-813 0,282 0,564 0,845 0,282 0,563 0,845 -270,36 -539,74 -809,116zm-1548 -2827c0,-116 42,-216 127,-298 84,-82 187,-123 309,-125 123,-1 226,36 310,111 84,75 126,167 126,279 0,110 -43,206 -128,289 -84,83 -186,129 -308,137 -119,7 -221,-26 -307,-103 -86,-78 -129,-175 -129,-290zm841 2954c-268,55 -535,115 -803,179l0 -2462c268,-60 535,-116 803,-171l0 2454z"/>
   <path class="fil1" d="M1955 4159c240,102 444,167 611,196 167,30 330,33 490,9 160,-23 290,-74 387,-151 97,-78 146,-166 146,-265 0,-144 -173,-286 -520,-426 -56,-23 -99,-42 -129,-54 -88,-36 -175,-70 -262,-106 -256,-104 -446,-237 -570,-396 -124,-160 -184,-352 -184,-573 0,-299 116,-553 354,-757 187,-161 418,-260 693,-303l0 -1076c154,0 309,0 464,0l0 1058c66,4 135,11 206,21 160,23 339,60 536,112 0,269 0,539 0,807 -188,-93 -365,-161 -534,-209 -168,-47 -311,-67 -429,-59 -131,8 -235,41 -309,98 -75,58 -112,131 -112,221 0,63 22,120 67,171 44,50 111,93 201,130 152,63 303,128 455,190 381,155 638,304 770,450 130,144 197,323 197,539 0,332 -130,617 -387,860 -181,170 -401,299 -661,386l0 1081c-155,29 -310,60 -464,91l0 -1067c-118,16 -244,25 -377,27 -170,3 -357,-7 -560,-29 -26,-324 -53,-649 -79,-976z"/>
   <path class="fil2" d="M720 42c1682,0 3364,0 5045,0 1682,0 3364,0 5047,0 0,0 0,0 0,0 0,1 0,2 0,2 169,0 322,52 433,133 0,0 0,0 1,0 110,83 178,197 179,323 0,0 0,0 1,-1 0,1 0,1 0,1 0,708 0,1417 0,2125 0,708 0,1416 0,2124 0,0 0,0 0,0 -1,0 -1,0 -1,0 -1,126 -69,242 -180,327 0,1 0,1 0,1 -110,84 -263,140 -433,147 0,0 0,0 0,0 0,0 0,0 0,0 -1683,118 -3367,301 -5047,562 -1684,262 -3363,603 -5045,1009 0,0 0,0 0,0 0,0 0,0 0,0 -169,46 -323,20 -434,-59 -110,-78 -178,-213 -179,-382 0,0 0,0 0,0 0,0 0,0 0,0 0,-950 0,-1900 0,-2849 0,-949 0,-1899 0,-2849 0,0 0,0 0,0 0,0 0,0 0,0 1,-169 70,-324 181,-434 110,-110 263,-178 432,-178 0,0 0,-1 0,-2 0,0 0,0 0,0zm10092 412c-1683,9 -3365,24 -5047,45 -1682,20 -3363,47 -5045,80 0,0 0,0 0,0 0,0 0,-1 0,-2 -17,0 -33,9 -46,21 -12,12 -19,27 -19,45 0,0 0,0 1,0 0,0 0,0 0,0 0,928 0,1857 0,2785 0,928 0,1857 0,2785 0,1 0,1 0,1 -1,0 -1,0 -1,0 0,17 8,30 20,39 12,9 28,12 45,8 0,0 0,-1 0,-1 0,0 0,0 0,0 1682,-374 3362,-688 5045,-929 1681,-241 3364,-408 5047,-518 0,0 0,0 0,0 0,1 0,2 0,2 16,0 32,-7 45,-17 0,0 0,0 1,0 11,-10 19,-22 19,-34 -1,0 -1,0 -1,0 0,0 0,0 0,0 0,-710 0,-1421 0,-2131 0,-710 0,-1421 0,-2132 0,0 0,0 0,0 0,0 0,0 1,0 0,-12 -8,-24 -20,-33 0,0 0,0 0,-1 -12,-9 -28,-14 -45,-14 0,1 0,1 0,1 0,0 0,0 0,0z"/>
   <path class="fil2" d="M2836 9417l0 429 -839 0c-159,0 -281,-9 -366,-25 -295,-58 -505,-223 -629,-495 -83,-182 -123,-408 -123,-677 0,-323 63,-586 188,-789 91,-146 212,-252 364,-319 152,-67 349,-100 591,-100l814 0 0 428 -756 0c-229,0 -397,61 -504,183 -88,101 -132,284 -132,550 0,354 69,587 206,699 96,78 246,116 449,116l737 0zm173 429l996 -2405 590 0 995 2405 -601 0 -232 -557 -915 0 -232 557 -601 0zm1292 -1827l-344 842 685 0 -341 -842zm2059 912l0 915 -511 0 0 -2405 1174 0c337,0 573,42 706,128 91,58 161,134 211,228 50,95 75,199 75,313 0,229 -58,405 -174,529 -72,75 -167,132 -286,173 94,31 165,66 213,104 48,37 92,92 131,165 29,57 50,111 62,165 12,54 23,132 31,237 14,173 34,293 58,363l-574 0c-18,-57 -35,-171 -53,-342 -14,-141 -40,-249 -77,-324 -37,-74 -93,-132 -168,-175 -93,-50 -228,-75 -405,-74l-413 0zm0 -428l719 0c120,0 205,-17 256,-53 76,-54 115,-146 115,-278 0,-147 -58,-241 -173,-282 -40,-14 -106,-21 -198,-21l-719 0 0 634zm2069 -1062l1020 0c255,0 453,25 592,75 257,93 429,264 515,515 65,191 98,397 98,617 0,217 -31,422 -93,614 -62,198 -166,343 -312,436 -91,59 -192,98 -301,118 -108,19 -274,30 -499,30l-1020 0 0 -2405zm511 428l0 1548 509 0c223,0 379,-49 465,-149 53,-62 96,-149 128,-262 32,-113 48,-234 48,-362 0,-141 -19,-271 -57,-389 -38,-119 -89,-207 -153,-265 -91,-81 -235,-121 -431,-121l-509 0z"/>
  </g>
 </g>
</svg>
