<?xml version="1.0" encoding="UTF-8"?>
<!DOCTYPE svg PUBLIC "-//W3C//DTD SVG 1.1//EN" "http://www.w3.org/Graphics/SVG/1.1/DTD/svg11.dtd">
<!-- Creator: CorelDRAW X7 -->
<svg xmlns="http://www.w3.org/2000/svg" xml:space="preserve" width="297mm" height="110mm" version="1.1" style="shape-rendering:geometricPrecision; text-rendering:geometricPrecision; image-rendering:optimizeQuality; fill-rule:evenodd; clip-rule:evenodd"
viewBox="0 0 29700 11000"
 xmlns:xlink="http://www.w3.org/1999/xlink">
 <defs>
  <style type="text/css">
   <![CDATA[
    .str0 {stroke:#FEFEFE;stroke-width:200}
    .fil1 {fill:#252063}
    .fil0 {fill:#252063}
    .fil2 {fill:#EC2155}
   ]]>
  </style>
 </defs>
 <g id="Camada_x0020_1">
  <metadata id="CorelCorpID_0Corel-Layer"/>
  <path class="fil0 str0" d="M14307 9698l-1102 0 -436 -1150 -2026 0 -420 1150 -1082 0 1962 -5052 1080 0 2024 5052zm-1870 -2004l-702 -1869 -682 1869 1384 0zm2415 2004l0 -5052 2148 0c540,0 932,46 1177,137 246,90 441,251 588,483 147,233 221,498 221,796 0,380 -110,693 -333,940 -222,247 -554,402 -996,467 220,128 401,269 544,423 143,154 336,428 578,821l616 985 -1219 0 -732 -1103c-262,-391 -442,-638 -539,-741 -97,-101 -199,-171 -307,-209 -110,-38 -281,-56 -516,-56l-207 0 0 2109 -1023 0zm1023 -2914l755 0c489,0 793,-21 916,-62 121,-41 217,-113 285,-214 70,-101 104,-228 104,-380 0,-170 -46,-307 -137,-413 -90,-104 -218,-170 -383,-197 -83,-12 -332,-18 -744,-18l-796 0 0 1284zm4072 -2138l1860 0c420,0 740,32 960,97 295,87 549,242 759,466 212,222 372,495 482,818 110,322 165,721 165,1194 0,416 -52,773 -155,1074 -126,368 -306,666 -540,893 -176,173 -415,307 -715,403 -224,72 -524,107 -901,107l-1915 0 0 -5052zm1023 854l0 3344 758 0c284,0 488,-16 614,-48 166,-41 302,-111 411,-210 109,-99 197,-261 265,-487 70,-226 104,-535 104,-926 0,-390 -34,-689 -104,-898 -68,-209 -164,-372 -288,-489 -123,-117 -280,-196 -470,-238 -141,-31 -420,-48 -834,-48l-456 0zm3804 2561l995 -98c60,332 180,576 362,732 182,157 428,234 737,234 327,0 574,-69 740,-208 166,-139 249,-301 249,-487 0,-120 -35,-221 -104,-306 -70,-83 -192,-156 -366,-217 -119,-42 -389,-115 -813,-221 -544,-137 -926,-304 -1146,-502 -309,-279 -464,-619 -464,-1020 0,-257 73,-500 218,-724 146,-225 355,-395 629,-513 274,-117 603,-176 991,-176 632,0 1108,140 1427,421 320,281 487,655 503,1124l-1023 35c-43,-261 -136,-448 -279,-562 -142,-114 -356,-172 -640,-172 -294,0 -525,62 -691,184 -107,79 -161,183 -161,315 0,120 51,222 152,307 128,109 440,222 935,340 495,116 860,238 1097,363 237,126 423,296 557,514 134,218 201,486 201,804 0,290 -80,561 -241,814 -161,253 -388,441 -682,563 -294,124 -661,185 -1099,185 -639,0 -1129,-147 -1471,-442 -343,-294 -546,-723 -613,-1287z"/>
  <g id="_1936695407616">
   <path class="fil1 str0" d="M7913 2479c0,-1663 2505,-1571 2505,71 0,1541 -2505,1710 -2505,-71zm-1164 282c-137,-11 -252,-56 -409,-85 -1731,-322 -3373,552 -4120,2120 -353,739 -376,1146 -376,1917 0,656 340,1515 710,2007 64,85 128,181 199,260l458 460c478,486 1547,943 2267,943 860,0 1615,-51 2344,-549 506,-346 833,-724 1171,-1229 215,-321 543,-855 543,-1221 -1865,0 -229,-107 -1720,1279 -339,315 -874,610 -1353,764 -656,210 -1147,164 -1751,-77 -482,-192 -929,-547 -1225,-927 -1141,-1465 -882,-3393 565,-4335 1036,-674 2690,-645 3650,84 404,307 682,830 821,1331 70,249 -62,187 907,187 188,0 39,-306 1,-388 -87,-187 -142,-213 -142,-494l730 -329c709,-354 1317,-1026 1317,-1859 0,-691 -108,-1246 -612,-1752 -537,-539 -1159,-612 -1858,-612 -1264,0 -2024,1386 -2117,2505z"/>
   <path class="fil2 str0" d="M5584 8372c386,0 572,5 928,-167 1720,-831 1068,-3432 -787,-3432 -631,0 -1357,433 -1609,1037 -285,685 -223,1458 295,1971 181,181 244,266 490,392 177,90 437,199 683,199z"/>
  </g>
 </g>
</svg>
