<?xml version="1.0" standalone="no"?>
<!-- Generator: Adobe Fireworks 10, Export SVG Extension by Aaron Beall (http://fireworks.abeall.com) . Version: 0.6.1  -->
<!DOCTYPE svg PUBLIC "-//W3C//DTD SVG 1.1//EN" "http://www.w3.org/Graphics/SVG/1.1/DTD/svg11.dtd">
<svg id="46.fw-P%E1gina%201" viewBox="0 0 650 210" style="background-color:#ffffff00" version="1.1"
	xmlns="http://www.w3.org/2000/svg" xmlns:xlink="http://www.w3.org/1999/xlink" xml:space="preserve"
	x="0px" y="0px" width="650px" height="210px"
>
	<g id="Camada%201">
		<g>
			<path d="M 13 170 L 47 170 L 47 115 L 68 115 L 68 90 L 47 90 L 47 66 L 71 66 L 71 40 L 13 40 L 13 170 L 13 170 Z" fill="#0068be"/>
			<path d="M 78 40 L 78 170 L 112 170 L 112 40 L 78 40 L 78 40 Z" fill="#0068be"/>
			<path d="M 196 103.8906 C 196 93.5781 194.8125 85.5781 192.4375 79.8906 C 190.0625 74.2031 185.9375 69.625 180.0625 66.1719 C 174.1875 62.7344 166.7188 61 157.6875 61 C 150.2813 61 143.7344 62.4531 138.0469 65.3281 C 132.3438 68.2031 128.25 72.3438 125.75 77.75 C 123.25 83.1563 122 90.5469 122 99.9063 L 122 131.1563 C 122 139.125 122.5469 145.1875 123.6719 149.3594 C 124.7969 153.5313 126.7969 157.3594 129.7031 160.8281 C 132.5938 164.2969 136.6563 167.0313 141.875 169.0156 C 147.0938 171 153.1094 172 159.9219 172 C 166.9375 172 172.7813 170.9844 177.4375 168.9531 C 182.0938 166.9219 185.9375 163.875 188.9688 159.8125 C 192 155.75 193.9375 151.9219 194.7656 148.3438 C 195.5781 144.7656 196 139.6406 196 132.9688 L 196 125 L 165 125 L 165 139.2813 C 165 144.6875 164.625 148.3125 163.8906 150.1875 C 163.1406 152.0625 161.6875 153 159.5 153 C 157.7344 153 156.5469 152.2969 155.9219 150.875 C 155.2969 149.4688 155 146.3125 155 141.4219 L 155 118 L 196 118 L 196 103.8906 L 196 103.8906 ZM 155 101 L 155 93.1719 C 155 87.1406 155.2188 83.4375 155.6719 82.0625 C 156.125 80.6875 157.2969 80 159.2031 80 C 160.7344 80 161.75 80.8125 162.25 82.4219 C 162.75 84.0469 163 87.625 163 93.1719 L 163 101 L 155 101 L 155 101 Z" fill="#0068be"/>
			<path d="M 243.25 63 C 241.4844 69.75 238.9063 82.4688 235.5 101.1719 C 235.1406 98.1406 232.5625 85.4219 227.75 63 L 201 63 L 215 114.125 L 201 170 L 227.75 170 C 230.5313 158.125 233.125 145.6719 235.5 132.6406 C 237.25 143.0781 239.8438 155.5313 243.25 170 L 275 170 L 259 114.125 L 272 63 L 243.25 63 L 243.25 63 Z" fill="#0068be"/>
			<path d="M 309 170 L 343 170 L 343 115 L 364 115 L 364 90 L 343 90 L 343 66 L 367 66 L 367 40 L 309 40 L 309 170 L 309 170 Z" fill="#0068be"/>
			<path d="M 374 63 L 374 170 L 407 170 L 407 127.9063 C 407 117.5781 407.3125 110.9844 407.9531 108.1094 C 408.5781 105.25 410.2813 103.0156 413.0313 101.4063 C 415.7813 99.8125 420.1094 99 426 99 L 426 61 C 417.2656 61.625 410.5938 67.1719 406 77.6406 L 407 63 L 374 63 L 374 63 Z" fill="#0068be"/>
			<path d="M 504.4375 83.6094 C 503.4063 79.8906 501.4688 76.2813 498.6406 72.7813 C 495.8125 69.2813 491.7969 66.4531 486.6094 64.2656 C 481.4219 62.0938 475.2031 61 467.9688 61 C 459.3281 61 452.2344 62.7031 446.7031 66.0938 C 441.1563 69.4844 437.3125 73.9844 435.1875 79.5781 C 433.0625 85.1719 432 92.9531 432 102.8906 L 432 130.3438 C 432 139.4375 432.5781 146.2656 433.75 150.8125 C 434.9219 155.3594 436.875 159.2344 439.625 162.4375 C 442.375 165.6406 446.2188 168.0313 451.1719 169.625 C 456.125 171.2031 462.1719 172 469.3125 172 C 475.7031 172 481.3594 171.0625 486.2969 169.2188 C 491.2188 167.375 495.25 164.4844 498.4063 160.5781 C 501.5469 156.6719 503.5938 152.4844 504.5625 147.9844 C 505.5156 143.5 506 136.4375 506 126.7969 L 506 100.5625 C 506 92.9688 505.4688 87.3281 504.4375 83.6094 L 504.4375 83.6094 ZM 473 141.875 C 473 146.5 472.7344 149.5156 472.2188 150.9063 C 471.6875 152.3125 470.625 153 469 153 C 467.4063 153 466.3438 152.2344 465.8125 150.7031 C 465.2656 149.1719 465 145.875 465 140.8125 L 465 92.5 C 465 87.0313 465.2656 83.5781 465.8125 82.1406 C 466.3438 80.7188 467.4375 80 469.0625 80 C 470.6875 80 471.75 80.7188 472.25 82.1406 C 472.75 83.5781 473 87.0313 473 92.5 L 473 141.875 L 473 141.875 Z" fill="#0068be"/>
			<path d="M 518 49 L 518 66 L 511 66 L 511 83 L 518 83 L 518 137.0469 C 518 147.6406 518.2969 154.3594 518.8906 157.2188 C 519.4844 160.0781 520.9844 162.6094 523.4219 164.8281 C 525.8438 167.0469 528.6563 168.4688 531.8438 169.0781 C 535.0313 169.7031 540.3438 170 547.7969 170 L 561 170 L 561 153 C 555.75 153 552.7813 152.6094 552.0625 151.7969 C 551.3438 151 551 147.0938 551 140.0625 L 551 83 L 560 83 L 560 66 L 551 66 L 551 49 L 518 49 L 518 49 Z" fill="#0068be"/>
			<path d="M 597 92.9844 C 597 87.1406 597.2344 83.5156 597.7031 82.1094 C 598.1719 80.7031 599.3594 80 601.2969 80 C 602.9844 80 604.1875 80.8281 604.9063 82.4844 C 605.625 84.1406 606 87.7188 606 93.1875 C 606 97.5625 605.625 100.4688 604.8906 101.9063 C 604.1563 103.3594 598.5625 106.2031 588.0938 110.4219 C 578.3125 114.3281 572.1719 117.7344 569.7031 120.6563 C 567.2344 123.5938 566 129.0781 566 137.1406 L 566 146 C 566 156.8906 568.3281 163.9531 573 167.1719 C 577.6719 170.375 582.8125 172 588.4063 172 C 592.6719 172 596.3438 171.0156 599.4375 169.0625 C 602.5313 167.1094 605.0469 164.1719 607 160.25 L 607 170 L 639 170 L 639 116.2656 C 639 98.5781 638.4375 86.8906 637.3125 81.2188 C 636.1875 75.5469 632.8594 70.7656 627.2969 66.8594 C 621.7344 62.9531 613.4844 61 602.5469 61 C 593.4063 61 585.9844 62.7188 580.2656 66.125 C 574.5469 69.5313 570.7344 73.4688 568.8438 77.9063 C 566.9375 82.3594 566 88.6875 566 96.8906 L 566 104 L 597 104 L 597 92.9844 L 597 92.9844 ZM 606 140.9844 C 606 146.4375 605.7188 149.7969 605.1875 151.0781 C 604.6563 152.3594 603.5 153 601.7188 153 C 599.8438 153 598.5781 152.1875 597.9531 150.5469 C 597.3125 148.9219 597 145.2969 597 139.6719 C 597 134.7656 597.3594 131.0156 598.0938 128.3906 C 598.8125 125.7813 601.4531 122.5313 606 118.6563 L 606 140.9844 L 606 140.9844 Z" fill="#0068be"/>
		</g>
	</g>
</svg>