<?xml version="1.0" encoding="UTF-8"?>
<!DOCTYPE svg PUBLIC "-//W3C//DTD SVG 1.1//EN" "http://www.w3.org/Graphics/SVG/1.1/DTD/svg11.dtd">
<!-- Creator: CorelDRAW X7 -->
<svg xmlns="http://www.w3.org/2000/svg" xml:space="preserve" width="130mm" height="46mm" version="1.1" style="shape-rendering:geometricPrecision; text-rendering:geometricPrecision; image-rendering:optimizeQuality; fill-rule:evenodd; clip-rule:evenodd"
viewBox="0 0 13000 4600"
 xmlns:xlink="http://www.w3.org/1999/xlink">
 <defs>
  <style type="text/css">
   <![CDATA[
    .str0 {stroke:#FEFEFE;stroke-width:75}
    .str1 {stroke:#FEFEFE;stroke-width:75}
    .fil0 {fill:#FEFEFE}
    .fil1 {fill:#3E4095}
    .fil2 {fill:#FEFEFE;fill-rule:nonzero}
    .fil3 {fill:#3E4095;fill-rule:nonzero}
   ]]>
  </style>
 </defs>
 <g id="Camada_x0020_1">
  <metadata id="CorelCorpID_0Corel-Layer"/>
  <g id="_1936691038992">
   <g>
    <path class="fil0 str0" d="M889 89l11280 0c287,0 599,154 692,441 16,50 24,102 24,155l0 3234c0,52 -8,104 -24,154 -93,288 -405,442 -692,442l-11280 0c-287,0 -600,-154 -693,-442 -16,-50 -24,-102 -24,-154l0 -3234c0,-53 8,-105 25,-155 93,-287 405,-441 692,-441z"/>
   </g>
   <path class="fil1 str1" d="M889 142l11280 0c364,0 663,244 663,543l0 3234c0,298 -299,542 -663,542l-11280 0c-365,0 -663,-244 -663,-542l0 -3234c0,-299 298,-543 663,-543z"/>
   <path class="fil2" d="M1837 1258c-21,172 -42,345 -61,517 -62,-60 -126,-106 -197,-136 -70,-31 -142,-46 -219,-44 -128,2 -233,61 -314,175 -82,115 -123,260 -120,435 2,158 41,278 113,360 72,81 172,117 298,108 55,-4 111,-16 169,-37 58,-20 119,-49 183,-86 -20,164 -38,328 -58,493 -51,26 -111,47 -173,63 -63,17 -132,29 -207,36 -221,20 -399,-49 -536,-211 -68,-82 -120,-180 -154,-294 -34,-114 -54,-244 -56,-389 -2,-141 14,-275 46,-403 32,-128 80,-245 145,-349 75,-121 173,-214 287,-277 114,-63 245,-94 387,-94 83,0 162,11 240,33 76,22 152,56 227,100zm749 310c-127,3 -233,59 -315,168 -84,111 -125,246 -122,407 2,141 39,251 110,332 69,79 160,115 274,107 124,-9 229,-70 313,-185 84,-113 125,-247 123,-401 -2,-127 -40,-230 -112,-311 -72,-80 -162,-119 -271,-117zm-69 1459c-110,10 -212,2 -304,-26 -91,-28 -174,-75 -245,-142 -76,-72 -135,-164 -178,-276 -43,-113 -67,-234 -69,-364 -2,-140 13,-272 46,-395 34,-123 85,-234 154,-334 81,-118 181,-209 298,-271 117,-62 246,-91 385,-92 233,0 421,77 568,228 145,148 222,341 226,581 2,128 -13,250 -46,366 -33,115 -86,220 -154,317 -82,120 -181,214 -297,284 -116,69 -243,111 -384,124zm836 -124c35,-292 69,-583 103,-873 34,-289 70,-577 107,-864 157,0 314,0 473,-1 57,137 114,274 170,409 57,135 116,269 174,402 3,7 8,18 15,34 37,87 65,164 79,229 0,-13 0,-27 0,-41 -1,-30 -1,-63 2,-99 4,-36 5,-81 11,-132 15,-135 34,-269 51,-403 17,-133 35,-267 51,-400 138,0 276,0 414,-1 -36,265 -71,532 -104,800 -34,268 -69,538 -103,809 -153,14 -305,27 -456,41 -62,-135 -124,-270 -184,-407 -61,-138 -120,-277 -181,-416 -27,-61 -49,-111 -62,-151 -14,-40 -26,-81 -36,-121 1,15 2,31 2,47 1,31 -1,63 -3,98 -1,34 -3,80 -9,137 -15,144 -36,288 -52,431 -15,144 -32,289 -48,434 -138,13 -276,25 -414,38zm1963 -178c-77,-255 -153,-512 -227,-771 -75,-262 -150,-525 -223,-791 146,0 293,0 440,0 35,148 69,296 105,443 36,147 72,293 106,438 5,22 11,47 15,76 4,28 9,61 13,97 12,-39 23,-74 35,-106 12,-32 21,-57 28,-76 64,-149 129,-296 193,-442 63,-145 131,-289 196,-432 153,0 308,0 462,2 -132,244 -263,492 -392,745 -132,257 -262,519 -391,784 -121,11 -240,22 -360,33zm1339 -429c158,-5 318,-10 479,-15 -16,107 -30,214 -46,321 -298,13 -595,26 -892,43 32,-250 67,-500 101,-746 34,-246 69,-492 104,-737 298,3 596,7 893,9 -15,110 -32,219 -47,329 -161,0 -320,0 -480,0 -12,79 -23,158 -32,238 146,-2 295,-4 445,-5 -16,103 -29,207 -43,311 -150,3 -298,6 -447,10 -13,81 -24,161 -35,242zm520 -1266c-50,-1 -98,-1 -148,-2 -47,-60 -94,-121 -141,-181 -75,58 -151,116 -226,175 -56,-1 -110,-2 -164,-3 85,-115 169,-230 255,-344 95,3 190,5 288,8 45,116 91,232 136,347zm2 1569c34,-240 68,-479 101,-717 32,-237 70,-474 104,-710 157,2 316,4 474,5 57,115 115,229 173,343 57,113 116,227 173,339 3,5 8,14 16,29 37,73 65,137 80,193 0,-12 0,-23 0,-35 -1,-25 -1,-52 2,-83 3,-30 5,-67 10,-110 15,-112 33,-224 50,-336 17,-111 33,-223 50,-334 137,1 275,3 414,4 -35,224 -70,448 -102,672 -33,225 -69,451 -101,678 -153,6 -304,13 -455,19 -62,-114 -126,-229 -187,-344 -61,-116 -121,-234 -183,-351 -27,-51 -47,-93 -61,-127 -13,-33 -26,-67 -37,-101 1,13 1,26 2,39 1,26 0,53 -1,82 -2,28 -5,66 -11,113 -15,119 -32,238 -48,356 -15,119 -32,238 -47,358 -139,6 -278,11 -416,18zm1580 -68c34,-225 68,-450 102,-674 34,-223 68,-446 101,-668 142,1 282,2 422,4 -34,218 -67,438 -101,657 -33,220 -67,441 -101,663 -141,6 -282,12 -423,18zm1454 -1049c-128,1 -232,38 -314,114 -83,76 -124,170 -120,283 4,99 41,177 113,235 70,56 161,83 275,80 125,-4 229,-46 313,-125 83,-78 123,-171 119,-280 -3,-90 -41,-163 -113,-220 -73,-58 -164,-87 -273,-87zm-59 1023c-110,5 -212,-3 -304,-24 -92,-22 -174,-56 -247,-104 -77,-52 -136,-117 -180,-197 -44,-79 -69,-164 -72,-255 -3,-98 11,-190 44,-275 33,-86 84,-162 152,-232 80,-81 178,-144 296,-185 118,-42 245,-62 384,-60 233,2 423,59 571,166 149,108 225,245 232,414 3,91 -12,177 -45,258 -33,81 -83,155 -151,222 -82,82 -181,146 -296,193 -115,46 -243,73 -384,79zm959 -495c67,53 131,91 191,114 60,23 121,34 184,32 53,-2 94,-12 124,-33 30,-21 45,-47 44,-79 -2,-43 -68,-89 -195,-137 -13,-5 -22,-8 -29,-11 -125,-47 -210,-93 -257,-139 -47,-45 -72,-101 -75,-167 -4,-121 43,-219 144,-295 100,-75 232,-111 395,-109 85,1 169,14 248,37 81,24 158,58 232,103 -57,77 -114,154 -169,232 -58,-37 -110,-64 -155,-81 -47,-18 -90,-27 -130,-27 -42,0 -77,9 -105,28 -27,19 -40,42 -39,70 1,33 56,71 164,112 38,14 68,26 87,34 111,46 190,90 235,136 44,47 68,105 71,176 5,125 -48,227 -160,307 -112,80 -267,125 -465,133 -104,5 -203,-8 -294,-38 -92,-31 -176,-80 -252,-146 70,-85 138,-169 206,-252z"/>
   <path class="fil0" d="M628 3241c1911,-131 3823,-277 5734,-413 1912,-137 3827,-265 5741,-398 -1832,206 -3664,413 -5494,617 -1831,204 -3663,388 -5494,562 -84,-62 -165,-123 -246,-184 -81,-62 -160,-123 -241,-184z"/>
   <path class="fil3" d="M9994 3297l25 55c-88,140 -172,258 -254,354 -82,97 -168,177 -259,241 -90,64 -185,108 -285,133 -87,21 -166,27 -239,18 -73,-9 -136,-33 -188,-72 -52,-39 -93,-91 -121,-155 -23,-51 -35,-107 -38,-169 -2,-62 6,-128 24,-196 17,-68 44,-141 79,-218 36,-77 81,-160 136,-248 57,-92 117,-174 180,-246 63,-72 123,-131 180,-177 56,-46 112,-84 165,-113 53,-29 100,-48 139,-58 40,-9 77,-11 111,-4 34,6 64,21 91,43 26,23 48,51 63,85 28,64 29,143 2,238 -26,93 -69,188 -129,285 -59,95 -121,177 -184,244 -63,67 -113,105 -150,114 -24,6 -50,5 -78,-4 -27,-8 -45,-22 -53,-39 -14,-33 -7,-78 21,-136 28,-58 62,-113 102,-166 40,-52 66,-80 77,-83 6,-1 9,0 11,4 2,4 2,14 -1,29 -3,14 -3,23 -2,26 2,5 5,6 10,5 13,-3 41,-39 83,-106 42,-68 76,-140 102,-216 27,-75 31,-133 14,-172 -8,-17 -18,-28 -32,-35 -14,-6 -31,-7 -51,-2 -56,14 -127,68 -212,160 -85,93 -166,204 -241,333 -75,129 -130,257 -163,383 -32,126 -31,229 5,310 20,47 47,83 81,110 34,26 73,43 119,51 45,8 94,5 148,-8 116,-29 233,-94 352,-194 119,-101 239,-236 360,-404zm42 -176c87,-109 179,-196 277,-263 97,-66 177,-107 239,-122 17,-4 35,-3 54,3 19,6 35,15 49,26 15,11 23,20 26,26 5,10 2,19 -7,27 -9,7 -26,18 -51,32 10,7 22,17 37,29 15,12 27,22 36,30 9,7 14,15 17,21 6,14 -2,45 -24,91 -22,47 -37,81 -45,103 -8,21 -6,45 5,70 19,42 55,57 110,43 56,-14 127,-72 213,-176l23 52c-131,209 -241,325 -328,347 -31,7 -57,5 -77,-6 -19,-11 -35,-31 -48,-59 -20,-45 -26,-116 -18,-212 -76,120 -134,208 -173,260 -40,53 -78,84 -115,94 -17,4 -44,-1 -80,-16 -36,-16 -72,-38 -107,-67 -36,-30 -62,-63 -78,-99 -12,-27 -18,-51 -19,-70 -1,-20 5,-42 18,-65 12,-24 34,-57 66,-99zm533 -236c-178,119 -301,213 -368,282 -67,69 -90,128 -68,178 8,19 19,33 33,42 14,9 29,12 44,9 9,-3 23,-11 41,-24 69,-56 125,-121 170,-195 44,-74 94,-171 148,-292zm387 250l-24 -55c26,-47 46,-86 57,-117 -29,0 -51,-3 -66,-9 -16,-6 -28,-19 -36,-37 -9,-20 -8,-49 2,-86 10,-38 27,-74 50,-110 23,-36 47,-62 72,-77 10,-7 20,-11 30,-14 16,-4 26,-1 31,11 5,9 1,32 -11,68 157,-59 257,-94 300,-105 17,-4 29,-6 36,-5 16,2 32,11 50,27 17,17 30,35 38,53 5,12 4,27 -5,45 -9,17 -25,44 -49,79 -29,43 -48,87 -60,133 -12,45 -14,77 -5,96 12,27 41,34 87,23 49,-12 118,-68 208,-169l25 57c-45,66 -82,119 -113,158 -30,39 -60,72 -90,98 -29,25 -58,42 -87,49 -34,8 -66,4 -99,-12 -32,-16 -57,-45 -75,-87 -11,-24 -15,-54 -11,-90 4,-36 15,-76 32,-121 18,-45 40,-91 66,-137 -21,8 -44,18 -71,29 -26,10 -54,21 -83,33 -29,12 -52,21 -68,27 -18,83 -62,165 -131,245zm1228 -374c-45,74 -87,138 -125,192 -38,53 -70,94 -96,122 -26,28 -46,44 -58,47 -21,5 -50,-1 -87,-18 -36,-18 -72,-43 -107,-75 -35,-32 -60,-67 -77,-106 -25,-55 -11,-119 39,-194 50,-75 115,-142 195,-203 80,-61 143,-97 191,-109 40,-9 86,-2 139,24 21,-106 44,-202 68,-287 24,-85 48,-149 70,-193 22,-44 41,-68 57,-72 18,-4 36,-2 57,7 20,8 33,20 40,35 13,30 5,88 -24,175 -29,87 -57,172 -87,255 -28,82 -49,162 -63,239 -13,77 -7,143 18,199 23,52 58,71 104,60 28,-7 58,-27 91,-60 32,-33 76,-85 131,-158l27 63c-102,201 -200,313 -294,336 -37,10 -69,6 -94,-10 -26,-17 -48,-45 -65,-86 -25,-54 -41,-115 -50,-183zm-3 -230c-64,35 -135,83 -215,144 -79,62 -126,102 -139,121 -13,16 -19,41 -19,76 1,34 4,60 11,76 4,9 12,16 23,21 10,4 22,5 34,2 11,-3 22,-10 34,-20 11,-11 28,-30 51,-57 23,-28 38,-46 45,-54 10,-12 32,-38 66,-78 35,-39 59,-70 74,-91 14,-21 25,-43 31,-67 7,-23 8,-48 4,-73z"/>
   <path class="fil2" d="M9911 3279l25 55c-88,139 -172,258 -254,354 -82,97 -168,177 -259,241 -90,64 -186,108 -285,133 -87,21 -166,27 -240,18 -72,-9 -135,-33 -187,-72 -52,-39 -93,-91 -121,-155 -23,-51 -35,-107 -38,-169 -2,-62 6,-128 24,-196 17,-69 44,-141 79,-218 36,-77 81,-160 136,-248 57,-92 117,-174 180,-246 63,-72 123,-131 180,-177 56,-46 111,-84 165,-113 53,-29 100,-48 139,-58 40,-9 77,-11 110,-4 35,6 65,21 92,43 26,23 48,51 63,85 28,64 29,143 2,237 -26,94 -69,189 -129,286 -59,95 -121,177 -184,244 -63,67 -113,105 -150,114 -24,6 -50,5 -78,-4 -27,-8 -45,-22 -53,-39 -14,-33 -7,-78 21,-136 28,-58 62,-113 102,-166 40,-52 66,-80 77,-83 6,-1 9,0 11,4 2,4 2,14 -1,29 -3,14 -4,23 -2,26 2,5 5,6 10,5 13,-3 41,-39 83,-106 42,-68 76,-140 102,-216 27,-75 31,-133 14,-172 -8,-17 -18,-28 -32,-35 -14,-6 -31,-7 -51,-2 -56,14 -127,68 -212,160 -85,93 -166,204 -241,333 -75,129 -130,257 -163,383 -32,126 -31,229 5,310 20,47 47,83 81,110 33,26 73,43 118,51 46,8 95,5 149,-9 116,-28 233,-93 352,-193 119,-101 239,-236 360,-404zm42 -176c87,-109 179,-196 277,-263 97,-66 177,-107 239,-122 17,-4 35,-3 54,3 19,6 35,15 49,26 15,11 23,20 26,26 4,10 2,19 -7,27 -9,7 -26,18 -51,32 10,7 22,17 37,29 15,12 27,22 36,30 9,7 14,15 17,21 6,14 -2,45 -24,91 -22,47 -37,81 -45,103 -8,21 -6,45 5,70 19,42 55,57 110,43 56,-14 127,-73 213,-176l23 52c-132,209 -241,325 -328,347 -31,7 -57,5 -77,-6 -19,-11 -35,-31 -48,-59 -20,-45 -26,-116 -18,-212 -76,120 -134,208 -173,260 -40,53 -78,84 -115,94 -17,4 -44,-1 -80,-16 -36,-16 -72,-38 -107,-67 -36,-30 -62,-63 -78,-99 -12,-27 -18,-51 -19,-70 -1,-20 5,-42 18,-65 12,-24 34,-57 66,-99zm533 -236c-178,119 -301,213 -368,282 -67,69 -90,128 -68,178 8,19 19,32 33,42 14,9 29,12 44,9 9,-3 23,-11 41,-24 69,-56 125,-121 170,-195 44,-74 94,-171 148,-292zm387 250l-25 -55c27,-47 47,-86 58,-117 -29,0 -51,-3 -66,-9 -16,-6 -28,-19 -36,-37 -9,-20 -8,-49 2,-86 10,-38 27,-74 50,-110 23,-36 47,-62 72,-77 10,-7 20,-11 30,-14 16,-4 26,-1 31,10 4,10 1,33 -11,69 157,-59 257,-94 300,-105 17,-4 29,-6 36,-5 16,2 32,11 50,27 17,17 30,35 38,53 5,12 4,27 -5,45 -9,17 -25,44 -49,79 -29,43 -48,87 -60,133 -12,45 -14,77 -5,96 12,27 41,34 87,23 49,-12 118,-68 208,-169l25 57c-45,66 -82,119 -113,158 -30,39 -61,72 -90,98 -29,25 -58,42 -87,49 -34,8 -66,4 -99,-12 -32,-16 -57,-45 -75,-87 -11,-24 -15,-54 -11,-90 4,-36 15,-76 32,-121 18,-45 40,-91 66,-137 -21,8 -44,18 -71,29 -26,10 -54,21 -83,33 -30,12 -52,21 -68,27 -18,83 -62,165 -131,245zm1228 -374c-45,74 -87,138 -125,192 -38,53 -70,94 -96,122 -26,28 -46,44 -58,47 -21,5 -50,-1 -87,-18 -36,-18 -72,-43 -107,-75 -35,-32 -60,-67 -77,-106 -25,-55 -12,-120 39,-194 50,-75 115,-142 195,-203 79,-61 143,-97 191,-109 40,-10 86,-2 139,24 21,-106 44,-202 68,-287 24,-85 47,-149 69,-193 23,-44 42,-68 58,-72 18,-4 36,-2 56,6 21,9 34,21 41,36 13,30 5,88 -24,175 -29,87 -58,172 -87,255 -29,82 -50,162 -63,239 -13,77 -7,143 18,199 23,52 58,71 104,60 28,-7 58,-27 91,-60 32,-33 76,-85 131,-158l27 63c-102,201 -200,313 -294,336 -38,10 -69,6 -95,-10 -25,-17 -47,-45 -65,-86 -24,-54 -40,-115 -49,-183zm-3 -230c-64,35 -135,83 -215,144 -79,62 -126,102 -139,121 -13,16 -19,41 -19,76 0,34 4,60 11,76 4,9 12,16 22,21 11,4 23,4 35,2 11,-3 22,-10 34,-20 11,-11 28,-30 51,-57 23,-28 38,-46 45,-54 9,-12 32,-38 66,-78 35,-39 59,-70 73,-91 15,-21 26,-43 32,-67 7,-23 8,-48 4,-73z"/>
  </g>
 </g>
</svg>
