<?xml version="1.0" standalone="no"?>
<!-- Generator: Adobe Fireworks 10, Export SVG Extension by Aaron Beall (http://fireworks.abeall.com) . Version: 0.6.1  -->
<!DOCTYPE svg PUBLIC "-//W3C//DTD SVG 1.1//EN" "http://www.w3.org/Graphics/SVG/1.1/DTD/svg11.dtd">
<svg id="12.fw-P%E1gina%201" viewBox="0 0 650 210" style="background-color:#ffffff00" version="1.1"
	xmlns="http://www.w3.org/2000/svg" xmlns:xlink="http://www.w3.org/1999/xlink" xml:space="preserve"
	x="0px" y="0px" width="650px" height="210px"
>
	<g id="Camada%201">
		<g>
			<path d="M 31 169 L 65 169 L 65 114 L 86 114 L 86 89 L 65 89 L 65 65 L 89 65 L 89 39 L 31 39 L 31 169 L 31 169 Z" fill="#0068be"/>
			<path d="M 96 62 L 96 169 L 129 169 L 129 126.9063 C 129 116.5781 129.3125 109.9844 129.9531 107.1094 C 130.5781 104.25 132.2813 102.0156 135.0313 100.4063 C 137.7813 98.8125 142.1094 98 148 98 L 148 60 C 139.2656 60.625 132.5938 66.1719 128 76.6406 L 129 62 L 96 62 L 96 62 Z" fill="#0068be"/>
			<path d="M 185 91.9844 C 185 86.1406 185.2344 82.5156 185.7031 81.1094 C 186.1719 79.7031 187.3594 79 189.2969 79 C 190.9844 79 192.1875 79.8281 192.9063 81.4844 C 193.625 83.1406 194 86.7188 194 92.1875 C 194 96.5625 193.625 99.4688 192.8906 100.9063 C 192.1563 102.3594 186.5625 105.2031 176.0938 109.4219 C 166.3125 113.3281 160.1719 116.7344 157.7031 119.6563 C 155.2344 122.5938 154 128.0781 154 136.1406 L 154 145 C 154 155.8906 156.3281 162.9531 161 166.1719 C 165.6719 169.375 170.8125 171 176.4063 171 C 180.6719 171 184.3438 170.0156 187.4375 168.0625 C 190.5313 166.1094 193.0469 163.1719 195 159.25 L 195 169 L 227 169 L 227 115.2656 C 227 97.5781 226.4375 85.8906 225.3125 80.2188 C 224.1875 74.5469 220.8594 69.7656 215.2969 65.8594 C 209.7344 61.9531 201.4844 60 190.5469 60 C 181.4063 60 173.9844 61.7188 168.2656 65.125 C 162.5469 68.5313 158.7344 72.4688 156.8438 76.9063 C 154.9375 81.3594 154 87.6875 154 95.8906 L 154 103 L 185 103 L 185 91.9844 L 185 91.9844 ZM 194 139.9844 C 194 145.4375 193.7188 148.7969 193.1875 150.0781 C 192.6563 151.3594 191.5 152 189.7188 152 C 187.8438 152 186.5781 151.1875 185.9531 149.5469 C 185.3125 147.9219 185 144.2969 185 138.6719 C 185 133.7656 185.3594 130.0156 186.0938 127.3906 C 186.8125 124.7813 189.4531 121.5313 194 117.6563 L 194 139.9844 L 194 139.9844 Z" fill="#0068be"/>
			<path d="M 238 62 L 238 169 L 271 169 L 271 96.6563 C 271 88.5938 271.2656 83.6406 271.7969 81.7813 C 272.3281 79.9375 273.625 79 275.7188 79 C 277.6875 79 278.9063 79.8125 279.3438 81.4219 C 279.7813 83.0469 280 87.5313 280 94.8906 L 280 169 L 313 169 L 313 93.9688 C 313 84.6094 312.4844 77.9219 311.4844 73.9219 C 310.4844 69.9219 308.2344 66.5938 304.7344 63.9531 C 301.2344 61.3281 296.7188 60 291.2031 60 C 286.7969 60 282.9219 61.0313 279.5469 63.0625 C 276.1719 65.1094 273.3281 68.1719 271 72.25 L 272 62 L 238 62 L 238 62 Z" fill="#0068be"/>
			<path d="M 404 82.7188 C 404 70.6563 402.9688 61.7813 400.9375 56.0625 C 398.9063 50.3438 394.6406 45.5781 388.1563 41.75 C 381.6719 37.9219 373.4531 36 363.4844 36 C 356.1406 36 349.6406 37.25 343.9844 39.75 C 338.3281 42.25 333.8906 45.6875 330.7031 50.0313 C 327.5156 54.3906 325.5938 58.9219 324.9531 63.625 C 324.3125 68.3281 324 75.375 324 84.7656 L 324 122.9063 C 324 135.7031 325.0313 145.2813 327.125 151.6563 C 329.2188 158.0313 333.4688 163.0156 339.9063 166.6094 C 346.3438 170.1875 354.5156 172 364.4375 172 C 373.9688 172 382 169.8281 388.5156 165.5156 C 395.0313 161.2031 399.2344 156.1563 401.1406 150.4063 C 403.0469 144.6563 404 134.9219 404 121.1719 L 404 116 L 370 116 L 370 132.9219 C 370 140.3125 369.6094 145 368.8594 147 C 368.0938 149 366.4844 150 364.0469 150 C 361.4844 150 359.8281 149.0313 359.0938 147.0938 C 358.3594 145.1563 358 141.0156 358 134.6563 L 358 73.9063 C 358 67.2969 358.3594 63 359.0938 61 C 359.8281 59 361.5625 58 364.2813 58 C 366.6719 58 368.2188 58.8125 368.9375 60.4219 C 369.6406 62.0469 370 66.1094 370 72.6094 L 370 95 L 404 95 L 404 82.7188 L 404 82.7188 Z" fill="#0068be"/>
			<path d="M 445 91.9844 C 445 86.1406 445.2344 82.5156 445.7031 81.1094 C 446.1719 79.7031 447.3594 79 449.2969 79 C 450.9844 79 452.1875 79.8281 452.9063 81.4844 C 453.625 83.1406 454 86.7188 454 92.1875 C 454 96.5625 453.625 99.4688 452.8906 100.9063 C 452.1563 102.3594 446.5625 105.2031 436.0938 109.4219 C 426.3125 113.3281 420.1719 116.7344 417.7031 119.6563 C 415.2344 122.5938 414 128.0781 414 136.1406 L 414 145 C 414 155.8906 416.3281 162.9531 421 166.1719 C 425.6719 169.375 430.8125 171 436.4063 171 C 440.6719 171 444.3438 170.0156 447.4375 168.0625 C 450.5313 166.1094 453.0469 163.1719 455 159.25 L 455 169 L 487 169 L 487 115.2656 C 487 97.5781 486.4375 85.8906 485.3125 80.2188 C 484.1875 74.5469 480.8594 69.7656 475.2969 65.8594 C 469.7344 61.9531 461.4844 60 450.5469 60 C 441.4063 60 433.9844 61.7188 428.2656 65.125 C 422.5469 68.5313 418.7344 72.4688 416.8438 76.9063 C 414.9375 81.3594 414 87.6875 414 95.8906 L 414 103 L 445 103 L 445 91.9844 L 445 91.9844 ZM 454 139.9844 C 454 145.4375 453.7188 148.7969 453.1875 150.0781 C 452.6563 151.3594 451.5 152 449.7188 152 C 447.8438 152 446.5781 151.1875 445.9531 149.5469 C 445.3125 147.9219 445 144.2969 445 138.6719 C 445 133.7656 445.3594 130.0156 446.0938 127.3906 C 446.8125 124.7813 449.4531 121.5313 454 117.6563 L 454 139.9844 L 454 139.9844 Z" fill="#0068be"/>
			<path d="M 498 62 L 498 169 L 531 169 L 531 126.9063 C 531 116.5781 531.3125 109.9844 531.9531 107.1094 C 532.5781 104.25 534.2813 102.0156 537.0313 100.4063 C 539.7813 98.8125 544.1094 98 550 98 L 550 60 C 541.2656 60.625 534.5938 66.1719 530 76.6406 L 531 62 L 498 62 L 498 62 Z" fill="#0068be"/>
			<path d="M 599 39 L 599 68.9844 C 596.2188 65.9844 593.1406 63.75 589.7344 62.25 C 586.3281 60.75 582.5938 60 578.5156 60 C 573.2344 60 568.7031 61.3125 564.8906 63.9219 C 561.0781 66.5313 558.6563 69.5625 557.5938 73 C 556.5313 76.4375 556 82.2813 556 90.5156 L 556 140.6406 C 556 148.5625 556.5313 154.2656 557.5938 157.7656 C 558.6563 161.2656 561.0625 164.3594 564.8125 167.0156 C 568.5625 169.6563 572.9844 171 578.1094 171 C 581.9219 171 585.5625 170.1563 589.0469 168.5 C 592.5156 166.8438 595.8438 164.3438 599 161.0156 L 599 169 L 632 169 L 632 39 L 599 39 L 599 39 ZM 599 138.4531 C 599 144.4219 598.6406 148.1719 597.9375 149.7031 C 597.2344 151.2344 595.8281 152 593.7188 152 C 591.875 152 590.625 151.3281 589.9688 149.9531 C 589.3125 148.5781 589 145.7188 589 141.3594 L 589 88.9219 C 589 84.7344 589.3281 82.0313 590.0156 80.8125 C 590.6875 79.6094 592 79 593.9531 79 C 595.9531 79 597.2969 79.6719 597.9844 81.0156 C 598.6563 82.3594 599 85 599 88.9219 L 599 138.4531 L 599 138.4531 Z" fill="#0068be"/>
		</g>
	</g>
</svg>