<?xml version="1.0" standalone="no"?>
<!-- Generator: Adobe Fireworks 10, Export SVG Extension by Aaron Beall (http://fireworks.abeall.com) . Version: 0.6.1  -->
<!DOCTYPE svg PUBLIC "-//W3C//DTD SVG 1.1//EN" "http://www.w3.org/Graphics/SVG/1.1/DTD/svg11.dtd">
<svg id="26.fw-P%E1gina%201" viewBox="0 0 273 164" style="background-color:#ffffff00" version="1.1"
	xmlns="http://www.w3.org/2000/svg" xmlns:xlink="http://www.w3.org/1999/xlink" xml:space="preserve"
	x="0px" y="0px" width="273px" height="164px"
>
	<g id="Camada%201">
		<path d="M 138.7823 15.4571 C 138.7823 24.4286 129.6635 28.9143 125.1041 28.9143 C 113.7056 28.9143 111.4259 19.9428 111.4259 15.4571 C 111.4259 8.7286 113.7056 2 125.1041 2 C 134.2229 2 138.7823 13.2143 138.7823 15.4571 ZM 95.4679 82.7429 C 95.4679 105.1714 79.51 127.6 52.1535 127.6 C 45.3144 127.6 33.9159 123.1143 22.5173 118.6286 L 22.5173 159 L 2 159 L 2 40.1286 L 22.5173 40.1286 C 22.5173 42.3714 22.5173 44.6143 24.7971 46.8571 C 33.9159 42.3714 47.5941 35.6429 52.1535 35.6429 C 79.51 35.6429 95.4679 60.3143 95.4679 82.7429 ZM 134.2229 37.8857 L 134.2229 125.3571 L 113.7056 125.3571 L 113.7056 37.8857 L 134.2229 37.8857 ZM 182.0967 37.8857 L 227.6909 82.7429 L 184.3764 125.3571 L 157.02 125.3571 C 170.6982 114.1429 200.3344 87.2286 200.3344 82.7429 C 200.3344 76.0143 172.9779 53.5857 157.02 37.8857 L 182.0967 37.8857 ZM 72.6709 80.5 C 72.6709 98.4428 61.2723 107.4143 47.5941 107.4143 C 29.3565 107.4143 24.7971 96.2 24.7971 82.7429 C 24.7971 67.0429 29.3565 58.0714 47.5941 58.0714 C 65.8317 58.0714 72.6709 73.7714 72.6709 80.5 ZM 191.2156 82.7429 L 182.0967 91.7143 L 154.7403 91.7143 L 154.7403 71.5286 L 166.1388 71.5286 C 175.2576 71.5286 179.817 69.2857 191.2156 82.7429 Z" fill="#1d1d1b"/>
		<path d="M 219.7119 63.6786 L 233.3901 77.1357 L 273 37.6054 L 248.2082 37.325 L 219.7119 63.6786 Z" fill="#f08221"/>
		<path d="M 219.7119 101.8072 L 247.0683 126.7589 L 272.1451 126.4786 L 233.3901 88.35 L 219.7119 101.8072 Z" fill="#f08221"/>
		<path id="Elipse" d="M 21 81 C 21 66.0881 33.0881 54 48 54 C 62.9119 54 75 66.0881 75 81 C 75 95.9119 62.9119 108 48 108 C 33.0881 108 21 95.9119 21 81 Z" fill="#ffffff"/>
	</g>
</svg>