<?xml version="1.0" standalone="no"?>
<!-- Generator: Adobe Fireworks 10, Export SVG Extension by Aaron Beall (http://fireworks.abeall.com) . Version: 0.6.1  -->
<!DOCTYPE svg PUBLIC "-//W3C//DTD SVG 1.1//EN" "http://www.w3.org/Graphics/SVG/1.1/DTD/svg11.dtd">
<svg id="32.fw-P%E1gina%201" viewBox="0 0 650 210" style="background-color:#ffffff00" version="1.1"
	xmlns="http://www.w3.org/2000/svg" xmlns:xlink="http://www.w3.org/1999/xlink" xml:space="preserve"
	x="0px" y="0px" width="650px" height="210px"
>
	<g id="Camada%201">
		<g>
			<path d="M 7 163 L 40.7656 163 C 47.1719 163 51.9531 162.6563 55.1406 161.9531 C 58.3125 161.2656 60.9844 160.0313 63.1406 158.2656 C 65.2969 156.5156 66.8125 154.0781 67.6875 150.9531 C 68.5625 147.8281 69 141.6563 69 132.4063 L 69 96.3281 C 69 86.5781 68.7031 80.0313 68.1094 76.7031 C 67.5156 73.375 66.0313 70.3594 63.6563 67.6406 C 61.2813 64.9219 57.8125 62.9688 53.25 61.7813 C 48.6875 60.5938 39.9531 60 27.0313 60 L 7 60 L 7 163 L 7 163 ZM 39.6563 77.9375 C 40.6563 78.5625 41.2969 79.5469 41.5781 80.8906 C 41.8594 82.2344 42 85.2656 42 90.0156 L 42 130.7813 C 42 137.7813 41.5781 142.0625 40.7344 143.6406 C 39.8906 145.2188 37.6406 146 34 146 L 34 77 C 36.7656 77 38.6563 77.3125 39.6563 77.9375 L 39.6563 77.9375 Z" fill="#0068be"/>
			<path d="M 79 60 L 79 73 L 105 73 L 105 60 L 79 60 L 79 60 ZM 79 79 L 79 163 L 105 163 L 105 79 L 79 79 L 79 79 Z" fill="#0068be"/>
			<path d="M 138 102.2813 C 138 97.6563 138.2031 94.7813 138.625 93.6719 C 139.0313 92.5625 140.0938 92 141.8125 92 C 143.3125 92 144.375 92.6563 145.0313 93.9688 C 145.6719 95.2813 146 98.1094 146 102.4531 C 146 105.9219 145.7031 108.2188 145.1094 109.3594 C 144.5156 110.5 140.0469 112.75 131.6719 116.0938 C 123.8438 119.1875 118.9375 121.9063 116.9688 124.2188 C 114.9844 126.5469 114 130.9219 114 137.3281 L 114 144.3594 C 114 153.0156 115.8125 158.6094 119.4688 161.1719 C 123.1094 163.7188 127.1094 165 131.4844 165 C 134.8125 165 137.6875 164.2031 140.0938 162.625 C 142.5 161.0313 144.4688 158.6563 146 155.4844 L 146 163 L 172 163 L 172 120.6094 C 172 106.6406 171.5469 97.4219 170.6563 92.9531 C 169.7656 88.4844 167.1094 84.7031 162.7031 81.625 C 158.2813 78.5469 151.7188 77 143.0313 77 C 135.7656 77 129.8594 78.3594 125.3281 81.0469 C 120.7813 83.75 117.75 86.8594 116.25 90.375 C 114.75 93.8906 114 98.8906 114 105.375 L 114 111 L 138 111 L 138 102.2813 L 138 102.2813 ZM 146 140.3906 C 146 144.75 145.75 147.4375 145.2813 148.4688 C 144.7969 149.5 143.7656 150 142.1875 150 C 140.5156 150 139.4063 149.3594 138.8438 148.0469 C 138.2813 146.7344 138 143.8438 138 139.3594 C 138 135.4375 138.3125 132.4375 138.9688 130.3438 C 139.6094 128.25 141.9531 125.6563 146 122.5625 L 146 140.3906 L 146 140.3906 Z" fill="#0068be"/>
			<path d="M 204 163 L 237.7656 163 C 244.1719 163 248.9531 162.6563 252.1406 161.9531 C 255.3125 161.2656 257.9844 160.0313 260.1406 158.2656 C 262.2969 156.5156 263.8125 154.0781 264.6875 150.9531 C 265.5625 147.8281 266 141.6563 266 132.4063 L 266 96.3281 C 266 86.5781 265.7031 80.0313 265.1094 76.7031 C 264.5156 73.375 263.0313 70.3594 260.6563 67.6406 C 258.2813 64.9219 254.8125 62.9688 250.25 61.7813 C 245.6875 60.5938 236.9531 60 224.0313 60 L 204 60 L 204 163 L 204 163 ZM 236.6563 77.9375 C 237.6563 78.5625 238.2969 79.5469 238.5781 80.8906 C 238.8594 82.2344 239 85.2656 239 90.0156 L 239 130.7813 C 239 137.7813 238.5781 142.0625 237.7344 143.6406 C 236.8906 145.2188 234.6406 146 231 146 L 231 77 C 233.7656 77 235.6563 77.3125 236.6563 77.9375 L 236.6563 77.9375 Z" fill="#0068be"/>
			<path d="M 276 60 L 276 73 L 302 73 L 302 60 L 276 60 L 276 60 ZM 276 79 L 276 163 L 302 163 L 302 79 L 276 79 L 276 79 Z" fill="#0068be"/>
			<path d="M 335 102.2813 C 335 97.6563 335.2031 94.7813 335.625 93.6719 C 336.0313 92.5625 337.0938 92 338.8125 92 C 340.3125 92 341.375 92.6563 342.0313 93.9688 C 342.6719 95.2813 343 98.1094 343 102.4531 C 343 105.9219 342.7031 108.2188 342.1094 109.3594 C 341.5156 110.5 337.0469 112.75 328.6719 116.0938 C 320.8438 119.1875 315.9375 121.9063 313.9688 124.2188 C 311.9844 126.5469 311 130.9219 311 137.3281 L 311 144.3594 C 311 153.0156 312.8125 158.6094 316.4688 161.1719 C 320.1094 163.7188 324.1094 165 328.4844 165 C 331.8125 165 334.6875 164.2031 337.0938 162.625 C 339.5 161.0313 341.4688 158.6563 343 155.4844 L 343 163 L 369 163 L 369 120.6094 C 369 106.6406 368.5469 97.4219 367.6563 92.9531 C 366.7656 88.4844 364.1094 84.7031 359.7031 81.625 C 355.2813 78.5469 348.7188 77 340.0313 77 C 332.7656 77 326.8594 78.3594 322.3281 81.0469 C 317.7813 83.75 314.75 86.8594 313.25 90.375 C 311.75 93.8906 311 98.8906 311 105.375 L 311 111 L 335 111 L 335 102.2813 L 335 102.2813 ZM 343 140.3906 C 343 144.75 342.75 147.4375 342.2813 148.4688 C 341.7969 149.5 340.7656 150 339.1875 150 C 337.5156 150 336.4063 149.3594 335.8438 148.0469 C 335.2813 146.7344 335 143.8438 335 139.3594 C 335 135.4375 335.3125 132.4375 335.9688 130.3438 C 336.6094 128.25 338.9531 125.6563 343 122.5625 L 343 140.3906 L 343 140.3906 Z" fill="#0068be"/>
			<path d="M 464 94.4219 C 464 85.0156 463.1875 78.0938 461.5938 73.6406 C 459.9844 69.1875 456.625 65.4688 451.5156 62.4844 C 446.4063 59.5 439.9375 58 432.0938 58 C 426.3125 58 421.1875 58.9844 416.7344 60.9531 C 412.2656 62.9219 408.7813 65.625 406.2813 69.0469 C 403.7656 72.4688 402.25 76.0313 401.75 79.7188 C 401.25 83.4219 401 88.9688 401 96.375 L 401 126.375 C 401 136.4375 401.8125 143.9844 403.4688 148.9844 C 405.1094 154 408.4688 157.9219 413.5313 160.75 C 418.5938 163.5781 425.0313 165 432.8438 165 C 440.3594 165 446.6875 163.2969 451.8125 159.9063 C 456.9375 156.5156 460.25 152.5625 461.75 148.0469 C 463.25 143.5313 464 135.875 464 125.0625 L 464 121 L 437 121 L 437 134.4375 C 437 140.3125 436.7031 144.0313 436.1406 145.625 C 435.5781 147.2188 434.375 148 432.5313 148 C 430.5938 148 429.3594 147.2344 428.8125 145.7031 C 428.2656 144.1719 428 140.875 428 135.8281 L 428 87.625 C 428 82.375 428.2656 78.9688 428.8125 77.375 C 429.3594 75.7969 430.6563 75 432.7031 75 C 434.5 75 435.6719 75.6406 436.2031 76.9063 C 436.7344 78.1719 437 81.3594 437 86.4531 L 437 104 L 464 104 L 464 94.4219 L 464 94.4219 Z" fill="#0068be"/>
			<path d="M 496 102.2813 C 496 97.6563 496.2031 94.7813 496.625 93.6719 C 497.0313 92.5625 498.0938 92 499.8125 92 C 501.3125 92 502.375 92.6563 503.0313 93.9688 C 503.6719 95.2813 504 98.1094 504 102.4531 C 504 105.9219 503.7031 108.2188 503.1094 109.3594 C 502.5156 110.5 498.0469 112.75 489.6719 116.0938 C 481.8438 119.1875 476.9375 121.9063 474.9688 124.2188 C 472.9844 126.5469 472 130.9219 472 137.3281 L 472 144.3594 C 472 153.0156 473.8125 158.6094 477.4688 161.1719 C 481.1094 163.7188 485.1094 165 489.4844 165 C 492.8125 165 495.6875 164.2031 498.0938 162.625 C 500.5 161.0313 502.4688 158.6563 504 155.4844 L 504 163 L 530 163 L 530 120.6094 C 530 106.6406 529.5469 97.4219 528.6563 92.9531 C 527.7656 88.4844 525.1094 84.7031 520.7031 81.625 C 516.2813 78.5469 509.7188 77 501.0313 77 C 493.7656 77 487.8594 78.3594 483.3281 81.0469 C 478.7813 83.75 475.75 86.8594 474.25 90.375 C 472.75 93.8906 472 98.8906 472 105.375 L 472 111 L 496 111 L 496 102.2813 L 496 102.2813 ZM 504 140.3906 C 504 144.75 503.75 147.4375 503.2813 148.4688 C 502.7969 149.5 501.7656 150 500.1875 150 C 498.5156 150 497.4063 149.3594 496.8438 148.0469 C 496.2813 146.7344 496 143.8438 496 139.3594 C 496 135.4375 496.3125 132.4375 496.9688 130.3438 C 497.6094 128.25 499.9531 125.6563 504 122.5625 L 504 140.3906 L 504 140.3906 Z" fill="#0068be"/>
			<path d="M 539 79 L 539 163 L 565 163 L 565 129.8125 C 565 121.6563 565.25 116.4531 565.75 114.1875 C 566.25 111.9375 567.5781 110.1719 569.7656 108.9063 C 571.9375 107.6406 575.3438 107 580 107 L 580 77 C 573 77.5 567.6719 82 564 90.5 L 565 79 L 539 79 L 539 79 Z" fill="#0068be"/>
			<path d="M 619 60 L 619 84.1406 C 616.7969 81.7656 614.3594 79.9688 611.6719 78.7813 C 608.9844 77.5938 606.0313 77 602.8125 77 C 598.625 77 595.0313 78.0469 592.0313 80.1094 C 589.0156 82.1719 587.0938 84.5781 586.25 87.3125 C 585.4063 90.0469 585 94.6719 585 101.1875 L 585 140.9375 C 585 147.2188 585.4063 151.7344 586.25 154.5 C 587.0938 157.2813 589 159.7188 591.9688 161.8281 C 594.9375 163.9375 598.4375 165 602.4844 165 C 605.4844 165 608.375 164.3125 611.125 162.9531 C 613.875 161.5938 616.5 159.5469 619 156.8281 L 619 163 L 645 163 L 645 60 L 619 60 L 619 60 ZM 619 139.2344 C 619 143.9844 618.7188 146.9531 618.1563 148.1719 C 617.5938 149.3906 616.4531 150 614.7656 150 C 613.2969 150 612.2969 149.4688 611.7813 148.375 C 611.25 147.2813 611 145.0156 611 141.5469 L 611 99.8906 C 611 96.5625 611.2656 94.4219 611.8125 93.4531 C 612.3438 92.4844 613.4063 92 614.9688 92 C 616.5625 92 617.6406 92.5469 618.1875 93.6094 C 618.7188 94.6719 619 96.7656 619 99.8906 L 619 139.2344 L 619 139.2344 Z" fill="#0068be"/>
		</g>
	</g>
</svg>