<?xml version="1.0" standalone="no"?>
<!-- Generator: Adobe Fireworks 10, Export SVG Extension by Aaron Beall (http://fireworks.abeall.com) . Version: 0.6.1  -->
<!DOCTYPE svg PUBLIC "-//W3C//DTD SVG 1.1//EN" "http://www.w3.org/Graphics/SVG/1.1/DTD/svg11.dtd">
<svg id="45.fw-P%E1gina%201" viewBox="0 0 650 210" style="background-color:#ffffff00" version="1.1"
	xmlns="http://www.w3.org/2000/svg" xmlns:xlink="http://www.w3.org/1999/xlink" xml:space="preserve"
	x="0px" y="0px" width="650px" height="210px"
>
	<g id="Camada%201">
		<g>
			<path d="M 7 159 L 32 159 L 32 121 L 38.5156 121 C 43.7969 121 48.0938 120.2656 51.375 118.7656 C 54.6563 117.2656 56.9219 115.125 58.1563 112.3438 C 59.375 109.5625 60 105.1094 60 99.0156 L 60 90.7031 C 60 84.7344 59.6719 80.3281 59.0313 77.4844 C 58.3906 74.6406 57.1719 72.2031 55.3594 70.2031 C 53.5469 68.2031 50.8281 66.6563 47.2344 65.5938 C 43.625 64.5313 38.4688 64 31.7813 64 L 7 64 L 7 159 L 7 159 ZM 37.6406 81.5156 C 38.5469 82.5313 39 84.7031 39 88.0469 L 39 96.1094 C 39 99.7344 38.6094 102.125 37.8281 103.2813 C 37.0469 104.4375 35.6406 105 33.625 105 C 33.1563 105 32.625 104.9844 32 104.9375 L 32 80 C 34.8438 80 36.7344 80.5156 37.6406 81.5156 L 37.6406 81.5156 Z" fill="#01633A"/>
			<path d="M 66 81 L 66 159 L 90 159 L 90 128.1719 C 90 120.6094 90.2344 115.7813 90.7031 113.6875 C 91.1719 111.5938 92.4219 109.9531 94.4531 108.7656 C 96.4844 107.5938 99.6563 107 104 107 L 104 80 C 97.875 80.4375 93.2188 84.3438 90 91.7188 L 90 81 L 66 81 L 66 81 Z" fill="#01633A"/>
			<path d="M 162 110.8438 C 162 103.4375 161.1406 97.6719 159.4531 93.5781 C 157.75 89.4844 154.7969 86.2031 150.5938 83.7188 C 146.375 81.25 141.0313 80 134.5625 80 C 129.25 80 124.5625 81.0469 120.4844 83.1094 C 116.4063 85.1875 113.4688 88.1719 111.6875 92.0781 C 109.8906 95.9844 109 101.2969 109 108.0469 L 109 130.5625 C 109 136.3125 109.3906 140.6875 110.2031 143.6875 C 111 146.6875 112.4375 149.4375 114.5156 151.9375 C 116.5938 154.4375 119.5 156.4063 123.2344 157.8438 C 126.9688 159.2813 131.2813 160 136.1563 160 C 141.1875 160 145.3594 159.2656 148.7031 157.7969 C 152.0313 156.3281 154.7813 154.125 156.9688 151.1875 C 159.1406 148.25 160.5156 145.4844 161.1094 142.8906 C 161.7031 140.2969 162 136.5938 162 131.7656 L 162 126 L 140 126 L 140 136.2031 C 140 140.0625 139.7344 142.6563 139.2188 144 C 138.7031 145.3438 137.6875 146 136.1563 146 C 134.9063 146 134.0781 145.5 133.6406 144.4844 C 133.2031 143.4844 133 141.2188 133 137.7188 L 133 121 L 162 121 L 162 110.8438 L 162 110.8438 ZM 133 109 L 133 103.4063 C 133 99.0938 133.1406 96.4531 133.4219 95.4688 C 133.7031 94.5 134.4375 94 135.625 94 C 136.5781 94 137.2188 94.5781 137.5313 95.7344 C 137.8438 96.8906 138 99.4531 138 103.4063 L 138 109 L 133 109 L 133 109 Z" fill="#01633A"/>
			<path d="M 170 81 L 170 159 L 193 159 L 193 105.4219 C 193 101.7031 193.0313 99.2656 193.125 98.1094 C 193.2031 96.9688 193.625 96 194.4063 95.2031 C 195.1719 94.4063 196.1094 94 197.2188 94 C 198.9688 94 200.0313 94.7656 200.4219 96.2813 C 200.7969 97.7969 201 102.3438 201 109.9063 L 201 159 L 224 159 L 224 108.625 C 224 101.9844 224.25 97.8906 224.75 96.3281 C 225.25 94.7813 226.3594 94 228.0938 94 C 229.7656 94 230.8281 94.7969 231.2969 96.3594 C 231.7656 97.9375 232 102.0313 232 108.625 L 232 159 L 255 159 L 255 103.8594 C 255 97.5156 254.625 92.9219 253.875 90.0938 C 253.125 87.2656 251.4219 84.875 248.7656 82.9219 C 246.1094 80.9844 242.75 80 238.7031 80 C 235.625 80 232.8281 80.75 230.3125 82.25 C 227.7969 83.75 225.5313 86.0156 223.5313 89.0156 C 219.8438 83.0156 214.8125 80 208.4063 80 C 205.125 80 202.2031 80.75 199.6406 82.25 C 197.0625 83.75 194.8438 86.0156 193 89.0156 L 193 81 L 170 81 L 170 81 Z" fill="#01633A"/>
			<path d="M 263 64 L 263 76 L 287 76 L 287 64 L 263 64 L 263 64 ZM 263 81 L 263 159 L 287 159 L 287 81 L 263 81 L 263 81 Z" fill="#01633A"/>
			<path d="M 349 110.8438 C 349 103.4375 348.1406 97.6719 346.4531 93.5781 C 344.75 89.4844 341.7969 86.2031 337.5938 83.7188 C 333.375 81.25 328.0313 80 321.5625 80 C 316.25 80 311.5625 81.0469 307.4844 83.1094 C 303.4063 85.1875 300.4688 88.1719 298.6875 92.0781 C 296.8906 95.9844 296 101.2969 296 108.0469 L 296 130.5625 C 296 136.3125 296.3906 140.6875 297.2031 143.6875 C 298 146.6875 299.4375 149.4375 301.5156 151.9375 C 303.5938 154.4375 306.5 156.4063 310.2344 157.8438 C 313.9688 159.2813 318.2813 160 323.1563 160 C 328.1875 160 332.3594 159.2656 335.7031 157.7969 C 339.0313 156.3281 341.7813 154.125 343.9688 151.1875 C 346.1406 148.25 347.5156 145.4844 348.1094 142.8906 C 348.7031 140.2969 349 136.5938 349 131.7656 L 349 126 L 327 126 L 327 136.2031 C 327 140.0625 326.7344 142.6563 326.2188 144 C 325.7031 145.3438 324.6875 146 323.1563 146 C 321.9063 146 321.0781 145.5 320.6406 144.4844 C 320.2031 143.4844 320 141.2188 320 137.7188 L 320 121 L 349 121 L 349 110.8438 L 349 110.8438 ZM 320 109 L 320 103.4063 C 320 99.0938 320.1406 96.4531 320.4219 95.4688 C 320.7031 94.5 321.4375 94 322.625 94 C 323.5781 94 324.2188 94.5781 324.5313 95.7344 C 324.8438 96.8906 325 99.4531 325 103.4063 L 325 109 L 320 109 L 320 109 Z" fill="#01633A"/>
			<path d="M 357 81 L 357 159 L 381 159 L 381 128.1719 C 381 120.6094 381.2344 115.7813 381.7031 113.6875 C 382.1719 111.5938 383.4219 109.9531 385.4531 108.7656 C 387.4844 107.5938 390.6563 107 395 107 L 395 80 C 388.875 80.4375 384.2188 84.3438 381 91.7188 L 381 81 L 357 81 L 357 81 Z" fill="#01633A"/>
			<path d="M 479 96.0469 C 479 87.2656 478.25 80.7813 476.7813 76.625 C 475.2969 72.4688 472.2031 68.9844 467.5156 66.1875 C 462.8125 63.4063 456.8438 62 449.625 62 C 444.2969 62 439.5781 62.9219 435.4844 64.7344 C 431.375 66.5469 428.1719 69.0469 425.8594 72.2188 C 423.5469 75.3906 422.1719 78.6875 421.7031 82.1094 C 421.2344 85.5313 421 90.6563 421 97.5 L 421 125.2656 C 421 134.5781 421.75 141.5625 423.2656 146.1875 C 424.7813 150.8281 427.875 154.4531 432.5313 157.0781 C 437.1875 159.6875 443.125 161 450.3281 161 C 457.2344 161 463.0625 159.4063 467.7813 156.25 C 472.5 153.0938 475.5469 149.4063 476.9219 145.1875 C 478.2969 140.9844 479 133.8438 479 123.7813 L 479 120 L 454 120 L 454 132.4375 C 454 137.875 453.7344 141.3281 453.2344 142.7969 C 452.7344 144.2656 451.6563 145 450.0313 145 C 448.3125 145 447.2188 144.2969 446.7344 142.8906 C 446.2344 141.4844 446 138.4531 446 133.8281 L 446 89.5938 C 446 84.7813 446.2344 81.6406 446.7344 80.1875 C 447.2188 78.7344 448.375 78 450.1875 78 C 451.7813 78 452.8281 78.5938 453.2969 79.7656 C 453.7656 80.9531 454 83.9063 454 88.6563 L 454 105 L 479 105 L 479 96.0469 L 479 96.0469 Z" fill="#01633A"/>
			<path d="M 509 103.2031 C 509 99.0469 509.1563 96.4844 509.4688 95.4844 C 509.7813 94.5 510.5781 94 511.8594 94 C 512.9844 94 513.7813 94.5938 514.2656 95.75 C 514.75 96.9219 515 99.4375 515 103.2813 C 515 106.3594 514.7344 108.4219 514.2188 109.4844 C 513.7031 110.5469 509.7813 112.5938 502.4688 115.625 C 495.6094 118.4375 491.3125 120.9063 489.5938 123.0156 C 487.8594 125.125 487 129.0781 487 134.8906 L 487 141.2656 C 487 149.1094 488.5938 154.2031 491.7813 156.5156 C 494.9688 158.8438 498.4688 160 502.2969 160 C 505.2031 160 507.7188 159.2813 509.8281 157.875 C 511.9375 156.4531 513.6563 154.3281 515 151.4844 L 515 159 L 539 159 L 539 120.0625 C 539 107.2344 538.5938 98.7656 537.7969 94.6563 C 537 90.5469 534.625 87.0781 530.6719 84.25 C 526.7031 81.4219 520.8281 80 513.0313 80 C 506.5156 80 501.2188 81.2344 497.1563 83.6875 C 493.0781 86.1563 490.3594 88.9844 489.0156 92.1875 C 487.6719 95.4063 487 99.9688 487 105.875 L 487 111 L 509 111 L 509 103.2031 L 509 103.2031 ZM 515 137.4844 C 515 141.3594 514.8125 143.7344 514.4531 144.6406 C 514.0938 145.5469 513.3281 146 512.1406 146 C 510.8906 146 510.0469 145.4219 509.625 144.2656 C 509.2031 143.1094 509 140.5469 509 136.5625 C 509 133.0938 509.2344 130.4219 509.7188 128.5625 C 510.2031 126.7188 511.9688 124.4219 515 121.6719 L 515 137.4844 L 515 137.4844 Z" fill="#01633A"/>
			<path d="M 547 81 L 547 159 L 571 159 L 571 128.1719 C 571 120.6094 571.2344 115.7813 571.7031 113.6875 C 572.1719 111.5938 573.4219 109.9531 575.4531 108.7656 C 577.4844 107.5938 580.6563 107 585 107 L 585 80 C 578.875 80.4375 574.2188 84.3438 571 91.7188 L 571 81 L 547 81 L 547 81 Z" fill="#01633A"/>
			<path d="M 620 64 L 620 86.6875 C 618.0625 84.4688 615.9063 82.7969 613.5313 81.6719 C 611.1563 80.5625 608.5625 80 605.7188 80 C 602.0313 80 598.8594 80.9531 596.2031 82.8281 C 593.5469 84.7031 591.8438 86.8906 591.1094 89.375 C 590.3594 91.8594 590 96.0625 590 102 L 590 138.125 C 590 143.8281 590.3594 147.9375 591.1094 150.4531 C 591.8438 152.9844 593.5156 155.2031 596.1406 157.125 C 598.7656 159.0313 601.8594 160 605.4219 160 C 608.0781 160 610.6094 159.3906 613.0469 158.2031 C 615.4844 157.0156 617.7969 155.2188 620 152.8281 L 620 159 L 644 159 L 644 64 L 620 64 L 620 64 ZM 620 136.3438 C 620 140.5938 619.7813 143.2656 619.3594 144.3594 C 618.9375 145.4531 618.0938 146 616.8281 146 C 615.7188 146 614.9688 145.5156 614.5781 144.5313 C 614.1875 143.5625 614 141.5156 614 138.4219 L 614 101.0625 C 614 98.0781 614.2031 96.1563 614.6094 95.2969 C 615.0156 94.4375 615.7969 94 616.9688 94 C 618.1719 94 618.9844 94.4844 619.3906 95.4375 C 619.7969 96.4063 620 98.2813 620 101.0625 L 620 136.3438 L 620 136.3438 Z" fill="#01633A"/>
		</g>
	</g>
</svg>