<?xml version="1.0" standalone="no"?>
<!-- Generator: Adobe Fireworks 10, Export SVG Extension by Aaron Beall (http://fireworks.abeall.com) . Version: 0.6.1  -->
<!DOCTYPE svg PUBLIC "-//W3C//DTD SVG 1.1//EN" "http://www.w3.org/Graphics/SVG/1.1/DTD/svg11.dtd">
<svg id="base.fw-P%E1gina%201" viewBox="0 0 155 29" style="background-color:#ffffff00" version="1.1"
	xmlns="http://www.w3.org/2000/svg" xmlns:xlink="http://www.w3.org/1999/xlink" xml:space="preserve"
	x="0px" y="0px" width="155px" height="29px"
>
	<g id="Camada%201">
		<g>
			<path d="M -0.5408 -143.8454 L -0.5408 -144 L -3 -144 L -3 20 L -0.5408 20 L -0.5408 19.8454 C -0.5408 18.0698 0.9009 16.6304 2.679 16.6304 C 4.457 16.6304 5.8983 18.0698 5.8983 19.8454 L 5.8983 20 L 8.0393 20 L 8.0393 19.8454 C 8.0393 18.0698 9.481 16.6304 11.2591 16.6304 C 13.0376 16.6304 14.4788 18.0698 14.4788 19.8454 L 14.4788 20 L 16.6198 20 L 16.6198 19.8454 C 16.6198 18.0698 18.0616 16.6304 19.8396 16.6304 C 21.6177 16.6304 23.0589 18.0698 23.0589 19.8454 L 23.0589 20 L 25.1999 20 L 25.1999 19.8454 C 25.1999 18.0698 26.6416 16.6304 28.4197 16.6304 C 30.1982 16.6304 31.6395 18.0698 31.6395 19.8454 L 31.6395 20 L 33.7805 20 L 33.7805 19.8454 C 33.7805 18.0698 35.2222 16.6304 37.0003 16.6304 C 38.7788 16.6304 40.22 18.0698 40.22 19.8454 L 40.22 20 L 42.361 20 L 42.361 19.8454 C 42.361 18.0698 43.8028 16.6304 45.5808 16.6304 C 47.3589 16.6304 48.8001 18.0698 48.8001 19.8454 L 48.8001 20 L 50.9411 20 L 50.9411 19.8454 C 50.9411 18.0698 52.3828 16.6304 54.1609 16.6304 C 55.9394 16.6304 57.3807 18.0698 57.3807 19.8454 L 57.3807 20 L 59.5217 20 L 59.5217 19.8454 C 59.5217 18.0698 60.9634 16.6304 62.7415 16.6304 C 64.5195 16.6304 65.9607 18.0698 65.9607 19.8454 L 65.9607 20 L 68.1017 20 L 68.1017 19.8454 C 68.1017 18.0698 69.5435 16.6304 71.3215 16.6304 C 73.1001 16.6304 74.5413 18.0698 74.5413 19.8454 L 74.5413 20 L 77 20 L 77 -144 L 74.5413 -144 L 74.5413 -143.8454 C 74.5413 -142.0698 73.1001 -140.6304 71.3215 -140.6304 C 69.5435 -140.6304 68.1017 -142.0698 68.1017 -143.8454 L 68.1017 -144 L 65.9607 -144 L 65.9607 -143.8454 C 65.9607 -142.0698 64.5195 -140.6304 62.7415 -140.6304 C 60.9634 -140.6304 59.5217 -142.0698 59.5217 -143.8454 L 59.5217 -144 L 57.3807 -144 L 57.3807 -143.8454 C 57.3807 -142.0698 55.9394 -140.6304 54.1609 -140.6304 C 52.3828 -140.6304 50.9411 -142.0698 50.9411 -143.8454 L 50.9411 -144 L 48.8001 -144 L 48.8001 -143.8454 C 48.8001 -142.0698 47.3589 -140.6304 45.5808 -140.6304 C 43.8028 -140.6304 42.361 -142.0698 42.361 -143.8454 L 42.361 -144 L 40.22 -144 L 40.22 -143.8454 C 40.22 -142.0698 38.7788 -140.6304 37.0003 -140.6304 C 35.2222 -140.6304 33.7805 -142.0698 33.7805 -143.8454 L 33.7805 -144 L 31.6395 -144 L 31.6395 -143.8454 C 31.6395 -142.0698 30.1982 -140.6304 28.4197 -140.6304 C 26.6416 -140.6304 25.1999 -142.0698 25.1999 -143.8454 L 25.1999 -144 L 23.0589 -144 L 23.0589 -143.8454 C 23.0589 -142.0698 21.6177 -140.6304 19.8396 -140.6304 C 18.0616 -140.6304 16.6198 -142.0698 16.6198 -143.8454 L 16.6198 -144 L 14.4788 -144 L 14.4788 -143.8454 C 14.4788 -142.0698 13.0376 -140.6304 11.2591 -140.6304 C 9.481 -140.6304 8.0393 -142.0698 8.0393 -143.8454 L 8.0393 -144 L 5.8983 -144 L 5.8983 -143.8454 C 5.8983 -142.0698 4.457 -140.6304 2.679 -140.6304 C 0.9009 -140.6304 -0.5408 -142.0698 -0.5408 -143.8454 Z" fill="#ffd37d"/>
			<path d="M 77.4592 -143.8454 L 77.4592 -144 L 75 -144 L 75 20 L 77.4592 20 L 77.4592 19.8454 C 77.4592 18.0698 78.9009 16.6304 80.679 16.6304 C 82.457 16.6304 83.8983 18.0698 83.8983 19.8454 L 83.8983 20 L 86.0393 20 L 86.0393 19.8454 C 86.0393 18.0698 87.481 16.6304 89.259 16.6304 C 91.0376 16.6304 92.4788 18.0698 92.4788 19.8454 L 92.4788 20 L 94.6198 20 L 94.6198 19.8454 C 94.6198 18.0698 96.0616 16.6304 97.8396 16.6304 C 99.6177 16.6304 101.0589 18.0698 101.0589 19.8454 L 101.0589 20 L 103.1999 20 L 103.1999 19.8454 C 103.1999 18.0698 104.6416 16.6304 106.4197 16.6304 C 108.1982 16.6304 109.6395 18.0698 109.6395 19.8454 L 109.6395 20 L 111.7805 20 L 111.7805 19.8454 C 111.7805 18.0698 113.2222 16.6304 115.0003 16.6304 C 116.7788 16.6304 118.22 18.0698 118.22 19.8454 L 118.22 20 L 120.361 20 L 120.361 19.8454 C 120.361 18.0698 121.8028 16.6304 123.5808 16.6304 C 125.3589 16.6304 126.8001 18.0698 126.8001 19.8454 L 126.8001 20 L 128.9411 20 L 128.9411 19.8454 C 128.9411 18.0698 130.3828 16.6304 132.1609 16.6304 C 133.9394 16.6304 135.3807 18.0698 135.3807 19.8454 L 135.3807 20 L 137.5217 20 L 137.5217 19.8454 C 137.5217 18.0698 138.9634 16.6304 140.7415 16.6304 C 142.5195 16.6304 143.9607 18.0698 143.9607 19.8454 L 143.9607 20 L 146.1017 20 L 146.1017 19.8454 C 146.1017 18.0698 147.5435 16.6304 149.3215 16.6304 C 151.1001 16.6304 152.5413 18.0698 152.5413 19.8454 L 152.5413 20 L 155 20 L 155 -144 L 152.5413 -144 L 152.5413 -143.8454 C 152.5413 -142.0698 151.1001 -140.6304 149.3215 -140.6304 C 147.5435 -140.6304 146.1017 -142.0698 146.1017 -143.8454 L 146.1017 -144 L 143.9607 -144 L 143.9607 -143.8454 C 143.9607 -142.0698 142.5195 -140.6304 140.7415 -140.6304 C 138.9634 -140.6304 137.5217 -142.0698 137.5217 -143.8454 L 137.5217 -144 L 135.3807 -144 L 135.3807 -143.8454 C 135.3807 -142.0698 133.9394 -140.6304 132.1609 -140.6304 C 130.3828 -140.6304 128.9411 -142.0698 128.9411 -143.8454 L 128.9411 -144 L 126.8001 -144 L 126.8001 -143.8454 C 126.8001 -142.0698 125.3589 -140.6304 123.5808 -140.6304 C 121.8028 -140.6304 120.361 -142.0698 120.361 -143.8454 L 120.361 -144 L 118.22 -144 L 118.22 -143.8454 C 118.22 -142.0698 116.7788 -140.6304 115.0003 -140.6304 C 113.2222 -140.6304 111.7805 -142.0698 111.7805 -143.8454 L 111.7805 -144 L 109.6395 -144 L 109.6395 -143.8454 C 109.6395 -142.0698 108.1982 -140.6304 106.4197 -140.6304 C 104.6416 -140.6304 103.1999 -142.0698 103.1999 -143.8454 L 103.1999 -144 L 101.0589 -144 L 101.0589 -143.8454 C 101.0589 -142.0698 99.6177 -140.6304 97.8396 -140.6304 C 96.0616 -140.6304 94.6198 -142.0698 94.6198 -143.8454 L 94.6198 -144 L 92.4788 -144 L 92.4788 -143.8454 C 92.4788 -142.0698 91.0376 -140.6304 89.259 -140.6304 C 87.481 -140.6304 86.0393 -142.0698 86.0393 -143.8454 L 86.0393 -144 L 83.8983 -144 L 83.8983 -143.8454 C 83.8983 -142.0698 82.457 -140.6304 80.679 -140.6304 C 78.9009 -140.6304 77.4592 -142.0698 77.4592 -143.8454 Z" fill="#ffd37d"/>
		</g>
	</g>
</svg>