<?xml version="1.0" standalone="no"?>
<!DOCTYPE svg PUBLIC "-//W3C//DTD SVG 20010904//EN"
 "http://www.w3.org/TR/2001/REC-SVG-20010904/DTD/svg10.dtd">
<svg version="1.0" xmlns="http://www.w3.org/2000/svg"
 width="512.000000pt" height="512.000000pt" viewBox="0 0 512.000000 512.000000"
 preserveAspectRatio="xMidYMid meet">

<g transform="translate(0.000000,512.000000) scale(0.100000,-0.100000)"
fill="#25255B" stroke="none">
<path d="M734 4666 l-34 -34 0 -131 0 -131 980 0 980 0 0 124 c0 108 -3 126
-20 148 -47 61 -4 58 -980 58 l-892 0 -34 -34z"/>
<path d="M3270 4580 l0 -50 75 0 75 0 0 -330 c0 -319 -1 -330 -20 -342 -19
-12 -20 -24 -20 -370 l0 -358 -265 0 c-146 0 -265 2 -265 5 0 8 -169 1025
-176 1058 l-6 27 -988 0 -989 0 -5 -32 c-3 -18 -17 -143 -31 -278 -35 -341
-84 -726 -95 -753 -5 -12 -37 -54 -73 -93 -79 -89 -149 -179 -172 -223 -28
-55 2 -171 45 -171 10 0 83 33 162 74 252 131 431 180 653 179 492 -1 951
-270 1193 -698 76 -135 145 -344 167 -508 l6 -47 286 2 285 3 32 90 c65 179
136 295 260 423 218 225 525 333 854 302 131 -12 216 -37 334 -96 48 -24 90
-44 93 -44 3 0 5 157 5 348 l0 348 -27 26 c-68 62 -31 58 -580 58 l-503 0 0
354 0 355 -30 21 -30 21 0 375 0 374 -125 0 -125 0 0 -50z m-1640 -572 l45
-23 3 -370 c3 -404 1 -418 -54 -444 -17 -7 -138 -11 -373 -11 l-349 0 -32 37
-32 36 7 151 c3 83 11 192 16 241 5 50 9 131 9 180 0 115 12 156 56 194 l35
31 312 0 c304 0 314 -1 357 -22z m787 11 c91 -16 105 -36 126 -180 9 -63 46
-312 83 -554 37 -249 63 -457 61 -478 -6 -47 -39 -84 -87 -98 -20 -6 -90 -9
-160 -7 l-125 3 -83 52 c-98 62 -255 181 -329 250 l-53 49 0 441 c0 426 1 441
20 466 20 25 85 52 145 60 68 9 343 6 402 -4z"/>
<path d="M1108 2771 c-55 -8 -59 -11 -73 -54 -9 -29 -18 -35 -105 -64 -122
-40 -139 -40 -175 -3 -16 17 -34 30 -41 30 -23 0 -190 -89 -214 -115 -22 -23
-23 -28 -11 -60 17 -49 9 -65 -65 -134 -91 -85 -105 -94 -138 -81 -64 24 -90
4 -143 -107 -51 -111 -52 -126 -9 -151 20 -12 36 -27 36 -34 0 -7 -17 -63 -37
-125 -36 -109 -39 -113 -73 -124 -59 -19 -60 -22 -60 -144 0 -63 3 -121 6
-130 4 -9 25 -25 48 -35 41 -17 41 -19 80 -136 l39 -118 -38 -31 c-43 -36 -42
-40 7 -139 66 -132 87 -150 142 -125 22 10 31 7 73 -24 26 -20 70 -58 97 -86
49 -50 49 -51 38 -88 -10 -34 -9 -40 11 -62 25 -27 158 -117 188 -126 14 -5
31 3 59 29 l39 35 68 -19 c168 -48 156 -42 180 -93 l23 -47 128 0 129 0 23 50
c17 37 31 52 49 57 14 3 65 16 113 28 l86 23 29 -36 29 -36 77 37 c42 20 98
50 123 68 41 28 45 35 41 63 -2 17 -7 39 -11 48 -6 12 8 32 51 75 32 32 75 71
95 86 34 27 39 28 78 16 34 -10 43 -10 55 2 15 16 125 218 125 231 0 4 -16 18
-35 30 -19 13 -35 29 -35 36 0 8 14 63 32 123 l32 110 43 19 c24 10 43 21 43
23 0 2 5 29 10 58 6 30 8 88 4 130 l-6 77 -38 6 c-21 3 -43 12 -49 20 -7 8
-25 63 -41 123 l-28 108 34 35 c19 20 34 39 34 43 0 3 -30 57 -68 118 l-67
111 -38 -6 c-33 -6 -45 -2 -85 28 -26 19 -71 59 -100 89 -47 48 -53 57 -43 75
32 59 8 88 -137 162 l-83 43 -37 -36 -38 -37 -49 19 c-28 11 -73 22 -100 26
-96 12 -95 12 -95 53 0 20 -4 42 -8 48 -9 14 -161 24 -224 15z m221 -626 c150
-36 300 -150 368 -280 172 -331 -17 -747 -382 -840 -300 -76 -624 135 -690
450 -18 88 -18 132 0 220 58 272 287 462 560 464 44 0 109 -6 144 -14z"/>
<path d="M1092 1831 c-106 -36 -161 -118 -162 -237 0 -125 66 -217 179 -251
221 -64 418 167 313 368 -60 116 -197 166 -330 120z"/>
<path d="M4060 2309 c-13 -27 -28 -37 -94 -60 -98 -35 -103 -35 -137 -3 l-27
26 -89 -52 c-48 -30 -90 -55 -92 -56 -2 -2 2 -17 9 -34 12 -29 11 -33 -21 -67
-19 -19 -56 -53 -83 -75 -41 -33 -55 -39 -80 -34 -30 6 -33 3 -78 -79 -27 -47
-48 -88 -48 -92 0 -4 12 -19 26 -34 l27 -28 -33 -90 c-27 -75 -38 -94 -65
-110 -28 -16 -34 -26 -40 -70 -4 -28 -4 -74 0 -102 6 -44 12 -54 40 -70 28
-17 37 -33 60 -105 l28 -84 -21 -23 c-12 -13 -22 -31 -22 -41 0 -22 30 -80 70
-134 28 -39 35 -43 65 -40 32 3 40 -3 100 -71 52 -60 65 -81 65 -107 0 -29 7
-39 48 -69 26 -19 66 -44 90 -56 l43 -21 33 31 32 31 87 -26 c85 -27 88 -28
99 -66 l11 -38 103 0 104 0 18 36 c17 33 27 39 112 66 l94 30 26 -30 25 -30
65 39 c97 59 123 84 117 115 -4 21 8 39 65 99 59 62 73 73 88 65 48 -26 80 0
134 107 31 63 32 74 6 98 -11 10 -20 26 -20 37 0 27 39 163 48 166 4 1 22 11
40 22 l32 20 0 95 0 96 -34 20 c-36 21 -70 92 -82 171 -6 36 -4 42 21 62 l28
22 -42 81 c-55 106 -70 120 -113 102 l-32 -13 -68 75 c-59 64 -68 79 -68 112
0 36 -4 40 -76 87 -42 28 -83 50 -91 50 -7 0 -27 -10 -43 -21 -32 -24 -66 -22
-154 12 -38 14 -55 27 -67 52 l-16 32 -104 3 -104 2 -15 -31z m282 -458 c124
-48 241 -165 289 -289 12 -32 24 -90 27 -134 23 -360 -356 -614 -684 -458
-393 188 -343 778 77 895 77 21 217 15 291 -14z"/>
<path d="M4071 1604 c-130 -65 -160 -244 -60 -357 96 -110 281 -99 364 21 40
58 48 167 17 228 -63 123 -199 168 -321 108z"/>
</g>
</svg>
