<?xml version="1.0" standalone="no"?>
<!DOCTYPE svg PUBLIC "-//W3C//DTD SVG 20010904//EN"
 "http://www.w3.org/TR/2001/REC-SVG-20010904/DTD/svg10.dtd">
<svg version="1.0" xmlns="http://www.w3.org/2000/svg"
 width="512.000000pt" height="512.000000pt" viewBox="0 0 512.000000 512.000000"
 preserveAspectRatio="xMidYMid meet">

<g transform="translate(0.000000,512.000000) scale(0.100000,-0.100000)"
fill="#25255B" stroke="none">
<path d="M620 2730 l0 -2380 -135 0 -135 0 0 -170 0 -170 1525 0 1525 0 0 170
0 170 -135 0 -135 0 0 1116 0 1116 28 -6 c45 -11 129 -74 202 -154 l70 -74 0
-722 c0 -779 0 -777 54 -884 76 -149 248 -280 431 -327 77 -20 221 -19 299 1
164 42 327 177 405 334 80 164 79 124 37 1142 -20 491 -39 939 -43 996 l-6
102 87 0 86 0 0 50 c0 217 -156 555 -382 825 -260 312 -616 542 -895 580 l-53
7 0 -124 0 -125 38 -11 c59 -18 222 -104 298 -158 98 -69 230 -205 297 -305
103 -155 194 -373 232 -559 47 -223 46 -206 72 -1426 l16 -790 -23 -50 c-32
-66 -113 -145 -191 -185 -125 -65 -251 -40 -359 71 -26 27 -59 73 -74 101
l-26 53 0 710 c-1 654 -2 715 -18 762 -44 127 -157 259 -305 358 -84 56 -229
126 -261 126 -15 0 -16 99 -16 1105 l0 1105 -1255 0 -1255 0 0 -2380z m2140
1285 l0 -695 -890 0 -890 0 0 695 0 695 890 0 890 0 0 -695z"/>
</g>
</svg>
