<?xml version="1.0" standalone="no"?>
<!DOCTYPE svg PUBLIC "-//W3C//DTD SVG 20010904//EN"
 "http://www.w3.org/TR/2001/REC-SVG-20010904/DTD/svg10.dtd">
<svg version="1.0" xmlns="http://www.w3.org/2000/svg"
 width="512.000000pt" height="512.000000pt" viewBox="0 0 512.000000 512.000000"
 preserveAspectRatio="xMidYMid meet">

<g transform="translate(0.000000,512.000000) scale(0.100000,-0.100000)"
fill="#25255B" stroke="none">
<path d="M1031 5105 c-283 -62 -490 -322 -491 -618 0 -250 131 -468 346 -573
126 -60 201 -74 417 -74 l189 0 68 -63 c81 -75 145 -111 231 -132 175 -41 352
9 497 141 l60 54 836 0 835 0 37 -32 c21 -18 55 -60 76 -92 l38 -59 0 -119 0
-118 211 0 211 0 -4 173 c-4 163 -5 176 -34 248 -80 199 -245 358 -419 403
-47 13 -118 16 -336 16 l-276 0 -6 57 c-14 134 -145 305 -271 352 -53 20 -76
21 -362 21 l-306 0 -66 60 c-116 104 -229 150 -373 150 -141 0 -233 -29 -333
-106 -26 -20 -49 -34 -50 -32 -2 1 -11 17 -19 34 -29 57 -107 143 -171 189
-166 118 -351 159 -535 120z"/>
<path d="M4168 2565 l-3 -634 -428 309 c-235 171 -429 310 -432 310 -3 0 -6
-139 -7 -309 l-3 -310 -412 310 c-227 170 -415 309 -418 309 -2 0 -6 -139 -7
-309 l-3 -310 -418 310 c-229 170 -419 309 -422 309 -3 0 -6 -139 -7 -310 l-3
-309 -422 309 c-232 171 -425 310 -428 310 -3 0 -5 -574 -5 -1275 l0 -1275
640 0 640 0 0 320 0 320 640 0 640 0 0 -320 0 -320 640 0 640 0 0 1600 0 1600
-210 0 -210 0 -2 -635z m-2568 -1285 l0 -210 -210 0 -210 0 0 210 0 210 210 0
210 0 0 -210z m850 0 l0 -210 -205 0 -205 0 0 210 0 210 205 0 205 0 0 -210z
m850 0 l0 -210 -205 0 -205 0 0 210 0 210 205 0 205 0 0 -210z m860 0 l0 -210
-210 0 -210 0 0 210 0 210 210 0 210 0 0 -210z"/>
</g>
</svg>
