<?xml version="1.0" standalone="no"?>
<!DOCTYPE svg PUBLIC "-//W3C//DTD SVG 20010904//EN"
 "http://www.w3.org/TR/2001/REC-SVG-20010904/DTD/svg10.dtd">
<svg version="1.0" xmlns="http://www.w3.org/2000/svg"
 width="512.000000pt" height="512.000000pt" viewBox="0 0 512.000000 512.000000"
 preserveAspectRatio="xMidYMid meet">

<g transform="translate(0.000000,512.000000) scale(0.100000,-0.100000)"
fill="#25255B" stroke="none">
<path d="M2025 4303 c-202 -18 -611 -80 -758 -114 -77 -18 -96 -27 -157 -76
-159 -127 -247 -274 -392 -658 -33 -88 -62 -162 -63 -163 -2 -2 -25 24 -52 58
l-48 63 -110 -6 c-193 -11 -352 -53 -407 -108 -32 -31 -37 -82 -14 -128 22
-42 95 -104 173 -146 l71 -39 -69 -73 c-105 -111 -148 -209 -174 -403 -30
-217 -29 -375 4 -798 22 -275 31 -457 31 -610 0 -245 -4 -230 80 -281 34 -20
47 -21 412 -21 l376 0 31 26 c28 24 37 43 71 164 6 24 11 25 141 37 76 6 556
16 1104 23 978 11 1291 7 1654 -22 173 -14 171 -13 171 -102 0 -46 15 -66 80
-105 34 -20 47 -21 398 -21 404 0 393 -2 450 68 l32 41 0 205 c0 146 8 287 26
483 35 358 39 701 11 868 -39 230 -108 398 -197 478 l-48 43 71 39 c172 94
233 204 154 279 -37 35 -98 59 -202 81 -82 17 -271 31 -307 22 -15 -4 -39 -28
-62 -63 -21 -31 -39 -54 -41 -52 -1 1 -42 95 -90 208 -134 317 -201 432 -337
575 -43 46 -98 93 -121 104 -30 14 -126 32 -327 60 -488 69 -527 71 -1052 69
-260 -1 -491 -3 -513 -5z m1050 -258 c316 -24 583 -61 715 -101 74 -22 103
-56 197 -237 81 -154 218 -455 212 -462 -3 -2 -186 8 -409 21 -400 25 -418 25
-1385 19 -811 -6 -1023 -10 -1230 -25 -137 -11 -251 -17 -254 -15 -7 8 79 227
139 350 65 134 145 260 199 314 43 43 86 57 207 70 49 6 133 17 186 25 53 8
181 22 285 30 103 9 204 17 223 19 108 11 735 5 915 -8z m-2375 -1701 c147
-18 304 -51 356 -74 96 -41 153 -190 97 -252 -15 -17 -39 -18 -306 -18 -276 0
-293 1 -335 21 -24 12 -54 37 -67 58 -32 47 -73 149 -81 199 -5 35 -3 44 21
68 26 26 28 26 113 20 48 -4 139 -14 202 -22z m4032 -4 c26 -27 29 -35 23 -67
-12 -63 -68 -166 -121 -220 l-50 -53 -299 0 c-293 0 -299 0 -322 22 -54 50 -2
197 86 242 61 32 252 69 486 95 148 16 163 14 197 -19z m-3466 -603 c20 -18
25 -29 20 -45 -16 -48 -44 -52 -352 -52 l-287 0 -34 26 c-36 27 -42 54 -17 78
13 14 57 16 329 16 313 0 314 0 341 -23z m3258 1 c22 -31 20 -45 -9 -73 l-24
-25 -307 0 c-302 0 -308 0 -331 22 -28 26 -29 52 -3 78 19 19 33 20 339 20
319 0 320 0 335 -22z"/>
</g>
</svg>
