<?xml version="1.0" standalone="no"?>
<!DOCTYPE svg PUBLIC "-//W3C//DTD SVG 20010904//EN"
 "http://www.w3.org/TR/2001/REC-SVG-20010904/DTD/svg10.dtd">
<svg version="1.0" xmlns="http://www.w3.org/2000/svg"
 width="512.000000pt" height="512.000000pt" viewBox="0 0 512.000000 512.000000"
 preserveAspectRatio="xMidYMid meet">

<g transform="translate(0.000000,512.000000) scale(0.100000,-0.100000)"
fill="#25255B" stroke="none">
<path d="M2730 4966 l0 -115 -32 -25 c-18 -13 -62 -36 -98 -51 -70 -29 -100
-48 -171 -107 -25 -21 -53 -38 -63 -38 -10 0 -60 25 -111 55 -52 30 -98 55
-104 55 -14 0 -199 -316 -190 -325 2 -2 45 -26 94 -55 137 -78 132 -71 112
-184 -15 -86 -15 -102 -2 -173 24 -123 29 -113 -95 -194 -60 -39 -108 -74
-106 -78 36 -70 180 -311 184 -311 4 0 54 27 112 60 58 33 110 58 116 56 6 -2
43 -27 82 -56 38 -28 105 -65 148 -81 123 -47 124 -49 124 -196 l0 -123 190 0
190 0 0 124 0 125 111 58 c60 32 137 80 170 106 l60 48 116 -61 c110 -58 118
-60 131 -43 18 25 172 291 172 297 0 3 -44 34 -97 69 -54 35 -104 71 -111 80
-11 13 -10 31 3 106 16 85 16 97 0 188 l-16 98 27 21 c15 12 65 43 111 69 63
35 83 52 78 63 -12 31 -157 287 -171 302 -12 12 -19 11 -51 -8 -21 -13 -72
-40 -114 -62 l-77 -39 -68 59 c-49 43 -96 71 -169 103 l-100 43 -3 127 -3 127
-189 0 -190 0 0 -114z m364 -494 c176 -82 279 -271 247 -453 -37 -211 -221
-369 -431 -369 -191 0 -359 131 -410 319 -16 60 -14 186 5 247 36 121 141 228
264 272 56 19 81 22 162 19 82 -3 106 -8 163 -35z"/>
<path d="M765 3679 c-33 -11 -97 -38 -142 -59 -62 -29 -83 -44 -83 -58 0 -11
16 -63 35 -115 l34 -96 -138 -125 -139 -126 -78 24 c-44 13 -92 29 -108 35
-16 6 -30 10 -31 9 -1 -2 -27 -67 -58 -145 -58 -143 -67 -183 -44 -183 22 0
141 -61 167 -85 25 -24 25 -26 16 -104 -6 -51 -6 -114 0 -172 11 -105 20 -93
-119 -168 -42 -23 -77 -48 -77 -55 0 -10 105 -278 115 -293 1 -2 39 10 86 26
148 51 126 58 276 -87 l132 -127 -35 -104 c-19 -57 -34 -110 -32 -118 3 -15
286 -138 296 -128 3 3 29 52 56 108 49 98 52 102 81 99 17 -2 103 -6 193 -9
141 -4 164 -7 169 -21 13 -37 82 -182 87 -182 3 0 72 29 153 65 115 50 148 68
147 82 -1 10 -16 58 -33 106 l-32 88 30 38 c16 20 76 81 132 135 116 112 105
109 239 57 41 -16 78 -26 82 -23 10 10 128 284 128 297 0 6 -33 26 -74 44 -40
18 -86 45 -102 62 l-28 29 2 138 c2 75 -2 151 -7 169 -12 41 -3 49 117 104 50
23 92 45 92 50 0 4 -15 43 -34 86 -19 43 -44 105 -56 138 -13 33 -26 63 -29
68 -4 4 -57 -9 -118 -30 l-110 -37 -39 32 c-40 33 -187 192 -210 228 -13 19
-10 33 21 124 20 56 33 106 28 110 -4 4 -70 32 -147 64 -93 39 -142 54 -149
47 -5 -5 -33 -52 -62 -103 l-52 -93 -39 2 c-54 3 -240 3 -289 0 l-40 -2 -50
103 c-27 56 -54 102 -60 102 -5 -1 -37 -10 -70 -21z m435 -650 c234 -38 413
-258 397 -489 -10 -145 -90 -283 -214 -365 -85 -58 -159 -80 -258 -78 -310 5
-536 312 -445 605 60 194 225 321 435 336 11 1 49 -3 85 -9z"/>
<path d="M3436 3023 c-3 -10 -17 -83 -31 -163 -14 -80 -28 -155 -31 -167 -3
-15 -14 -24 -36 -29 -63 -13 -210 -74 -278 -115 l-69 -41 -152 107 -152 107
-131 -129 c-72 -70 -132 -129 -134 -130 -2 -1 20 -32 50 -70 81 -101 158 -214
158 -231 0 -8 -15 -40 -34 -71 -38 -63 -76 -157 -101 -248 -20 -71 1 -61 -225
-103 -63 -11 -125 -23 -137 -26 -23 -4 -23 -6 -23 -184 l0 -179 38 -7 c76 -13
325 -64 327 -67 1 -1 17 -47 35 -102 17 -55 52 -135 76 -177 24 -43 44 -84 44
-92 0 -17 -64 -113 -151 -228 l-58 -76 130 -126 c71 -69 134 -126 140 -126 6
0 75 45 154 100 l143 100 73 -39 c41 -21 126 -56 189 -76 63 -21 116 -38 117
-39 1 -1 41 -228 59 -334 l5 -32 184 0 c102 0 185 2 185 4 0 9 61 332 66 348
3 11 43 29 116 54 61 20 146 54 190 76 l78 39 144 -105 c79 -58 148 -106 154
-106 12 0 252 251 252 264 0 4 -46 74 -101 153 l-101 145 40 86 c22 48 56 130
76 182 20 52 40 101 44 108 6 9 308 69 360 72 1 0 2 81 2 180 0 99 -1 180 -2
180 -22 2 -360 70 -362 72 0 2 -14 41 -29 88 -15 47 -51 131 -78 187 l-51 103
101 144 c56 80 101 149 101 155 0 6 -57 69 -127 141 l-128 130 -148 -111 -148
-110 -52 32 c-53 32 -112 57 -252 104 -44 14 -81 27 -82 28 -1 2 -13 72 -28
157 -14 85 -28 167 -31 183 l-6 27 -178 0 c-162 0 -179 -2 -184 -17z m329
-868 c303 -77 511 -355 492 -659 -21 -348 -334 -626 -681 -603 -50 4 -112 13
-138 21 -271 85 -458 338 -458 621 0 177 59 315 190 445 93 94 183 147 295
174 80 19 226 20 300 1z"/>
</g>
</svg>
