<?xml version="1.0" standalone="no"?>
<!DOCTYPE svg PUBLIC "-//W3C//DTD SVG 20010904//EN"
 "http://www.w3.org/TR/2001/REC-SVG-20010904/DTD/svg10.dtd">
<svg version="1.0" xmlns="http://www.w3.org/2000/svg"
 width="512.000000pt" height="512.000000pt" viewBox="0 0 512.000000 512.000000"
 preserveAspectRatio="xMidYMid meet">

<g transform="translate(0.000000,512.000000) scale(0.100000,-0.100000)"
fill="#25255B" stroke="none">
<path d="M0 4635 l0 -265 340 0 339 0 14 -52 c8 -29 72 -314 142 -633 136
-622 396 -1779 498 -2220 l62 -270 1708 -3 1707 -2 0 265 0 265 -1490 0 -1489
0 -5 33 c-3 17 -14 89 -26 158 -11 70 -20 132 -20 138 0 8 371 11 1339 11
1094 0 1341 2 1349 13 15 17 118 352 348 1122 102 341 212 706 245 812 64 207
71 256 40 273 -13 7 -633 10 -1934 10 l-1914 0 -22 103 c-12 56 -44 192 -70
302 l-48 200 -557 3 -556 2 0 -265z"/>
<path d="M1602 994 c-72 -19 -107 -39 -162 -90 -154 -144 -146 -455 15 -603
78 -72 121 -86 260 -86 113 0 124 2 180 29 152 75 235 226 222 407 -9 132 -74
241 -180 303 -90 53 -227 69 -335 40z"/>
<path d="M4246 991 c-70 -24 -155 -80 -191 -127 -14 -19 -38 -60 -53 -92 -24
-50 -27 -69 -26 -157 0 -118 22 -186 86 -266 80 -102 179 -143 326 -137 87 3
104 7 159 37 78 42 156 123 191 198 21 45 27 77 30 145 8 186 -65 312 -224
385 -79 36 -212 42 -298 14z"/>
</g>
</svg>
