<?xml version="1.0" standalone="no"?>
<!-- Generator: Adobe Fireworks 10, Export SVG Extension by Aaron Beall (http://fireworks.abeall.com) . Version: 0.6.1  -->
<!DOCTYPE svg PUBLIC "-//W3C//DTD SVG 1.1//EN" "http://www.w3.org/Graphics/SVG/1.1/DTD/svg11.dtd">
<svg id="21.fw-P%E1gina%201" viewBox="0 0 519 210" style="background-color:#ffffff00" version="1.1"
	xmlns="http://www.w3.org/2000/svg" xmlns:xlink="http://www.w3.org/1999/xlink" xml:space="preserve"
	x="0px" y="0px" width="519px" height="210px"
>
	<g id="Camada%201">
		<g>
			<path d="M 24.25 25 L 3 183 L 45.75 183 L 47.9531 155 L 63.0313 155 L 65.25 183 L 107 183 L 83.75 25 L 24.25 25 L 24.25 25 ZM 47.9063 127 L 55.5 59.3281 L 62.0781 127 L 47.9063 127 L 47.9063 127 Z" fill="#000000"/>
			<path d="M 107 25 L 107 57 L 131 57 L 131 183 L 172 183 L 172 57 L 197 57 L 197 25 L 107 25 L 107 25 Z" fill="#000000"/>
			<path d="M 206 183 L 247 183 L 247 117 L 273 117 L 273 87 L 247 87 L 247 57 L 276 57 L 276 25 L 206 25 L 206 183 L 206 183 Z" fill="#000000"/>
			<path d="M 286 183 L 327 183 L 327 119 L 337.9219 119 C 346.8281 119 354.0313 117.7813 359.5469 115.3125 C 365.0469 112.8438 368.8438 109.3125 370.9063 104.7188 C 372.9688 100.125 374 92.7969 374 82.7344 L 374 69.0313 C 374 59.1875 373.4531 51.9219 372.3906 47.2188 C 371.3281 42.5313 369.2813 38.5313 366.2813 35.2188 C 363.2813 31.9063 358.7813 29.375 352.7969 27.625 C 346.8125 25.875 338.2656 25 327.1406 25 L 286 25 L 286 183 L 286 183 ZM 337.4688 54.4219 C 339.1563 56.0469 340 59.5313 340 64.875 L 340 77.7656 C 340 83.5781 339.2656 87.4063 337.8125 89.25 C 336.3594 91.0938 333.75 92 330 92 C 329.1563 92 328.1563 91.9688 327 91.9063 L 327 52 C 332.2969 52 335.7813 52.8125 337.4688 54.4219 L 337.4688 54.4219 Z" fill="#000000"/>
			<path d="M 459.25 25 L 449.5 98.7813 L 443.125 58.6875 L 437.75 25 L 386 25 L 386 183 L 422 183 L 422.5 78.3281 L 437 183 L 462 183 L 476.5 76.3281 L 477 183 L 513 183 L 513 25 L 459.25 25 L 459.25 25 Z" fill="#000000"/>
			<path d="M 529 183 L 576.2031 183 C 592.6094 183 603.4688 182.0625 608.7813 180.1719 C 614.0781 178.2813 617.9375 174.7656 620.3594 169.6094 C 622.7813 164.4531 624 156.5313 624 145.8281 L 624 131.1563 C 624 120.8594 622.2969 113.2188 618.9219 108.2188 C 615.5469 103.2344 609.1094 99.6563 599.625 97.5 C 608.1094 95.5625 613.7969 92.7656 616.6719 89.1406 C 619.5469 85.5156 621 79.0781 621 69.8594 C 621 56.2344 618.9531 46.3594 614.8906 40.2344 C 610.8281 34.1094 605.4844 30.0313 598.8594 28.0156 C 592.2344 26.0156 582.5156 25 569.6719 25 L 529 25 L 529 183 L 529 183 ZM 578.2344 52.875 C 579.6406 53.4063 580.7969 54.6563 581.6719 56.625 C 582.5469 58.5938 583 62.0469 583 66.9688 C 583 76.3125 582.4531 81.9688 581.3906 83.9375 C 580.3281 85.9219 577.8438 86.9063 573.9531 86.9063 C 573.0156 86.9063 571.6875 86.9375 570 87 L 570 52 C 574.0781 52.0625 576.8281 52.3594 578.2344 52.875 L 578.2344 52.875 ZM 580.9219 114.4375 C 582.2969 115.8594 583 119.9375 583 126.6719 L 583 141.3281 C 583 147.6875 582.2188 151.6719 580.6875 153.2813 C 579.1563 154.9063 575.5938 155.8125 570 156 L 570 112 C 575.9063 112.2031 579.5469 113.0156 580.9219 114.4375 L 580.9219 114.4375 Z" fill="#000000"/>
		</g>
	</g>
</svg>