<?xml version="1.0" encoding="UTF-8" standalone="no"?><!DOCTYPE svg PUBLIC "-//W3C//DTD SVG 1.1//EN" "http://www.w3.org/Graphics/SVG/1.1/DTD/svg11.dtd"><svg width="100%" height="100%" viewBox="0 0 80 82" version="1.1" xmlns="http://www.w3.org/2000/svg" xmlns:xlink="http://www.w3.org/1999/xlink" xml:space="preserve" style="fill-rule:evenodd;clip-rule:evenodd;stroke-linejoin:round;stroke-miterlimit:1.41421;"><g id="LiderCard---Logo"><g id="Camada-1"><path d="M12.221,0l-12.221,12.222l0,69.74l67.779,0l12.221,-12.221l0,-69.741l-67.779,0Z" style="fill:#FFFFFF;fill-rule:nonzero;"/><path d="M33.537,45.92c-0.774,0 -1.498,0.123 -2.171,0.367c-0.674,0.245 -1.258,0.61 -1.753,1.095c-0.495,0.486 -0.886,1.089 -1.172,1.809c-0.286,0.72 -0.429,1.559 -0.429,2.517c0,0.951 0.133,1.776 0.398,2.475c0.265,0.699 0.641,1.278 1.13,1.736c0.488,0.458 1.075,0.798 1.763,1.018c0.686,0.221 1.452,0.331 2.296,0.331c0.23,0 0.474,-0.012 0.732,-0.036c0.258,-0.024 0.518,-0.059 0.779,-0.104c0.262,-0.045 0.516,-0.096 0.764,-0.155c0.248,-0.058 0.469,-0.122 0.664,-0.191l0,1.488c-0.406,0.159 -0.878,0.281 -1.415,0.367c-0.538,0.086 -1.089,0.129 -1.654,0.129c-1.151,0 -2.17,-0.16 -3.059,-0.48c-0.889,-0.321 -1.635,-0.78 -2.237,-1.38c-0.604,-0.599 -1.06,-1.331 -1.37,-2.196c-0.31,-0.865 -0.465,-1.845 -0.465,-2.94c0,-1.075 0.164,-2.064 0.491,-2.966c0.327,-0.903 0.799,-1.678 1.416,-2.326c0.616,-0.647 1.364,-1.152 2.243,-1.514c0.878,-0.361 1.865,-0.542 2.96,-0.542c0.29,0 0.575,0.012 0.858,0.036c0.283,0.024 0.553,0.058 0.811,0.103c0.259,0.045 0.498,0.098 0.719,0.16c0.22,0.062 0.409,0.128 0.568,0.197l0,1.488c-0.419,-0.138 -0.875,-0.253 -1.371,-0.346c-0.495,-0.093 -0.994,-0.14 -1.496,-0.14" style="fill:#01579B;fill-rule:nonzero;"/><path d="M43.516,46.83c-0.617,1.721 -1.206,3.285 -1.768,4.692l-0.516,1.302l4.583,0l-0.525,-1.301c-0.567,-1.432 -1.145,-2.997 -1.733,-4.693l-0.041,0Zm-6.346,11.678l5.633,-13.828l1.457,0l5.632,13.828l-1.829,0l-1.651,-4.165l-5.782,0l-1.651,4.165l-1.809,0Z" style="fill:#01579B;fill-rule:nonzero;"/><path d="M52.209,46.199l0,5.064l1.663,0c0.517,0 0.958,-0.017 1.324,-0.051c0.365,-0.035 0.692,-0.097 0.981,-0.186c0.586,-0.18 1.037,-0.466 1.354,-0.858c0.317,-0.393 0.476,-0.906 0.476,-1.54c-0.008,-0.593 -0.159,-1.07 -0.455,-1.431c-0.297,-0.362 -0.707,-0.622 -1.23,-0.781c-0.248,-0.076 -0.544,-0.13 -0.889,-0.165c-0.345,-0.034 -0.782,-0.052 -1.313,-0.052l-1.911,0Zm0,6.583l0,5.726l-1.685,0l0,-13.828l3.582,0c0.606,0 1.12,0.022 1.544,0.067c0.423,0.045 0.81,0.116 1.161,0.212c0.963,0.262 1.7,0.708 2.209,1.338c0.509,0.631 0.764,1.418 0.764,2.362c0,0.558 -0.09,1.058 -0.269,1.498c-0.179,0.441 -0.43,0.824 -0.754,1.148c-0.324,0.324 -0.712,0.589 -1.163,0.796c-0.451,0.206 -0.952,0.358 -1.504,0.454l0,0.042l4.093,5.911l-1.684,0l-4.258,-5.726l-2.036,0Z" style="fill:#01579B;fill-rule:nonzero;"/><path d="M70.558,51.532c0,-1.33 -0.293,-2.408 -0.88,-3.235c-0.586,-0.827 -1.427,-1.412 -2.524,-1.757c-0.419,-0.131 -0.886,-0.22 -1.403,-0.268c-0.516,-0.049 -1.099,-0.073 -1.749,-0.073l-1.288,0l0,10.79l1.288,0c0.65,0 1.233,-0.024 1.749,-0.072c0.517,-0.049 0.984,-0.138 1.403,-0.269c1.097,-0.345 1.938,-0.947 2.524,-1.809c0.587,-0.861 0.88,-1.963 0.88,-3.307m1.674,0c0,0.806 -0.1,1.564 -0.299,2.274c-0.2,0.709 -0.502,1.348 -0.905,1.917c-0.403,0.568 -0.906,1.059 -1.508,1.473c-0.603,0.413 -1.308,0.733 -2.114,0.961c-0.462,0.131 -0.961,0.222 -1.499,0.273c-0.537,0.052 -1.119,0.078 -1.746,0.078l-3.131,0l0,-13.828l3.162,0c0.627,0 1.209,0.026 1.746,0.077c0.538,0.052 1.037,0.144 1.499,0.274c0.806,0.228 1.511,0.545 2.114,0.951c0.602,0.407 1.102,0.887 1.498,1.442c0.396,0.554 0.693,1.178 0.889,1.87c0.196,0.693 0.294,1.439 0.294,2.238" style="fill:#01579B;fill-rule:nonzero;"/><path d="M11.226,22.72l0,15.913l8.792,0l0,2.879l-12.233,0l0,-18.792l3.441,0Z" style="fill:#01579B;fill-rule:nonzero;"/><path d="M31.76,38.633c2.013,0 3.586,-0.276 4.718,-0.829c1.002,-0.496 1.761,-1.217 2.276,-2.163c0.515,-0.945 0.772,-2.153 0.772,-3.623c0,-0.768 -0.084,-1.461 -0.253,-2.079c-0.168,-0.618 -0.412,-1.168 -0.73,-1.65c-0.318,-0.482 -0.705,-0.897 -1.159,-1.243c-0.454,-0.346 -0.966,-0.632 -1.538,-0.857c-0.533,-0.206 -1.128,-0.355 -1.783,-0.449c-0.656,-0.093 -1.391,-0.14 -2.205,-0.14l-1.517,0l0,13.033l1.419,0Zm-4.86,2.879l0,-18.792l4.972,0c0.44,0 0.887,0.014 1.341,0.042c0.454,0.028 0.897,0.07 1.327,0.127c0.431,0.056 0.848,0.124 1.25,0.204c0.403,0.079 0.773,0.175 1.11,0.287c1.001,0.319 1.886,0.75 2.654,1.292c0.768,0.544 1.412,1.185 1.931,1.925c0.52,0.739 0.913,1.565 1.18,2.478c0.267,0.913 0.4,1.903 0.4,2.971c0,1.011 -0.112,1.959 -0.337,2.844c-0.224,0.885 -0.566,1.692 -1.025,2.423c-0.459,0.73 -1.037,1.374 -1.735,1.931c-0.697,0.557 -1.523,1.013 -2.478,1.369c-0.796,0.3 -1.7,0.525 -2.711,0.674c-1.011,0.15 -2.149,0.225 -3.413,0.225l-4.466,0Z" style="fill:#01579B;fill-rule:nonzero;"/><path d="M47.797,38.633l9.241,0l0,2.879l-12.682,0l0,-18.792l12.176,0l0,2.88l-8.735,0l0,4.859l7.499,0l0,2.879l-7.499,0l0,5.295Z" style="fill:#01579B;fill-rule:nonzero;"/><path d="M63.469,31.358c0.786,0 1.453,-0.036 2.001,-0.106c0.548,-0.07 1.009,-0.175 1.383,-0.315c0.693,-0.263 1.173,-0.621 1.44,-1.075c0.267,-0.454 0.4,-0.976 0.4,-1.566c0,-0.505 -0.105,-0.953 -0.316,-1.341c-0.21,-0.389 -0.569,-0.695 -1.074,-0.92c-0.328,-0.15 -0.74,-0.26 -1.236,-0.33c-0.497,-0.07 -1.11,-0.106 -1.84,-0.106l-2.458,0l0,5.759l1.7,0Zm8.763,-2.992c0,1.311 -0.363,2.423 -1.088,3.336c-0.726,0.913 -1.847,1.589 -3.364,2.029l0,0.057l5.59,7.724l-4.129,0l-5.112,-7.275l-2.36,0l0,7.275l-3.441,0l0,-18.792l5.716,0c0.946,0 1.826,0.054 2.641,0.162c0.814,0.107 1.512,0.269 2.093,0.484c1.104,0.422 1.956,1.047 2.556,1.875c0.599,0.829 0.898,1.871 0.898,3.125" style="fill:#01579B;fill-rule:nonzero;"/><rect x="21.738" y="22.72" width="3.441" height="18.792" style="fill:#01579B;fill-rule:nonzero;"/><rect x="7.785" y="43.946" width="14.929" height="15.296" style="fill:#01579B;fill-rule:nonzero;"/><path d="M20.871,53.101c-0.138,0.517 0.101,1.192 -0.162,1.645c-0.266,0.46 -0.972,0.589 -1.345,0.962c-0.373,0.373 -0.502,1.079 -0.962,1.345c-0.453,0.263 -1.128,0.024 -1.646,0.162c-0.5,0.134 -0.963,0.682 -1.506,0.682c-0.543,0 -1.006,-0.548 -1.507,-0.682c-0.517,-0.138 -1.192,0.101 -1.645,-0.162c-0.46,-0.266 -0.589,-0.972 -0.962,-1.345c-0.374,-0.373 -1.08,-0.502 -1.346,-0.962c-0.262,-0.453 -0.023,-1.128 -0.162,-1.645c-0.133,-0.501 -0.681,-0.964 -0.681,-1.507c0,-0.543 0.548,-1.006 0.681,-1.507c0.139,-0.517 -0.1,-1.192 0.162,-1.645c0.266,-0.46 0.973,-0.589 1.346,-0.962c0.373,-0.373 0.502,-1.079 0.962,-1.345c0.453,-0.263 1.128,-0.024 1.645,-0.162c0.501,-0.134 0.964,-0.682 1.507,-0.682c0.543,0 1.006,0.548 1.506,0.682c0.518,0.138 1.193,-0.101 1.646,0.162c0.46,0.266 0.589,0.972 0.962,1.345c0.373,0.373 1.079,0.502 1.345,0.962c0.263,0.453 0.024,1.128 0.162,1.645c0.134,0.501 0.682,0.964 0.682,1.507c0,0.543 -0.548,1.006 -0.682,1.507" style="fill:#e67324;fill-rule:nonzero;"/></g></g></svg>