<?xml version="1.0" standalone="no"?>
<!-- Generator: Adobe Fireworks 10, Export SVG Extension by Aaron Beall (http://fireworks.abeall.com) . Version: 0.6.1  -->
<!DOCTYPE svg PUBLIC "-//W3C//DTD SVG 1.1//EN" "http://www.w3.org/Graphics/SVG/1.1/DTD/svg11.dtd">
<svg id="48.fw-P%E1gina%201" viewBox="0 0 650 210" style="background-color:#ffffff00" version="1.1"
	xmlns="http://www.w3.org/2000/svg" xmlns:xlink="http://www.w3.org/1999/xlink" xml:space="preserve"
	x="0px" y="0px" width="650px" height="210px"
>
	<g id="Camada%201">
		<g>
			<path d="M 60 90.7031 C 60 84.0781 59.3438 79.375 58.0469 76.6094 C 56.75 73.8594 54.1094 71.5625 50.125 69.7344 C 46.1406 67.9219 41.3125 67 35.6563 67 C 30.4688 67 26.0625 67.8438 22.4063 69.5156 C 18.75 71.1875 16.0938 73.5 14.4531 76.4688 C 12.8125 79.4375 12 84.1094 12 90.5156 C 12 94.9531 12.5938 98.6094 13.7813 101.4688 C 14.9688 104.3281 16.4844 106.5625 18.2969 108.1875 C 20.1094 109.8125 23.8438 112.3594 29.5 115.8281 C 35.1406 119.2656 38.6406 121.7656 40.0156 123.2969 C 41.3281 124.8438 42 128.125 42 133.125 C 42 135.4063 41.6094 137.1094 40.8281 138.2656 C 40.0469 139.4219 38.8594 140 37.2656 140 C 35.6719 140 34.5625 139.5469 33.9375 138.625 C 33.3125 137.7188 33 135.6406 33 132.4219 L 33 122 L 13 122 L 13 127.5313 C 13 133.8594 13.625 138.7344 14.9063 142.1719 C 16.1875 145.6094 18.875 148.4531 22.9844 150.6719 C 27.0938 152.875 32.0625 154 37.8906 154 C 43.1875 154 47.8281 153.0313 51.8281 151.1406 C 55.8125 149.2344 58.5 146.8594 59.9063 144.0313 C 61.2969 141.2188 62 136.8281 62 130.8594 C 62 122.6719 60.7031 116.7188 58.1406 113.0313 C 55.5625 109.3438 49.2656 104.7344 39.25 99.1719 C 35.75 97.25 33.6875 95.5625 33.0313 94.1094 C 32.3438 92.6719 32 90.5 32 87.625 C 32 85.4063 32.3594 83.75 33.0938 82.6563 C 33.8281 81.5625 34.9063 81 36.3438 81 C 37.6563 81 38.5938 81.4063 39.1563 82.2031 C 39.7188 83 40 84.8594 40 87.7656 L 40 94 L 60 94 L 60 90.7031 L 60 90.7031 Z" fill="#000000"/>
			<path d="M 68 69 L 68 80 L 89 80 L 89 69 L 68 69 L 68 69 ZM 68 84 L 68 152 L 89 152 L 89 84 L 68 84 L 68 84 Z" fill="#000000"/>
			<path d="M 97 84 L 97 152 L 117 152 L 117 105.0156 C 117 101.75 117.0313 99.6094 117.1094 98.6094 C 117.1719 97.6094 117.5469 96.75 118.2344 96.0469 C 118.9063 95.3594 119.7188 95 120.6875 95 C 122.2188 95 123.1406 95.6719 123.4844 97 C 123.8281 98.3281 124 102.3125 124 108.9375 L 124 152 L 144 152 L 144 107.8125 C 144 102 144.2188 98.4219 144.6563 97.0469 C 145.0938 95.6875 146.0625 95 147.5781 95 C 149.0469 95 149.9844 95.7031 150.3906 97.0781 C 150.7969 98.4531 151 102.0313 151 107.8125 L 151 152 L 171 152 L 171 103.8438 C 171 98.2969 170.6719 94.2813 170.0156 91.8125 C 169.3594 89.3438 167.875 87.2656 165.5625 85.5625 C 163.25 83.8594 160.3281 83 156.7969 83 C 154.1094 83 151.6719 83.6563 149.4844 84.9531 C 147.2969 86.2656 145.3281 88.2188 143.5781 90.8125 C 140.375 85.6094 135.9844 83 130.4219 83 C 127.5625 83 125.0156 83.6563 122.7813 84.9531 C 120.5313 86.2656 118.6094 88.2188 117 90.8125 L 117 84 L 97 84 L 97 84 Z" fill="#000000"/>
			<path d="M 178 84 L 178 162 L 199 162 L 199 145.6563 C 200.8125 148.0938 202.8125 149.9219 205 151.1563 C 207.1875 152.375 209.5781 153 212.1406 153 C 215.3594 153 218.0938 152.2188 220.375 150.6875 C 222.6563 149.1563 224.1563 147.0781 224.8906 144.4844 C 225.625 141.8906 226 137.5156 226 131.3594 L 226 102.9063 C 226 97.5469 225.7031 93.75 225.125 91.5 C 224.5313 89.2656 223.0781 87.2969 220.7344 85.5781 C 218.3906 83.8594 215.6094 83 212.3906 83 C 209.75 83 207.3125 83.6094 205.0938 84.8281 C 202.875 86.0469 200.8438 87.875 199 90.3438 L 199.3438 84 L 178 84 L 178 84 ZM 205 132.8125 C 205 136.4063 204.8438 138.6719 204.5313 139.6094 C 204.2188 140.5469 203.4219 141 202.1406 141 C 200.8281 141 199.9844 140.5 199.5938 139.4844 C 199.1875 138.4688 199 135.9219 199 131.8438 L 199 103.8906 C 199 100 199.1875 97.5469 199.5625 96.5313 C 199.9375 95.5156 200.7813 95 202.0938 95 C 203.4375 95 204.25 95.4531 204.5469 96.3281 C 204.8438 97.2031 205 99.7344 205 103.8906 L 205 132.8125 L 205 132.8125 Z" fill="#000000"/>
			<path d="M 232 69 L 232 152 L 253 152 L 253 69 L 232 69 L 232 69 Z" fill="#000000"/>
			<path d="M 308 110.0938 C 308 103.5781 307.2188 98.5156 305.6875 94.9219 C 304.1563 91.3281 301.4844 88.4531 297.6719 86.2656 C 293.8594 84.0938 289.0156 83 283.1406 83 C 278.3438 83 274.0938 83.9219 270.4063 85.7344 C 266.7188 87.5469 264.0625 90.1719 262.4375 93.5781 C 260.8125 96.9844 260 101.6406 260 107.5313 L 260 127.2344 C 260 132.2656 260.3594 136.1094 261.0781 138.7344 C 261.7969 141.3594 263.1094 143.7656 264.9844 145.9531 C 266.8594 148.1406 269.5 149.875 272.8906 151.125 C 276.2656 152.3594 280.1719 153 284.5938 153 C 289.1563 153 292.9375 152.3438 295.9531 151.0625 C 298.9688 149.7656 301.4688 147.8125 303.4375 145.2188 C 305.4063 142.625 306.6563 140.1875 307.1875 137.9063 C 307.7188 135.625 308 132.3438 308 128.0938 L 308 123 L 288 123 L 288 132.1875 C 288 135.6563 287.7344 137.9844 287.2188 139.1875 C 286.7031 140.4063 285.6875 141 284.1563 141 C 282.9063 141 282.0781 140.5625 281.6406 139.6719 C 281.2031 138.7813 281 136.7969 281 133.7188 L 281 119 L 308 119 L 308 110.0938 L 308 110.0938 ZM 281 108 L 281 103.1563 C 281 99.4219 281.1563 97.125 281.5 96.2813 C 281.8438 95.4375 282.7188 95 284.1563 95 C 285.2969 95 286.0625 95.5 286.4375 96.5 C 286.8125 97.5 287 99.7188 287 103.1563 L 287 108 L 281 108 L 281 108 Z" fill="#000000"/>
			<path d="M 357 102.0469 C 357 98.625 356.8125 96.1094 356.4531 94.5 C 356.0938 92.9063 355.0625 91.1563 353.375 89.2656 C 351.6719 87.3906 349.2344 85.875 346.0625 84.7188 C 342.875 83.5781 339.0313 83 334.5156 83 C 329.9531 83 325.9375 83.7031 322.5 85.0938 C 319.0469 86.4844 316.5938 88.4531 315.1563 91.0156 C 313.7188 93.5781 313 97.5625 313 102.9375 C 313 106.75 313.6563 110.0313 314.9688 112.7969 C 316.2813 115.5625 319.9531 118.6406 325.9688 122.0156 C 333.125 126.0313 337.1094 128.4375 337.8906 129.25 C 338.625 130.0625 339 132.0781 339 135.2969 C 339 137.6406 338.7188 139.1875 338.1719 139.9063 C 337.6094 140.6406 336.6406 141 335.25 141 C 333.9531 141 333.0938 140.4688 332.6563 139.375 C 332.2188 138.2813 332 135.9219 332 132.2813 L 332 128 L 313 128 L 313 131.2656 C 313 136.9219 313.7031 141.1406 315.1094 143.9219 C 316.5156 146.7188 319.0938 148.9375 322.8438 150.5625 C 326.5938 152.1719 331.125 153 336.4063 153 C 341.1563 153 345.2344 152.2344 348.6094 150.7344 C 351.9844 149.2344 354.4063 147.0781 355.8438 144.2813 C 357.2813 141.4844 358 137.3281 358 131.8281 C 358 126.9219 357.0469 123.1719 355.1406 120.5938 C 353.2344 118.0156 349.2344 115.2656 343.1563 112.3438 C 338.5781 110.1563 335.5469 108.4688 334.0781 107.3125 C 332.6094 106.1563 331.7188 105.1094 331.4375 104.1406 C 331.1406 103.1719 331 101.6563 331 99.5781 C 331 98.0625 331.2969 96.9219 331.9063 96.1563 C 332.5 95.3906 333.4219 95 334.6406 95 C 336.125 95 337.0625 95.4219 337.4375 96.2656 C 337.8125 97.1094 338 99.125 338 102.2813 L 338 106 L 357 106 L 357 102.0469 L 357 102.0469 Z" fill="#000000"/>
			<path d="M 389.25 69 L 378 152 L 399.75 152 L 401.0781 137 L 409.9375 137 L 411.25 152 L 433 152 L 419.75 69 L 389.25 69 L 389.25 69 ZM 401.125 122 L 405.5 86.5625 L 408.8594 122 L 401.125 122 L 401.125 122 Z" fill="#000000"/>
			<path d="M 478 102.0469 C 478 98.625 477.8125 96.1094 477.4531 94.5 C 477.0938 92.9063 476.0625 91.1563 474.375 89.2656 C 472.6719 87.3906 470.2344 85.875 467.0625 84.7188 C 463.875 83.5781 460.0313 83 455.5156 83 C 450.9531 83 446.9375 83.7031 443.5 85.0938 C 440.0469 86.4844 437.5938 88.4531 436.1563 91.0156 C 434.7188 93.5781 434 97.5625 434 102.9375 C 434 106.75 434.6563 110.0313 435.9688 112.7969 C 437.2813 115.5625 440.9531 118.6406 446.9688 122.0156 C 454.125 126.0313 458.1094 128.4375 458.8906 129.25 C 459.625 130.0625 460 132.0781 460 135.2969 C 460 137.6406 459.7188 139.1875 459.1719 139.9063 C 458.6094 140.6406 457.6406 141 456.25 141 C 454.9531 141 454.0938 140.4688 453.6563 139.375 C 453.2188 138.2813 453 135.9219 453 132.2813 L 453 128 L 434 128 L 434 131.2656 C 434 136.9219 434.7031 141.1406 436.1094 143.9219 C 437.5156 146.7188 440.0938 148.9375 443.8438 150.5625 C 447.5938 152.1719 452.125 153 457.4063 153 C 462.1563 153 466.2344 152.2344 469.6094 150.7344 C 472.9844 149.2344 475.4063 147.0781 476.8438 144.2813 C 478.2813 141.4844 479 137.3281 479 131.8281 C 479 126.9219 478.0469 123.1719 476.1406 120.5938 C 474.2344 118.0156 470.2344 115.2656 464.1563 112.3438 C 459.5781 110.1563 456.5469 108.4688 455.0781 107.3125 C 453.6094 106.1563 452.7188 105.1094 452.4375 104.1406 C 452.1406 103.1719 452 101.6563 452 99.5781 C 452 98.0625 452.2969 96.9219 452.9063 96.1563 C 453.5 95.3906 454.4219 95 455.6406 95 C 457.125 95 458.0625 95.4219 458.4375 96.2656 C 458.8125 97.1094 459 99.125 459 102.2813 L 459 106 L 478 106 L 478 102.0469 L 478 102.0469 Z" fill="#000000"/>
			<path d="M 527 102.0469 C 527 98.625 526.8125 96.1094 526.4531 94.5 C 526.0938 92.9063 525.0625 91.1563 523.375 89.2656 C 521.6719 87.3906 519.2344 85.875 516.0625 84.7188 C 512.875 83.5781 509.0313 83 504.5156 83 C 499.9531 83 495.9375 83.7031 492.5 85.0938 C 489.0469 86.4844 486.5938 88.4531 485.1563 91.0156 C 483.7188 93.5781 483 97.5625 483 102.9375 C 483 106.75 483.6563 110.0313 484.9688 112.7969 C 486.2813 115.5625 489.9531 118.6406 495.9688 122.0156 C 503.125 126.0313 507.1094 128.4375 507.8906 129.25 C 508.625 130.0625 509 132.0781 509 135.2969 C 509 137.6406 508.7188 139.1875 508.1719 139.9063 C 507.6094 140.6406 506.6406 141 505.25 141 C 503.9531 141 503.0938 140.4688 502.6563 139.375 C 502.2188 138.2813 502 135.9219 502 132.2813 L 502 128 L 483 128 L 483 131.2656 C 483 136.9219 483.7031 141.1406 485.1094 143.9219 C 486.5156 146.7188 489.0938 148.9375 492.8438 150.5625 C 496.5938 152.1719 501.125 153 506.4063 153 C 511.1563 153 515.2344 152.2344 518.6094 150.7344 C 521.9844 149.2344 524.4063 147.0781 525.8438 144.2813 C 527.2813 141.4844 528 137.3281 528 131.8281 C 528 126.9219 527.0469 123.1719 525.1406 120.5938 C 523.2344 118.0156 519.2344 115.2656 513.1563 112.3438 C 508.5781 110.1563 505.5469 108.4688 504.0781 107.3125 C 502.6094 106.1563 501.7188 105.1094 501.4375 104.1406 C 501.1406 103.1719 501 101.6563 501 99.5781 C 501 98.0625 501.2969 96.9219 501.9063 96.1563 C 502.5 95.3906 503.4219 95 504.6406 95 C 506.125 95 507.0625 95.4219 507.4375 96.2656 C 507.8125 97.1094 508 99.125 508 102.2813 L 508 106 L 527 106 L 527 102.0469 L 527 102.0469 Z" fill="#000000"/>
			<path d="M 534 69 L 534 80 L 555 80 L 555 69 L 534 69 L 534 69 ZM 534 84 L 534 152 L 555 152 L 555 84 L 534 84 L 534 84 Z" fill="#000000"/>
			<path d="M 563 84 L 563 152 L 583 152 L 583 105.0156 C 583 101.75 583.0313 99.6094 583.1094 98.6094 C 583.1719 97.6094 583.5469 96.75 584.2344 96.0469 C 584.9063 95.3594 585.7188 95 586.6875 95 C 588.2188 95 589.1406 95.6719 589.4844 97 C 589.8281 98.3281 590 102.3125 590 108.9375 L 590 152 L 610 152 L 610 107.8125 C 610 102 610.2188 98.4219 610.6563 97.0469 C 611.0938 95.6875 612.0625 95 613.5781 95 C 615.0469 95 615.9844 95.7031 616.3906 97.0781 C 616.7969 98.4531 617 102.0313 617 107.8125 L 617 152 L 637 152 L 637 103.8438 C 637 98.2969 636.6719 94.2813 636.0156 91.8125 C 635.3594 89.3438 633.875 87.2656 631.5625 85.5625 C 629.25 83.8594 626.3281 83 622.7969 83 C 620.1094 83 617.6719 83.6563 615.4844 84.9531 C 613.2969 86.2656 611.3281 88.2188 609.5781 90.8125 C 606.375 85.6094 601.9844 83 596.4219 83 C 593.5625 83 591.0156 83.6563 588.7813 84.9531 C 586.5313 86.2656 584.6094 88.2188 583 90.8125 L 583 84 L 563 84 L 563 84 Z" fill="#000000"/>
		</g>
	</g>
</svg>