<?xml version="1.0" standalone="no"?>
<!-- Generator: Adobe Fireworks 10, Export SVG Extension by Aaron Beall (http://fireworks.abeall.com) . Version: 0.6.1  -->
<!DOCTYPE svg PUBLIC "-//W3C//DTD SVG 1.1//EN" "http://www.w3.org/Graphics/SVG/1.1/DTD/svg11.dtd">
<svg id="07.fw-P%E1gina%201" viewBox="0 0 650 210" style="background-color:#ffffff00" version="1.1"
	xmlns="http://www.w3.org/2000/svg" xmlns:xlink="http://www.w3.org/1999/xlink" xml:space="preserve"
	x="0px" y="0px" width="650px" height="210px"
>
	<g id="Camada%201">
		<g>
			<path d="M 17.25 71 L 6.5 150 L 27.75 150 L 28.8125 136 L 36.1875 136 L 37.25 150 L 58.5 150 L 46.75 71 L 17.25 71 L 17.25 71 ZM 28.625 122 L 32.5 87.6563 L 35.375 122 L 28.625 122 L 28.625 122 Z" fill="#000000"/>
			<path d="M 61 71 L 61 150 L 81 150 L 81 71 L 61 71 L 61 71 Z" fill="#000000"/>
			<path d="M 131.0625 97.6406 C 130.4375 95.4063 129.2969 93.2344 127.625 91.125 C 125.9375 89.0156 123.5625 87.2969 120.4688 85.9844 C 117.375 84.6719 113.6875 84 109.375 84 C 104.25 84 100.0313 85.0313 96.7344 87.0781 C 93.4375 89.125 91.1563 91.8438 89.8906 95.2188 C 88.625 98.5938 88 103.2969 88 109.2969 L 88 125.8594 C 88 131.3594 88.3438 135.4688 89.0469 138.2188 C 89.7344 140.9688 90.9063 143.2969 92.5313 145.2344 C 94.1563 147.1719 96.4531 148.6094 99.4063 149.5625 C 102.3438 150.5156 105.9375 151 110.1875 151 C 113.9844 151 117.3438 150.4375 120.2813 149.3281 C 123.2188 148.2031 125.6094 146.4688 127.4844 144.1094 C 129.3594 141.7656 130.5781 139.2344 131.1406 136.5156 C 131.7031 133.7969 132 129.5313 132 123.7188 L 132 107.875 C 132 103.2969 131.6875 99.8906 131.0625 97.6406 L 131.0625 97.6406 ZM 112 133.1406 C 112 136 111.8594 137.8594 111.6094 138.7188 C 111.3438 139.5781 110.8125 140 110 140 C 109.2031 140 108.6719 139.5313 108.4063 138.5938 C 108.125 137.6563 108 135.6094 108 132.4844 L 108 102.7031 C 108 99.3281 108.125 97.2031 108.4063 96.3281 C 108.6719 95.4531 109.2188 95 110.0313 95 C 110.8438 95 111.375 95.4531 111.625 96.3281 C 111.875 97.2031 112 99.3281 112 102.7031 L 112 133.1406 L 112 133.1406 Z" fill="#000000"/>
			<path d="M 139 85 L 139 150 L 159 150 L 159 105.7969 C 159 100.875 159.1406 97.8438 159.4375 96.7031 C 159.7344 95.5781 160.4688 95 161.625 95 C 162.7188 95 163.3906 95.5 163.6406 96.4844 C 163.875 97.4688 164 100.2031 164 104.7031 L 164 150 L 184 150 L 184 104.5625 C 184 98.9063 183.6875 94.8594 183.0938 92.4219 C 182.5 90 181.1563 87.9844 179.0781 86.3906 C 176.9844 84.7969 174.3125 84 171.0313 84 C 168.4063 84 166.0781 84.6094 164.0781 85.8125 C 162.0781 87.0313 160.375 88.8438 159 91.25 L 159 85 L 139 85 L 139 85 Z" fill="#000000"/>
			<path d="M 232 102.2188 C 232 98.9531 231.8281 96.5469 231.4844 95 C 231.1406 93.4688 230.1563 91.7969 228.5313 90 C 226.9063 88.2031 224.5938 86.75 221.5625 85.6563 C 218.5313 84.5625 214.8438 84 210.5313 84 C 206.1719 84 202.3438 84.6719 199.0625 86.0156 C 195.7656 87.3594 193.4375 89.2813 192.0625 91.75 C 190.6875 94.2188 190 98.0625 190 103.25 C 190 106.9375 190.625 110.1094 191.8906 112.7656 C 193.1563 115.4375 196.6875 118.4063 202.4688 121.6719 C 209.3594 125.5469 213.1719 127.875 213.9219 128.6563 C 214.6406 129.4375 215 131.3906 215 134.5 C 215 136.7656 214.7188 138.25 214.1719 138.9531 C 213.6094 139.6563 212.6406 140 211.25 140 C 209.9531 140 209.0938 139.4688 208.6563 138.375 C 208.2188 137.2813 208 134.9219 208 131.2813 L 208 127 L 190 127 L 190 130.1406 C 190 135.5625 190.6719 139.6094 192.0156 142.2813 C 193.3594 144.9688 195.8125 147.0938 199.4063 148.6563 C 203 150.2031 207.3125 151 212.3594 151 C 216.9063 151 220.7969 150.2656 224.0313 148.8125 C 227.25 147.3594 229.5625 145.2813 230.9375 142.5781 C 232.3125 139.875 233 135.875 233 130.5625 C 233 125.8125 232.1094 122.2031 230.3594 119.7031 C 228.5938 117.2188 224.8906 114.5625 219.25 111.75 C 215.0156 109.625 212.2188 108.0156 210.8594 106.8906 C 209.4844 105.7813 208.6719 104.7656 208.4063 103.8281 C 208.125 102.8906 208 101.4219 208 99.4219 C 208 97.9531 208.2031 96.8438 208.6406 96.1094 C 209.0781 95.375 209.7188 95 210.5938 95 C 211.6563 95 212.3281 95.4219 212.5938 96.2656 C 212.8594 97.1094 213 99.125 213 102.2813 L 213 106 L 232 106 L 232 102.2188 L 232 102.2188 Z" fill="#000000"/>
			<path d="M 281.0625 97.6406 C 280.4375 95.4063 279.2969 93.2344 277.625 91.125 C 275.9375 89.0156 273.5625 87.2969 270.4688 85.9844 C 267.375 84.6719 263.6875 84 259.375 84 C 254.25 84 250.0313 85.0313 246.7344 87.0781 C 243.4375 89.125 241.1563 91.8438 239.8906 95.2188 C 238.625 98.5938 238 103.2969 238 109.2969 L 238 125.8594 C 238 131.3594 238.3438 135.4688 239.0469 138.2188 C 239.7344 140.9688 240.9063 143.2969 242.5313 145.2344 C 244.1563 147.1719 246.4531 148.6094 249.4063 149.5625 C 252.3438 150.5156 255.9375 151 260.1875 151 C 263.9844 151 267.3438 150.4375 270.2813 149.3281 C 273.2188 148.2031 275.6094 146.4688 277.4844 144.1094 C 279.3594 141.7656 280.5781 139.2344 281.1406 136.5156 C 281.7031 133.7969 282 129.5313 282 123.7188 L 282 107.875 C 282 103.2969 281.6875 99.8906 281.0625 97.6406 L 281.0625 97.6406 ZM 262 133.1406 C 262 136 261.8594 137.8594 261.6094 138.7188 C 261.3438 139.5781 260.8125 140 260 140 C 259.2031 140 258.6719 139.5313 258.4063 138.5938 C 258.125 137.6563 258 135.6094 258 132.4844 L 258 102.7031 C 258 99.3281 258.125 97.2031 258.4063 96.3281 C 258.6719 95.4531 259.2188 95 260.0313 95 C 260.8438 95 261.375 95.4531 261.625 96.3281 C 261.875 97.2031 262 99.3281 262 102.7031 L 262 133.1406 L 262 133.1406 Z" fill="#000000"/>
			<path d="M 331.25 71 C 329.8906 83.9375 328.4375 94.625 326.9063 103.0781 C 325.875 97.8281 324.5 87.125 322.75 71 L 304 71 L 318 121.4063 L 318 150 L 336 150 L 336 121.4063 L 350 71 L 331.25 71 L 331.25 71 Z" fill="#000000"/>
			<path d="M 379.25 71 L 368.5 150 L 389.75 150 L 390.8125 136 L 398.1875 136 L 399.25 150 L 420.5 150 L 408.75 71 L 379.25 71 L 379.25 71 ZM 390.625 122 L 394.5 87.6563 L 397.375 122 L 390.625 122 L 390.625 122 Z" fill="#000000"/>
			<path d="M 423 71 L 423 150 L 443 150 L 443 71 L 423 71 L 423 71 Z" fill="#000000"/>
			<path d="M 493.0625 97.6406 C 492.4375 95.4063 491.2969 93.2344 489.625 91.125 C 487.9375 89.0156 485.5625 87.2969 482.4688 85.9844 C 479.375 84.6719 475.6875 84 471.375 84 C 466.25 84 462.0313 85.0313 458.7344 87.0781 C 455.4375 89.125 453.1563 91.8438 451.8906 95.2188 C 450.625 98.5938 450 103.2969 450 109.2969 L 450 125.8594 C 450 131.3594 450.3438 135.4688 451.0469 138.2188 C 451.7344 140.9688 452.9063 143.2969 454.5313 145.2344 C 456.1563 147.1719 458.4531 148.6094 461.4063 149.5625 C 464.3438 150.5156 467.9375 151 472.1875 151 C 475.9844 151 479.3438 150.4375 482.2813 149.3281 C 485.2188 148.2031 487.6094 146.4688 489.4844 144.1094 C 491.3594 141.7656 492.5781 139.2344 493.1406 136.5156 C 493.7031 133.7969 494 129.5313 494 123.7188 L 494 107.875 C 494 103.2969 493.6875 99.8906 493.0625 97.6406 L 493.0625 97.6406 ZM 474 133.1406 C 474 136 473.8594 137.8594 473.6094 138.7188 C 473.3438 139.5781 472.8125 140 472 140 C 471.2031 140 470.6719 139.5313 470.4063 138.5938 C 470.125 137.6563 470 135.6094 470 132.4844 L 470 102.7031 C 470 99.3281 470.125 97.2031 470.4063 96.3281 C 470.6719 95.4531 471.2188 95 472.0313 95 C 472.8438 95 473.375 95.4531 473.625 96.3281 C 473.875 97.2031 474 99.3281 474 102.7031 L 474 133.1406 L 474 133.1406 Z" fill="#000000"/>
			<path d="M 501 85 L 501 150 L 521 150 L 521 105.7969 C 521 100.875 521.1406 97.8438 521.4375 96.7031 C 521.7344 95.5781 522.4688 95 523.625 95 C 524.7188 95 525.3906 95.5 525.6406 96.4844 C 525.875 97.4688 526 100.2031 526 104.7031 L 526 150 L 546 150 L 546 104.5625 C 546 98.9063 545.6875 94.8594 545.0938 92.4219 C 544.5 90 543.1563 87.9844 541.0781 86.3906 C 538.9844 84.7969 536.3125 84 533.0313 84 C 530.4063 84 528.0781 84.6094 526.0781 85.8125 C 524.0781 87.0313 522.375 88.8438 521 91.25 L 521 85 L 501 85 L 501 85 Z" fill="#000000"/>
			<path d="M 594 102.2188 C 594 98.9531 593.8281 96.5469 593.4844 95 C 593.1406 93.4688 592.1563 91.7969 590.5313 90 C 588.9063 88.2031 586.5938 86.75 583.5625 85.6563 C 580.5313 84.5625 576.8438 84 572.5313 84 C 568.1719 84 564.3438 84.6719 561.0625 86.0156 C 557.7656 87.3594 555.4375 89.2813 554.0625 91.75 C 552.6875 94.2188 552 98.0625 552 103.25 C 552 106.9375 552.625 110.1094 553.8906 112.7656 C 555.1563 115.4375 558.6875 118.4063 564.4688 121.6719 C 571.3594 125.5469 575.1719 127.875 575.9219 128.6563 C 576.6406 129.4375 577 131.3906 577 134.5 C 577 136.7656 576.7188 138.25 576.1719 138.9531 C 575.6094 139.6563 574.6406 140 573.25 140 C 571.9531 140 571.0938 139.4688 570.6563 138.375 C 570.2188 137.2813 570 134.9219 570 131.2813 L 570 127 L 552 127 L 552 130.1406 C 552 135.5625 552.6719 139.6094 554.0156 142.2813 C 555.3594 144.9688 557.8125 147.0938 561.4063 148.6563 C 565 150.2031 569.3125 151 574.3594 151 C 578.9063 151 582.7969 150.2656 586.0313 148.8125 C 589.25 147.3594 591.5625 145.2813 592.9375 142.5781 C 594.3125 139.875 595 135.875 595 130.5625 C 595 125.8125 594.1094 122.2031 592.3594 119.7031 C 590.5938 117.2188 586.8906 114.5625 581.25 111.75 C 577.0156 109.625 574.2188 108.0156 572.8594 106.8906 C 571.4844 105.7813 570.6719 104.7656 570.4063 103.8281 C 570.125 102.8906 570 101.4219 570 99.4219 C 570 97.9531 570.2031 96.8438 570.6406 96.1094 C 571.0781 95.375 571.7188 95 572.5938 95 C 573.6563 95 574.3281 95.4219 574.5938 96.2656 C 574.8594 97.1094 575 99.125 575 102.2813 L 575 106 L 594 106 L 594 102.2188 L 594 102.2188 Z" fill="#000000"/>
			<path d="M 643.0625 97.6406 C 642.4375 95.4063 641.2969 93.2344 639.625 91.125 C 637.9375 89.0156 635.5625 87.2969 632.4688 85.9844 C 629.375 84.6719 625.6875 84 621.375 84 C 616.25 84 612.0313 85.0313 608.7344 87.0781 C 605.4375 89.125 603.1563 91.8438 601.8906 95.2188 C 600.625 98.5938 600 103.2969 600 109.2969 L 600 125.8594 C 600 131.3594 600.3438 135.4688 601.0469 138.2188 C 601.7344 140.9688 602.9063 143.2969 604.5313 145.2344 C 606.1563 147.1719 608.4531 148.6094 611.4063 149.5625 C 614.3438 150.5156 617.9375 151 622.1875 151 C 625.9844 151 629.3438 150.4375 632.2813 149.3281 C 635.2188 148.2031 637.6094 146.4688 639.4844 144.1094 C 641.3594 141.7656 642.5781 139.2344 643.1406 136.5156 C 643.7031 133.7969 644 129.5313 644 123.7188 L 644 107.875 C 644 103.2969 643.6875 99.8906 643.0625 97.6406 L 643.0625 97.6406 ZM 624 133.1406 C 624 136 623.8594 137.8594 623.6094 138.7188 C 623.3438 139.5781 622.8125 140 622 140 C 621.2031 140 620.6719 139.5313 620.4063 138.5938 C 620.125 137.6563 620 135.6094 620 132.4844 L 620 102.7031 C 620 99.3281 620.125 97.2031 620.4063 96.3281 C 620.6719 95.4531 621.2188 95 622.0313 95 C 622.8438 95 623.375 95.4531 623.625 96.3281 C 623.875 97.2031 624 99.3281 624 102.7031 L 624 133.1406 L 624 133.1406 Z" fill="#000000"/>
		</g>
	</g>
</svg>