<?xml version="1.0" standalone="no"?>
<!-- Generator: Adobe Fireworks 10, Export SVG Extension by Aaron Beall (http://fireworks.abeall.com) . Version: 0.6.1  -->
<!DOCTYPE svg PUBLIC "-//W3C//DTD SVG 1.1//EN" "http://www.w3.org/Graphics/SVG/1.1/DTD/svg11.dtd">
<svg id="01.fw-P%E1gina%201" viewBox="0 0 64 64" style="background-color:#ffffff00" version="1.1"
	xmlns="http://www.w3.org/2000/svg" xmlns:xlink="http://www.w3.org/1999/xlink" xml:space="preserve"
	x="0px" y="0px" width="64px" height="64px"
>
	<g id="Plano%20de%20fundo">
		<path d="M 26.5625 29.0625 C 24.8125 29.8125 22.4375 31.0625 20.8125 32.9375 L 9.4375 32.9375 C 8.8125 33.1875 7.8125 34.1875 7.8125 34.5625 L 7.8125 47.0625 L 47.9375 47.0625 L 47.9375 36.8125 C 49.1875 36.4375 50.5625 35.8125 51.8125 35.0625 L 51.8125 55.5625 C 51.6875 57.8125 48.8125 60.9375 46.4375 60.9375 L 9.1875 60.9375 C 6.6875 60.8125 3.9375 57.9375 3.9375 55.6875 L 3.9375 34.1875 C 3.9375 31.9375 7.0625 28.9375 9.3125 29.0625 L 26.5625 29.0625 ZM 47.8125 53.0625 L 47.8125 55.3125 C 47.6875 55.5625 46.8125 56.9375 46.1875 56.9375 L 9.4375 56.9375 C 8.9375 56.5625 7.9375 55.8125 7.9375 55.4375 L 7.9375 53.0625 L 47.8125 53.0625 Z" fill="#666666"/>
		<path d="M 58.5625 5.5625 C 60.8125 8.0625 63.6875 14.3125 63.6875 17.4375 C 63.6875 18.4375 63.3125 19.8125 62.1875 20.1875 C 58.3125 21.6875 55.4375 26.5625 54.0625 29.6875 C 53.8125 30.3125 53.1875 31.0625 52.6875 31.6875 C 48.4375 35.1875 43.5625 34.8125 39.3125 36.4375 C 37.3125 37.1875 35.5625 38.6875 33.8125 39.9375 C 32.5625 40.8125 26.3125 42.9375 24.3125 42.9375 C 21.8125 42.9375 19.9375 41.5625 19.9375 38.8125 C 19.9375 36.3125 23.4375 32.8125 26.3125 31.3125 C 29.5625 29.5625 33.9375 28.5625 36.4375 24.0625 L 34.0625 21.8125 C 32.0625 22.4375 30.3125 22.4375 28.5625 22.6875 C 27.8125 24.0625 26.8125 25.5625 25.6875 26.9375 L 16.3125 26.9375 C 17.5625 23.0625 20.1875 18.9375 22.1875 15.0625 C 22.6875 14.0625 24.3125 13.0625 25.1875 12.8125 C 27.8125 11.8125 30.4375 11.3125 33.0625 10.6875 C 36.9375 9.8125 41.5625 8.9375 45.5625 7.3125 C 46.9375 6.8125 48.3125 6.0625 49.6875 5.4375 C 50.8125 4.9375 53.5625 3.1875 55.0625 3.1875 C 55.9375 3.1875 57.4375 4.3125 58.5625 5.5625 Z" fill="#666666"/>
		<rect x="7.75" y="47" width="40.1252" height="6" fill="#c9cdce"/>
	</g>
	<g id="Camada%201">
	</g>
</svg>