<?xml version="1.0" standalone="no"?>
<!-- Generator: Adobe Fireworks 10, Export SVG Extension by Aaron Beall (http://fireworks.abeall.com) . Version: 0.6.1  -->
<!DOCTYPE svg PUBLIC "-//W3C//DTD SVG 1.1//EN" "http://www.w3.org/Graphics/SVG/1.1/DTD/svg11.dtd">
<svg id="sem_foto.fw-P%E1gina%201" viewBox="0 0 512 512" style="background-color:#ffffff" version="1.1"
	xmlns="http://www.w3.org/2000/svg" xmlns:xlink="http://www.w3.org/1999/xlink" xml:space="preserve"
	x="0px" y="0px" width="512px" height="512px"
>
	<g id="Camada%201">
		<path d="M 456.5 38.5 L 416.5 79.5 C 417.5 80.5 419.5 81.5 420.5 81.5 C 433.5 85.5 444.5 106.5 444.5 117.5 L 444.5 291.5 C 442.5 312.5 422.5 332.5 403.5 332.5 L 165.5 332.5 L 85.5 410.5 L 56.5 382.5 L 427.5 10.5 L 456.5 38.5 ZM 293.5 13.5 C 305.5 13.5 326.5 22.5 334.5 40.5 L 274.5 100.5 C 267.5 98.5 254.5 97.5 252.5 97.5 C 198.5 97.5 156.5 142.5 156.5 193.5 C 156.5 196.5 156.5 206.5 157.5 212.5 C 157.5 212.5 158.5 213.5 156.5 214.5 L 66.5 308.5 C 64.5 303.5 61.5 294.5 61.5 292.5 L 61.5 118.5 C 59.5 95.5 83.5 77.5 102.5 77.5 L 130.5 77.5 C 166.5 71.5 166.5 26.5 198.5 15.5 C 202.5 14.5 207.5 14.5 211.5 13.5 L 293.5 13.5 ZM 348.5 193.5 C 348.5 247.5 305.5 290.5 252.5 290.5 C 241.5 290.5 226.5 286.5 215.5 282.5 C 225.5 271.5 235.5 256.5 249.5 247.5 C 253.5 244.5 260.5 245.5 265.5 245.5 C 283.5 244.5 305.5 216.5 305.5 200.5 C 301.5 186.5 328.5 170.5 340.5 156.5 C 347.5 176.5 348.5 177.5 348.5 193.5 Z" fill="#999999"/>
		<g>
			<path d="M 48.875 473.8906 C 52.7031 477.2969 58.1875 479 65.3438 479 C 70.25 479 74.3594 478.2813 77.6563 476.8906 C 80.9375 475.4844 83.4844 473.3125 85.2969 470.4063 C 87.0938 467.5 88 464.3906 88 461.0625 C 88 457.3906 87.2344 454.3125 85.7344 451.8125 C 84.2344 449.3125 82.1563 447.3438 79.5 445.9063 C 76.8438 444.4688 72.7344 443.0781 67.1875 441.7344 C 61.625 440.3906 58.1406 439.1094 56.7031 437.9063 C 55.5625 436.9688 55 435.8281 55 434.5 C 55 433.0625 55.5938 431.9063 56.8125 431.0313 C 58.6875 429.6875 61.2969 429 64.6094 429 C 67.8281 429 70.2344 429.625 71.8438 430.875 C 73.4531 432.125 74.5 434.1563 75 437 L 86 437 C 85.8125 431.5469 83.9531 427.1875 80.3906 423.9063 C 76.8281 420.6406 71.5156 419 64.4844 419 C 60.1719 419 56.4844 419.6719 53.4375 421.0156 C 50.375 422.3594 48.0469 424.3281 46.4219 426.8906 C 44.7969 429.4531 44 432.2188 44 435.1563 C 44 439.75 45.75 443.625 49.2813 446.8125 C 51.7813 449.0938 56.1406 451 62.3594 452.5625 C 67.1719 453.7813 70.2656 454.6406 71.6406 455.1094 C 73.6094 455.8281 75 456.6563 75.7969 457.6094 C 76.5938 458.5625 77 459.7188 77 461.0781 C 77 463.2031 76.0469 465.0469 74.1406 466.625 C 72.2344 468.2188 69.3906 469 65.625 469 C 62.0625 469 59.25 468.125 57.1563 466.3438 C 55.0625 464.5625 53.6875 461.7813 53 458 L 42 459 C 42.75 465.5313 45.0313 470.4844 48.875 473.8906 L 48.875 473.8906 Z" fill="#999999"/>
			<path d="M 144 478 L 144 468 L 112 468 L 112 453 L 141 453 L 141 443 L 112 443 L 112 430 L 143 430 L 143 420 L 101 420 L 101 478 L 144 478 L 144 478 Z" fill="#999999"/>
			<path d="M 167 478 L 167.5 432.3438 L 178.4375 478 L 190.5625 478 L 201.5 432.3438 L 202 478 L 213 478 L 213 420 L 194.4063 420 L 184.5 459.5625 L 174.5938 420 L 156 420 L 156 478 L 167 478 L 167 478 Z" fill="#999999"/>
			<path d="M 261 478 L 261 453 L 286 453 L 286 443 L 261 443 L 261 430 L 289 430 L 289 420 L 250 420 L 250 478 L 261 478 L 261 478 Z" fill="#999999"/>
			<path d="M 305.5938 471.1094 C 310.6563 476.375 317.4844 479 326.0781 479 C 334.5469 479 341.3281 476.3594 346.3906 471.0625 C 351.4531 465.7813 354 458.4531 354 449.0781 C 354 439.6406 351.4375 432.2656 346.3438 426.9531 C 341.2344 421.6563 334.4219 419 325.9219 419 C 321.2188 419 317.0781 419.7656 313.4844 421.2969 C 310.7656 422.4375 308.2813 424.1875 306.0156 426.5313 C 303.7344 428.875 301.9531 431.5313 300.6406 434.4688 C 298.875 438.4844 298 443.4531 298 449.3594 C 298 458.5938 300.5313 465.8438 305.5938 471.1094 L 305.5938 471.1094 ZM 313.6875 433.9688 C 316.8125 430.6563 320.9375 429 326.0625 429 C 331.1719 429 335.2656 430.6406 338.3594 433.9219 C 341.4531 437.2031 343 442.1563 343 448.7969 C 343 455.5469 341.4063 460.5938 338.2344 463.9531 C 335.0625 467.3281 331 469 326.0625 469 C 321.1094 469 317.0313 467.3125 313.8125 463.9219 C 310.5938 460.5313 309 455.5469 309 448.9531 C 309 442.2813 310.5625 437.2813 313.6875 433.9688 L 313.6875 433.9688 Z" fill="#999999"/>
			<path d="M 389 478 L 389 430 L 406 430 L 406 420 L 361 420 L 361 430 L 378 430 L 378 478 L 389 478 L 389 478 Z" fill="#999999"/>
			<path d="M 420.5938 471.1094 C 425.6563 476.375 432.4844 479 441.0781 479 C 449.5469 479 456.3281 476.3594 461.3906 471.0625 C 466.4531 465.7813 469 458.4531 469 449.0781 C 469 439.6406 466.4375 432.2656 461.3438 426.9531 C 456.2344 421.6563 449.4219 419 440.9219 419 C 436.2188 419 432.0781 419.7656 428.4844 421.2969 C 425.7656 422.4375 423.2813 424.1875 421.0156 426.5313 C 418.7344 428.875 416.9531 431.5313 415.6406 434.4688 C 413.875 438.4844 413 443.4531 413 449.3594 C 413 458.5938 415.5313 465.8438 420.5938 471.1094 L 420.5938 471.1094 ZM 428.6875 433.9688 C 431.8125 430.6563 435.9375 429 441.0625 429 C 446.1719 429 450.2656 430.6406 453.3594 433.9219 C 456.4531 437.2031 458 442.1563 458 448.7969 C 458 455.5469 456.4063 460.5938 453.2344 463.9531 C 450.0625 467.3281 446 469 441.0625 469 C 436.1094 469 432.0313 467.3125 428.8125 463.9219 C 425.5938 460.5313 424 455.5469 424 448.9531 C 424 442.2813 425.5625 437.2813 428.6875 433.9688 L 428.6875 433.9688 Z" fill="#999999"/>
		</g>
		<path d="M 348.5 197.5 C 348.5 205.5 344.5 219.5 341.5 228.5 C 327.5 269.5 283.5 290.5 252.5 290.5 C 240.5 290.5 228.5 286.5 216.5 282.5 C 227.5 271.5 236.5 257.5 249.5 249.5 C 253.5 246.5 260.5 248.5 265.5 247.5 C 270.5 246.5 276.5 244.5 281.5 241.5 C 297.5 231.5 306.5 212.5 306.5 200.5 C 304.5 185.5 329.5 171.5 340.5 158.5 C 344.5 171.5 348.5 184.5 348.5 197.5 Z" fill="#ffffff"/>
	</g>
</svg>