<?xml version="1.0" standalone="no"?>
<!-- Generator: Adobe Fireworks 10, Export SVG Extension by Aaron Beall (http://fireworks.abeall.com) . Version: 0.6.1  -->
<!DOCTYPE svg PUBLIC "-//W3C//DTD SVG 1.1//EN" "http://www.w3.org/Graphics/SVG/1.1/DTD/svg11.dtd">
<svg id="14.fw-P%E1gina%201" viewBox="0 0 650 210" style="background-color:#ffffff00" version="1.1"
	xmlns="http://www.w3.org/2000/svg" xmlns:xlink="http://www.w3.org/1999/xlink" xml:space="preserve"
	x="0px" y="0px" width="650px" height="210px"
>
	<g id="Camada%201">
		<g>
			<path d="M 117 66.2656 C 117 54.7344 115.875 46.5469 113.6406 41.7344 C 111.3906 36.9219 106.8281 32.9219 99.9375 29.75 C 93.0469 26.5938 84.7031 25 74.9219 25 C 65.9531 25 58.3125 26.4531 51.9844 29.3594 C 45.6563 32.2656 41.0781 36.2969 38.25 41.4531 C 35.4063 46.6094 34 54.75 34 65.8906 C 34 73.625 34.9844 79.9844 36.9688 84.9531 C 38.9531 89.9219 41.4531 93.8281 44.4844 96.6406 C 47.5156 99.4531 53.6563 104.0156 62.9375 110.3125 C 72.2031 116.5625 78.0469 120.9844 80.4688 123.5938 C 82.8125 126.2188 84 131.7969 84 140.2969 C 84 144.1719 83.3906 147.0938 82.1719 149.0625 C 80.9531 151.0313 79.1094 152 76.6406 152 C 74.1563 152 72.4219 151.2344 71.4531 149.7031 C 70.4844 148.1719 70 144.7344 70 139.375 L 70 122 L 35 122 L 35 131.5 C 35 142.375 36.0938 150.7656 38.3125 156.6719 C 40.5156 162.5781 45.1875 167.4531 52.3281 171.2656 C 59.4531 175.0781 68.0781 177 78.1719 177 C 87.3594 177 95.4219 175.3281 102.3594 172.0156 C 109.2813 168.7031 113.9531 164.5781 116.375 159.6563 C 118.7813 154.75 120 147.1094 120 136.7344 C 120 122.4844 117.8594 112.1406 113.5781 105.7188 C 109.2813 99.3125 99.0156 90.9219 82.7969 80.5156 C 77.1406 76.9219 73.6094 73.9219 72.2031 71.5313 C 70.7344 69.1563 70 65.6094 70 60.8906 C 70 57.2344 70.5469 54.5156 71.6406 52.7031 C 72.7344 50.9063 74.3594 50 76.5 50 C 78.4688 50 79.8906 50.6875 80.7344 52.0313 C 81.5781 53.375 82 56.5156 82 61.4375 L 82 72 L 117 72 L 117 66.2656 L 117 66.2656 Z" fill="#000000"/>
			<path d="M 132 28 L 132 47 L 170 47 L 170 28 L 132 28 L 132 28 ZM 132 54 L 132 174 L 170 174 L 170 54 L 132 54 L 132 54 Z" fill="#000000"/>
			<path d="M 183 54 L 183 174 L 220 174 L 220 92.8125 C 220 83.7813 220.2969 78.2188 220.8906 76.125 C 221.4844 74.0469 222.9219 73 225.2344 73 C 227.4375 73 228.7813 73.9063 229.2656 75.7188 C 229.75 77.5313 230 82.5781 230 90.8281 L 230 174 L 267 174 L 267 90.0156 C 267 79.5469 266.4375 72.0781 265.3125 67.5781 C 264.1875 63.0938 261.6563 59.375 257.75 56.4219 C 253.8281 53.4844 248.7813 52 242.6094 52 C 237.6719 52 233.3281 53.1094 229.5625 55.3125 C 225.7969 57.5313 222.6094 60.8438 220 65.25 L 221 54 L 183 54 L 183 54 Z" fill="#000000"/>
			<path d="M 357.6094 73.1406 C 355.3438 67.0469 350.7813 62 343.9375 58 C 337.0938 54 328.8281 52 319.1719 52 C 309.4531 52 301.1875 54.0313 294.4063 58.0938 C 287.625 62.1563 283.1875 66.7656 281.1094 71.9375 C 279.0313 77.1094 278 84.7656 278 94.9219 L 278 128.9219 C 278 140.5938 279.2656 149.5938 281.7969 155.9375 C 284.3281 162.2813 288.6563 167.2188 294.7813 170.7344 C 300.8906 174.2344 309.1719 176 319.6406 176 C 327.8281 176 334.7031 174.7031 340.2656 172.125 C 345.8281 169.5469 350.3438 165.7188 353.7969 160.6406 C 357.25 155.5625 359.2969 150.6094 359.9375 145.7656 C 360.5781 140.9219 360.9375 133.6719 361 124 L 329 124 L 329 138.625 C 329 144.9844 328.5156 149.2969 327.5625 151.5781 C 326.5938 153.8594 324.7656 155 322.0469 155 C 319.7344 155 317.9688 153.9375 316.7813 151.7813 C 315.5938 149.6406 315 146.4219 315 142.1406 L 315 85.4063 C 315 80.1563 315.3906 76.7813 316.2031 75.2656 C 317 73.7656 318.5625 73 320.9063 73 C 323.2344 73 324.8281 73.8594 325.7031 75.5625 C 326.5625 77.2656 327 80.5 327 85.2813 L 327 99 L 361 99 C 361 87.8438 359.8594 79.2344 357.6094 73.1406 L 357.6094 73.1406 Z" fill="#000000"/>
			<path d="M 372 54 L 372 174 L 409 174 L 409 126.5781 C 409 114.9375 409.3594 107.5 410.0938 104.2813 C 410.8281 101.0625 412.7969 98.5313 415.9844 96.7188 C 419.1719 94.9063 424.1875 94 431 94 L 431 52 C 420.9531 52.6875 413.2813 58.75 408 70.2188 L 409 54 L 372 54 L 372 54 Z" fill="#000000"/>
			<path d="M 521 100.1563 C 521 88.5781 519.6406 79.5938 516.9219 73.2031 C 514.2031 66.8125 509.4531 61.6875 502.7031 57.8125 C 495.9531 53.9375 487.375 52 476.9844 52 C 468.4844 52 460.9531 53.6094 454.4219 56.8281 C 447.8906 60.0469 443.1875 64.6875 440.3125 70.7188 C 437.4375 76.7656 436 85.0156 436 95.4688 L 436 130.375 C 436 139.2813 436.6406 146.0469 437.9219 150.7031 C 439.2031 155.3594 441.5 159.6406 444.8438 163.5156 C 448.1719 167.3906 452.8281 170.4531 458.8281 172.6719 C 464.8125 174.875 471.7188 176 479.5469 176 C 487.6094 176 494.3281 174.875 499.6719 172.625 C 505.0156 170.375 509.4375 167 512.9219 162.5 C 516.4063 158 518.625 153.7813 519.5781 149.8125 C 520.5156 145.8594 521 140.1875 521 132.8125 L 521 124 L 487 124 L 487 139.8125 C 487 145.7813 486.4844 149.8125 485.4531 151.8906 C 484.4219 153.9688 482.3594 155 479.2969 155 C 476.8281 155 475.1563 154.2188 474.2969 152.6406 C 473.4219 151.0625 473 147.5469 473 142.0938 L 473 116 L 521 116 L 521 100.1563 L 521 100.1563 ZM 473 97 L 473 88.0469 C 473 81.1563 473.2969 76.9219 473.9219 75.3594 C 474.5469 73.7969 476.1563 73 478.7813 73 C 480.8906 73 482.2813 73.9219 482.9688 75.7656 C 483.6563 77.6094 484 81.7031 484 88.0469 L 484 97 L 473 97 L 473 97 Z" fill="#000000"/>
			<path d="M 578 28 L 578 61.9063 C 574.9688 58.6094 571.5938 56.1406 567.875 54.4844 C 564.1563 52.8281 560.0625 52 555.6094 52 C 549.8438 52 544.875 53.4688 540.7188 56.375 C 536.5625 59.2969 533.8906 62.6875 532.7344 66.5313 C 531.5781 70.375 531 76.9063 531 86.0938 L 531 142.0938 C 531 150.9375 531.5781 157.3125 532.7344 161.2188 C 533.8906 165.125 536.5313 168.5781 540.625 171.5469 C 544.7188 174.5 549.5781 176 555.1719 176 C 559.3281 176 563.2969 175.0781 567.1094 173.2813 C 570.9219 171.4688 574.5469 168.7344 578 165.1094 L 578 174 L 615 174 L 615 28 L 578 28 L 578 28 ZM 578 139.7813 C 578 146.4844 577.6406 150.7031 576.9375 152.4219 C 576.2344 154.1406 574.8281 155 572.7188 155 C 570.875 155 569.625 154.2344 568.9688 152.6875 C 568.3125 151.1563 568 147.9375 568 143.0469 L 568 84.1406 C 568 79.4375 568.3281 76.4063 569.0156 75.0469 C 569.6875 73.6875 571 73 572.9531 73 C 574.9531 73 576.2969 73.7656 576.9844 75.2656 C 577.6563 76.7813 578 79.7344 578 84.1406 L 578 139.7813 L 578 139.7813 Z" fill="#000000"/>
		</g>
	</g>
</svg>