<?xml version="1.0" standalone="no"?>
<!-- Generator: Adobe Fireworks 10, Export SVG Extension by Aaron Beall (http://fireworks.abeall.com) . Version: 0.6.1  -->
<!DOCTYPE svg PUBLIC "-//W3C//DTD SVG 1.1//EN" "http://www.w3.org/Graphics/SVG/1.1/DTD/svg11.dtd">
<svg id="15.fw-P%E1gina%201" viewBox="0 0 199 120" style="background-color:#ffffff00" version="1.1"
	xmlns="http://www.w3.org/2000/svg" xmlns:xlink="http://www.w3.org/1999/xlink" xml:space="preserve"
	x="0px" y="0px" width="199px" height="120px"
>
	<g id="Camada%201">
		<path d="M 170.5 28.5 C 158.5 37.5 134.5 57.5 131.5 57.5 L 88.5 57.5 C 88.5 56.5 87.5 55.5 87.5 53.5 C 87.5 49.5 89.5 48.5 95.5 43.5 C 112.5 30.5 145.5 4.5 148.5 4.5 C 153.5 4.5 169.5 26.5 170.5 28.5 ZM 116.5 36.5 C 117.5 33.5 122.5 29.5 125.5 28.5 C 124.5 30.5 119.5 34.5 116.5 36.5 ZM 178.5 41.5 C 178.5 44.5 167.5 54.5 161.5 56.5 C 159.5 57.5 158.5 57.5 155.5 57.5 L 150.5 57.5 L 177.5 37.5 C 177.5 38.5 178.5 38.5 178.5 41.5 ZM 185.5 86.5 C 180.5 93.5 177.5 92.5 172.5 92.5 C 157.5 92.5 159.5 84.5 159.5 74.5 C 159.5 64.5 161.5 60.5 178.5 62.5 C 177.5 59.5 177.5 51.5 185.5 50.5 L 185.5 86.5 ZM 14.5 62.5 C 16.5 69.5 19.5 76.5 22.5 83.5 C 25.5 76.5 28.5 69.5 30.5 62.5 L 37.5 62.5 C 35.5 66.5 27.5 93.5 22.5 93.5 C 15.5 93.5 8.5 66.5 7.5 62.5 L 14.5 62.5 ZM 47.5 62.5 L 47.5 92.5 L 41.5 92.5 L 41.5 62.5 L 47.5 62.5 ZM 73.5 62.5 C 78.5 65.5 79.5 72.5 79.5 77.5 C 79.5 89.5 79.5 92.5 66.5 92.5 C 55.5 92.5 54.5 91.5 54.5 82.5 C 54.5 71.5 55.5 73.5 71.5 73.5 C 71.5 73.5 72.5 73.5 72.5 71.5 C 72.5 65.5 55.5 68.5 54.5 68.5 L 54.5 62.5 L 73.5 62.5 ZM 105.5 62.5 L 105.5 69.5 L 92.5 69.5 L 92.5 85.5 C 96.5 86.5 101.5 86.5 105.5 85.5 L 105.5 92.5 L 89.5 92.5 C 88.5 91.5 85.5 89.5 85.5 87.5 L 85.5 67.5 C 86.5 65.5 87.5 63.5 89.5 62.5 L 105.5 62.5 ZM 130.5 62.5 C 135.5 65.5 136.5 72.5 136.5 77.5 C 136.5 91.5 135.5 92.5 123.5 92.5 C 112.5 92.5 111.5 91.5 111.5 82.5 C 111.5 68.5 117.5 73.5 129.5 71.5 C 126.5 65.5 115.5 69.5 111.5 68.5 L 111.5 62.5 L 130.5 62.5 ZM 155.5 62.5 L 155.5 69.5 C 153.5 69.5 151.5 69.5 149.5 71.5 L 149.5 92.5 L 143.5 92.5 L 143.5 66.5 C 144.5 64.5 146.5 63.5 148.5 62.5 L 155.5 62.5 ZM 177.5 70.5 L 177.5 84.5 C 174.5 85.5 170.5 85.5 167.5 84.5 L 167.5 70.5 L 177.5 70.5 ZM 71.5 80.5 L 71.5 85.5 L 62.5 85.5 L 62.5 80.5 L 71.5 80.5 ZM 128.5 80.5 L 128.5 85.5 L 119.5 85.5 L 119.5 80.5 L 128.5 80.5 Z" fill="#000000"/>
	</g>
</svg>