<?xml version="1.0" standalone="no"?>
<!-- Generator: Adobe Fireworks 10, Export SVG Extension by Aaron Beall (http://fireworks.abeall.com) . Version: 0.6.1  -->
<!DOCTYPE svg PUBLIC "-//W3C//DTD SVG 1.1//EN" "http://www.w3.org/Graphics/SVG/1.1/DTD/svg11.dtd">
<svg id="16.fw-P%E1gina%201" viewBox="0 0 650 210" style="background-color:#ffffff00" version="1.1"
	xmlns="http://www.w3.org/2000/svg" xmlns:xlink="http://www.w3.org/1999/xlink" xml:space="preserve"
	x="0px" y="0px" width="650px" height="210px"
>
	<g id="Camada%201">
		<g>
			<path d="M 19 37 L 19 65 L 43.1406 65 L 16 154.6875 L 16 175 L 82 175 L 82 147 L 56.1563 147 L 82 65 L 82 37 L 19 37 L 19 37 Z" fill="#000000"/>
			<path d="M 122 94.0781 C 122 87.7344 122.2344 83.7969 122.7031 82.2813 C 123.1719 80.7656 124.3594 80 126.2969 80 C 127.9844 80 129.1875 80.9063 129.9063 82.7031 C 130.625 84.5156 131 88.3906 131 94.3438 C 131 99.0938 130.6094 102.25 129.8438 103.7813 C 129.0625 105.3125 123.1875 108.2813 112.1875 112.6875 C 101.9063 116.7656 95.4844 120.3281 92.8906 123.3906 C 90.2969 126.4531 89 132.1875 89 140.6094 L 89 149.8594 C 89 161.2344 91.4375 168.5938 96.3438 171.9531 C 101.2344 175.3125 106.625 177 112.5 177 C 116.9688 177 120.8281 175.9688 124.0625 173.9219 C 127.2969 171.875 129.9375 168.7969 132 164.6875 L 132 175 L 166 175 L 166 118.3125 C 166 99.6406 165.4063 87.3125 164.2188 81.3281 C 163.0313 75.3438 159.5156 70.2969 153.6563 66.1719 C 147.7969 62.0625 139.0938 60 127.5469 60 C 117.9063 60 110.0781 61.8281 104.0469 65.4688 C 98.0156 69.125 94 73.3281 92 78.0781 C 90 82.8438 89 89.6094 89 98.3906 L 89 106 L 122 106 L 122 94.0781 L 122 94.0781 ZM 131 144.5938 C 131 150.2188 130.7188 153.7031 130.1875 155.0156 C 129.6563 156.3438 128.5 157 126.7188 157 C 124.8438 157 123.5781 156.1563 122.9531 154.4688 C 122.3125 152.7813 122 149.0469 122 143.2344 C 122 138.1719 122.3594 134.2969 123.0938 131.5938 C 123.8125 128.9063 126.4531 125.5469 131 121.5469 L 131 144.5938 L 131 144.5938 Z" fill="#000000"/>
			<path d="M 178 62 L 178 191 L 213 191 L 213 164.9219 C 216.0156 168.9219 219.3438 171.9375 223 173.9688 C 226.6563 175.9844 230.625 177 234.9063 177 C 240.25 177 244.8281 175.7031 248.625 173.125 C 252.4219 170.5469 254.9375 167.0938 256.1563 162.75 C 257.375 158.4063 258 151.1094 258 140.8438 L 258 93.2656 C 258 84.3125 257.5156 77.9688 256.5469 74.2188 C 255.5781 70.4688 253.1406 67.1719 249.2344 64.2969 C 245.3281 61.4375 240.6875 60 235.3281 60 C 230.9219 60 226.875 61.0156 223.1719 63.0469 C 219.4688 65.0781 216.0781 68.1406 213 72.2344 L 213.5781 62 L 178 62 L 178 62 ZM 223 143.2969 C 223 149.3281 222.7344 153.1094 222.2188 154.6719 C 221.6875 156.2344 220.375 157 218.25 157 C 216.0625 157 214.6406 156.1563 213.9844 154.4531 C 213.3281 152.75 213 148.5 213 141.6875 L 213 94.8906 C 213 88.375 213.3125 84.2656 213.9375 82.5625 C 214.5625 80.8594 215.9688 80 218.1563 80 C 220.4063 80 221.7656 80.75 222.2656 82.2188 C 222.75 83.6875 223 87.9219 223 94.8906 L 223 143.2969 L 223 143.2969 Z" fill="#000000"/>
			<path d="M 301 175 L 337 175 L 337 117 L 359 117 L 359 91 L 337 91 L 337 65 L 362 65 L 362 37 L 301 37 L 301 175 L 301 175 Z" fill="#000000"/>
			<path d="M 402 94.0781 C 402 87.7344 402.2344 83.7969 402.7031 82.2813 C 403.1719 80.7656 404.3594 80 406.2969 80 C 407.9844 80 409.1875 80.9063 409.9063 82.7031 C 410.625 84.5156 411 88.3906 411 94.3438 C 411 99.0938 410.6094 102.25 409.8438 103.7813 C 409.0625 105.3125 403.1875 108.2813 392.1875 112.6875 C 381.9063 116.7656 375.4844 120.3281 372.8906 123.3906 C 370.2969 126.4531 369 132.1875 369 140.6094 L 369 149.8594 C 369 161.2344 371.4375 168.5938 376.3438 171.9531 C 381.2344 175.3125 386.625 177 392.5 177 C 396.9688 177 400.8281 175.9688 404.0625 173.9219 C 407.2969 171.875 409.9375 168.7969 412 164.6875 L 412 175 L 446 175 L 446 118.3125 C 446 99.6406 445.4063 87.3125 444.2188 81.3281 C 443.0313 75.3438 439.5156 70.2969 433.6563 66.1719 C 427.7969 62.0625 419.0938 60 407.5469 60 C 397.9063 60 390.0781 61.8281 384.0469 65.4688 C 378.0156 69.125 374 73.3281 372 78.0781 C 370 82.8438 369 89.6094 369 98.3906 L 369 106 L 402 106 L 402 94.0781 L 402 94.0781 ZM 411 144.5938 C 411 150.2188 410.7188 153.7031 410.1875 155.0156 C 409.6563 156.3438 408.5 157 406.7188 157 C 404.8438 157 403.5781 156.1563 402.9531 154.4688 C 402.3125 152.7813 402 149.0469 402 143.2344 C 402 138.1719 402.3594 134.2969 403.0938 131.5938 C 403.8125 128.9063 406.4531 125.5469 411 121.5469 L 411 144.5938 L 411 144.5938 ZM 408 31 L 393 54 L 410 54 L 438 31 L 408 31 L 408 31 Z" fill="#000000"/>
			<path d="M 531.8125 80.2344 C 529.6875 74.4063 525.4063 69.5781 518.9688 65.75 C 512.5313 61.9219 504.7656 60 495.7031 60 C 486.5625 60 478.7969 61.9219 472.4219 65.75 C 466.0469 69.5781 461.875 73.9375 459.9219 78.8125 C 457.9688 83.6875 457 90.9219 457 100.5 L 457 132.5781 C 457 143.5938 458.1875 152.0938 460.5781 158.0781 C 462.9531 164.0625 467.0156 168.7188 472.7656 172.0313 C 478.5156 175.3281 486.2969 177 496.125 177 C 503.8125 177 510.2813 175.7813 515.5156 173.3438 C 520.7344 170.9063 524.9844 167.2969 528.2344 162.5156 C 531.4844 157.7344 533.4063 153.0781 534 148.5156 C 534.5938 143.9531 534.9375 137.125 535 128 L 504 128 L 504 141.6719 C 504 147.625 503.5781 151.6719 502.7656 153.7969 C 501.9375 155.9375 500.3594 157 498.0469 157 C 496.0469 157 494.5469 156 493.5313 153.9844 C 492.5 151.9688 492 148.9531 492 144.9219 L 492 91.6563 C 492 86.7188 492.3281 83.5469 493 82.125 C 493.6563 80.7188 494.9688 80 496.9219 80 C 498.8594 80 500.1875 80.8281 500.9063 82.4531 C 501.625 84.0938 502 87.2188 502 91.8125 L 502 105 L 535 105 C 535 94.3125 533.9375 86.0625 531.8125 80.2344 L 531.8125 80.2344 Z" fill="#000000"/>
			<path d="M 545 37 L 545 55 L 581 55 L 581 37 L 545 37 L 545 37 ZM 545 62 L 545 175 L 581 175 L 581 62 L 545 62 L 545 62 Z" fill="#000000"/>
			<path d="M 593 37 L 593 175 L 629 175 L 629 37 L 593 37 L 593 37 Z" fill="#000000"/>
		</g>
	</g>
</svg>