<?xml version="1.0" standalone="no"?>
<!-- Generator: Adobe Fireworks 10, Export SVG Extension by Aaron Beall (http://fireworks.abeall.com) . Version: 0.6.1  -->
<!DOCTYPE svg PUBLIC "-//W3C//DTD SVG 1.1//EN" "http://www.w3.org/Graphics/SVG/1.1/DTD/svg11.dtd">
<svg id="27.fw-P%E1gina%201" viewBox="0 0 289 102" style="background-color:#ffffff00" version="1.1"
	xmlns="http://www.w3.org/2000/svg" xmlns:xlink="http://www.w3.org/1999/xlink" xml:space="preserve"
	x="0px" y="0px" width="289px" height="102px"
>
	<g id="Camada%201">
		<path d="M 72.5 20.5 L 72.5 32.5 C 70.5 31.5 67.5 28.5 64.5 28.5 L 62.5 28.5 C 61.5 29.5 60.5 28.5 60.5 31.5 C 60.5 33.5 67.5 37.5 70.5 42.5 C 72.5 44.5 73.5 48.5 73.5 51.5 C 73.5 61.5 65.5 65.5 57.5 65.5 C 54.5 65.5 49.5 62.5 46.5 62.5 C 44.5 62.5 47.5 64.5 44.5 64.5 L 33.5 64.5 C 32.5 62.5 32.5 60.5 32.5 57.5 L 25.5 57.5 C 23.5 59.5 23.5 61.5 23.5 64.5 L 10.5 64.5 L 20.5 18.5 L 35.5 18.5 L 45.5 61.5 L 45.5 49.5 C 48.5 51.5 51.5 54.5 54.5 54.5 L 58.5 54.5 C 58.5 53.5 59.5 53.5 59.5 50.5 C 59.5 49.5 46.5 36.5 46.5 31.5 C 46.5 23.5 52.5 17.5 61.5 17.5 C 63.5 17.5 68.5 19.5 72.5 20.5 ZM 141.5 41.5 C 141.5 51.5 137.5 65.5 123.5 65.5 C 107.5 65.5 105.5 51.5 105.5 41.5 C 105.5 33.5 107.5 17.5 123.5 17.5 C 138.5 17.5 141.5 33.5 141.5 41.5 ZM 239.5 21.5 L 239.5 32.5 C 236.5 30.5 233.5 28.5 230.5 28.5 C 228.5 28.5 227.5 29.5 227.5 31.5 C 227.5 33.5 234.5 37.5 237.5 42.5 C 239.5 44.5 240.5 48.5 240.5 50.5 C 240.5 62.5 231.5 65.5 224.5 65.5 C 222.5 65.5 217.5 64.5 213.5 62.5 L 213.5 49.5 C 216.5 51.5 219.5 54.5 222.5 54.5 C 224.5 54.5 226.5 53.5 226.5 50.5 C 226.5 47.5 213.5 39.5 213.5 30.5 C 213.5 21.5 222.5 22.5 222.5 18.5 C 222.5 15.5 225.5 17.5 228.5 17.5 C 230.5 17.5 235.5 19.5 239.5 21.5 ZM 101.5 20.5 L 101.5 31.5 C 100.5 31.5 98.5 28.5 95.5 28.5 L 90.5 28.5 C 90.5 29.5 89.5 28.5 89.5 31.5 C 89.5 36.5 102.5 40.5 102.5 50.5 C 102.5 62.5 93.5 65.5 87.5 65.5 C 84.5 65.5 80.5 64.5 76.5 62.5 L 76.5 50.5 C 78.5 51.5 80.5 54.5 83.5 54.5 L 88.5 54.5 C 88.5 53.5 89.5 53.5 89.5 50.5 C 89.5 47.5 76.5 39.5 76.5 30.5 C 76.5 19.5 84.5 18.5 90.5 18.5 C 93.5 18.5 98.5 19.5 101.5 20.5 ZM 163.5 18.5 C 164.5 25.5 165.5 32.5 167.5 39.5 C 169.5 33.5 170.5 26.5 171.5 18.5 L 187.5 18.5 L 190.5 64.5 L 177.5 64.5 L 177.5 37.5 C 175.5 45.5 173.5 54.5 172.5 64.5 L 162.5 64.5 C 161.5 57.5 160.5 49.5 159.5 41.5 C 158.5 41.5 158.5 40.5 157.5 39.5 C 156.5 39.5 153.5 56.5 156.5 64.5 L 143.5 64.5 C 145.5 49.5 146.5 33.5 147.5 18.5 L 163.5 18.5 ZM 209.5 18.5 C 208.5 20.5 209.5 22.5 209.5 64.5 C 205.5 65.5 200.5 65.5 195.5 64.5 L 195.5 18.5 L 209.5 18.5 ZM 268.5 19.5 L 268.5 30.5 C 264.5 30.5 260.5 30.5 256.5 30.5 L 256.5 34.5 C 259.5 35.5 263.5 36.5 267.5 36.5 L 267.5 46.5 L 258.5 46.5 C 258.5 47.5 257.5 47.5 257.5 49.5 C 257.5 56.5 266.5 53.5 268.5 53.5 L 268.5 65.5 L 244.5 65.5 L 244.5 19.5 L 268.5 19.5 ZM 127.5 41.5 C 127.5 44.5 126.5 48.5 126.5 52.5 C 125.5 52.5 125.5 53.5 123.5 53.5 C 119.5 53.5 119.5 41.5 119.5 41.5 C 119.5 38.5 120.5 33.5 122.5 29.5 C 126.5 31.5 127.5 38.5 127.5 41.5 ZM 29.5 48.5 L 26.5 48.5 C 27.5 42.5 27.5 39.5 28.5 37.5 C 28.5 39.5 28.5 42.5 29.5 48.5 ZM 212.5 69.5 L 212.5 74.5 C 205.5 74.5 205.5 79.5 205.5 80.5 C 205.5 82.5 207.5 87.5 212.5 88.5 L 212.5 92.5 C 211.5 93.5 211.5 93.5 209.5 93.5 C 200.5 93.5 199.5 83.5 199.5 80.5 C 199.5 77.5 203.5 71.5 206.5 69.5 L 212.5 69.5 ZM 226.5 69.5 L 231.5 92.5 L 226.5 92.5 C 226.5 91.5 225.5 89.5 222.5 89.5 C 220.5 89.5 220.5 91.5 220.5 92.5 L 214.5 92.5 C 216.5 85.5 217.5 77.5 220.5 69.5 L 226.5 69.5 ZM 242.5 69.5 C 244.5 70.5 250.5 73.5 250.5 76.5 C 250.5 78.5 246.5 80.5 246.5 83.5 C 246.5 85.5 248.5 89.5 250.5 92.5 L 243.5 92.5 C 243.5 89.5 242.5 85.5 240.5 84.5 C 239.5 85.5 239.5 87.5 240.5 92.5 L 234.5 92.5 L 234.5 69.5 L 242.5 69.5 ZM 269.5 81.5 C 269.5 86.5 269.5 86.5 264.5 92.5 L 253.5 92.5 L 253.5 69.5 L 256.5 69.5 C 268.5 69.5 269.5 73.5 269.5 81.5 ZM 243.5 78.5 C 243.5 78.5 242.5 79.5 241.5 79.5 C 241.5 79.5 241.5 74.5 242.5 74.5 C 242.5 75.5 243.5 77.5 243.5 78.5 ZM 263.5 81.5 C 263.5 82.5 261.5 84.5 260.5 86.5 L 260.5 75.5 C 262.5 76.5 263.5 78.5 263.5 81.5 ZM 222.5 84.5 L 223.5 77.5 C 222.5 80.5 224.5 82.5 222.5 84.5 Z" fill="#000000"/>
	</g>
</svg>