<?xml version="1.0" standalone="no"?>
<!-- Generator: Adobe Fireworks 10, Export SVG Extension by Aaron Beall (http://fireworks.abeall.com) . Version: 0.6.1  -->
<!DOCTYPE svg PUBLIC "-//W3C//DTD SVG 1.1//EN" "http://www.w3.org/Graphics/SVG/1.1/DTD/svg11.dtd">
<svg id="30.fw-P%E1gina%201" viewBox="0 0 650 210" style="background-color:#ffffff00" version="1.1"
	xmlns="http://www.w3.org/2000/svg" xmlns:xlink="http://www.w3.org/1999/xlink" xml:space="preserve"
	x="0px" y="0px" width="650px" height="210px"
>
	<g id="Camada%201">
		<g>
			<path d="M 17 179 L 64.375 179 C 73.3594 179 80.0781 178.5313 84.5469 177.5625 C 89 176.5938 92.75 174.9063 95.7813 172.4688 C 98.8125 170.0469 100.9531 166.6875 102.1719 162.3906 C 103.3906 158.0938 104 149.5625 104 136.8125 L 104 87.0781 C 104 73.6406 103.5781 64.625 102.75 60.0313 C 101.9063 55.4375 99.8281 51.2813 96.5 47.5313 C 93.1563 43.7813 88.2969 41.0938 81.9063 39.4531 C 75.5156 37.8281 63.25 37 45.1094 37 L 17 37 L 17 179 L 17 179 ZM 63.1875 62.2813 C 64.8125 63.1406 65.8438 64.4844 66.3125 66.2969 C 66.7656 68.125 67 72.2656 67 78.7344 L 67 134.2656 C 67 143.7969 66.3125 149.6406 64.9375 151.7813 C 63.5625 153.9375 59.9219 155 54 155 L 54 61 C 58.5 61 61.5625 61.4375 63.1875 62.2813 L 63.1875 62.2813 Z" fill="#000000"/>
			<path d="M 194.2656 84.6406 C 193.1094 80.5938 190.9688 76.6563 187.8438 72.8438 C 184.7188 69.0313 180.2656 65.9375 174.5156 63.5625 C 168.7656 61.1875 161.875 60 153.8438 60 C 144.2813 60 136.4219 61.8594 130.2813 65.5469 C 124.1406 69.25 119.8906 74.1563 117.5313 80.25 C 115.1719 86.3438 114 94.8281 114 105.6719 L 114 135.5938 C 114 145.5156 114.6406 152.9531 115.9375 157.9063 C 117.2344 162.875 119.4063 167.0938 122.4531 170.5781 C 125.4844 174.0781 129.75 176.6875 135.25 178.4063 C 140.7344 180.125 147.4375 181 155.3594 181 C 162.4375 181 168.7031 179.9844 174.1719 177.9688 C 179.625 175.9375 184.0938 172.7969 187.5781 168.5469 C 191.0625 164.2969 193.3438 159.7344 194.4063 154.8281 C 195.4688 149.9219 196 142.2188 196 131.7188 L 196 103.125 C 196 94.8594 195.4219 88.7031 194.2656 84.6406 L 194.2656 84.6406 ZM 160 147.9531 C 160 152.9531 159.6719 156.2188 159.0156 157.7344 C 158.3594 159.25 157.0313 160 155 160 C 153.0156 160 151.6875 159.1719 151.0156 157.5156 C 150.3281 155.8594 150 152.2969 150 146.8125 L 150 94.5313 C 150 88.5938 150.3281 84.8594 151.0156 83.3125 C 151.6875 81.7813 153.0469 81 155.0781 81 C 157.1094 81 158.4375 81.7813 159.0625 83.3125 C 159.6875 84.8594 160 88.5938 160 94.5313 L 160 147.9531 L 160 147.9531 Z" fill="#000000"/>
			<path d="M 282.7188 80.6719 C 280.5313 74.7188 276.1406 69.7813 269.5469 65.875 C 262.9531 61.9688 255 60 245.6875 60 C 236.3125 60 228.3594 61.9844 221.8281 65.9375 C 215.2813 69.9063 211 74.4063 209 79.4531 C 207 84.5 206 91.9844 206 101.8906 L 206 135.0625 C 206 146.4531 207.2188 155.2344 209.6719 161.4219 C 212.1094 167.6094 216.2813 172.4219 222.1719 175.8594 C 228.0625 179.2813 236.0469 181 246.125 181 C 254.0313 181 260.6563 179.75 266.0156 177.2813 C 271.375 174.7969 275.7188 171.1094 279.0625 166.2188 C 282.3906 161.3438 284.3594 156.5781 284.9844 151.9219 C 285.5938 147.2813 285.9375 140.3125 286 131 L 255 131 L 255 144.6719 C 255 150.625 254.5469 154.6719 253.6563 156.7969 C 252.7656 158.9375 251.0625 160 248.5469 160 C 246.3906 160 244.75 158.9688 243.6563 156.9063 C 242.5469 154.8438 242 151.7344 242 147.6094 L 242 92.9531 C 242 87.8906 242.3594 84.6406 243.0938 83.1875 C 243.8281 81.7344 245.2656 81 247.4063 81 C 249.5313 81 251 81.8281 251.7969 83.4531 C 252.5938 85.0938 253 88.2188 253 92.8125 L 253 106 L 286 106 C 286 95.0781 284.9063 86.6406 282.7188 80.6719 L 282.7188 80.6719 Z" fill="#000000"/>
			<path d="M 297 179 L 334 179 L 334 119 L 357 119 L 357 92 L 334 92 L 334 65 L 360 65 L 360 37 L 297 37 L 297 179 L 297 179 Z" fill="#000000"/>
			<path d="M 400 95.0781 C 400 88.7344 400.2813 84.7969 400.8594 83.2813 C 401.4219 81.7656 402.8906 81 405.25 81 C 407.3125 81 408.7813 81.9063 409.6719 83.6875 C 410.5469 85.4844 411 89.3438 411 95.25 C 411 99.9844 410.5938 103.1406 409.7813 104.7188 C 408.9688 106.2969 402.7969 109.375 391.2969 113.9688 C 380.5313 118.2188 373.7969 121.9375 371.0781 125.125 C 368.3594 128.3125 367 134.2813 367 143.0625 L 367 152.7031 C 367 164.5625 369.5625 172.25 374.6875 175.75 C 379.8125 179.2344 385.4375 181 391.5781 181 C 396.2656 181 400.3125 179.9219 403.7031 177.7813 C 407.0781 175.6406 409.8438 172.4219 412 168.125 L 412 179 L 447 179 L 447 120.3438 C 447 101.0313 446.375 88.2656 445.1563 82.0625 C 443.9219 75.875 440.2656 70.6406 434.1719 66.3906 C 428.0781 62.1406 419.0469 60 407.0469 60 C 397.0313 60 388.8906 61.875 382.625 65.5938 C 376.3594 69.3281 372.1875 73.625 370.1094 78.4844 C 368.0313 83.3438 367 90.25 367 99.2188 L 367 107 L 400 107 L 400 95.0781 L 400 95.0781 ZM 411 147.0469 C 411 152.9219 410.6719 156.5625 410.0156 157.9375 C 409.3594 159.3125 407.9375 160 405.7656 160 C 403.4688 160 401.9375 159.125 401.1563 157.3594 C 400.375 155.6094 400 151.7031 400 145.6406 C 400 140.3594 400.4375 136.3125 401.3281 133.4844 C 402.2188 130.6719 405.4375 127.1719 411 123 L 411 147.0469 L 411 147.0469 ZM 406 30 L 391 54 L 409 54 L 438 30 L 406 30 L 406 30 Z" fill="#000000"/>
			<path d="M 534.7188 80.6719 C 532.5313 74.7188 528.1406 69.7813 521.5469 65.875 C 514.9531 61.9688 507 60 497.6875 60 C 488.3125 60 480.3594 61.9844 473.8281 65.9375 C 467.2813 69.9063 463 74.4063 461 79.4531 C 459 84.5 458 91.9844 458 101.8906 L 458 135.0625 C 458 146.4531 459.2188 155.2344 461.6719 161.4219 C 464.1094 167.6094 468.2813 172.4219 474.1719 175.8594 C 480.0625 179.2813 488.0469 181 498.125 181 C 506.0313 181 512.6563 179.75 518.0156 177.2813 C 523.375 174.7969 527.7188 171.1094 531.0625 166.2188 C 534.3906 161.3438 536.3594 156.5781 536.9844 151.9219 C 537.5938 147.2813 537.9375 140.3125 538 131 L 507 131 L 507 144.6719 C 507 150.625 506.5469 154.6719 505.6563 156.7969 C 504.7656 158.9375 503.0625 160 500.5469 160 C 498.3906 160 496.75 158.9688 495.6563 156.9063 C 494.5469 154.8438 494 151.7344 494 147.6094 L 494 92.9531 C 494 87.8906 494.3594 84.6406 495.0938 83.1875 C 495.8281 81.7344 497.2656 81 499.4063 81 C 501.5313 81 503 81.8281 503.7969 83.4531 C 504.5938 85.0938 505 88.2188 505 92.8125 L 505 106 L 538 106 C 538 95.0781 536.9063 86.6406 534.7188 80.6719 L 534.7188 80.6719 Z" fill="#000000"/>
			<path d="M 548 37 L 548 55 L 585 55 L 585 37 L 548 37 L 548 37 ZM 548 62 L 548 179 L 585 179 L 585 62 L 548 62 L 548 62 Z" fill="#000000"/>
			<path d="M 597 37 L 597 179 L 634 179 L 634 37 L 597 37 L 597 37 Z" fill="#000000"/>
		</g>
	</g>
</svg>