<?xml version="1.0" standalone="no"?>
<!-- Generator: Adobe Fireworks 10, Export SVG Extension by Aaron Beall (http://fireworks.abeall.com) . Version: 0.6.1  -->
<!DOCTYPE svg PUBLIC "-//W3C//DTD SVG 1.1//EN" "http://www.w3.org/Graphics/SVG/1.1/DTD/svg11.dtd">
<svg id="31.fw-P%E1gina%201" viewBox="0 0 650 210" style="background-color:#ffffff00" version="1.1"
	xmlns="http://www.w3.org/2000/svg" xmlns:xlink="http://www.w3.org/1999/xlink" xml:space="preserve"
	x="0px" y="0px" width="650px" height="210px"
>
	<g id="Camada%201">
		<g>
			<path d="M 60 55 L 58.2813 76.6875 L 53.5 136.3438 L 46 55 L 15 55 L 32.25 170 L 75.75 170 L 91 55 L 60 55 L 60 55 Z" fill="#000000"/>
			<path d="M 96 55 L 96 70 L 125 70 L 125 55 L 96 55 L 96 55 ZM 96 76 L 96 170 L 125 170 L 125 76 L 96 76 L 96 76 Z" fill="#000000"/>
			<path d="M 136 76 L 136 183 L 165 183 L 165 161.6875 C 167.4063 165.1094 170.0781 167.6875 173 169.4063 C 175.9219 171.125 179.0938 172 182.5156 172 C 186.7969 172 190.4688 170.9063 193.5 168.7656 C 196.5313 166.6094 198.5469 163.7031 199.5313 160.0625 C 200.5 156.4375 201 150.3125 201 141.7031 L 201 101.875 C 201 94.375 200.6094 89.0469 199.8281 85.9063 C 199.0469 82.7813 197.1094 80.0156 193.9844 77.6094 C 190.8594 75.2031 187.1406 74 182.8594 74 C 179.3438 74 176.1094 74.875 173.1406 76.625 C 170.1719 78.375 167.4688 81.0313 165 84.5625 L 165.4063 76 L 136 76 L 136 76 ZM 172 143.6094 C 172 148.6094 171.8125 151.7656 171.4531 153.0625 C 171.0781 154.3594 170.1563 155 168.6719 155 C 167.1406 155 166.1406 154.2969 165.6875 152.875 C 165.2188 151.4688 165 147.9219 165 142.2656 L 165 103.375 C 165 97.9688 165.2188 94.5469 165.6563 93.125 C 166.0938 91.7188 167.0781 91 168.6094 91 C 170.1719 91 171.1406 91.625 171.4844 92.8438 C 171.8281 94.0625 172 97.5781 172 103.375 L 172 143.6094 L 172 143.6094 Z" fill="#000000"/>
			<path d="M 281 94.1719 C 281 83.5469 280.1094 75.7188 278.3281 70.6875 C 276.5469 65.6563 272.8125 61.4375 267.1406 58.0625 C 261.4531 54.6875 254.2656 53 245.5469 53 C 239.1094 53 233.4219 54.0938 228.4844 56.2813 C 223.5313 58.4688 219.6563 61.4688 216.875 65.2813 C 214.0781 69.0938 212.4063 73.0469 211.8438 77.1563 C 211.2813 81.2813 211 87.4531 211 95.6719 L 211 129.0469 C 211 140.2344 211.9063 148.625 213.7344 154.1875 C 215.5625 159.7656 219.2969 164.125 224.9219 167.2813 C 230.5469 170.4219 237.7031 172 246.3906 172 C 254.7344 172 261.75 170.0938 267.4531 166.3281 C 273.1406 162.5469 276.8281 158.1406 278.5 153.1094 C 280.1563 148.0781 281 139.5625 281 127.5313 L 281 123 L 251 123 L 251 137.9219 C 251 144.4531 250.6719 148.5938 250.0469 150.3594 C 249.4219 152.125 248.0781 153 246.0313 153 C 243.8906 153 242.5156 152.1563 241.9063 150.4375 C 241.2969 148.7344 241 145.0781 241 139.4844 L 241 86.0156 C 241 80.1875 241.2969 76.3906 241.9063 74.6406 C 242.5156 72.8906 243.9531 72 246.2344 72 C 248.2344 72 249.5156 72.7188 250.1094 74.1563 C 250.7031 75.5938 251 79.2188 251 85.0313 L 251 105 L 281 105 L 281 94.1719 L 281 94.1719 Z" fill="#000000"/>
			<path d="M 317 102.3594 C 317 97.2344 317.2031 94.0625 317.625 92.8438 C 318.0313 91.625 319.0938 91 320.8125 91 C 322.3125 91 323.375 91.7344 324.0313 93.1719 C 324.6719 94.625 325 97.7344 325 102.5156 C 325 106.3438 324.6719 108.8906 324.0313 110.1719 C 323.375 111.4531 318.4844 113.9531 309.3281 117.6719 C 300.7656 121.1094 295.3906 124.125 293.2344 126.7031 C 291.0781 129.2969 290 134.1406 290 141.25 L 290 149.0625 C 290 158.6719 292.0469 164.8906 296.1406 167.7344 C 300.2344 170.5781 304.75 172 309.6719 172 C 313.4219 172 316.6406 171.1094 319.3594 169.3438 C 322.0625 167.5625 324.2813 164.9063 326 161.3594 L 326 170 L 354 170 L 354 122.6719 C 354 107.0938 353.5 96.7969 352.5156 91.7969 C 351.5313 86.7969 348.6094 82.5938 343.7344 79.1563 C 338.8594 75.7188 331.625 74 322.0313 74 C 314.0156 74 307.5 75.5156 302.5 78.5313 C 297.4844 81.5469 294.1406 85.0156 292.4844 88.9531 C 290.8281 92.8906 290 98.4688 290 105.7188 L 290 112 L 317 112 L 317 102.3594 L 317 102.3594 ZM 325 144.4688 C 325 149.25 324.75 152.1875 324.2813 153.3125 C 323.7969 154.4375 322.7656 155 321.1875 155 C 319.5156 155 318.4063 154.2969 317.8438 152.8594 C 317.2813 151.4219 317 148.25 317 143.3125 C 317 139.0156 317.3125 135.7188 317.9688 133.4219 C 318.6094 131.1406 320.9531 128.2969 325 124.8906 L 325 144.4688 L 325 144.4688 Z" fill="#000000"/>
			<path d="M 364 76 L 364 170 L 393 170 L 393 132.6563 C 393 123.5 393.2813 117.6406 393.8438 115.0938 C 394.4063 112.5625 395.9375 110.5781 398.4063 109.1406 C 400.875 107.7188 404.7344 107 410 107 L 410 74 C 402.1406 74.5469 396.1406 79.4375 392 88.6719 L 393 76 L 364 76 L 364 76 Z" fill="#000000"/>
			<path d="M 452 55 L 452 82.0625 C 449.6094 79.375 446.9531 77.3594 444.0313 76.0156 C 441.0938 74.6719 437.875 74 434.375 74 C 429.8281 74 425.9219 75.1563 422.6406 77.4531 C 419.3594 79.7656 417.2656 82.4375 416.3594 85.4688 C 415.4531 88.5156 415 93.6719 415 100.9375 L 415 145.2031 C 415 152.1875 415.4531 157.2188 416.3594 160.3125 C 417.2656 163.4063 419.3438 166.125 422.5781 168.4688 C 425.7969 170.8125 429.625 172 434.0313 172 C 437.2969 172 440.4219 171.2344 443.4219 169.7344 C 446.4219 168.2188 449.2813 165.9531 452 162.9219 L 452 170 L 481 170 L 481 55 L 452 55 L 452 55 ZM 452 143.125 C 452 148.3594 451.7188 151.6406 451.1563 152.9844 C 450.5938 154.3281 449.4531 155 447.7656 155 C 446.2969 155 445.2969 154.4063 444.7813 153.2031 C 444.25 152 444 149.4844 444 145.6719 L 444 99.7031 C 444 96.0313 444.2656 93.6563 444.8125 92.5938 C 445.3438 91.5313 446.4063 91 447.9688 91 C 449.5625 91 450.6406 91.5938 451.1875 92.7656 C 451.7188 93.9531 452 96.2656 452 99.7031 L 452 143.125 L 452 143.125 Z" fill="#000000"/>
			<path d="M 544 55 C 536.9375 64.2188 526.5938 70.2969 513 73.25 L 513 86 L 515.7188 86 C 522.0781 86 526.1719 86.4688 528.0156 87.4063 C 529.8594 88.3438 530.9844 89.7188 531.3906 91.5313 C 531.7969 93.3438 532 98.75 532 107.7344 L 532 170 L 561 170 L 561 55 L 544 55 L 544 55 Z" fill="#000000"/>
			<path d="M 638.6719 75.0156 C 637.7969 71.0469 636.1094 67.4844 633.6406 64.3281 C 631.1719 61.1719 627.4375 58.4844 622.4375 56.2969 C 617.4375 54.1094 611.7813 53 605.4688 53 C 597.7031 53 591.0938 54.5938 585.6563 57.75 C 580.2188 60.9063 576.5781 65.1094 574.75 70.3438 C 572.9063 75.5938 572 83.4688 572 93.9844 L 572 133.9844 C 572 142.0625 572.5625 147.9531 573.7031 151.6563 C 574.8438 155.3594 576.7656 158.8906 579.4844 162.2344 C 582.2031 165.5781 585.8438 168.0469 590.4063 169.625 C 594.9688 171.2031 600.7031 172 607.6094 172 C 612.8281 172 617.5625 171.2344 621.7969 169.7344 C 626.0313 168.2344 629.6406 165.75 632.6406 162.3125 C 635.6406 158.875 637.6094 155.1563 638.5625 151.1875 C 639.5156 147.2188 640 140.9063 640 132.2188 L 640 93.9844 C 640 85.3125 639.5469 78.9844 638.6719 75.0156 L 638.6719 75.0156 ZM 611 140.875 C 611 146.4531 610.6719 150.0313 610.0313 151.625 C 609.375 153.2188 608.0313 154 605.9688 154 C 603.8906 154 602.5469 153.3281 601.9219 151.9688 C 601.2969 150.625 601 146.6406 601 140.0313 L 601 84.6094 C 601 78.7656 601.3281 75.0469 602 73.4219 C 602.6563 71.8125 604.0313 71 606.1094 71 C 608.2188 71 609.5625 71.7656 610.1406 73.2813 C 610.7031 74.8125 611 78.5781 611 84.6094 L 611 140.875 L 611 140.875 Z" fill="#000000"/>
		</g>
	</g>
</svg>