<?xml version="1.0" standalone="no"?>
<!-- Generator: Adobe Fireworks 10, Export SVG Extension by Aaron Beall (http://fireworks.abeall.com) . Version: 0.6.1  -->
<!DOCTYPE svg PUBLIC "-//W3C//DTD SVG 1.1//EN" "http://www.w3.org/Graphics/SVG/1.1/DTD/svg11.dtd">
<svg id="44.fw-P%E1gina%201" viewBox="0 0 266 91" style="background-color:#ffffff00" version="1.1"
	xmlns="http://www.w3.org/2000/svg" xmlns:xlink="http://www.w3.org/1999/xlink" xml:space="preserve"
	x="0px" y="0px" width="266px" height="91px"
>
	<g id="Camada%201">
		<path d="M 75.5 40.5 C 75.5 59.5 58.5 71.5 44.5 71.5 C 25.5 71.5 14.5 54.5 14.5 40.5 C 14.5 23.5 27.5 10.5 45.5 10.5 C 63.5 10.5 75.5 26.5 75.5 40.5 ZM 70.5 40.5 C 70.5 55.5 57.5 66.5 44.5 66.5 C 29.5 66.5 19.5 53.5 19.5 40.5 C 19.5 25.5 31.5 15.5 44.5 15.5 C 59.5 15.5 70.5 27.5 70.5 40.5 ZM 145.5 23.5 C 145.5 26.5 144.5 27.5 141.5 27.5 C 139.5 27.5 139.5 26.5 138.5 26.5 L 138.5 22.5 C 139.5 21.5 139.5 20.5 141.5 20.5 C 144.5 20.5 145.5 21.5 145.5 23.5 ZM 60.5 22.5 L 60.5 29.5 C 56.5 27.5 58.5 22.5 53.5 24.5 C 53.5 23.5 55.5 23.5 56.5 22.5 L 60.5 22.5 ZM 117.5 22.5 L 117.5 27.5 L 106.5 27.5 C 105.5 29.5 106.5 31.5 106.5 60.5 L 99.5 60.5 C 99.5 32.5 99.5 30.5 100.5 29.5 C 96.5 25.5 92.5 26.5 88.5 28.5 L 89.5 22.5 L 117.5 22.5 ZM 49.5 37.5 C 49.5 39.5 51.5 40.5 52.5 40.5 C 51.5 40.5 50.5 40.5 50.5 42.5 C 50.5 45.5 52.5 46.5 53.5 47.5 C 52.5 47.5 50.5 45.5 48.5 45.5 C 45.5 45.5 47.5 47.5 45.5 47.5 C 42.5 47.5 45.5 45.5 42.5 45.5 C 40.5 45.5 39.5 48.5 38.5 49.5 C 39.5 47.5 40.5 46.5 40.5 43.5 C 40.5 41.5 38.5 41.5 39.5 41.5 C 39.5 41.5 40.5 41.5 40.5 39.5 C 40.5 36.5 38.5 36.5 36.5 34.5 C 38.5 35.5 39.5 36.5 41.5 36.5 C 44.5 36.5 44.5 34.5 44.5 33.5 C 44.5 34.5 45.5 35.5 46.5 36.5 C 48.5 35.5 50.5 33.5 52.5 31.5 C 51.5 33.5 49.5 34.5 49.5 37.5 ZM 133.5 37.5 C 133.5 37.5 133.5 36.5 131.5 36.5 C 118.5 36.5 123.5 58.5 123.5 60.5 L 117.5 60.5 L 117.5 35.5 C 119.5 35.5 122.5 35.5 124.5 35.5 C 125.5 34.5 125.5 31.5 134.5 31.5 C 134.5 35.5 133.5 36.5 133.5 37.5 ZM 173.5 38.5 L 173.5 60.5 L 167.5 60.5 L 167.5 39.5 C 166.5 38.5 165.5 36.5 162.5 36.5 C 160.5 36.5 157.5 38.5 155.5 40.5 L 155.5 60.5 L 149.5 60.5 L 149.5 35.5 C 152.5 36.5 161.5 31.5 164.5 31.5 C 168.5 31.5 173.5 34.5 173.5 38.5 ZM 202.5 39.5 L 202.5 60.5 L 196.5 60.5 L 196.5 40.5 C 195.5 38.5 193.5 36.5 190.5 36.5 C 188.5 36.5 186.5 38.5 184.5 40.5 L 184.5 60.5 L 178.5 60.5 L 178.5 35.5 C 181.5 36.5 190.5 31.5 193.5 31.5 C 198.5 31.5 202.5 36.5 202.5 39.5 ZM 253.5 34.5 C 253.5 35.5 251.5 37.5 251.5 38.5 C 249.5 37.5 246.5 35.5 244.5 35.5 C 241.5 35.5 243.5 36.5 241.5 36.5 C 241.5 37.5 240.5 36.5 240.5 39.5 C 240.5 46.5 254.5 40.5 254.5 52.5 C 254.5 58.5 246.5 61.5 243.5 61.5 C 238.5 61.5 234.5 57.5 233.5 55.5 C 234.5 55.5 235.5 54.5 236.5 53.5 C 237.5 54.5 237.5 56.5 240.5 56.5 L 247.5 56.5 C 247.5 55.5 248.5 55.5 248.5 52.5 C 248.5 44.5 234.5 51.5 234.5 39.5 C 234.5 32.5 241.5 31.5 244.5 31.5 C 247.5 31.5 250.5 32.5 253.5 34.5 ZM 144.5 32.5 L 144.5 60.5 L 138.5 60.5 L 138.5 32.5 L 144.5 32.5 ZM 213.5 32.5 L 213.5 53.5 C 214.5 54.5 215.5 55.5 217.5 55.5 C 218.5 55.5 222.5 53.5 224.5 51.5 L 224.5 32.5 L 230.5 32.5 L 230.5 57.5 C 230.5 54.5 226.5 57.5 224.5 56.5 C 221.5 59.5 217.5 61.5 214.5 61.5 C 209.5 61.5 207.5 55.5 207.5 53.5 L 206.5 32.5 L 213.5 32.5 ZM 47.5 37.5 C 47.5 38.5 48.5 39.5 48.5 43.5 C 46.5 44.5 44.5 44.5 42.5 43.5 C 42.5 42.5 41.5 43.5 41.5 40.5 C 41.5 38.5 43.5 38.5 44.5 37.5 L 47.5 37.5 Z" fill="#000000"/>
	</g>
</svg>