<?xml version="1.0" standalone="no"?>
<!-- Generator: Adobe Fireworks 10, Export SVG Extension by Aaron Beall (http://fireworks.abeall.com) . Version: 0.6.1  -->
<!DOCTYPE svg PUBLIC "-//W3C//DTD SVG 1.1//EN" "http://www.w3.org/Graphics/SVG/1.1/DTD/svg11.dtd">
<svg id="49.fw-P%E1gina%201" viewBox="0 0 650 210" style="background-color:#ffffff00" version="1.1"
	xmlns="http://www.w3.org/2000/svg" xmlns:xlink="http://www.w3.org/1999/xlink" xml:space="preserve"
	x="0px" y="0px" width="650px" height="210px"
>
	<g id="Camada%201">
		<g>
			<path d="M 55 91.0625 C 55 85.1875 54.4063 81.0156 53.2188 78.5469 C 52.0313 76.0938 49.6094 74.0625 45.9531 72.4375 C 42.2969 70.8125 37.875 70 32.6875 70 C 27.9375 70 23.8906 70.75 20.5469 72.2344 C 17.1875 73.7344 14.75 75.7969 13.25 78.4219 C 11.75 81.0625 11 85.2344 11 90.9375 C 11 94.8906 11.5469 98.1406 12.6719 100.6875 C 13.7813 103.2344 15.1875 105.2344 16.875 106.6719 C 18.5625 108.1094 21.9844 110.4844 27.1406 113.7969 C 32.2656 117.0781 35.5469 119.3906 36.9531 120.7031 C 38.3125 122.0156 39 124.8281 39 129.1094 C 39 131.0625 38.6094 132.5313 37.8281 133.5156 C 37.0469 134.5156 35.8594 135 34.2656 135 C 32.6719 135 31.5625 134.625 30.9375 133.8594 C 30.3125 133.0938 30 131.375 30 128.6875 L 30 120 L 12 120 L 12 124.8281 C 12 130.375 12.5781 134.6563 13.75 137.6563 C 14.9219 140.6563 17.3906 143.1406 21.1719 145.0781 C 24.9531 147.0156 29.5156 148 34.8594 148 C 39.7188 148 43.9844 147.1406 47.6563 145.4531 C 51.3125 143.75 53.7969 141.6406 55.0781 139.125 C 56.3594 136.6094 57 132.7031 57 127.3906 C 57 120.0938 55.7969 114.7969 53.4063 111.5156 C 51 108.2344 45.3594 103.75 36.5156 98.0625 C 33.4219 96.0938 31.4063 94.5313 30.4688 93.375 C 29.4844 92.2344 29 90.5313 29 88.25 C 29 86.5 29.3594 85.1875 30.0938 84.3125 C 30.8281 83.4375 31.9063 83 33.3438 83 C 34.6563 83 35.5938 83.3438 36.1563 84.0156 C 36.7188 84.7031 37 86.2656 37 88.7188 L 37 94 L 55 94 L 55 91.0625 L 55 91.0625 Z" fill="#000000"/>
			<path d="M 62 71 L 62 81 L 81 81 L 81 71 L 62 71 L 62 71 ZM 62 85 L 62 147 L 81 147 L 81 85 L 62 85 L 62 85 Z" fill="#000000"/>
			<path d="M 88 85 L 88 147 L 107 147 L 107 105.2031 C 107 100.5469 107.1406 97.6875 107.4375 96.6094 C 107.7344 95.5469 108.4688 95 109.625 95 C 110.7188 95 111.3906 95.4688 111.6406 96.4063 C 111.875 97.3438 112 99.9219 112 104.1719 L 112 147 L 131 147 L 131 103.625 C 131 98.2188 130.7031 94.3594 130.125 92.0469 C 129.5469 89.7344 128.2656 87.8125 126.2656 86.2813 C 124.2656 84.7656 121.6875 84 118.5469 84 C 116.0156 84 113.7969 84.6094 111.875 85.8125 C 109.9531 87.0313 108.3281 88.8438 107 91.25 L 107 85 L 88 85 L 88 85 Z" fill="#000000"/>
			<path d="M 162 71 L 162 89.3125 C 160.4375 87.5469 158.7188 86.2188 156.8281 85.3281 C 154.9219 84.4531 152.8438 84 150.5625 84 C 147.625 84 145.0938 84.7656 142.9688 86.2656 C 140.8438 87.7656 139.4844 89.5156 138.8906 91.5 C 138.2969 93.4844 138 96.8438 138 101.5938 L 138 130.5 C 138 135.0625 138.2969 138.3594 138.8906 140.375 C 139.4844 142.3906 140.8281 144.1719 142.9219 145.7031 C 145.0156 147.2188 147.4844 148 150.3438 148 C 152.4688 148 154.5 147.5156 156.4375 146.5469 C 158.375 145.5781 160.2344 144.1406 162 142.2031 L 162 147 L 181 147 L 181 71 L 162 71 L 162 71 ZM 162 129.2031 C 162 132.6406 161.8125 134.8125 161.4688 135.6875 C 161.1094 136.5625 160.4063 137 159.3594 137 C 158.4219 137 157.7969 136.6094 157.4844 135.8281 C 157.1563 135.0469 157 133.3906 157 130.875 L 157 100.7031 C 157 98.2969 157.1563 96.75 157.5 96.0469 C 157.8438 95.3594 158.5 95 159.4844 95 C 160.4844 95 161.1406 95.3906 161.4844 96.1719 C 161.8281 96.9531 162 98.4531 162 100.7031 L 162 129.2031 L 162 129.2031 Z" fill="#000000"/>
			<path d="M 231 91.0625 C 231 85.1875 230.4063 81.0156 229.2188 78.5469 C 228.0313 76.0938 225.6094 74.0625 221.9531 72.4375 C 218.2969 70.8125 213.875 70 208.6875 70 C 203.9375 70 199.8906 70.75 196.5469 72.2344 C 193.1875 73.7344 190.75 75.7969 189.25 78.4219 C 187.75 81.0625 187 85.2344 187 90.9375 C 187 94.8906 187.5469 98.1406 188.6719 100.6875 C 189.7813 103.2344 191.1875 105.2344 192.875 106.6719 C 194.5625 108.1094 197.9844 110.4844 203.1406 113.7969 C 208.2656 117.0781 211.5469 119.3906 212.9531 120.7031 C 214.3125 122.0156 215 124.8281 215 129.1094 C 215 131.0625 214.6094 132.5313 213.8281 133.5156 C 213.0469 134.5156 211.8594 135 210.2656 135 C 208.6719 135 207.5625 134.625 206.9375 133.8594 C 206.3125 133.0938 206 131.375 206 128.6875 L 206 120 L 188 120 L 188 124.8281 C 188 130.375 188.5781 134.6563 189.75 137.6563 C 190.9219 140.6563 193.3906 143.1406 197.1719 145.0781 C 200.9531 147.0156 205.5156 148 210.8594 148 C 215.7188 148 219.9844 147.1406 223.6563 145.4531 C 227.3125 143.75 229.7969 141.6406 231.0781 139.125 C 232.3594 136.6094 233 132.7031 233 127.3906 C 233 120.0938 231.7969 114.7969 229.4063 111.5156 C 227 108.2344 221.3594 103.75 212.5156 98.0625 C 209.4219 96.0938 207.4063 94.5313 206.4688 93.375 C 205.4844 92.2344 205 90.5313 205 88.25 C 205 86.5 205.3594 85.1875 206.0938 84.3125 C 206.8281 83.4375 207.9063 83 209.3438 83 C 210.6563 83 211.5938 83.3438 212.1563 84.0156 C 212.7188 84.7031 213 86.2656 213 88.7188 L 213 94 L 231 94 L 231 91.0625 L 231 91.0625 Z" fill="#000000"/>
			<path d="M 280 108.8281 C 280 102.8594 279.3281 98.2344 277.9844 94.9375 C 276.6406 91.6406 274.2969 89 270.9531 87 C 267.6094 85 263.375 84 258.25 84 C 254.0469 84 250.3281 84.8438 247.1094 86.5 C 243.875 88.1563 241.5469 90.5469 240.125 93.6719 C 238.7031 96.7969 238 101.0469 238 106.4375 L 238 124.4531 C 238 129.0469 238.3125 132.5469 238.9531 134.9531 C 239.5781 137.3594 240.7188 139.5625 242.375 141.5625 C 244.0156 143.5625 246.3125 145.1406 249.2813 146.2813 C 252.2344 147.4219 255.6406 148 259.5156 148 C 263.5 148 266.8125 147.4063 269.4688 146.25 C 272.1094 145.0938 274.2969 143.3438 276.0156 141 C 277.7344 138.6563 278.8281 136.4688 279.2969 134.4063 C 279.7656 132.3594 280 129.4219 280 125.5781 L 280 121 L 262 121 L 262 129.1563 C 262 132.25 261.8125 134.3281 261.4375 135.3906 C 261.0625 136.4688 260.3438 137 259.25 137 C 258.3594 137 257.7656 136.6094 257.4531 135.7969 C 257.1406 134.9844 257 133.1875 257 130.375 L 257 117 L 280 117 L 280 108.8281 L 280 108.8281 ZM 257 107 L 257 102.5156 C 257 99.0781 257.1094 96.9688 257.3281 96.1875 C 257.5469 95.4063 258.1406 95 259.1094 95 C 259.8594 95 260.375 95.4688 260.625 96.3906 C 260.875 97.3125 261 99.3594 261 102.5156 L 261 107 L 257 107 L 257 107 Z" fill="#000000"/>
			<path d="M 287 85 L 287 147 L 306 147 L 306 122.7031 C 306 116.7344 306.1719 112.9219 306.5469 111.2656 C 306.9219 109.6094 307.9063 108.3281 309.5 107.3906 C 311.0938 106.4688 313.5938 106 317 106 L 317 84 C 312.1875 84.375 308.5313 87.625 306 93.75 L 306 85 L 287 85 L 287 85 Z" fill="#000000"/>
			<path d="M 343.0781 85 L 341.0156 105.7344 L 338.5 131.2344 L 333.9219 85 L 317 85 L 326 147 L 351 147 L 360 85 L 343.0781 85 L 343.0781 85 Z" fill="#000000"/>
			<path d="M 381 147 L 401 147 L 401 115 L 414 115 L 414 101 L 401 101 L 401 86 L 415 86 L 415 71 L 381 71 L 381 147 L 381 147 Z" fill="#000000"/>
			<path d="M 418 85 L 418 147 L 437 147 L 437 122.7031 C 437 116.7344 437.1719 112.9219 437.5469 111.2656 C 437.9219 109.6094 438.9063 108.3281 440.5 107.3906 C 442.0938 106.4688 444.5938 106 448 106 L 448 84 C 443.1875 84.375 439.5313 87.625 437 93.75 L 437 85 L 418 85 L 418 85 Z" fill="#000000"/>
			<path d="M 469 102.5781 C 469 99.1719 469.125 97.0469 469.3906 96.2344 C 469.6406 95.4219 470.3125 95 471.3906 95 C 472.3281 95 472.9844 95.4844 473.3906 96.4531 C 473.7969 97.4219 474 99.5 474 102.6875 C 474 105.25 473.7969 106.9375 473.3906 107.7813 C 472.9844 108.625 469.9063 110.2656 464.1563 112.6875 C 458.7656 114.9219 455.3906 116.875 454.0313 118.5469 C 452.6719 120.2344 452 123.3906 452 128.0156 L 452 133.0938 C 452 139.3438 453.25 143.3906 455.75 145.2344 C 458.25 147.0625 461.0156 148 464.0156 148 C 466.2969 148 468.2813 147.4219 469.9375 146.2969 C 471.5938 145.1563 472.9375 143.4375 474 141.1563 L 474 147 L 493 147 L 493 115.9375 C 493 105.7188 492.6719 98.9688 492.0469 95.6875 C 491.4219 92.4063 489.5469 89.6406 486.4219 87.3906 C 483.2969 85.1406 478.6719 84 472.5156 84 C 467.3906 84 463.2188 85 460.0156 86.9844 C 456.7969 88.9688 454.6563 91.25 453.5938 93.8281 C 452.5313 96.4219 452 100.0938 452 104.8594 L 452 109 L 469 109 L 469 102.5781 L 469 102.5781 ZM 474 130.1875 C 474 133.2813 473.8438 135.2031 473.5469 135.9219 C 473.25 136.6406 472.6094 137 471.625 137 C 470.5781 137 469.875 136.5469 469.5313 135.6094 C 469.1719 134.6875 469 132.625 469 129.4375 C 469 126.6563 469.2031 124.5313 469.6094 123.0469 C 470.0156 121.5781 471.4688 119.7344 474 117.5313 L 474 130.1875 L 474 130.1875 Z" fill="#000000"/>
			<path d="M 500 85 L 500 147 L 519 147 L 519 105.2031 C 519 100.5469 519.1406 97.6875 519.4375 96.6094 C 519.7344 95.5469 520.4688 95 521.625 95 C 522.7188 95 523.3906 95.4688 523.6406 96.4063 C 523.875 97.3438 524 99.9219 524 104.1719 L 524 147 L 543 147 L 543 103.625 C 543 98.2188 542.7031 94.3594 542.125 92.0469 C 541.5469 89.7344 540.2656 87.8125 538.2656 86.2813 C 536.2656 84.7656 533.6875 84 530.5469 84 C 528.0156 84 525.7969 84.6094 523.875 85.8125 C 521.9531 87.0313 520.3281 88.8438 519 91.25 L 519 85 L 500 85 L 500 85 Z" fill="#000000"/>
			<path d="M 588.3594 94.7969 C 587.2656 91.6875 585.0781 89.1094 581.7813 87.0625 C 578.4688 85.0313 574.5 84 569.8438 84 C 565.1563 84 561.1719 85.0469 557.9063 87.1406 C 554.625 89.2344 552.5 91.625 551.5 94.2969 C 550.5 96.9688 550 100.9219 550 106.1563 L 550 123.7031 C 550 129.7344 550.6094 134.375 551.8281 137.6406 C 553.0469 140.9219 555.1406 143.4688 558.0938 145.2813 C 561.0313 147.0781 565.0313 148 570.0625 148 C 574 148 577.3125 147.3281 580 145.9844 C 582.6875 144.6406 584.8594 142.6563 586.5313 140.0156 C 588.1875 137.3906 589.1719 134.8125 589.4844 132.2969 C 589.7969 129.7969 589.9688 126.0313 590 121 L 575 121 L 575 128.5469 C 575 131.8281 574.7813 134.0625 574.375 135.2344 C 573.9688 136.4219 573.1719 137 572.0156 137 C 571.0156 137 570.2656 136.4531 569.7656 135.3594 C 569.25 134.2656 569 132.6094 569 130.4063 L 569 101.3594 C 569 98.6719 569.1563 96.9531 569.5 96.1719 C 569.8281 95.3906 570.4844 95 571.4531 95 C 572.4219 95 573.0938 95.4375 573.4531 96.2813 C 573.8125 97.1406 574 98.7656 574 101.1406 L 574 108 L 590 108 C 590 102.3125 589.4531 97.9063 588.3594 94.7969 L 588.3594 94.7969 Z" fill="#000000"/>
			<path d="M 614 102.5781 C 614 99.1719 614.125 97.0469 614.3906 96.2344 C 614.6406 95.4219 615.3125 95 616.3906 95 C 617.3281 95 617.9844 95.4844 618.3906 96.4531 C 618.7969 97.4219 619 99.5 619 102.6875 C 619 105.25 618.7969 106.9375 618.3906 107.7813 C 617.9844 108.625 614.9063 110.2656 609.1563 112.6875 C 603.7656 114.9219 600.3906 116.875 599.0313 118.5469 C 597.6719 120.2344 597 123.3906 597 128.0156 L 597 133.0938 C 597 139.3438 598.25 143.3906 600.75 145.2344 C 603.25 147.0625 606.0156 148 609.0156 148 C 611.2969 148 613.2813 147.4219 614.9375 146.2969 C 616.5938 145.1563 617.9375 143.4375 619 141.1563 L 619 147 L 638 147 L 638 115.9375 C 638 105.7188 637.6719 98.9688 637.0469 95.6875 C 636.4219 92.4063 634.5469 89.6406 631.4219 87.3906 C 628.2969 85.1406 623.6719 84 617.5156 84 C 612.3906 84 608.2188 85 605.0156 86.9844 C 601.7969 88.9688 599.6563 91.25 598.5938 93.8281 C 597.5313 96.4219 597 100.0938 597 104.8594 L 597 109 L 614 109 L 614 102.5781 L 614 102.5781 ZM 619 130.1875 C 619 133.2813 618.8438 135.2031 618.5469 135.9219 C 618.25 136.6406 617.6094 137 616.625 137 C 615.5781 137 614.875 136.5469 614.5313 135.6094 C 614.1719 134.6875 614 132.625 614 129.4375 C 614 126.6563 614.2031 124.5313 614.6094 123.0469 C 615.0156 121.5781 616.4688 119.7344 619 117.5313 L 619 130.1875 L 619 130.1875 Z" fill="#000000"/>
		</g>
	</g>
</svg>