<?xml version="1.0" standalone="no"?>
<!DOCTYPE svg PUBLIC "-//W3C//DTD SVG 20010904//EN"
 "http://www.w3.org/TR/2001/REC-SVG-20010904/DTD/svg10.dtd">
<svg version="1.0" xmlns="http://www.w3.org/2000/svg"
 width="512.000000pt" height="512.000000pt" viewBox="0 0 512.000000 512.000000"
 preserveAspectRatio="xMidYMid meet">

<g transform="translate(0.000000,512.000000) scale(0.100000,-0.100000)"
fill="#25255B" stroke="none">
<path d="M2255 5109 c-476 -57 -949 -256 -1320 -556 -120 -97 -306 -286 -397
-403 -240 -310 -406 -678 -491 -1086 -44 -209 -49 -280 -44 -574 4 -269 5
-279 40 -447 59 -277 139 -498 266 -731 248 -455 628 -818 1096 -1047 245
-120 495 -199 767 -242 163 -26 616 -26 773 0 555 92 1042 338 1427 720 407
405 664 933 734 1507 23 188 15 564 -14 736 -55 315 -160 608 -309 864 -351
600 -916 1028 -1578 1194 -225 57 -322 68 -605 72 -146 1 -301 -2 -345 -7z
m605 -999 c277 -21 515 -60 610 -101 113 -49 225 -220 289 -440 26 -91 67
-199 172 -451 l24 -58 113 0 c176 0 205 -21 267 -194 34 -95 36 -107 23 -132
-21 -45 -52 -56 -146 -50 -125 8 -126 7 -92 -118 20 -70 20 -98 18 -557 l-3
-484 -27 -58 c-57 -121 -148 -199 -274 -233 -56 -15 -77 -16 -128 -7 -182 31
-326 173 -343 336 l-6 57 -797 0 -798 0 -6 -54 c-24 -192 -236 -363 -425 -342
-120 13 -271 118 -323 225 -23 46 -23 48 -26 550 -2 478 -1 509 18 584 11 44
17 83 14 86 -3 3 -48 6 -99 7 -102 1 -136 14 -157 59 -23 52 50 246 112 299
31 25 36 26 163 26 l132 0 52 143 c29 78 80 223 113 322 34 99 77 212 96 252
39 81 117 172 178 207 99 58 293 108 481 125 132 12 618 13 775 1z"/>
<path d="M2195 3854 c-193 -19 -372 -53 -440 -83 -59 -26 -100 -85 -131 -190
-13 -47 -40 -129 -59 -181 -72 -197 -90 -303 -60 -334 36 -35 218 -70 562
-107 392 -43 865 -28 1303 42 215 34 260 54 260 120 0 29 -72 246 -151 453
-66 175 -86 197 -210 226 -193 45 -277 52 -664 55 -203 1 -388 1 -410 -1z"/>
<path d="M1283 2620 c-12 -5 -26 -18 -32 -29 -12 -21 -15 -270 -5 -309 16 -58
152 -79 423 -65 174 8 184 10 202 32 23 29 24 77 3 131 -19 47 -44 62 -222
134 -102 42 -323 117 -339 115 -5 0 -18 -4 -30 -9z"/>
<path d="M3650 2581 c-176 -59 -357 -138 -387 -167 -12 -12 -25 -39 -29 -59
-14 -77 24 -119 121 -135 81 -13 323 -13 402 1 54 10 68 16 93 47 l30 37 0
141 c0 203 -10 209 -230 135z"/>
</g>
</svg>
