<?xml version="1.0" standalone="no"?>
<!DOCTYPE svg PUBLIC "-//W3C//DTD SVG 20010904//EN"
 "http://www.w3.org/TR/2001/REC-SVG-20010904/DTD/svg10.dtd">
<svg version="1.0" xmlns="http://www.w3.org/2000/svg"
 width="512.000000pt" height="512.000000pt" viewBox="0 0 512.000000 512.000000"
 preserveAspectRatio="xMidYMid meet">

<g transform="translate(0.000000,512.000000) scale(0.100000,-0.100000)"
fill="#25255B" stroke="none">
<path d="M25 5064 c-27 -56 -27 -60 -23 -218 5 -155 6 -165 42 -264 112 -312
406 -882 610 -1182 162 -237 458 -639 552 -749 130 -151 326 -339 654 -626
156 -138 331 -295 388 -349 79 -76 107 -98 118 -90 8 5 174 189 369 409 l354
400 -27 27 c-92 92 -2989 2698 -2999 2698 -6 0 -24 -25 -38 -56z"/>
<path d="M3509 4793 c-183 -181 -399 -399 -480 -486 -135 -144 -153 -167 -199
-260 -65 -133 -90 -245 -90 -405 0 -123 21 -222 70 -338 l21 -48 -88 -88 -88
-88 30 -28 c27 -26 326 -296 383 -346 l23 -20 72 78 72 78 114 -36 c157 -50
226 -60 351 -53 167 10 258 41 400 135 65 43 174 144 455 422 520 514 545 543
545 635 0 91 -63 155 -155 157 -38 0 -56 -6 -103 -38 -31 -22 -201 -183 -377
-360 -322 -322 -401 -390 -467 -401 -52 -8 -122 28 -156 80 -22 34 -27 52 -27
107 l0 67 70 79 c39 43 210 220 381 394 171 173 317 326 323 338 15 28 16 97
3 133 -15 37 -60 87 -96 106 -42 22 -138 21 -173 -2 -15 -10 -198 -188 -408
-396 -406 -403 -405 -402 -484 -384 -72 16 -163 137 -147 198 16 65 104 166
407 467 344 341 393 401 391 475 0 54 -26 102 -72 132 -26 18 -47 23 -101 23
l-68 0 -332 -327z"/>
<path d="M3001 1974 c-133 -152 -240 -280 -239 -283 2 -4 153 -144 337 -311
184 -168 418 -381 520 -474 429 -391 928 -826 992 -865 42 -26 153 -29 220 -6
102 35 235 169 273 276 14 38 17 69 14 128 -6 103 -35 152 -152 260 -377 348
-1641 1487 -1708 1539 -14 12 -44 -19 -257 -264z m1816 -1390 c31 -20 39 -73
17 -119 -40 -85 -179 -204 -222 -191 -27 9 -51 38 -62 74 -12 43 23 111 92
179 84 82 117 93 175 57z"/>
<path d="M1324 1848 c-110 -101 -326 -298 -479 -438 -293 -267 -677 -643 -783
-768 l-62 -73 0 -107 c0 -59 5 -127 11 -152 26 -115 117 -228 223 -277 55 -25
71 -28 171 -28 100 0 115 3 173 29 57 26 90 57 305 280 269 280 515 542 901
965 l260 284 -30 25 c-16 14 -127 118 -247 231 -121 113 -224 207 -231 209 -7
1 -102 -80 -212 -180z m-837 -1373 c95 -96 113 -128 93 -165 -14 -26 -68 -60
-96 -60 -72 0 -235 189 -218 254 11 46 63 78 109 68 11 -3 61 -47 112 -97z"/>
</g>
</svg>
