<?xml version="1.0" standalone="no"?>
<!DOCTYPE svg PUBLIC "-//W3C//DTD SVG 20010904//EN"
 "http://www.w3.org/TR/2001/REC-SVG-20010904/DTD/svg10.dtd">
<svg version="1.0" xmlns="http://www.w3.org/2000/svg"
 width="512.000000pt" height="512.000000pt" viewBox="0 0 512.000000 512.000000"
 preserveAspectRatio="xMidYMid meet">

<g transform="translate(0.000000,512.000000) scale(0.100000,-0.100000)"
fill="#25255B" stroke="none">
<path d="M1305 4418 c-55 -34 -134 -77 -175 -97 -72 -34 -80 -35 -220 -41
-139 -5 -147 -7 -206 -38 -33 -18 -82 -51 -109 -73 -89 -74 -88 -73 -322 -79
-195 -5 -214 -7 -240 -26 -20 -15 -29 -31 -31 -56 -4 -44 62 -146 169 -262 62
-67 70 -80 56 -88 -25 -14 -21 -54 9 -77 14 -11 60 -31 102 -45 68 -23 93 -26
221 -26 l144 0 81 -82 c210 -212 334 -452 409 -789 15 -63 45 -225 67 -360 22
-134 45 -260 50 -279 6 -19 10 -86 10 -147 0 -186 -66 -447 -162 -637 -41 -83
-47 -89 -123 -139 -75 -48 -80 -54 -80 -87 0 -27 6 -37 25 -48 34 -18 135 -11
184 13 96 46 181 176 277 422 24 62 47 113 51 113 29 0 28 -169 -1 -274 -35
-126 -94 -229 -179 -315 -40 -40 -71 -78 -69 -85 7 -20 60 -39 127 -44 53 -3
74 0 106 16 74 38 150 135 226 287 50 99 71 170 123 416 42 200 84 367 121
480 l15 46 107 6 c112 5 204 23 418 81 160 44 272 63 406 72 l105 7 25 -44
c35 -59 109 -133 280 -280 359 -308 478 -479 482 -689 1 -109 -28 -165 -146
-273 -81 -76 -89 -86 -79 -105 15 -28 59 -35 181 -30 76 3 103 8 118 21 23 21
40 120 73 422 11 110 24 206 28 212 7 14 232 -203 256 -247 10 -17 14 -63 15
-151 0 -123 -1 -127 -28 -165 -30 -41 -112 -122 -137 -137 -8 -4 -15 -19 -15
-31 0 -20 8 -26 49 -36 77 -18 137 -15 190 12 65 33 80 69 92 220 6 68 16 184
23 260 7 75 10 158 6 184 -7 44 -15 55 -103 139 -129 121 -204 245 -272 447
l-34 101 6 291 c6 284 5 295 -22 454 -15 90 -24 166 -21 170 4 3 113 -7 244
-22 333 -38 481 -46 667 -36 88 5 179 9 203 10 77 0 44 15 -100 44 -370 74
-627 150 -958 281 -416 166 -419 166 -1225 174 l-630 6 -78 28 c-161 57 -335
166 -508 320 -107 96 -309 321 -309 344 0 7 34 97 75 200 41 103 75 191 75
195 0 15 -15 8 -115 -54z"/>
</g>
</svg>
