<?xml version="1.0" standalone="no"?>
<!DOCTYPE svg PUBLIC "-//W3C//DTD SVG 20010904//EN"
 "http://www.w3.org/TR/2001/REC-SVG-20010904/DTD/svg10.dtd">
<svg version="1.0" xmlns="http://www.w3.org/2000/svg"
 width="512.000000pt" height="512.000000pt" viewBox="0 0 512.000000 512.000000"
 preserveAspectRatio="xMidYMid meet">

<g transform="translate(0.000000,512.000000) scale(0.100000,-0.100000)"
fill="#25255B" stroke="none">
<path d="M1021 4934 c-58 -25 -118 -81 -145 -136 -25 -49 -26 -60 -26 -205 l0
-153 1710 0 1710 0 0 148 c0 121 -4 154 -19 188 -26 57 -76 111 -135 145 l-51
29 -1505 0 c-1310 -1 -1509 -3 -1539 -16z"/>
<path d="M824 4228 c-15 -24 -136 -212 -269 -418 -253 -392 -402 -629 -498
-790 l-57 -96 0 -87 c0 -147 55 -248 186 -343 211 -151 473 -137 657 36 72 67
119 141 151 234 l22 65 12 -52 c20 -84 63 -158 132 -227 206 -206 503 -214
713 -21 76 71 116 129 148 220 l26 74 6 -39 c11 -70 66 -165 136 -235 212
-212 515 -212 732 1 70 68 131 172 145 244 l7 38 22 -71 c29 -91 71 -156 149
-228 210 -197 509 -190 716 17 62 62 126 175 137 243 l6 41 21 -65 c60 -184
213 -327 395 -369 72 -17 201 -8 272 19 126 48 247 150 297 251 20 42 28 73
30 132 4 73 2 80 -41 172 -61 128 -149 274 -337 556 -86 129 -228 349 -314
488 l-158 252 -1709 0 -1709 0 -26 -42z m1296 -315 c0 -5 -18 -185 -40 -402
-22 -216 -40 -402 -40 -412 0 -18 -18 -19 -505 -19 -278 0 -505 2 -505 5 0 7
106 220 277 553 l145 282 334 0 c184 0 334 -3 334 -7z m1761 -408 c115 -225
209 -413 209 -417 0 -5 -227 -8 -505 -8 -487 0 -505 1 -505 19 0 10 -18 196
-40 412 -22 217 -40 397 -40 402 0 4 151 6 336 5 l336 -3 209 -410z"/>
<path d="M1957 2313 l-77 -57 0 -873 0 -873 -515 0 -515 0 0 870 c0 479 -1
870 -3 870 -2 0 -43 -13 -92 -30 -130 -44 -225 -59 -328 -53 l-87 6 0 -832 0
-831 -51 0 c-89 0 -113 -29 -121 -148 -7 -95 4 -141 39 -169 l28 -23 2323 0
c1483 0 2330 4 2341 10 30 16 51 83 51 166 0 123 -31 164 -125 164 l-45 0 0
831 0 832 -92 -6 c-108 -7 -211 10 -332 54 -44 16 -81 29 -83 29 -2 0 -3 -238
-3 -530 l0 -530 -940 0 -940 0 0 500 c0 447 -2 500 -16 500 -28 0 -165 69
-249 125 -45 30 -84 55 -86 55 -3 0 -40 -26 -82 -57z"/>
<path d="M1114 1516 c-75 -33 -111 -129 -80 -211 48 -123 186 -150 278 -54 79
82 58 208 -42 259 -45 23 -111 25 -156 6z"/>
</g>
</svg>
