<?xml version="1.0" standalone="no"?>
<!DOCTYPE svg PUBLIC "-//W3C//DTD SVG 20010904//EN"
 "http://www.w3.org/TR/2001/REC-SVG-20010904/DTD/svg10.dtd">
<svg version="1.0" xmlns="http://www.w3.org/2000/svg"
 width="512.000000pt" height="512.000000pt" viewBox="0 0 512.000000 512.000000"
 preserveAspectRatio="xMidYMid meet">

<g transform="translate(0.000000,512.000000) scale(0.100000,-0.100000)"
fill="#25255B" stroke="none">
<path d="M2275 5079 c-1061 -109 -1923 -851 -2178 -1874 -57 -229 -71 -349
-72 -610 0 -312 32 -523 119 -790 255 -773 869 -1373 1646 -1608 250 -76 440
-102 730 -102 260 1 381 16 615 75 824 209 1495 836 1760 1645 76 229 112 434
122 690 27 696 -236 1362 -733 1860 -377 378 -863 620 -1406 701 -124 18 -478
26 -603 13z m-670 -2133 c88 -44 155 -112 198 -204 28 -59 32 -77 32 -152 0
-76 -4 -93 -33 -152 -77 -157 -239 -257 -394 -245 -210 17 -384 225 -365 435
12 128 93 251 206 310 78 42 122 52 210 47 60 -3 88 -11 146 -39z m1040 0 c88
-44 155 -112 198 -204 28 -59 32 -77 32 -152 0 -76 -4 -93 -33 -152 -77 -157
-239 -257 -394 -245 -210 17 -384 225 -365 435 12 128 93 251 206 310 78 42
122 52 210 47 60 -3 88 -11 146 -39z m1040 0 c88 -44 155 -112 198 -204 28
-59 32 -77 32 -152 0 -76 -4 -93 -33 -152 -77 -157 -239 -257 -394 -245 -210
17 -384 225 -365 435 12 128 93 251 206 310 78 42 122 52 210 47 60 -3 88 -11
146 -39z"/>
</g>
</svg>
