<?xml version="1.0" standalone="no"?>
<!-- Generator: Adobe Fireworks 10, Export SVG Extension by Aaron Beall (http://fireworks.abeall.com) . Version: 0.6.1  -->
<!DOCTYPE svg PUBLIC "-//W3C//DTD SVG 1.1//EN" "http://www.w3.org/Graphics/SVG/1.1/DTD/svg11.dtd">
<svg id="29.fw-P%E1gina%201" viewBox="0 0 650 210" style="background-color:#ffffff00" version="1.1"
	xmlns="http://www.w3.org/2000/svg" xmlns:xlink="http://www.w3.org/1999/xlink" xml:space="preserve"
	x="0px" y="0px" width="650px" height="210px"
>
	<g id="Camada%201">
		<g>
			<path d="M 23.25 74 L 13.5 149 L 33.75 149 L 34.7969 136 L 42.2031 136 L 43.25 149 L 63.5 149 L 51.75 74 L 23.25 74 L 23.25 74 ZM 34.5781 123 L 38.5 89.7656 L 41.4219 123 L 34.5781 123 L 34.5781 123 Z" fill="#000000"/>
			<path d="M 112 99.125 C 112 92.3906 111.4063 87.4219 110.2344 84.2188 C 109.0625 81.0313 106.6094 78.3594 102.8906 76.2188 C 99.1563 74.0781 94.4219 73 88.7031 73 C 84.4688 73 80.7344 73.7188 77.4844 75.125 C 74.2344 76.5469 71.6875 78.4844 69.8594 80.9531 C 68.0156 83.4219 66.9219 85.9844 66.5469 88.6406 C 66.1719 91.2969 66 95.2969 66 100.6094 L 66 122.2031 C 66 129.4531 66.5938 134.875 67.7969 138.4844 C 69 142.0938 71.4531 144.9219 75.1563 146.9531 C 78.8438 148.9844 83.5469 150 89.25 150 C 94.7344 150 99.3438 148.7656 103.0938 146.2969 C 106.8438 143.8281 109.2656 140.9531 110.3594 137.6719 C 111.4531 134.3906 112 128.8125 112 120.9531 L 112 118 L 92 118 L 92 127.4531 C 92 131.5781 91.7969 134.2031 91.4219 135.3281 C 91.0469 136.4531 90.2344 137 89.0156 137 C 87.7344 137 86.9063 136.4688 86.5469 135.3906 C 86.1719 134.3281 86 132.0313 86 128.5 L 86 94.8281 C 86 91.1563 86.1719 88.7656 86.5469 87.6563 C 86.9063 86.5625 87.7656 86 89.1406 86 C 90.3281 86 91.1094 86.4375 91.4688 87.3125 C 91.8125 88.1875 92 90.3906 92 93.8906 L 92 106 L 112 106 L 112 99.125 L 112 99.125 Z" fill="#000000"/>
			<path d="M 161 94.0625 C 161 88.1875 160.4063 84.0156 159.2188 81.5469 C 158.0313 79.0938 155.6094 77.0625 151.9531 75.4375 C 148.2969 73.8125 143.875 73 138.6875 73 C 133.9375 73 129.8906 73.7344 126.5469 75.2031 C 123.1875 76.6719 120.75 78.7031 119.25 81.2969 C 117.75 83.8906 117 88 117 93.6094 C 117 97.5156 117.5469 100.7188 118.6719 103.2188 C 119.7813 105.7188 121.1875 107.6875 122.875 109.1094 C 124.5625 110.5313 127.9531 112.9375 133.0469 116.3125 C 138.125 119.6719 141.3906 121.9844 142.8594 123.25 C 144.2813 124.5313 145 127.2188 145 131.3281 C 145 133.2031 144.6094 134.625 143.8281 135.5781 C 143.0469 136.5313 141.8594 137 140.2656 137 C 138.6719 137 137.5625 136.625 136.9375 135.8594 C 136.3125 135.0938 136 133.375 136 130.6875 L 136 122 L 118 122 L 118 126.8281 C 118 132.375 118.5781 136.6563 119.75 139.6563 C 120.9219 142.6563 123.3906 145.1406 127.1719 147.0781 C 130.9531 149.0156 135.5156 150 140.8594 150 C 145.7188 150 149.9844 149.1563 153.6563 147.4844 C 157.3125 145.8125 159.7969 143.7344 161.0781 141.2656 C 162.3594 138.7969 163 134.9375 163 129.7031 C 163 122.5156 161.7969 117.3125 159.4063 114.0781 C 157 110.8594 151.4219 106.3438 142.7031 100.5313 C 139.6563 98.5313 137.625 96.9688 136.6094 95.875 C 135.5313 94.7813 135 93.1563 135 91 C 135 89.3281 135.3594 88.0781 136.0938 87.25 C 136.8281 86.4219 137.9063 86 139.3438 86 C 140.6563 86 141.5938 86.3438 142.1563 87.0156 C 142.7188 87.7031 143 89.2656 143 91.7188 L 143 97 L 161 97 L 161 94.0625 L 161 94.0625 Z" fill="#000000"/>
			<path d="M 168 149 L 188 149 L 188 119 L 193.1094 119 C 197.2656 119 200.6406 118.4219 203.2344 117.2344 C 205.8125 116.0625 207.5781 114.375 208.5469 112.1719 C 209.5156 109.9688 210 106.4531 210 101.6406 L 210 95.0781 C 210 90.3594 209.7344 86.8906 209.2344 84.6406 C 208.7188 82.3906 207.75 80.4844 206.3125 78.8906 C 204.875 77.3125 202.7344 76.1094 199.875 75.2656 C 197.0156 74.4219 192.9375 74 187.6406 74 L 168 74 L 168 149 L 168 149 ZM 192.8281 88.1563 C 193.6094 88.9219 194 90.5781 194 93.125 L 194 99.2344 C 194 102 193.6563 103.8125 192.9844 104.6875 C 192.3125 105.5625 191.1094 106 189.3906 106 C 189 106 188.5313 105.9844 188 105.9531 L 188 87 C 190.4375 87 192.0469 87.3906 192.8281 88.1563 L 192.8281 88.1563 Z" fill="#000000"/>
			<path d="M 252.25 74 L 246.5 109.0156 L 243.3906 90.0469 L 240.75 74 L 216 74 L 216 149 L 233 149 L 233.5 99.3594 L 240 149 L 253 149 L 259.5 98.3594 L 260 149 L 277 149 L 277 74 L 252.25 74 L 252.25 74 Z" fill="#000000"/>
			<path d="M 284 149 L 318 149 L 318 134 L 304 134 L 304 117 L 316 117 L 316 103 L 304 103 L 304 89 L 317 89 L 317 74 L 284 74 L 284 149 L 284 149 Z" fill="#000000"/>
			<path d="M 365 94.0625 C 365 88.1875 364.4063 84.0156 363.2188 81.5469 C 362.0313 79.0938 359.6094 77.0625 355.9531 75.4375 C 352.2969 73.8125 347.875 73 342.6875 73 C 337.9375 73 333.8906 73.7344 330.5469 75.2031 C 327.1875 76.6719 324.75 78.7031 323.25 81.2969 C 321.75 83.8906 321 88 321 93.6094 C 321 97.5156 321.5469 100.7188 322.6719 103.2188 C 323.7813 105.7188 325.1875 107.6875 326.875 109.1094 C 328.5625 110.5313 331.9531 112.9375 337.0469 116.3125 C 342.125 119.6719 345.3906 121.9844 346.8594 123.25 C 348.2813 124.5313 349 127.2188 349 131.3281 C 349 133.2031 348.6094 134.625 347.8281 135.5781 C 347.0469 136.5313 345.8594 137 344.2656 137 C 342.6719 137 341.5625 136.625 340.9375 135.8594 C 340.3125 135.0938 340 133.375 340 130.6875 L 340 122 L 322 122 L 322 126.8281 C 322 132.375 322.5781 136.6563 323.75 139.6563 C 324.9219 142.6563 327.3906 145.1406 331.1719 147.0781 C 334.9531 149.0156 339.5156 150 344.8594 150 C 349.7188 150 353.9844 149.1563 357.6563 147.4844 C 361.3125 145.8125 363.7969 143.7344 365.0781 141.2656 C 366.3594 138.7969 367 134.9375 367 129.7031 C 367 122.5156 365.7969 117.3125 363.4063 114.0781 C 361 110.8594 355.4219 106.3438 346.7031 100.5313 C 343.6563 98.5313 341.625 96.9688 340.6094 95.875 C 339.5313 94.7813 339 93.1563 339 91 C 339 89.3281 339.3594 88.0781 340.0938 87.25 C 340.8281 86.4219 341.9063 86 343.3438 86 C 344.6563 86 345.5938 86.3438 346.1563 87.0156 C 346.7188 87.7031 347 89.2656 347 91.7188 L 347 97 L 365 97 L 365 94.0625 L 365 94.0625 Z" fill="#000000"/>
			<path d="M 372 149 L 392 149 L 392 119 L 397.1094 119 C 401.2656 119 404.6406 118.4219 407.2344 117.2344 C 409.8125 116.0625 411.5781 114.375 412.5469 112.1719 C 413.5156 109.9688 414 106.4531 414 101.6406 L 414 95.0781 C 414 90.3594 413.7344 86.8906 413.2344 84.6406 C 412.7188 82.3906 411.75 80.4844 410.3125 78.8906 C 408.875 77.3125 406.7344 76.1094 403.875 75.2656 C 401.0156 74.4219 396.9375 74 391.6406 74 L 372 74 L 372 149 L 372 149 ZM 396.8281 88.1563 C 397.6094 88.9219 398 90.5781 398 93.125 L 398 99.2344 C 398 102 397.6563 103.8125 396.9844 104.6875 C 396.3125 105.5625 395.1094 106 393.3906 106 C 393 106 392.5313 105.9844 392 105.9531 L 392 87 C 394.4375 87 396.0469 87.3906 396.8281 88.1563 L 396.8281 88.1563 Z" fill="#000000"/>
			<path d="M 419 112 L 419 125 L 444 125 L 444 112 L 419 112 L 419 112 Z" fill="#000000"/>
			<path d="M 465 149 L 485 149 L 485 115 C 487.7188 115 489.3906 115.4844 490.0313 116.4531 C 490.6719 117.4219 491 119.9063 491 123.9375 L 491 149 L 509 149 L 509 129.0625 C 509 122.9688 508.8281 119.2344 508.5156 117.875 C 508.1875 116.5313 507.3594 115.0469 506.0313 113.4219 C 504.6875 111.7969 502.0938 110.5 498.2344 109.5313 C 502.5 109.1406 505.3594 107.9531 506.8125 105.9531 C 508.2656 103.9688 509 100.0781 509 94.2969 C 509 87.9531 507.9531 83.3438 505.8906 80.4531 C 503.8125 77.5625 501.125 75.7656 497.8281 75.0625 C 494.5313 74.3594 488.2344 74 478.9531 74 L 465 74 L 465 149 L 465 149 ZM 489.7031 88.0781 C 490.5625 88.7969 491 90.2813 491 92.5625 L 491 96.5156 C 491 99.6875 490.5469 101.5625 489.6563 102.1406 C 488.7656 102.7188 487.2188 103 485 103 L 485 87 C 487.2813 87 488.8438 87.3594 489.7031 88.0781 L 489.7031 88.0781 Z" fill="#000000"/>
			<path d="M 536.5 72 L 513.5 150 L 528.0469 150 L 551.0469 72 L 536.5 72 L 536.5 72 Z" fill="#000000"/>
			<path d="M 572 74 C 567.4375 79.6875 560.7813 83.4375 552 85.25 L 552 94 L 553.5781 94 C 557.25 94 559.625 94.3125 560.6875 94.9219 C 561.75 95.5313 562.4063 96.4375 562.6406 97.625 C 562.875 98.8125 563 102.3594 563 108.2344 L 563 149 L 583 149 L 583 74 L 572 74 L 572 74 Z" fill="#000000"/>
			<path d="M 630.2813 101.4688 C 631.4219 99.625 632 96.6406 632 92.4844 C 632 86.375 630.4531 81.5938 627.3906 78.1563 C 624.3125 74.7188 618.4531 73 609.8281 73 C 602.9375 73 597.9063 74.2813 594.75 76.8281 C 591.5781 79.375 590 84.2813 590 91.5313 L 590 98 L 607 98 L 607 91.4219 C 607 88.3594 607.2031 86.3438 607.6406 85.4063 C 608.0625 84.4688 608.8594 84 610.0156 84 C 611.0313 84 611.7813 84.4375 612.2656 85.2813 C 612.75 86.125 613 87.875 613 90.5313 L 613 94.7656 C 613 97.25 612.7813 99.0781 612.375 100.2344 C 611.9688 101.3906 611.2969 102.1406 610.3594 102.4844 C 609.4219 102.8281 606.9688 103 603 103 L 603 114 C 606.5625 114.0625 608.9688 114.3125 610.2188 114.7188 C 611.4688 115.125 612.4063 116 613.0469 117.3125 C 613.6719 118.625 614 120.7188 614 123.5625 L 614 128.7031 C 614 133.3594 613.75 136.25 613.2656 137.3438 C 612.7813 138.4531 611.7813 139 610.2813 139 C 608.8906 139 608 138.5625 607.5938 137.6563 C 607.1875 136.7656 607 134.6719 607 131.375 L 607 119 L 590 119 L 590 124.875 C 590 131.9531 590.5156 136.9219 591.5469 139.7813 C 592.5781 142.6563 594.75 145.0781 598.0469 147.0469 C 601.3438 149 605.875 150 611.6563 150 C 616.7344 150 620.9063 149.1406 624.1563 147.4531 C 627.4063 145.7656 629.6875 143.2813 631.0156 140.0313 C 632.3281 136.7813 633 132.2031 633 126.2969 C 633 118.3594 632.2813 113.3125 630.8438 111.1563 C 629.4063 109 627.2031 107.4531 624.2656 106.5 C 627.1406 104.9844 629.1406 103.3125 630.2813 101.4688 L 630.2813 101.4688 Z" fill="#000000"/>
		</g>
	</g>
</svg>