<?xml version="1.0" standalone="no"?>
<!-- Generator: Adobe Fireworks 10, Export SVG Extension by Aaron Beall (http://fireworks.abeall.com) . Version: 0.6.1  -->
<!DOCTYPE svg PUBLIC "-//W3C//DTD SVG 1.1//EN" "http://www.w3.org/Graphics/SVG/1.1/DTD/svg11.dtd">
<svg id="36.fw-P%E1gina%201" viewBox="0 0 140 100" style="background-color:#ffffff00" version="1.1"
	xmlns="http://www.w3.org/2000/svg" xmlns:xlink="http://www.w3.org/1999/xlink" xml:space="preserve"
	x="0px" y="0px" width="140px" height="100px"
>
	<g id="Camada%201">
		<image x="10" y="8" width="126" height="21" xlink:href="36.svg.images/image1.png"/>
		<path d="M 52.5 57.5 C 52.5 59.5 39.5 78.5 39.5 80.5 C 39.5 85.5 48.5 87.5 48.5 87.5 C 64.5 87.5 68.5 55.5 79.5 55.5 C 82.5 55.5 84.5 56.5 84.5 58.5 C 84.5 61.5 78.5 66.5 77.5 71.5 C 71.5 85.5 54.5 97.5 42.5 97.5 C 32.5 97.5 27.5 92.5 27.5 84.5 C 27.5 81.5 39.5 54.5 46.5 54.5 C 49.5 54.5 52.5 54.5 52.5 57.5 Z" fill="#000000"/>
		<path d="M 102.5 54.5 C 102.5 58.5 87.5 85.5 82.5 85.5 L 77.5 85.5 C 77.5 84.5 76.5 84.5 76.5 82.5 C 76.5 79.5 89.5 59.5 89.5 57.5 C 89.5 53.5 83.5 51.5 81.5 51.5 C 64.5 51.5 61.5 84.5 48.5 84.5 C 46.5 84.5 44.5 82.5 44.5 79.5 C 44.5 71.5 66.5 46.5 74.5 44.5 C 76.5 43.5 82.5 43.5 85.5 43.5 C 91.5 43.5 102.5 45.5 102.5 54.5 Z" fill="#000000"/>
	</g>
</svg>