<?xml version="1.0" standalone="no"?>
<!-- Generator: Adobe Fireworks 10, Export SVG Extension by Aaron Beall (http://fireworks.abeall.com) . Version: 0.6.1  -->
<!DOCTYPE svg PUBLIC "-//W3C//DTD SVG 1.1//EN" "http://www.w3.org/Graphics/SVG/1.1/DTD/svg11.dtd">
<svg id="39.fw-P%E1gina%201" viewBox="0 0 227 97" style="background-color:#ffffff00" version="1.1"
	xmlns="http://www.w3.org/2000/svg" xmlns:xlink="http://www.w3.org/1999/xlink" xml:space="preserve"
	x="0px" y="0px" width="227px" height="97px"
>
	<g id="Camada%201">
		<path d="M 103.5 20.5 C 103.5 21.5 101.5 23.5 100.5 24.5 C 99.5 24.5 98.5 24.5 97.5 23.5 L 98.5 19.5 L 103.5 20.5 ZM 93.5 21.5 L 86.5 51.5 L 73.5 51.5 C 70.5 49.5 68.5 48.5 68.5 45.5 C 68.5 37.5 74.5 21.5 85.5 28.5 C 86.5 26.5 87.5 23.5 87.5 21.5 L 93.5 21.5 ZM 128.5 28.5 C 128.5 37.5 124.5 51.5 111.5 51.5 C 102.5 51.5 103.5 47.5 103.5 43.5 C 103.5 34.5 105.5 21.5 119.5 21.5 C 125.5 21.5 128.5 22.5 128.5 28.5 ZM 121.5 26.5 C 121.5 27.5 122.5 26.5 122.5 29.5 C 122.5 33.5 117.5 46.5 113.5 46.5 C 110.5 46.5 109.5 45.5 109.5 42.5 C 109.5 40.5 112.5 31.5 115.5 26.5 L 121.5 26.5 ZM 31.5 28.5 L 31.5 31.5 C 28.5 32.5 24.5 30.5 22.5 31.5 C 19.5 32.5 16.5 43.5 16.5 43.5 C 16.5 48.5 25.5 46.5 27.5 46.5 C 26.5 49.5 23.5 51.5 19.5 51.5 C 13.5 51.5 11.5 49.5 11.5 44.5 C 11.5 34.5 14.5 27.5 24.5 27.5 C 27.5 27.5 29.5 28.5 31.5 28.5 ZM 48.5 27.5 C 47.5 29.5 47.5 31.5 48.5 33.5 C 50.5 28.5 55.5 27.5 59.5 27.5 C 64.5 27.5 67.5 28.5 67.5 33.5 C 67.5 35.5 66.5 37.5 66.5 40.5 L 52.5 40.5 C 52.5 41.5 51.5 40.5 51.5 43.5 C 51.5 49.5 61.5 46.5 64.5 46.5 C 64.5 51.5 56.5 51.5 54.5 51.5 C 49.5 51.5 45.5 49.5 45.5 45.5 C 45.5 42.5 47.5 37.5 48.5 33.5 C 47.5 32.5 47.5 32.5 44.5 32.5 C 38.5 32.5 38.5 47.5 37.5 50.5 L 31.5 50.5 C 35.5 43.5 29.5 25.5 44.5 27.5 L 48.5 27.5 ZM 101.5 27.5 C 99.5 34.5 97.5 42.5 96.5 50.5 L 90.5 50.5 C 92.5 43.5 93.5 35.5 95.5 27.5 L 101.5 27.5 ZM 146.5 28.5 C 148.5 29.5 150.5 31.5 150.5 33.5 C 150.5 39.5 143.5 56.5 133.5 50.5 C 132.5 52.5 131.5 55.5 131.5 57.5 L 125.5 57.5 C 127.5 48.5 130.5 38.5 132.5 28.5 L 146.5 28.5 ZM 173.5 33.5 C 173.5 35.5 172.5 37.5 172.5 40.5 L 158.5 40.5 C 158.5 41.5 157.5 41.5 157.5 43.5 C 157.5 48.5 168.5 46.5 170.5 47.5 C 169.5 48.5 169.5 49.5 169.5 50.5 C 166.5 50.5 162.5 51.5 160.5 51.5 C 156.5 51.5 151.5 49.5 151.5 45.5 C 151.5 38.5 154.5 28.5 165.5 28.5 C 170.5 28.5 173.5 28.5 173.5 33.5 ZM 192.5 28.5 C 194.5 29.5 196.5 31.5 196.5 33.5 C 196.5 36.5 193.5 45.5 192.5 50.5 L 187.5 50.5 C 188.5 44.5 189.5 40.5 190.5 33.5 C 189.5 32.5 189.5 32.5 186.5 32.5 C 180.5 32.5 180.5 47.5 179.5 50.5 L 173.5 50.5 C 175.5 43.5 177.5 35.5 178.5 28.5 L 192.5 28.5 ZM 60.5 33.5 L 60.5 36.5 L 54.5 36.5 C 54.5 35.5 56.5 33.5 57.5 32.5 C 58.5 32.5 59.5 33.5 60.5 33.5 ZM 83.5 35.5 C 83.5 37.5 81.5 42.5 80.5 46.5 C 77.5 46.5 76.5 45.5 75.5 45.5 L 75.5 42.5 C 76.5 39.5 76.5 33.5 82.5 32.5 C 83.5 33.5 83.5 32.5 83.5 35.5 ZM 166.5 36.5 L 161.5 37.5 C 162.5 31.5 163.5 32.5 165.5 32.5 L 166.5 36.5 ZM 143.5 36.5 C 142.5 40.5 141.5 43.5 139.5 46.5 L 136.5 46.5 C 136.5 40.5 137.5 37.5 136.5 33.5 L 143.5 33.5 L 143.5 36.5 ZM 202.5 61.5 C 202.5 59.5 201.5 57.5 200.5 55.5 C 201.5 54.5 202.5 54.5 203.5 54.5 C 203.5 57.5 202.5 59.5 202.5 61.5 ZM 216.5 61.5 C 213.5 61.5 209.5 62.5 205.5 63.5 C 208.5 60.5 210.5 57.5 213.5 55.5 C 214.5 56.5 215.5 58.5 216.5 61.5 ZM 156.5 78.5 C 172.5 78.5 187.5 70.5 200.5 66.5 C 200.5 66.5 201.5 65.5 201.5 68.5 C 201.5 77.5 159.5 81.5 159.5 81.5 C 146.5 81.5 123.5 76.5 113.5 63.5 C 128.5 74.5 141.5 78.5 156.5 78.5 ZM 214.5 68.5 C 214.5 69.5 215.5 71.5 212.5 71.5 C 210.5 71.5 209.5 69.5 208.5 68.5 L 214.5 68.5 Z" fill="#000000"/>
	</g>
</svg>